<?xml version="1.0" standalone="no"?>
 <!DOCTYPE svg PUBLIC "-//W3C//DTD SVG 1.1//EN" 
 "http://www.w3.org/Graphics/SVG/1.1/DTD/svg11.dtd"> 
<svg
  xmlns:svg="http://www.w3.org/2000/svg"
  xmlns="http://www.w3.org/2000/svg"
  xmlns:xlink="http://www.w3.org/1999/xlink"
  version="1.1"
  width="29.700220cm" height="21.000720cm" viewBox="0 0 297002200 210007200">
<title>SVG Picture created as miniRGBii-F_Silkscreen.svg date 2022/02/26 19:24:14 </title>
  <desc>Picture generated by PCBNEW </desc>
<g style="fill:#000000; fill-opacity:1.000000;stroke:#000000; stroke-opacity:1.000000;
stroke-linecap:round; stroke-linejoin:round;"
 transform="translate(0 0) scale(1 1)">
</g>
<g style="fill:#000000; fill-opacity:0.0; 
stroke:#000000; stroke-width:0.000000; stroke-opacity:1; 
stroke-linecap:round; stroke-linejoin:round;">
</g>
<g style="fill:#000000; fill-opacity:0.0; 
stroke:#000000; stroke-width:150000.000000; stroke-opacity:1; 
stroke-linecap:round; stroke-linejoin:round;">
<path d="M206000000 65400000
L206800000 65400000
" />
<path d="M206200000 65700000
L206600000 65700000
" />
<path d="M206400000 64600000
L206400000 64900000
" />
<path d="M205800000 65100000
L207000000 65100000
" />
<path d="M197900000 64900000
L199100000 64900000
" />
<path d="M198500000 64300000
L198500000 65500000
" />
<path d="M202900000 62700000
L204500000 62700000
" />
<path d="M187500000 64300000
L187500000 65500000
" />
<path d="M205200000 62700000
L206800000 62700000
" />
<path d="M200600000 58400000
L202200000 58400000
" />
<path d="M200600000 62700000
L202200000 62700000
" />
<path d="M186900000 64900000
L188100000 64900000
" />
<path d="M192400000 64900000
L193600000 64900000
" />
<path d="M193000000 64300000
L193000000 65500000
" />
</g>
<g style="fill:#000000; fill-opacity:0.0; 
stroke:#000000; stroke-width:250000.000000; stroke-opacity:1; 
stroke-linecap:round; stroke-linejoin:round;">
<text x="211800000.000000" y="58400000.000000"
textLength="1220857.000000" font-size="1333333.000000" lengthAdjust="spacingAndGlyphs"
text-anchor="middle" opacity="0">M</text>
<g class="stroked-text"><desc>M</desc>
<path d="M211466666 58352380
L211466666 57352380
L211800000 58066666
L212133333 57352380
L212133333 58352380
" />
</g><text x="208700000.000000" y="63000000.000000"
textLength="2229762.000000" font-size="1333333.000000" lengthAdjust="spacingAndGlyphs"
text-anchor="middle" opacity="0">54</text>
<g class="stroked-text"><desc>54</desc>
<path d="M208461904 61952380
L207985714 61952380
L207938095 62428571
L207985714 62380952
L208080952 62333333
L208319047 62333333
L208414285 62380952
L208461904 62428571
L208509523 62523809
L208509523 62761904
L208461904 62857142
L208414285 62904761
L208319047 62952380
L208080952 62952380
L207985714 62904761
L207938095 62857142
" />
<path d="M209366666 62285714
L209366666 62952380
" />
<path d="M209128571 61904761
L208890476 62619047
L209509523 62619047
" />
</g><text x="208500000.000000" y="60300000.000000"
textLength="3182143.000000" font-size="1333333.000000" lengthAdjust="spacingAndGlyphs"
text-anchor="middle" opacity="0">238</text>
<g class="stroked-text"><desc>238</desc>
<path d="M207261904 59347619
L207309523 59300000
L207404761 59252380
L207642857 59252380
L207738095 59300000
L207785714 59347619
L207833333 59442857
L207833333 59538095
L207785714 59680952
L207214285 60252380
L207833333 60252380
" />
<path d="M208166666 59252380
L208785714 59252380
L208452380 59633333
L208595238 59633333
L208690476 59680952
L208738095 59728571
L208785714 59823809
L208785714 60061904
L208738095 60157142
L208690476 60204761
L208595238 60252380
L208309523 60252380
L208214285 60204761
L208166666 60157142
" />
<path d="M209357142 59680952
L209261904 59633333
L209214285 59585714
L209166666 59490476
L209166666 59442857
L209214285 59347619
L209261904 59300000
L209357142 59252380
L209547619 59252380
L209642857 59300000
L209690476 59347619
L209738095 59442857
L209738095 59490476
L209690476 59585714
L209642857 59633333
L209547619 59680952
L209357142 59680952
L209261904 59728571
L209214285 59776190
L209166666 59871428
L209166666 60061904
L209214285 60157142
L209261904 60204761
L209357142 60252380
L209547619 60252380
L209642857 60204761
L209690476 60157142
L209738095 60061904
L209738095 59871428
L209690476 59776190
L209642857 59728571
L209547619 59680952
" />
</g><text x="206500000.000000" y="58400000.000000"
textLength="2229762.000000" font-size="1333333.000000" lengthAdjust="spacingAndGlyphs"
text-anchor="middle" opacity="0">Pb</text>
<g class="stroked-text"><desc>Pb</desc>
<path d="M205785714 58352380
L205785714 57352380
L206166666 57352380
L206261904 57400000
L206309523 57447619
L206357142 57542857
L206357142 57685714
L206309523 57780952
L206261904 57828571
L206166666 57876190
L205785714 57876190
" />
<path d="M206785714 58352380
L206785714 57352380
" />
<path d="M206785714 57733333
L206880952 57685714
L207071428 57685714
L207166666 57733333
L207214285 57780952
L207261904 57876190
L207261904 58161904
L207214285 58257142
L207166666 58304761
L207071428 58352380
L206880952 58352380
L206785714 58304761
" />
</g><text x="208700000.000000" y="65700000.000000"
textLength="2229762.000000" font-size="1333333.000000" lengthAdjust="spacingAndGlyphs"
text-anchor="middle" opacity="0">59</text>
<g class="stroked-text"><desc>59</desc>
<path d="M208461904 64652380
L207985714 64652380
L207938095 65128571
L207985714 65080952
L208080952 65033333
L208319047 65033333
L208414285 65080952
L208461904 65128571
L208509523 65223809
L208509523 65461904
L208461904 65557142
L208414285 65604761
L208319047 65652380
L208080952 65652380
L207985714 65604761
L207938095 65557142
" />
<path d="M208985714 65652380
L209176190 65652380
L209271428 65604761
L209319047 65557142
L209414285 65414285
L209461904 65223809
L209461904 64842857
L209414285 64747619
L209366666 64700000
L209271428 64652380
L209080952 64652380
L208985714 64700000
L208938095 64747619
L208890476 64842857
L208890476 65080952
L208938095 65176190
L208985714 65223809
L209080952 65271428
L209271428 65271428
L209366666 65223809
L209414285 65176190
L209461904 65080952
" />
</g><text x="208800000.000000" y="68300000.000000"
textLength="2229762.000000" font-size="1333333.000000" lengthAdjust="spacingAndGlyphs"
text-anchor="middle" opacity="0">57</text>
<g class="stroked-text"><desc>57</desc>
<path d="M208561904 67252380
L208085714 67252380
L208038095 67728571
L208085714 67680952
L208180952 67633333
L208419047 67633333
L208514285 67680952
L208561904 67728571
L208609523 67823809
L208609523 68061904
L208561904 68157142
L208514285 68204761
L208419047 68252380
L208180952 68252380
L208085714 68204761
L208038095 68157142
" />
<path d="M208942857 67252380
L209609523 67252380
L209180952 68252380
" />
</g><text x="203700000.000000" y="58400000.000000"
textLength="1182143.000000" font-size="1333333.000000" lengthAdjust="spacingAndGlyphs"
text-anchor="middle" opacity="0">Y</text>
<g class="stroked-text"><desc>Y</desc>
<path d="M203700000 57876190
L203700000 58352380
" />
<path d="M203366666 57352380
L203700000 57876190
L204033333 57352380
" />
</g><text x="209100000.000000" y="58400000.000000"
textLength="1944048.000000" font-size="1333333.000000" lengthAdjust="spacingAndGlyphs"
text-anchor="middle" opacity="0">Pr</text>
<g class="stroked-text"><desc>Pr</desc>
<path d="M208528571 58352380
L208528571 57352380
L208909523 57352380
L209004761 57400000
L209052380 57447619
L209100000 57542857
L209100000 57685714
L209052380 57780952
L209004761 57828571
L208909523 57876190
L208528571 57876190
" />
<path d="M209528571 58352380
L209528571 57685714
" />
<path d="M209528571 57876190
L209576190 57780952
L209623809 57733333
L209719047 57685714
L209814285 57685714
" />
</g></g>
<g style="fill:#000000; fill-opacity:0.0; 
stroke:#000000; stroke-width:150000.000000; stroke-opacity:1; 
stroke-linecap:round; stroke-linejoin:round;">
<g transform="rotate(-90.000000 186100000.000000 63800000.000000)">
<text x="186100000.000000" y="64300000.000000"
textLength="3229762.000000" font-size="1333333.000000" lengthAdjust="spacingAndGlyphs"
text-anchor="middle" opacity="0">C84</text>
</g>
<g class="stroked-text"><desc>C84</desc>
<path d="M186457142 64442857
L186504761 64490476
L186552380 64633333
L186552380 64728571
L186504761 64871428
L186409523 64966666
L186314285 65014285
L186123809 65061904
L185980952 65061904
L185790476 65014285
L185695238 64966666
L185600000 64871428
L185552380 64728571
L185552380 64633333
L185600000 64490476
L185647619 64442857
" />
<path d="M185980952 63871428
L185933333 63966666
L185885714 64014285
L185790476 64061904
L185742857 64061904
L185647619 64014285
L185600000 63966666
L185552380 63871428
L185552380 63680952
L185600000 63585714
L185647619 63538095
L185742857 63490476
L185790476 63490476
L185885714 63538095
L185933333 63585714
L185980952 63680952
L185980952 63871428
L186028571 63966666
L186076190 64014285
L186171428 64061904
L186361904 64061904
L186457142 64014285
L186504761 63966666
L186552380 63871428
L186552380 63680952
L186504761 63585714
L186457142 63538095
L186361904 63490476
L186171428 63490476
L186076190 63538095
L186028571 63585714
L185980952 63680952
" />
<path d="M185885714 62633333
L186552380 62633333
" />
<path d="M185504761 62871428
L186219047 63109523
L186219047 62490476
" />
</g><g transform="rotate(-90.000000 191600000.000000 63800000.000000)">
<text x="191600000.000000" y="64300000.000000"
textLength="3099762.000000" font-size="1333333.000000" lengthAdjust="spacingAndGlyphs"
text-anchor="middle" opacity="0">C69</text>
</g>
<g class="stroked-text"><desc>C69</desc>
<path d="M191957142 64442857
L192004761 64490476
L192052380 64633333
L192052380 64728571
L192004761 64871428
L191909523 64966666
L191814285 65014285
L191623809 65061904
L191480952 65061904
L191290476 65014285
L191195238 64966666
L191100000 64871428
L191052380 64728571
L191052380 64633333
L191100000 64490476
L191147619 64442857
" />
<path d="M191052380 63585714
L191052380 63776190
L191100000 63871428
L191147619 63919047
L191290476 64014285
L191480952 64061904
L191861904 64061904
L191957142 64014285
L192004761 63966666
L192052380 63871428
L192052380 63680952
L192004761 63585714
L191957142 63538095
L191861904 63490476
L191623809 63490476
L191528571 63538095
L191480952 63585714
L191433333 63680952
L191433333 63871428
L191480952 63966666
L191528571 64014285
L191623809 64061904
" />
<path d="M192052380 63014285
L192052380 62823809
L192004761 62728571
L191957142 62680952
L191814285 62585714
L191623809 62538095
L191242857 62538095
L191147619 62585714
L191100000 62633333
L191052380 62728571
L191052380 62919047
L191100000 63014285
L191147619 63061904
L191242857 63109523
L191480952 63109523
L191576190 63061904
L191623809 63014285
L191671428 62919047
L191671428 62728571
L191623809 62633333
L191576190 62585714
L191480952 62538095
" />
</g><g transform="rotate(-90.000000 197100000.000000 63800000.000000)">
<text x="197100000.000000" y="64300000.000000"
textLength="3099762.000000" font-size="1333333.000000" lengthAdjust="spacingAndGlyphs"
text-anchor="middle" opacity="0">C64</text>
</g>
<g class="stroked-text"><desc>C64</desc>
<path d="M197457142 64442857
L197504761 64490476
L197552380 64633333
L197552380 64728571
L197504761 64871428
L197409523 64966666
L197314285 65014285
L197123809 65061904
L196980952 65061904
L196790476 65014285
L196695238 64966666
L196600000 64871428
L196552380 64728571
L196552380 64633333
L196600000 64490476
L196647619 64442857
" />
<path d="M196552380 63585714
L196552380 63776190
L196600000 63871428
L196647619 63919047
L196790476 64014285
L196980952 64061904
L197361904 64061904
L197457142 64014285
L197504761 63966666
L197552380 63871428
L197552380 63680952
L197504761 63585714
L197457142 63538095
L197361904 63490476
L197123809 63490476
L197028571 63538095
L196980952 63585714
L196933333 63680952
L196933333 63871428
L196980952 63966666
L197028571 64014285
L197123809 64061904
" />
<path d="M196885714 62633333
L197552380 62633333
" />
<path d="M196504761 62871428
L197219047 63109523
L197219047 62490476
" />
</g></g>
<g style="fill:#000000; fill-opacity:0.0; 
stroke:#000000; stroke-width:120000.000000; stroke-opacity:1; 
stroke-linecap:round; stroke-linejoin:round;">
<path d="M192671267 58110000
L192328733 58110000
" />
<path d="M192671267 57090000
L192328733 57090000
" />
<path d="M198171267 58110000
L197828733 58110000
" />
<path d="M198171267 57090000
L197828733 57090000
" />
<path d="M187171267 57090000
L186828733 57090000
" />
<path d="M187171267 58110000
L186828733 58110000
" />
<path d="M192328733 56310000
L192671267 56310000
" />
<path d="M192328733 55290000
L192671267 55290000
" />
<path d="M190410000 56528733
L190410000 56871267
" />
<path d="M189390000 56528733
L189390000 56871267
" />
<path d="M197828733 56310000
L198171267 56310000
" />
<path d="M197828733 55290000
L198171267 55290000
" />
<path d="M194890000 56528733
L194890000 56871267
" />
<path d="M195910000 56528733
L195910000 56871267
" />
<path d="M186828733 56310000
L187171267 56310000
" />
<path d="M186828733 55290000
L187171267 55290000
" />
<path d="M184910000 56528733
L184910000 56871267
" />
<path d="M183890000 56528733
L183890000 56871267
" />
<path d="M204550000 58800000
L204550000 61950000
" />
<path d="M202850000 58800000
L202850000 61950000
" />
<path d="M204550000 58800000
L202850000 58800000
" />
<path d="M202250000 58800000
L202250000 61950000
" />
<path d="M200550000 58800000
L200550000 61950000
" />
<path d="M202250000 58800000
L200550000 58800000
" />
<path d="M202250000 54500000
L200550000 54500000
" />
<path d="M200550000 54500000
L200550000 57650000
" />
<path d="M202250000 54500000
L202250000 57650000
" />
<path d="M183840000 60150000
L183840000 68385000
" />
<path d="M183840000 68385000
L188360000 68385000
" />
<path d="M188360000 68385000
L188360000 60150000
" />
<path d="M193860000 68385000
L193860000 60150000
" />
<path d="M189340000 60150000
L189340000 68385000
" />
<path d="M189340000 68385000
L193860000 68385000
" />
<path d="M194840000 68385000
L199360000 68385000
" />
<path d="M199360000 68385000
L199360000 60150000
" />
<path d="M194840000 60150000
L194840000 68385000
" />
<path d="M205150000 58800000
L205150000 61950000
" />
<path d="M206850000 58800000
L205150000 58800000
" />
<path d="M206850000 58800000
L206850000 61950000
" />
<path d="M202354724 65277500
L201845276 65277500
" />
<path d="M202354724 66322500
L201845276 66322500
" />
<path d="M201845276 64422500
L202354724 64422500
" />
<path d="M201845276 63377500
L202354724 63377500
" />
<path d="M202354724 67177500
L201845276 67177500
" />
<path d="M202354724 68222500
L201845276 68222500
" />
<g >
</g>
<g >
</g>
<g >
</g>
<g >
</g>
<g >
</g>
<g >
</g>
<g >
</g>
<g >
</g>
<g >
</g>
<g >
</g>
<g >
</g>
<g >
</g>
<g >
</g>
<g >
</g>
<g >
</g>
<g >
</g>
<g >
</g>
<g >
</g>
<g >
</g>
<g >
</g>
<g >
</g>
<g >
</g>
<g >
</g>
<g >
</g>
<g >
</g>
<g >
</g>
<g >
</g>
<g >
</g>
<g >
</g>
<g >
</g>
<g >
</g>
</g> 
</svg>
