<?xml version="1.0" standalone="no"?>
 <!DOCTYPE svg PUBLIC "-//W3C//DTD SVG 1.1//EN" 
 "http://www.w3.org/Graphics/SVG/1.1/DTD/svg11.dtd"> 
<svg
  xmlns:svg="http://www.w3.org/2000/svg"
  xmlns="http://www.w3.org/2000/svg"
  xmlns:xlink="http://www.w3.org/1999/xlink"
  version="1.1"
  width="29.700220cm" height="21.000720cm" viewBox="0 0 297002200 210007200">
<title>SVG Picture created as miniRGBii-F_Cu.svg date 2022/02/26 19:24:14 </title>
  <desc>Picture generated by PCBNEW </desc>
<g style="fill:#000000; fill-opacity:1.000000;stroke:#000000; stroke-opacity:1.000000;
stroke-linecap:round; stroke-linejoin:round;"
 transform="translate(0 0) scale(1 1)">
</g>
<g style="fill:#000000; fill-opacity:0.0; 
stroke:#000000; stroke-width:0.000000; stroke-opacity:1; 
stroke-linecap:round; stroke-linejoin:round;">
<g >
</g>
<g style="fill:#000000; fill-opacity:0.0; 
stroke:#000000; stroke-width:1.000000; stroke-opacity:1; 
stroke-linecap:round; stroke-linejoin:round;">
</g>
<g style="fill:#000000; fill-opacity:1.0; 
stroke:#000000; stroke-width:1.000000; stroke-opacity:1; 
stroke-linecap:round; stroke-linejoin:round;">
<path style="fill:#000000; fill-opacity:1.0; 
stroke:#000000; stroke-width:1.000000; stroke-opacity:1; 
stroke-linecap:round; stroke-linejoin:round;fill-rule:evenodd;"
d="M 193900000.000000,57837500.000000
193881921.000000,57928387.000000
193830438.000000,58005438.000000
193753387.000000,58056921.000000
193662500.000000,58075000.000000
193087500.000000,58075000.000000
192996613.000000,58056921.000000
192919562.000000,58005438.000000
192868079.000000,57928387.000000
192850000.000000,57837500.000000
192850000.000000,57362500.000000
192868079.000000,57271613.000000
192919562.000000,57194562.000000
192996613.000000,57143079.000000
193087500.000000,57125000.000000
193662500.000000,57125000.000000
193753387.000000,57143079.000000
193830438.000000,57194562.000000
193881921.000000,57271613.000000
193900000.000000,57362500.000000
Z" /> 
<path style="fill:#000000; fill-opacity:1.0; 
stroke:#000000; stroke-width:1.000000; stroke-opacity:1; 
stroke-linecap:round; stroke-linejoin:round;fill-rule:evenodd;"
d="M 192150000.000000,57837500.000000
192131921.000000,57928387.000000
192080438.000000,58005438.000000
192003387.000000,58056921.000000
191912500.000000,58075000.000000
191337500.000000,58075000.000000
191246613.000000,58056921.000000
191169562.000000,58005438.000000
191118079.000000,57928387.000000
191100000.000000,57837500.000000
191100000.000000,57362500.000000
191118079.000000,57271613.000000
191169562.000000,57194562.000000
191246613.000000,57143079.000000
191337500.000000,57125000.000000
191912500.000000,57125000.000000
192003387.000000,57143079.000000
192080438.000000,57194562.000000
192131921.000000,57271613.000000
192150000.000000,57362500.000000
Z" /> 
</g>
<g >
</g>
<g style="fill:#000000; fill-opacity:1.0; 
stroke:#000000; stroke-width:1.000000; stroke-opacity:1; 
stroke-linecap:round; stroke-linejoin:round;">
<path style="fill:#000000; fill-opacity:1.0; 
stroke:#000000; stroke-width:1.000000; stroke-opacity:1; 
stroke-linecap:round; stroke-linejoin:round;fill-rule:evenodd;"
d="M 199400000.000000,57837500.000000
199381921.000000,57928387.000000
199330438.000000,58005438.000000
199253387.000000,58056921.000000
199162500.000000,58075000.000000
198587500.000000,58075000.000000
198496613.000000,58056921.000000
198419562.000000,58005438.000000
198368079.000000,57928387.000000
198350000.000000,57837500.000000
198350000.000000,57362500.000000
198368079.000000,57271613.000000
198419562.000000,57194562.000000
198496613.000000,57143079.000000
198587500.000000,57125000.000000
199162500.000000,57125000.000000
199253387.000000,57143079.000000
199330438.000000,57194562.000000
199381921.000000,57271613.000000
199400000.000000,57362500.000000
Z" /> 
<path style="fill:#000000; fill-opacity:1.0; 
stroke:#000000; stroke-width:1.000000; stroke-opacity:1; 
stroke-linecap:round; stroke-linejoin:round;fill-rule:evenodd;"
d="M 197650000.000000,57837500.000000
197631921.000000,57928387.000000
197580438.000000,58005438.000000
197503387.000000,58056921.000000
197412500.000000,58075000.000000
196837500.000000,58075000.000000
196746613.000000,58056921.000000
196669562.000000,58005438.000000
196618079.000000,57928387.000000
196600000.000000,57837500.000000
196600000.000000,57362500.000000
196618079.000000,57271613.000000
196669562.000000,57194562.000000
196746613.000000,57143079.000000
196837500.000000,57125000.000000
197412500.000000,57125000.000000
197503387.000000,57143079.000000
197580438.000000,57194562.000000
197631921.000000,57271613.000000
197650000.000000,57362500.000000
Z" /> 
</g>
<g >
</g>
<g style="fill:#000000; fill-opacity:1.0; 
stroke:#000000; stroke-width:1.000000; stroke-opacity:1; 
stroke-linecap:round; stroke-linejoin:round;">
<path style="fill:#000000; fill-opacity:1.0; 
stroke:#000000; stroke-width:1.000000; stroke-opacity:1; 
stroke-linecap:round; stroke-linejoin:round;fill-rule:evenodd;"
d="M 188400000.000000,57837500.000000
188381921.000000,57928387.000000
188330438.000000,58005438.000000
188253387.000000,58056921.000000
188162500.000000,58075000.000000
187587500.000000,58075000.000000
187496613.000000,58056921.000000
187419562.000000,58005438.000000
187368079.000000,57928387.000000
187350000.000000,57837500.000000
187350000.000000,57362500.000000
187368079.000000,57271613.000000
187419562.000000,57194562.000000
187496613.000000,57143079.000000
187587500.000000,57125000.000000
188162500.000000,57125000.000000
188253387.000000,57143079.000000
188330438.000000,57194562.000000
188381921.000000,57271613.000000
188400000.000000,57362500.000000
Z" /> 
<path style="fill:#000000; fill-opacity:1.0; 
stroke:#000000; stroke-width:1.000000; stroke-opacity:1; 
stroke-linecap:round; stroke-linejoin:round;fill-rule:evenodd;"
d="M 186650000.000000,57837500.000000
186631921.000000,57928387.000000
186580438.000000,58005438.000000
186503387.000000,58056921.000000
186412500.000000,58075000.000000
185837500.000000,58075000.000000
185746613.000000,58056921.000000
185669562.000000,58005438.000000
185618079.000000,57928387.000000
185600000.000000,57837500.000000
185600000.000000,57362500.000000
185618079.000000,57271613.000000
185669562.000000,57194562.000000
185746613.000000,57143079.000000
185837500.000000,57125000.000000
186412500.000000,57125000.000000
186503387.000000,57143079.000000
186580438.000000,57194562.000000
186631921.000000,57271613.000000
186650000.000000,57362500.000000
Z" /> 
</g>
<g >
</g>
<g style="fill:#000000; fill-opacity:1.0; 
stroke:#000000; stroke-width:1.000000; stroke-opacity:1; 
stroke-linecap:round; stroke-linejoin:round;">
<path style="fill:#000000; fill-opacity:1.0; 
stroke:#000000; stroke-width:1.000000; stroke-opacity:1; 
stroke-linecap:round; stroke-linejoin:round;fill-rule:evenodd;"
d="M 191100000.000000,55562500.000000
191118079.000000,55471613.000000
191169562.000000,55394562.000000
191246613.000000,55343079.000000
191337500.000000,55325000.000000
191912500.000000,55325000.000000
192003387.000000,55343079.000000
192080438.000000,55394562.000000
192131921.000000,55471613.000000
192150000.000000,55562500.000000
192150000.000000,56037500.000000
192131921.000000,56128387.000000
192080438.000000,56205438.000000
192003387.000000,56256921.000000
191912500.000000,56275000.000000
191337500.000000,56275000.000000
191246613.000000,56256921.000000
191169562.000000,56205438.000000
191118079.000000,56128387.000000
191100000.000000,56037500.000000
Z" /> 
<path style="fill:#000000; fill-opacity:1.0; 
stroke:#000000; stroke-width:1.000000; stroke-opacity:1; 
stroke-linecap:round; stroke-linejoin:round;fill-rule:evenodd;"
d="M 192850000.000000,55562500.000000
192868079.000000,55471613.000000
192919562.000000,55394562.000000
192996613.000000,55343079.000000
193087500.000000,55325000.000000
193662500.000000,55325000.000000
193753387.000000,55343079.000000
193830438.000000,55394562.000000
193881921.000000,55471613.000000
193900000.000000,55562500.000000
193900000.000000,56037500.000000
193881921.000000,56128387.000000
193830438.000000,56205438.000000
193753387.000000,56256921.000000
193662500.000000,56275000.000000
193087500.000000,56275000.000000
192996613.000000,56256921.000000
192919562.000000,56205438.000000
192868079.000000,56128387.000000
192850000.000000,56037500.000000
Z" /> 
</g>
<g >
</g>
<g style="fill:#000000; fill-opacity:1.0; 
stroke:#000000; stroke-width:1.000000; stroke-opacity:1; 
stroke-linecap:round; stroke-linejoin:round;">
<path style="fill:#000000; fill-opacity:1.0; 
stroke:#000000; stroke-width:1.000000; stroke-opacity:1; 
stroke-linecap:round; stroke-linejoin:round;fill-rule:evenodd;"
d="M 190137500.000000,55300000.000000
190228387.000000,55318079.000000
190305438.000000,55369562.000000
190356921.000000,55446613.000000
190375000.000000,55537500.000000
190375000.000000,56112500.000000
190356921.000000,56203387.000000
190305438.000000,56280438.000000
190228387.000000,56331921.000000
190137500.000000,56350000.000000
189662500.000000,56350000.000000
189571613.000000,56331921.000000
189494562.000000,56280438.000000
189443079.000000,56203387.000000
189425000.000000,56112500.000000
189425000.000000,55537500.000000
189443079.000000,55446613.000000
189494562.000000,55369562.000000
189571613.000000,55318079.000000
189662500.000000,55300000.000000
Z" /> 
<path style="fill:#000000; fill-opacity:1.0; 
stroke:#000000; stroke-width:1.000000; stroke-opacity:1; 
stroke-linecap:round; stroke-linejoin:round;fill-rule:evenodd;"
d="M 190137500.000000,57050000.000000
190228387.000000,57068079.000000
190305438.000000,57119562.000000
190356921.000000,57196613.000000
190375000.000000,57287500.000000
190375000.000000,57862500.000000
190356921.000000,57953387.000000
190305438.000000,58030438.000000
190228387.000000,58081921.000000
190137500.000000,58100000.000000
189662500.000000,58100000.000000
189571613.000000,58081921.000000
189494562.000000,58030438.000000
189443079.000000,57953387.000000
189425000.000000,57862500.000000
189425000.000000,57287500.000000
189443079.000000,57196613.000000
189494562.000000,57119562.000000
189571613.000000,57068079.000000
189662500.000000,57050000.000000
Z" /> 
</g>
<g >
</g>
<g style="fill:#000000; fill-opacity:1.0; 
stroke:#000000; stroke-width:1.000000; stroke-opacity:1; 
stroke-linecap:round; stroke-linejoin:round;">
<path style="fill:#000000; fill-opacity:1.0; 
stroke:#000000; stroke-width:1.000000; stroke-opacity:1; 
stroke-linecap:round; stroke-linejoin:round;fill-rule:evenodd;"
d="M 196600000.000000,55562500.000000
196618079.000000,55471613.000000
196669562.000000,55394562.000000
196746613.000000,55343079.000000
196837500.000000,55325000.000000
197412500.000000,55325000.000000
197503387.000000,55343079.000000
197580438.000000,55394562.000000
197631921.000000,55471613.000000
197650000.000000,55562500.000000
197650000.000000,56037500.000000
197631921.000000,56128387.000000
197580438.000000,56205438.000000
197503387.000000,56256921.000000
197412500.000000,56275000.000000
196837500.000000,56275000.000000
196746613.000000,56256921.000000
196669562.000000,56205438.000000
196618079.000000,56128387.000000
196600000.000000,56037500.000000
Z" /> 
<path style="fill:#000000; fill-opacity:1.0; 
stroke:#000000; stroke-width:1.000000; stroke-opacity:1; 
stroke-linecap:round; stroke-linejoin:round;fill-rule:evenodd;"
d="M 198350000.000000,55562500.000000
198368079.000000,55471613.000000
198419562.000000,55394562.000000
198496613.000000,55343079.000000
198587500.000000,55325000.000000
199162500.000000,55325000.000000
199253387.000000,55343079.000000
199330438.000000,55394562.000000
199381921.000000,55471613.000000
199400000.000000,55562500.000000
199400000.000000,56037500.000000
199381921.000000,56128387.000000
199330438.000000,56205438.000000
199253387.000000,56256921.000000
199162500.000000,56275000.000000
198587500.000000,56275000.000000
198496613.000000,56256921.000000
198419562.000000,56205438.000000
198368079.000000,56128387.000000
198350000.000000,56037500.000000
Z" /> 
</g>
<g >
</g>
<g style="fill:#000000; fill-opacity:1.0; 
stroke:#000000; stroke-width:1.000000; stroke-opacity:1; 
stroke-linecap:round; stroke-linejoin:round;">
<path style="fill:#000000; fill-opacity:1.0; 
stroke:#000000; stroke-width:1.000000; stroke-opacity:1; 
stroke-linecap:round; stroke-linejoin:round;fill-rule:evenodd;"
d="M 195637500.000000,55300000.000000
195728387.000000,55318079.000000
195805438.000000,55369562.000000
195856921.000000,55446613.000000
195875000.000000,55537500.000000
195875000.000000,56112500.000000
195856921.000000,56203387.000000
195805438.000000,56280438.000000
195728387.000000,56331921.000000
195637500.000000,56350000.000000
195162500.000000,56350000.000000
195071613.000000,56331921.000000
194994562.000000,56280438.000000
194943079.000000,56203387.000000
194925000.000000,56112500.000000
194925000.000000,55537500.000000
194943079.000000,55446613.000000
194994562.000000,55369562.000000
195071613.000000,55318079.000000
195162500.000000,55300000.000000
Z" /> 
<path style="fill:#000000; fill-opacity:1.0; 
stroke:#000000; stroke-width:1.000000; stroke-opacity:1; 
stroke-linecap:round; stroke-linejoin:round;fill-rule:evenodd;"
d="M 195637500.000000,57050000.000000
195728387.000000,57068079.000000
195805438.000000,57119562.000000
195856921.000000,57196613.000000
195875000.000000,57287500.000000
195875000.000000,57862500.000000
195856921.000000,57953387.000000
195805438.000000,58030438.000000
195728387.000000,58081921.000000
195637500.000000,58100000.000000
195162500.000000,58100000.000000
195071613.000000,58081921.000000
194994562.000000,58030438.000000
194943079.000000,57953387.000000
194925000.000000,57862500.000000
194925000.000000,57287500.000000
194943079.000000,57196613.000000
194994562.000000,57119562.000000
195071613.000000,57068079.000000
195162500.000000,57050000.000000
Z" /> 
</g>
<g >
</g>
<g style="fill:#000000; fill-opacity:1.0; 
stroke:#000000; stroke-width:1.000000; stroke-opacity:1; 
stroke-linecap:round; stroke-linejoin:round;">
<path style="fill:#000000; fill-opacity:1.0; 
stroke:#000000; stroke-width:1.000000; stroke-opacity:1; 
stroke-linecap:round; stroke-linejoin:round;fill-rule:evenodd;"
d="M 185600000.000000,55562500.000000
185618079.000000,55471613.000000
185669562.000000,55394562.000000
185746613.000000,55343079.000000
185837500.000000,55325000.000000
186412500.000000,55325000.000000
186503387.000000,55343079.000000
186580438.000000,55394562.000000
186631921.000000,55471613.000000
186650000.000000,55562500.000000
186650000.000000,56037500.000000
186631921.000000,56128387.000000
186580438.000000,56205438.000000
186503387.000000,56256921.000000
186412500.000000,56275000.000000
185837500.000000,56275000.000000
185746613.000000,56256921.000000
185669562.000000,56205438.000000
185618079.000000,56128387.000000
185600000.000000,56037500.000000
Z" /> 
<path style="fill:#000000; fill-opacity:1.0; 
stroke:#000000; stroke-width:1.000000; stroke-opacity:1; 
stroke-linecap:round; stroke-linejoin:round;fill-rule:evenodd;"
d="M 187350000.000000,55562500.000000
187368079.000000,55471613.000000
187419562.000000,55394562.000000
187496613.000000,55343079.000000
187587500.000000,55325000.000000
188162500.000000,55325000.000000
188253387.000000,55343079.000000
188330438.000000,55394562.000000
188381921.000000,55471613.000000
188400000.000000,55562500.000000
188400000.000000,56037500.000000
188381921.000000,56128387.000000
188330438.000000,56205438.000000
188253387.000000,56256921.000000
188162500.000000,56275000.000000
187587500.000000,56275000.000000
187496613.000000,56256921.000000
187419562.000000,56205438.000000
187368079.000000,56128387.000000
187350000.000000,56037500.000000
Z" /> 
</g>
<g >
</g>
<g style="fill:#000000; fill-opacity:1.0; 
stroke:#000000; stroke-width:1.000000; stroke-opacity:1; 
stroke-linecap:round; stroke-linejoin:round;">
<path style="fill:#000000; fill-opacity:1.0; 
stroke:#000000; stroke-width:1.000000; stroke-opacity:1; 
stroke-linecap:round; stroke-linejoin:round;fill-rule:evenodd;"
d="M 184637500.000000,55300000.000000
184728387.000000,55318079.000000
184805438.000000,55369562.000000
184856921.000000,55446613.000000
184875000.000000,55537500.000000
184875000.000000,56112500.000000
184856921.000000,56203387.000000
184805438.000000,56280438.000000
184728387.000000,56331921.000000
184637500.000000,56350000.000000
184162500.000000,56350000.000000
184071613.000000,56331921.000000
183994562.000000,56280438.000000
183943079.000000,56203387.000000
183925000.000000,56112500.000000
183925000.000000,55537500.000000
183943079.000000,55446613.000000
183994562.000000,55369562.000000
184071613.000000,55318079.000000
184162500.000000,55300000.000000
Z" /> 
<path style="fill:#000000; fill-opacity:1.0; 
stroke:#000000; stroke-width:1.000000; stroke-opacity:1; 
stroke-linecap:round; stroke-linejoin:round;fill-rule:evenodd;"
d="M 184637500.000000,57050000.000000
184728387.000000,57068079.000000
184805438.000000,57119562.000000
184856921.000000,57196613.000000
184875000.000000,57287500.000000
184875000.000000,57862500.000000
184856921.000000,57953387.000000
184805438.000000,58030438.000000
184728387.000000,58081921.000000
184637500.000000,58100000.000000
184162500.000000,58100000.000000
184071613.000000,58081921.000000
183994562.000000,58030438.000000
183943079.000000,57953387.000000
183925000.000000,57862500.000000
183925000.000000,57287500.000000
183943079.000000,57196613.000000
183994562.000000,57119562.000000
184071613.000000,57068079.000000
184162500.000000,57050000.000000
Z" /> 
</g>
<g >
</g>
<g style="fill:#000000; fill-opacity:1.0; 
stroke:#000000; stroke-width:1.000000; stroke-opacity:1; 
stroke-linecap:round; stroke-linejoin:round;">
<path style="fill:#000000; fill-opacity:1.0; 
stroke:#000000; stroke-width:1.000000; stroke-opacity:1; 
stroke-linecap:round; stroke-linejoin:round;fill-rule:evenodd;"
d="M 203200001.000000,58950001.000000
204199999.000000,58950001.000000
204199999.000000,59949999.000000
203200001.000000,59949999.000000
Z" /> 
<path style="fill:#000000; fill-opacity:1.0; 
stroke:#000000; stroke-width:1.000000; stroke-opacity:1; 
stroke-linecap:round; stroke-linejoin:round;fill-rule:evenodd;"
d="M 203200001.000000,61450001.000000
204199999.000000,61450001.000000
204199999.000000,62449999.000000
203200001.000000,62449999.000000
Z" /> 
</g>
<g >
</g>
<g style="fill:#000000; fill-opacity:1.0; 
stroke:#000000; stroke-width:1.000000; stroke-opacity:1; 
stroke-linecap:round; stroke-linejoin:round;">
<path style="fill:#000000; fill-opacity:1.0; 
stroke:#000000; stroke-width:1.000000; stroke-opacity:1; 
stroke-linecap:round; stroke-linejoin:round;fill-rule:evenodd;"
d="M 200900001.000000,58950001.000000
201899999.000000,58950001.000000
201899999.000000,59949999.000000
200900001.000000,59949999.000000
Z" /> 
<path style="fill:#000000; fill-opacity:1.0; 
stroke:#000000; stroke-width:1.000000; stroke-opacity:1; 
stroke-linecap:round; stroke-linejoin:round;fill-rule:evenodd;"
d="M 200900001.000000,61450001.000000
201899999.000000,61450001.000000
201899999.000000,62449999.000000
200900001.000000,62449999.000000
Z" /> 
</g>
<g >
</g>
<g style="fill:#000000; fill-opacity:1.0; 
stroke:#000000; stroke-width:1.000000; stroke-opacity:1; 
stroke-linecap:round; stroke-linejoin:round;">
<path style="fill:#000000; fill-opacity:1.0; 
stroke:#000000; stroke-width:1.000000; stroke-opacity:1; 
stroke-linecap:round; stroke-linejoin:round;fill-rule:evenodd;"
d="M 200900001.000000,54650001.000000
201899999.000000,54650001.000000
201899999.000000,55649999.000000
200900001.000000,55649999.000000
Z" /> 
<path style="fill:#000000; fill-opacity:1.0; 
stroke:#000000; stroke-width:1.000000; stroke-opacity:1; 
stroke-linecap:round; stroke-linejoin:round;fill-rule:evenodd;"
d="M 200900001.000000,57150001.000000
201899999.000000,57150001.000000
201899999.000000,58149999.000000
200900001.000000,58149999.000000
Z" /> 
</g>
<g >
</g>
<g style="fill:#000000; fill-opacity:1.0; 
stroke:#000000; stroke-width:1.000000; stroke-opacity:1; 
stroke-linecap:round; stroke-linejoin:round;">
<path style="fill:#000000; fill-opacity:1.0; 
stroke:#000000; stroke-width:1.000000; stroke-opacity:1; 
stroke-linecap:round; stroke-linejoin:round;fill-rule:evenodd;"
d="M 185075000.000000,68125000.000000
184979329.000000,68105970.000000
184898223.000000,68051777.000000
184844030.000000,67970671.000000
184825000.000000,67875000.000000
184825000.000000,66125000.000000
184844030.000000,66029329.000000
184898223.000000,65948223.000000
184979329.000000,65894030.000000
185075000.000000,65875000.000000
187125000.000000,65875000.000000
187220671.000000,65894030.000000
187301777.000000,65948223.000000
187355970.000000,66029329.000000
187375000.000000,66125000.000000
187375000.000000,67875000.000000
187355970.000000,67970671.000000
187301777.000000,68051777.000000
187220671.000000,68105970.000000
187125000.000000,68125000.000000
Z" /> 
<path style="fill:#000000; fill-opacity:1.0; 
stroke:#000000; stroke-width:1.000000; stroke-opacity:1; 
stroke-linecap:round; stroke-linejoin:round;fill-rule:evenodd;"
d="M 185075000.000000,61725000.000000
184979329.000000,61705970.000000
184898223.000000,61651777.000000
184844030.000000,61570671.000000
184825000.000000,61475000.000000
184825000.000000,59725000.000000
184844030.000000,59629329.000000
184898223.000000,59548223.000000
184979329.000000,59494030.000000
185075000.000000,59475000.000000
187125000.000000,59475000.000000
187220671.000000,59494030.000000
187301777.000000,59548223.000000
187355970.000000,59629329.000000
187375000.000000,59725000.000000
187375000.000000,61475000.000000
187355970.000000,61570671.000000
187301777.000000,61651777.000000
187220671.000000,61705970.000000
187125000.000000,61725000.000000
Z" /> 
</g>
<g >
</g>
<g style="fill:#000000; fill-opacity:1.0; 
stroke:#000000; stroke-width:1.000000; stroke-opacity:1; 
stroke-linecap:round; stroke-linejoin:round;">
<path style="fill:#000000; fill-opacity:1.0; 
stroke:#000000; stroke-width:1.000000; stroke-opacity:1; 
stroke-linecap:round; stroke-linejoin:round;fill-rule:evenodd;"
d="M 190575000.000000,68125000.000000
190479329.000000,68105970.000000
190398223.000000,68051777.000000
190344030.000000,67970671.000000
190325000.000000,67875000.000000
190325000.000000,66125000.000000
190344030.000000,66029329.000000
190398223.000000,65948223.000000
190479329.000000,65894030.000000
190575000.000000,65875000.000000
192625000.000000,65875000.000000
192720671.000000,65894030.000000
192801777.000000,65948223.000000
192855970.000000,66029329.000000
192875000.000000,66125000.000000
192875000.000000,67875000.000000
192855970.000000,67970671.000000
192801777.000000,68051777.000000
192720671.000000,68105970.000000
192625000.000000,68125000.000000
Z" /> 
<path style="fill:#000000; fill-opacity:1.0; 
stroke:#000000; stroke-width:1.000000; stroke-opacity:1; 
stroke-linecap:round; stroke-linejoin:round;fill-rule:evenodd;"
d="M 190575000.000000,61725000.000000
190479329.000000,61705970.000000
190398223.000000,61651777.000000
190344030.000000,61570671.000000
190325000.000000,61475000.000000
190325000.000000,59725000.000000
190344030.000000,59629329.000000
190398223.000000,59548223.000000
190479329.000000,59494030.000000
190575000.000000,59475000.000000
192625000.000000,59475000.000000
192720671.000000,59494030.000000
192801777.000000,59548223.000000
192855970.000000,59629329.000000
192875000.000000,59725000.000000
192875000.000000,61475000.000000
192855970.000000,61570671.000000
192801777.000000,61651777.000000
192720671.000000,61705970.000000
192625000.000000,61725000.000000
Z" /> 
</g>
<g >
</g>
<g style="fill:#000000; fill-opacity:1.0; 
stroke:#000000; stroke-width:1.000000; stroke-opacity:1; 
stroke-linecap:round; stroke-linejoin:round;">
<path style="fill:#000000; fill-opacity:1.0; 
stroke:#000000; stroke-width:1.000000; stroke-opacity:1; 
stroke-linecap:round; stroke-linejoin:round;fill-rule:evenodd;"
d="M 196075000.000000,68125000.000000
195979329.000000,68105970.000000
195898223.000000,68051777.000000
195844030.000000,67970671.000000
195825000.000000,67875000.000000
195825000.000000,66125000.000000
195844030.000000,66029329.000000
195898223.000000,65948223.000000
195979329.000000,65894030.000000
196075000.000000,65875000.000000
198125000.000000,65875000.000000
198220671.000000,65894030.000000
198301777.000000,65948223.000000
198355970.000000,66029329.000000
198375000.000000,66125000.000000
198375000.000000,67875000.000000
198355970.000000,67970671.000000
198301777.000000,68051777.000000
198220671.000000,68105970.000000
198125000.000000,68125000.000000
Z" /> 
<path style="fill:#000000; fill-opacity:1.0; 
stroke:#000000; stroke-width:1.000000; stroke-opacity:1; 
stroke-linecap:round; stroke-linejoin:round;fill-rule:evenodd;"
d="M 196075000.000000,61725000.000000
195979329.000000,61705970.000000
195898223.000000,61651777.000000
195844030.000000,61570671.000000
195825000.000000,61475000.000000
195825000.000000,59725000.000000
195844030.000000,59629329.000000
195898223.000000,59548223.000000
195979329.000000,59494030.000000
196075000.000000,59475000.000000
198125000.000000,59475000.000000
198220671.000000,59494030.000000
198301777.000000,59548223.000000
198355970.000000,59629329.000000
198375000.000000,59725000.000000
198375000.000000,61475000.000000
198355970.000000,61570671.000000
198301777.000000,61651777.000000
198220671.000000,61705970.000000
198125000.000000,61725000.000000
Z" /> 
</g>
<g >
</g>
<g style="fill:#000000; fill-opacity:1.0; 
stroke:#000000; stroke-width:1.000000; stroke-opacity:1; 
stroke-linecap:round; stroke-linejoin:round;">
<path style="fill:#000000; fill-opacity:1.0; 
stroke:#000000; stroke-width:1.000000; stroke-opacity:1; 
stroke-linecap:round; stroke-linejoin:round;fill-rule:evenodd;"
d="M 205500001.000000,58950001.000000
206499999.000000,58950001.000000
206499999.000000,59949999.000000
205500001.000000,59949999.000000
Z" /> 
<path style="fill:#000000; fill-opacity:1.0; 
stroke:#000000; stroke-width:1.000000; stroke-opacity:1; 
stroke-linecap:round; stroke-linejoin:round;fill-rule:evenodd;"
d="M 205500001.000000,61450001.000000
206499999.000000,61450001.000000
206499999.000000,62449999.000000
205500001.000000,62449999.000000
Z" /> 
</g>
<g >
</g>
<g style="fill:#000000; fill-opacity:1.0; 
stroke:#000000; stroke-width:1.000000; stroke-opacity:1; 
stroke-linecap:round; stroke-linejoin:round;">
<path style="fill:#000000; fill-opacity:1.0; 
stroke:#000000; stroke-width:1.000000; stroke-opacity:1; 
stroke-linecap:round; stroke-linejoin:round;fill-rule:evenodd;"
d="M 211050000.000000,54825000.000000
211065629.000000,54717867.000000
211119707.000000,54607236.000000
211206704.000000,54520087.000000
211317240.000000,54465817.000000
211425000.000000,54450000.000000
212175000.000000,54450000.000000
212282133.000000,54465629.000000
212392764.000000,54519707.000000
212479913.000000,54606704.000000
212534183.000000,54717240.000000
212550000.000000,54825000.000000
212550000.000000,56575000.000000
212534371.000000,56682133.000000
212480293.000000,56792764.000000
212393296.000000,56879913.000000
212282760.000000,56934183.000000
212175000.000000,56950000.000000
211425000.000000,56950000.000000
211317867.000000,56934371.000000
211207236.000000,56880293.000000
211120087.000000,56793296.000000
211065817.000000,56682760.000000
211050000.000000,56575000.000000
Z" /> 
</g>
<g >
</g>
<g style="fill:#000000; fill-opacity:1.0; 
stroke:#000000; stroke-width:1.000000; stroke-opacity:1; 
stroke-linecap:round; stroke-linejoin:round;">
<path style="fill:#000000; fill-opacity:1.0; 
stroke:#000000; stroke-width:1.000000; stroke-opacity:1; 
stroke-linecap:round; stroke-linejoin:round;fill-rule:evenodd;"
d="M 210425000.000000,63150000.000000
210317867.000000,63134371.000000
210207236.000000,63080293.000000
210120087.000000,62993296.000000
210065817.000000,62882760.000000
210050000.000000,62775000.000000
210050000.000000,62025000.000000
210065629.000000,61917867.000000
210119707.000000,61807236.000000
210206704.000000,61720087.000000
210317240.000000,61665817.000000
210425000.000000,61650000.000000
212175000.000000,61650000.000000
212282133.000000,61665629.000000
212392764.000000,61719707.000000
212479913.000000,61806704.000000
212534183.000000,61917240.000000
212550000.000000,62025000.000000
212550000.000000,62775000.000000
212534371.000000,62882133.000000
212480293.000000,62992764.000000
212393296.000000,63079913.000000
212282760.000000,63134183.000000
212175000.000000,63150000.000000
Z" /> 
</g>
<g >
</g>
<g style="fill:#000000; fill-opacity:1.0; 
stroke:#000000; stroke-width:1.000000; stroke-opacity:1; 
stroke-linecap:round; stroke-linejoin:round;">
<path style="fill:#000000; fill-opacity:1.0; 
stroke:#000000; stroke-width:1.000000; stroke-opacity:1; 
stroke-linecap:round; stroke-linejoin:round;fill-rule:evenodd;"
d="M 210425000.000000,68550000.000000
210317867.000000,68534371.000000
210207236.000000,68480293.000000
210120087.000000,68393296.000000
210065817.000000,68282760.000000
210050000.000000,68175000.000000
210050000.000000,67425000.000000
210065629.000000,67317867.000000
210119707.000000,67207236.000000
210206704.000000,67120087.000000
210317240.000000,67065817.000000
210425000.000000,67050000.000000
212175000.000000,67050000.000000
212282133.000000,67065629.000000
212392764.000000,67119707.000000
212479913.000000,67206704.000000
212534183.000000,67317240.000000
212550000.000000,67425000.000000
212550000.000000,68175000.000000
212534371.000000,68282133.000000
212480293.000000,68392764.000000
212393296.000000,68479913.000000
212282760.000000,68534183.000000
212175000.000000,68550000.000000
Z" /> 
</g>
<g >
</g>
<g style="fill:#000000; fill-opacity:1.0; 
stroke:#000000; stroke-width:1.000000; stroke-opacity:1; 
stroke-linecap:round; stroke-linejoin:round;">
<path style="fill:#000000; fill-opacity:1.0; 
stroke:#000000; stroke-width:1.000000; stroke-opacity:1; 
stroke-linecap:round; stroke-linejoin:round;fill-rule:evenodd;"
d="M 210425000.000000,65850000.000000
210317867.000000,65834371.000000
210207236.000000,65780293.000000
210120087.000000,65693296.000000
210065817.000000,65582760.000000
210050000.000000,65475000.000000
210050000.000000,64725000.000000
210065629.000000,64617867.000000
210119707.000000,64507236.000000
210206704.000000,64420087.000000
210317240.000000,64365817.000000
210425000.000000,64350000.000000
212175000.000000,64350000.000000
212282133.000000,64365629.000000
212392764.000000,64419707.000000
212479913.000000,64506704.000000
212534183.000000,64617240.000000
212550000.000000,64725000.000000
212550000.000000,65475000.000000
212534371.000000,65582133.000000
212480293.000000,65692764.000000
212393296.000000,65779913.000000
212282760.000000,65834183.000000
212175000.000000,65850000.000000
Z" /> 
</g>
<g >
</g>
<g style="fill:#000000; fill-opacity:1.0; 
stroke:#000000; stroke-width:1.000000; stroke-opacity:1; 
stroke-linecap:round; stroke-linejoin:round;">
<path style="fill:#000000; fill-opacity:1.0; 
stroke:#000000; stroke-width:1.000000; stroke-opacity:1; 
stroke-linecap:round; stroke-linejoin:round;fill-rule:evenodd;"
d="M 210425000.000000,60450000.000000
210317867.000000,60434371.000000
210207236.000000,60380293.000000
210120087.000000,60293296.000000
210065817.000000,60182760.000000
210050000.000000,60075000.000000
210050000.000000,59325000.000000
210065629.000000,59217867.000000
210119707.000000,59107236.000000
210206704.000000,59020087.000000
210317240.000000,58965817.000000
210425000.000000,58950000.000000
212175000.000000,58950000.000000
212282133.000000,58965629.000000
212392764.000000,59019707.000000
212479913.000000,59106704.000000
212534183.000000,59217240.000000
212550000.000000,59325000.000000
212550000.000000,60075000.000000
212534371.000000,60182133.000000
212480293.000000,60292764.000000
212393296.000000,60379913.000000
212282760.000000,60434183.000000
212175000.000000,60450000.000000
Z" /> 
</g>
<g >
</g>
<g style="fill:#000000; fill-opacity:1.0; 
stroke:#000000; stroke-width:1.000000; stroke-opacity:1; 
stroke-linecap:round; stroke-linejoin:round;">
<path style="fill:#000000; fill-opacity:1.0; 
stroke:#000000; stroke-width:1.000000; stroke-opacity:1; 
stroke-linecap:round; stroke-linejoin:round;fill-rule:evenodd;"
d="M 208350000.000000,54825000.000000
208365629.000000,54717867.000000
208419707.000000,54607236.000000
208506704.000000,54520087.000000
208617240.000000,54465817.000000
208725000.000000,54450000.000000
209475000.000000,54450000.000000
209582133.000000,54465629.000000
209692764.000000,54519707.000000
209779913.000000,54606704.000000
209834183.000000,54717240.000000
209850000.000000,54825000.000000
209850000.000000,56575000.000000
209834371.000000,56682133.000000
209780293.000000,56792764.000000
209693296.000000,56879913.000000
209582760.000000,56934183.000000
209475000.000000,56950000.000000
208725000.000000,56950000.000000
208617867.000000,56934371.000000
208507236.000000,56880293.000000
208420087.000000,56793296.000000
208365817.000000,56682760.000000
208350000.000000,56575000.000000
Z" /> 
</g>
<g >
</g>
<g style="fill:#000000; fill-opacity:1.0; 
stroke:#000000; stroke-width:1.000000; stroke-opacity:1; 
stroke-linecap:round; stroke-linejoin:round;">
<path style="fill:#000000; fill-opacity:1.0; 
stroke:#000000; stroke-width:1.000000; stroke-opacity:1; 
stroke-linecap:round; stroke-linejoin:round;fill-rule:evenodd;"
d="M 205650000.000000,54825000.000000
205665629.000000,54717867.000000
205719707.000000,54607236.000000
205806704.000000,54520087.000000
205917240.000000,54465817.000000
206025000.000000,54450000.000000
206775000.000000,54450000.000000
206882133.000000,54465629.000000
206992764.000000,54519707.000000
207079913.000000,54606704.000000
207134183.000000,54717240.000000
207150000.000000,54825000.000000
207150000.000000,56575000.000000
207134371.000000,56682133.000000
207080293.000000,56792764.000000
206993296.000000,56879913.000000
206882760.000000,56934183.000000
206775000.000000,56950000.000000
206025000.000000,56950000.000000
205917867.000000,56934371.000000
205807236.000000,56880293.000000
205720087.000000,56793296.000000
205665817.000000,56682760.000000
205650000.000000,56575000.000000
Z" /> 
</g>
<g >
</g>
<g style="fill:#000000; fill-opacity:1.0; 
stroke:#000000; stroke-width:1.000000; stroke-opacity:1; 
stroke-linecap:round; stroke-linejoin:round;">
<path style="fill:#000000; fill-opacity:1.0; 
stroke:#000000; stroke-width:1.000000; stroke-opacity:1; 
stroke-linecap:round; stroke-linejoin:round;fill-rule:evenodd;"
d="M 202950000.000000,54825000.000000
202965629.000000,54717867.000000
203019707.000000,54607236.000000
203106704.000000,54520087.000000
203217240.000000,54465817.000000
203325000.000000,54450000.000000
204075000.000000,54450000.000000
204182133.000000,54465629.000000
204292764.000000,54519707.000000
204379913.000000,54606704.000000
204434183.000000,54717240.000000
204450000.000000,54825000.000000
204450000.000000,56575000.000000
204434371.000000,56682133.000000
204380293.000000,56792764.000000
204293296.000000,56879913.000000
204182760.000000,56934183.000000
204075000.000000,56950000.000000
203325000.000000,56950000.000000
203217867.000000,56934371.000000
203107236.000000,56880293.000000
203020087.000000,56793296.000000
202965817.000000,56682760.000000
202950000.000000,56575000.000000
Z" /> 
</g>
<g >
</g>
<g style="fill:#000000; fill-opacity:1.0; 
stroke:#000000; stroke-width:1.000000; stroke-opacity:1; 
stroke-linecap:round; stroke-linejoin:round;">
<path style="fill:#000000; fill-opacity:1.0; 
stroke:#000000; stroke-width:1.000000; stroke-opacity:1; 
stroke-linecap:round; stroke-linejoin:round;fill-rule:evenodd;"
d="M 207150000.000000,68275000.000000
207134371.000000,68382133.000000
207080293.000000,68492764.000000
206993296.000000,68579913.000000
206882760.000000,68634183.000000
206775000.000000,68650000.000000
206025000.000000,68650000.000000
205917867.000000,68634371.000000
205807236.000000,68580293.000000
205720087.000000,68493296.000000
205665817.000000,68382760.000000
205650000.000000,68275000.000000
205650000.000000,66525000.000000
205665629.000000,66417867.000000
205719707.000000,66307236.000000
205806704.000000,66220087.000000
205917240.000000,66165817.000000
206025000.000000,66150000.000000
206775000.000000,66150000.000000
206882133.000000,66165629.000000
206992764.000000,66219707.000000
207079913.000000,66306704.000000
207134183.000000,66417240.000000
207150000.000000,66525000.000000
Z" /> 
</g>
<g >
</g>
<g style="fill:#000000; fill-opacity:1.0; 
stroke:#000000; stroke-width:1.000000; stroke-opacity:1; 
stroke-linecap:round; stroke-linejoin:round;">
<path style="fill:#000000; fill-opacity:1.0; 
stroke:#000000; stroke-width:1.000000; stroke-opacity:1; 
stroke-linecap:round; stroke-linejoin:round;fill-rule:evenodd;"
d="M 203500000.000000,66037500.000000
203481921.000000,66128387.000000
203430438.000000,66205438.000000
203353387.000000,66256921.000000
203262500.000000,66275000.000000
202762500.000000,66275000.000000
202671613.000000,66256921.000000
202594562.000000,66205438.000000
202543079.000000,66128387.000000
202525000.000000,66037500.000000
202525000.000000,65562500.000000
202543079.000000,65471613.000000
202594562.000000,65394562.000000
202671613.000000,65343079.000000
202762500.000000,65325000.000000
203262500.000000,65325000.000000
203353387.000000,65343079.000000
203430438.000000,65394562.000000
203481921.000000,65471613.000000
203500000.000000,65562500.000000
Z" /> 
<path style="fill:#000000; fill-opacity:1.0; 
stroke:#000000; stroke-width:1.000000; stroke-opacity:1; 
stroke-linecap:round; stroke-linejoin:round;fill-rule:evenodd;"
d="M 201675000.000000,66037500.000000
201656921.000000,66128387.000000
201605438.000000,66205438.000000
201528387.000000,66256921.000000
201437500.000000,66275000.000000
200937500.000000,66275000.000000
200846613.000000,66256921.000000
200769562.000000,66205438.000000
200718079.000000,66128387.000000
200700000.000000,66037500.000000
200700000.000000,65562500.000000
200718079.000000,65471613.000000
200769562.000000,65394562.000000
200846613.000000,65343079.000000
200937500.000000,65325000.000000
201437500.000000,65325000.000000
201528387.000000,65343079.000000
201605438.000000,65394562.000000
201656921.000000,65471613.000000
201675000.000000,65562500.000000
Z" /> 
</g>
<g >
</g>
<g style="fill:#000000; fill-opacity:1.0; 
stroke:#000000; stroke-width:1.000000; stroke-opacity:1; 
stroke-linecap:round; stroke-linejoin:round;">
<path style="fill:#000000; fill-opacity:1.0; 
stroke:#000000; stroke-width:1.000000; stroke-opacity:1; 
stroke-linecap:round; stroke-linejoin:round;fill-rule:evenodd;"
d="M 202525000.000000,63662500.000000
202543079.000000,63571613.000000
202594562.000000,63494562.000000
202671613.000000,63443079.000000
202762500.000000,63425000.000000
203262500.000000,63425000.000000
203353387.000000,63443079.000000
203430438.000000,63494562.000000
203481921.000000,63571613.000000
203500000.000000,63662500.000000
203500000.000000,64137500.000000
203481921.000000,64228387.000000
203430438.000000,64305438.000000
203353387.000000,64356921.000000
203262500.000000,64375000.000000
202762500.000000,64375000.000000
202671613.000000,64356921.000000
202594562.000000,64305438.000000
202543079.000000,64228387.000000
202525000.000000,64137500.000000
Z" /> 
<path style="fill:#000000; fill-opacity:1.0; 
stroke:#000000; stroke-width:1.000000; stroke-opacity:1; 
stroke-linecap:round; stroke-linejoin:round;fill-rule:evenodd;"
d="M 200700000.000000,63662500.000000
200718079.000000,63571613.000000
200769562.000000,63494562.000000
200846613.000000,63443079.000000
200937500.000000,63425000.000000
201437500.000000,63425000.000000
201528387.000000,63443079.000000
201605438.000000,63494562.000000
201656921.000000,63571613.000000
201675000.000000,63662500.000000
201675000.000000,64137500.000000
201656921.000000,64228387.000000
201605438.000000,64305438.000000
201528387.000000,64356921.000000
201437500.000000,64375000.000000
200937500.000000,64375000.000000
200846613.000000,64356921.000000
200769562.000000,64305438.000000
200718079.000000,64228387.000000
200700000.000000,64137500.000000
Z" /> 
</g>
<g >
</g>
<g style="fill:#000000; fill-opacity:1.0; 
stroke:#000000; stroke-width:1.000000; stroke-opacity:1; 
stroke-linecap:round; stroke-linejoin:round;">
<path style="fill:#000000; fill-opacity:1.0; 
stroke:#000000; stroke-width:1.000000; stroke-opacity:1; 
stroke-linecap:round; stroke-linejoin:round;fill-rule:evenodd;"
d="M 203500000.000000,67937500.000000
203481921.000000,68028387.000000
203430438.000000,68105438.000000
203353387.000000,68156921.000000
203262500.000000,68175000.000000
202762500.000000,68175000.000000
202671613.000000,68156921.000000
202594562.000000,68105438.000000
202543079.000000,68028387.000000
202525000.000000,67937500.000000
202525000.000000,67462500.000000
202543079.000000,67371613.000000
202594562.000000,67294562.000000
202671613.000000,67243079.000000
202762500.000000,67225000.000000
203262500.000000,67225000.000000
203353387.000000,67243079.000000
203430438.000000,67294562.000000
203481921.000000,67371613.000000
203500000.000000,67462500.000000
Z" /> 
<path style="fill:#000000; fill-opacity:1.0; 
stroke:#000000; stroke-width:1.000000; stroke-opacity:1; 
stroke-linecap:round; stroke-linejoin:round;fill-rule:evenodd;"
d="M 201675000.000000,67937500.000000
201656921.000000,68028387.000000
201605438.000000,68105438.000000
201528387.000000,68156921.000000
201437500.000000,68175000.000000
200937500.000000,68175000.000000
200846613.000000,68156921.000000
200769562.000000,68105438.000000
200718079.000000,68028387.000000
200700000.000000,67937500.000000
200700000.000000,67462500.000000
200718079.000000,67371613.000000
200769562.000000,67294562.000000
200846613.000000,67243079.000000
200937500.000000,67225000.000000
201437500.000000,67225000.000000
201528387.000000,67243079.000000
201605438.000000,67294562.000000
201656921.000000,67371613.000000
201675000.000000,67462500.000000
Z" /> 
</g>
<g >
</g>
<g style="fill:#000000; fill-opacity:1.0; 
stroke:#000000; stroke-width:1.000000; stroke-opacity:1; 
stroke-linecap:round; stroke-linejoin:round;">
<circle cx="202600000.000000" cy="57700000.000000" r="400000.000000" /> 
</g>
<g style="fill:#000000; fill-opacity:1.0; 
stroke:#000000; stroke-width:21200.000000; stroke-opacity:1; 
stroke-linecap:round; stroke-linejoin:round;">
</g>
<g style="fill:#000000; fill-opacity:1.0; 
stroke:#000000; stroke-width:1.000000; stroke-opacity:1; 
stroke-linecap:round; stroke-linejoin:round;">
<circle cx="204200000.000000" cy="63900000.000000" r="400000.000000" /> 
</g>
<g style="fill:#000000; fill-opacity:1.0; 
stroke:#000000; stroke-width:21200.000000; stroke-opacity:1; 
stroke-linecap:round; stroke-linejoin:round;">
</g>
<g style="fill:#000000; fill-opacity:1.0; 
stroke:#000000; stroke-width:1.000000; stroke-opacity:1; 
stroke-linecap:round; stroke-linejoin:round;">
<circle cx="205100000.000000" cy="67900000.000000" r="400000.000000" /> 
</g>
<g style="fill:#000000; fill-opacity:1.0; 
stroke:#000000; stroke-width:21200.000000; stroke-opacity:1; 
stroke-linecap:round; stroke-linejoin:round;">
</g>
<g style="fill:#000000; fill-opacity:1.0; 
stroke:#000000; stroke-width:1.000000; stroke-opacity:1; 
stroke-linecap:round; stroke-linejoin:round;">
<circle cx="199800000.000000" cy="62800000.000000" r="400000.000000" /> 
</g>
<g style="fill:#000000; fill-opacity:1.0; 
stroke:#000000; stroke-width:21200.000000; stroke-opacity:1; 
stroke-linecap:round; stroke-linejoin:round;">
</g>
<g style="fill:#000000; fill-opacity:1.0; 
stroke:#000000; stroke-width:1.000000; stroke-opacity:1; 
stroke-linecap:round; stroke-linejoin:round;">
<circle cx="188900000.000000" cy="56700000.000000" r="400000.000000" /> 
</g>
<g style="fill:#000000; fill-opacity:1.0; 
stroke:#000000; stroke-width:21200.000000; stroke-opacity:1; 
stroke-linecap:round; stroke-linejoin:round;">
</g>
<g style="fill:#000000; fill-opacity:1.0; 
stroke:#000000; stroke-width:1.000000; stroke-opacity:1; 
stroke-linecap:round; stroke-linejoin:round;">
<circle cx="187000000.000000" cy="54800000.000000" r="400000.000000" /> 
</g>
<g style="fill:#000000; fill-opacity:1.0; 
stroke:#000000; stroke-width:21200.000000; stroke-opacity:1; 
stroke-linecap:round; stroke-linejoin:round;">
</g>
<g style="fill:#000000; fill-opacity:1.0; 
stroke:#000000; stroke-width:1.000000; stroke-opacity:1; 
stroke-linecap:round; stroke-linejoin:round;">
<circle cx="185000000.000000" cy="54800000.000000" r="400000.000000" /> 
</g>
<g style="fill:#000000; fill-opacity:1.0; 
stroke:#000000; stroke-width:21200.000000; stroke-opacity:1; 
stroke-linecap:round; stroke-linejoin:round;">
</g>
<g style="fill:#000000; fill-opacity:1.0; 
stroke:#000000; stroke-width:1.000000; stroke-opacity:1; 
stroke-linecap:round; stroke-linejoin:round;">
<circle cx="205000000.000000" cy="60500000.000000" r="400000.000000" /> 
</g>
<g style="fill:#000000; fill-opacity:1.0; 
stroke:#000000; stroke-width:21200.000000; stroke-opacity:1; 
stroke-linecap:round; stroke-linejoin:round;">
</g>
<g style="fill:#000000; fill-opacity:1.0; 
stroke:#000000; stroke-width:1.000000; stroke-opacity:1; 
stroke-linecap:round; stroke-linejoin:round;">
<circle cx="204190953.000000" cy="65790953.000000" r="400000.000000" /> 
</g>
<g style="fill:#000000; fill-opacity:1.0; 
stroke:#000000; stroke-width:21200.000000; stroke-opacity:1; 
stroke-linecap:round; stroke-linejoin:round;">
</g>
<g style="fill:#000000; fill-opacity:1.0; 
stroke:#000000; stroke-width:1.000000; stroke-opacity:1; 
stroke-linecap:round; stroke-linejoin:round;">
<circle cx="194400000.000000" cy="56700000.000000" r="400000.000000" /> 
</g>
<g style="fill:#000000; fill-opacity:1.0; 
stroke:#000000; stroke-width:21200.000000; stroke-opacity:1; 
stroke-linecap:round; stroke-linejoin:round;">
</g>
<g style="fill:#000000; fill-opacity:1.0; 
stroke:#000000; stroke-width:1.000000; stroke-opacity:1; 
stroke-linecap:round; stroke-linejoin:round;">
<circle cx="204200000.000000" cy="67900000.000000" r="400000.000000" /> 
</g>
<g style="fill:#000000; fill-opacity:1.0; 
stroke:#000000; stroke-width:21200.000000; stroke-opacity:1; 
stroke-linecap:round; stroke-linejoin:round;">
</g>
<g >
</g>
<g style="fill:#000000; fill-opacity:1.0; 
stroke:#000000; stroke-width:21200.000000; stroke-opacity:1; 
stroke-linecap:round; stroke-linejoin:round;">
</g>
<g style="fill:#000000; fill-opacity:1.0; 
stroke:#000000; stroke-width:300000.000000; stroke-opacity:1; 
stroke-linecap:round; stroke-linejoin:round;">
</g>
<g style="fill:#000000; fill-opacity:0.0; 
stroke:#000000; stroke-width:300000.000000; stroke-opacity:1; 
stroke-linecap:round; stroke-linejoin:round;">
<path d="M202200000 59450000
L201400000 59450000
" />
<path d="M198875000 57600000
L199550000 57600000
" />
<path d="M199550000 57600000
L201400000 59450000
" />
<path d="M206400000 56200000
L204100000 58500000
" />
<path d="M204100000 58500000
L203150000 58500000
" />
<path d="M201400000 59425000
L201400000 59450000
" />
<path d="M203150000 58500000
L202200000 59450000
" />
<path d="M206400000 55700000
L206400000 56200000
" />
<path d="M198875000 55800000
L198875000 57600000
" />
<path d="M207500000 62400000
L211300000 62400000
" />
<path d="M201225000 63900000
L189200000 63900000
" />
<path d="M201225000 63900000
L202224999 62900001
" />
<path d="M206999999 62900001
L207500000 62400000
" />
<path d="M189200000 63900000
L186100000 67000000
" />
<path d="M202224999 62900001
L206999999 62900001
" />
<path d="M197800000 67700000
L197100000 67000000
" />
<path d="M202199990 66725010
L201724072 67200928
" />
<path d="M201724072 67200928
L201225000 67700000
" />
<path d="M201225000 67700000
L197800000 67700000
" />
<path d="M211300000 67800000
L210800000 67800000
" />
<path d="M208500000 65500000
L205684002 65500000
" />
<path d="M210800000 67800000
L208500000 65500000
" />
<path d="M205684002 65500000
L204458992 66725010
" />
<path d="M204458992 66725010
L202199990 66725010
" />
<path d="M197200000 67000000
L197100000 67000000
" />
<path d="M199700928 65300928
L193299072 65300928
" />
<path d="M211300000 65100000
L211074990 64874990
" />
<path d="M202150010 64874990
L201724072 65300928
" />
<path d="M201724072 65300928
L201225000 65800000
" />
<path d="M193299072 65300928
L192780553 65819447
" />
<path d="M200200000 65800000
L199700928 65300928
" />
<path d="M201225000 65800000
L200200000 65800000
" />
<path d="M211074990 64874990
L202150010 64874990
" />
<path d="M192780553 65819447
L191600000 67000000
" />
<path d="M200299990 54849990
L200600000 55150000
" />
<path d="M188825010 54849990
L200299990 54849990
" />
<path d="M203150000 55150000
L203700000 55700000
" />
<path d="M187875000 55800000
L187875000 57600000
" />
<path d="M201400000 55150000
L203150000 55150000
" />
<path d="M200600000 55150000
L201400000 55150000
" />
<path d="M187875000 55800000
L188825010 54849990
" />
<path d="M194400000 61400000
L194400000 59500000
" />
<path d="M206300000 57600000
L204450000 59450000
" />
<path d="M209100000 55700000
L209100000 56200000
" />
<path d="M193375000 58475000
L193375000 57600000
" />
<path d="M209100000 56200000
L207700000 57600000
" />
<path d="M198700000 62400000
L195400000 62400000
" />
<path d="M202600000 60600000
L200500000 60600000
" />
<path d="M194400000 59500000
L193375000 58475000
" />
<path d="M195400000 62400000
L194400000 61400000
" />
<path d="M207700000 57600000
L206300000 57600000
" />
<path d="M193375000 55800000
L193375000 57600000
" />
<path d="M203700000 59500000
L202600000 60600000
" />
<path d="M200500000 60600000
L198700000 62400000
" />
<path d="M204450000 59450000
L203700000 59450000
" />
<path d="M203700000 59450000
L203700000 59500000
" />
<path d="M191600000 60600000
L191400000 60600000
" />
<path d="M189900000 59100000
L189900000 57575000
" />
<path d="M191600000 57575000
L191625000 57600000
" />
<path d="M189900000 57575000
L191600000 57575000
" />
<path d="M191625000 57600000
L191625000 55800000
" />
<path d="M191400000 60600000
L189900000 59100000
" />
</g>
<g style="fill:#000000; fill-opacity:0.0; 
stroke:#000000; stroke-width:400000.000000; stroke-opacity:1; 
stroke-linecap:round; stroke-linejoin:round;">
<path d="M191600000 60600000
L191500000 60600000
" />
</g>
<g style="fill:#000000; fill-opacity:0.0; 
stroke:#000000; stroke-width:300000.000000; stroke-opacity:1; 
stroke-linecap:round; stroke-linejoin:round;">
<path d="M184400000 57575000
L186100000 57575000
" />
<path d="M184400000 58200000
L184400000 57575000
" />
<path d="M184400000 59100000
L184400000 58200000
" />
<path d="M186125000 57600000
L186125000 55800000
" />
</g>
<g style="fill:#000000; fill-opacity:0.0; 
stroke:#000000; stroke-width:400000.000000; stroke-opacity:1; 
stroke-linecap:round; stroke-linejoin:round;">
<path d="M186100000 60600000
L185900000 60600000
" />
</g>
<g style="fill:#000000; fill-opacity:0.0; 
stroke:#000000; stroke-width:300000.000000; stroke-opacity:1; 
stroke-linecap:round; stroke-linejoin:round;">
<path d="M186100000 57575000
L186125000 57600000
" />
<path d="M185900000 60600000
L184400000 59100000
" />
</g>
<g style="fill:#000000; fill-opacity:0.0; 
stroke:#000000; stroke-width:400000.000000; stroke-opacity:1; 
stroke-linecap:round; stroke-linejoin:round;">
<path d="M195400000 57575000
L197100000 57575000
" />
</g>
<g style="fill:#000000; fill-opacity:0.0; 
stroke:#000000; stroke-width:300000.000000; stroke-opacity:1; 
stroke-linecap:round; stroke-linejoin:round;">
<path d="M195400000 58200000
L195400000 57575000
" />
<path d="M197125000 57600000
L197125000 55800000
" />
<path d="M195400000 59000000
L195400000 58200000
" />
</g>
<g style="fill:#000000; fill-opacity:0.0; 
stroke:#000000; stroke-width:400000.000000; stroke-opacity:1; 
stroke-linecap:round; stroke-linejoin:round;">
<path d="M197100000 60600000
L197000000 60600000
" />
</g>
<g style="fill:#000000; fill-opacity:0.0; 
stroke:#000000; stroke-width:300000.000000; stroke-opacity:1; 
stroke-linecap:round; stroke-linejoin:round;">
<path d="M197000000 60600000
L195400000 59000000
" />
</g>
<g style="fill:#000000; fill-opacity:0.0; 
stroke:#000000; stroke-width:400000.000000; stroke-opacity:1; 
stroke-linecap:round; stroke-linejoin:round;">
<path d="M197100000 57575000
L197125000 57600000
" />
</g>
<g style="fill:#000000; fill-opacity:0.0; 
stroke:#000000; stroke-width:300000.000000; stroke-opacity:1; 
stroke-linecap:round; stroke-linejoin:round;">
<path d="M209599990 58400010
L211800000 56200000
" />
<path d="M211300000 59700000
L206250000 59700000
" />
<path d="M206999990 58400010
L209599990 58400010
" />
<path d="M206000000 59450000
L206000000 59400000
" />
<path d="M206000000 59400000
L206999990 58400010
" />
<path d="M206250000 59700000
L206000000 59450000
" />
<path d="M211800000 56200000
L211800000 55700000
" />
</g>
<g >
</g>
<g style="fill:#000000; fill-opacity:0.0; 
stroke:#000000; stroke-width:300000.000000; stroke-opacity:1; 
stroke-linecap:round; stroke-linejoin:round;">
<g >
</g>
<g style="fill:#000000; fill-opacity:1.0; 
stroke:#000000; stroke-width:1.000000; stroke-opacity:1; 
stroke-linecap:round; stroke-linejoin:round;">
<path style="fill:#000000; fill-opacity:1.0; 
stroke:#000000; stroke-width:1.000000; stroke-opacity:1; 
stroke-linecap:round; stroke-linejoin:round;fill-rule:evenodd;"
d="M 208326179.000000,65970462.000000
208357038.000000,65994141.000000
209705859.000000,67342962.000000
209744423.000000,67409757.000000
209749500.000000,67448321.000000
209749500.000000,68228992.000000
209755933.000000,68299004.000000
209758296.000000,68306543.000000
209758296.000000,68306545.000000
209762983.000000,68321500.000000
209804826.000000,68455019.000000
209809480.000000,68462703.000000
209809480.000000,68462704.000000
209816209.000000,68473815.000000
209837726.000000,68547881.000000
209819328.000000,68622783.000000
209765944.000000,68678450.000000
209688759.000000,68700000.000000
201754284.000000,68700000.000000
201679784.000000,68680038.000000
201625246.000000,68625500.000000
201605284.000000,68551000.000000
201625246.000000,68476500.000000
201679784.000000,68421962.000000
201689404.000000,68417312.000000
201694643.000000,68414360.000000
201704089.000000,68410620.000000
201821500.000000,68321500.000000
201832852.000000,68306545.000000
201904477.000000,68212182.000000
201910620.000000,68204089.000000
201964882.000000,68067038.000000
201975500.000000,67979297.000000
201975499.000000,67648321.000000
201995461.000000,67573822.000000
202019140.000000,67542963.000000
202342952.000000,67219151.000000
202409747.000000,67180587.000000
202448311.000000,67175510.000000
204423420.000000,67175510.000000
204440933.000000,67176543.000000
204473302.000000,67180374.000000
204484258.000000,67178373.000000
204484261.000000,67178373.000000
204530660.000000,67169899.000000
204535276.000000,67169131.000000
204581935.000000,67162116.000000
204581937.000000,67162115.000000
204592954.000000,67160459.000000
204599467.000000,67157331.000000
204606565.000000,67156035.000000
204658305.000000,67129158.000000
204662457.000000,67127084.000000
204715071.000000,67101819.000000
204720375.000000,67096916.000000
204726780.000000,67093589.000000
204731820.000000,67089285.000000
204768752.000000,67052353.000000
204772970.000000,67048298.000000
204806369.000000,67017425.000000
204806370.000000,67017423.000000
204814548.000000,67009864.000000
204818386.000000,67003256.000000
204822997.000000,66998108.000000
205826964.000000,65994141.000000
205893759.000000,65955577.000000
205932323.000000,65950500.000000
208251679.000000,65950500.000000
Z" /> 
<path style="fill:#000000; fill-opacity:1.0; 
stroke:#000000; stroke-width:1.000000; stroke-opacity:1; 
stroke-linecap:round; stroke-linejoin:round;fill-rule:evenodd;"
d="M 188450085.000000,54319962.000000
188504623.000000,54374500.000000
188524585.000000,54449000.000000
188504623.000000,54523500.000000
188484441.000000,54548758.000000
188484597.000000,54548883.000000
188477633.000000,54557575.000000
188469454.000000,54565136.000000
188465616.000000,54571744.000000
188461005.000000,54576892.000000
188057038.000000,54980859.000000
187990243.000000,55019423.000000
187951679.000000,55024500.000000
187577402.000000,55024501.000000
187545704.000000,55024501.000000
187541250.000000,55025040.000000
187541249.000000,55025040.000000
187475090.000000,55033046.000000
187457962.000000,55035118.000000
187320911.000000,55089380.000000
187203500.000000,55178500.000000
187197357.000000,55186593.000000
187118683.000000,55290242.000000
187057740.000000,55337515.000000
186981325.000000,55347982.000000
186909915.000000,55318840.000000
186881317.000000,55290242.000000
186802643.000000,55186593.000000
186796500.000000,55178500.000000
186679089.000000,55089380.000000
186614984.000000,55063999.000000
186550932.000000,55038639.000000
186550929.000000,55038638.000000
186542038.000000,55035118.000000
186454297.000000,55024500.000000
186125074.000000,55024500.000000
185795704.000000,55024501.000000
185791250.000000,55025040.000000
185791249.000000,55025040.000000
185725090.000000,55033046.000000
185707962.000000,55035118.000000
185570911.000000,55089380.000000
185453500.000000,55178500.000000
185364380.000000,55295911.000000
185310118.000000,55432962.000000
185299500.000000,55520703.000000
185299501.000000,56079296.000000
185310118.000000,56167038.000000
185364380.000000,56304089.000000
185453500.000000,56421500.000000
185570911.000000,56510620.000000
185580356.000000,56514360.000000
185589207.000000,56519347.000000
185588576.000000,56520466.000000
185642274.000000,56560349.000000
185672902.000000,56631135.000000
185674500.000000,56652895.000000
185674500.000000,56747105.000000
185654538.000000,56821605.000000
185600000.000000,56876143.000000
185580374.000000,56885630.000000
185580354.000000,56885641.000000
185570911.000000,56889380.000000
185453500.000000,56978500.000000
185399229.000000,57050000.000000
185387399.000000,57065585.000000
185326456.000000,57112858.000000
185268716.000000,57124500.000000
185252895.000000,57124500.000000
185178395.000000,57104538.000000
185123857.000000,57050000.000000
185114370.000000,57030374.000000
185114359.000000,57030354.000000
185110620.000000,57020911.000000
185021500.000000,56903500.000000
184904089.000000,56814380.000000
184789131.000000,56768865.000000
184775932.000000,56763639.000000
184775929.000000,56763638.000000
184767038.000000,56760118.000000
184679297.000000,56749500.000000
184400063.000000,56749500.000000
184120704.000000,56749501.000000
184116250.000000,56750040.000000
184116249.000000,56750040.000000
184050090.000000,56758046.000000
184032962.000000,56760118.000000
183895911.000000,56814380.000000
183778500.000000,56903500.000000
183689380.000000,57020911.000000
183669431.000000,57071297.000000
183641117.000000,57142811.000000
183635118.000000,57157962.000000
183624500.000000,57245703.000000
183624501.000000,57904296.000000
183635118.000000,57992038.000000
183689380.000000,58129089.000000
183778500.000000,58246500.000000
183874473.000000,58319347.000000
183890585.000000,58331577.000000
183937858.000000,58392520.000000
183949500.000000,58450260.000000
183949500.000000,59064428.000000
183948467.000000,59081941.000000
183944636.000000,59114310.000000
183946637.000000,59125266.000000
183946637.000000,59125269.000000
183955111.000000,59171668.000000
183955879.000000,59176284.000000
183959595.000000,59200996.000000
183964551.000000,59233962.000000
183967679.000000,59240475.000000
183968975.000000,59247573.000000
183989250.000000,59286603.000000
183995843.000000,59299296.000000
183997926.000000,59303465.000000
184023191.000000,59356079.000000
184028094.000000,59361383.000000
184031421.000000,59367788.000000
184035725.000000,59372828.000000
184072657.000000,59409760.000000
184076711.000000,59413977.000000
184115146.000000,59455556.000000
184121754.000000,59459394.000000
184126902.000000,59464005.000000
184480859.000000,59817962.000000
184519423.000000,59884757.000000
184524500.000000,59923321.000000
184524500.000000,61517772.000000
184535364.000000,61607547.000000
184590887.000000,61747783.000000
184682078.000000,61867922.000000
184802217.000000,61959113.000000
184942453.000000,62014636.000000
185032228.000000,62025500.000000
187167772.000000,62025500.000000
187257547.000000,62014636.000000
187397783.000000,61959113.000000
187517922.000000,61867922.000000
187609113.000000,61747783.000000
187664636.000000,61607547.000000
187675500.000000,61517772.000000
187675500.000000,59682228.000000
187664636.000000,59592453.000000
187609113.000000,59452217.000000
187535743.000000,59355556.000000
187524062.000000,59340167.000000
187517922.000000,59332078.000000
187489774.000000,59310712.000000
187477466.000000,59301370.000000
187397783.000000,59240887.000000
187257547.000000,59185364.000000
187167772.000000,59174500.000000
185173321.000000,59174500.000000
185098821.000000,59154538.000000
185067962.000000,59130859.000000
184894141.000000,58957038.000000
184855577.000000,58890243.000000
184850500.000000,58851679.000000
184850500.000000,58450260.000000
184870462.000000,58375760.000000
184909415.000000,58331577.000000
184925528.000000,58319347.000000
185021500.000000,58246500.000000
185110620.000000,58129089.000000
185114358.000000,58119648.000000
185114735.000000,58118979.000000
185168700.000000,58063875.000000
185242987.000000,58043135.000000
185317692.000000,58062318.000000
185361580.000000,58106214.000000
185364380.000000,58104089.000000
185453500.000000,58221500.000000
185570911.000000,58310620.000000
185601124.000000,58322582.000000
185699068.000000,58361361.000000
185699071.000000,58361362.000000
185707962.000000,58364882.000000
185795703.000000,58375500.000000
186124926.000000,58375500.000000
186454296.000000,58375499.000000
186458750.000000,58374960.000000
186458751.000000,58374960.000000
186532534.000000,58366032.000000
186542038.000000,58364882.000000
186679089.000000,58310620.000000
186796500.000000,58221500.000000
186881317.000000,58109758.000000
186942260.000000,58062485.000000
187018675.000000,58052018.000000
187090085.000000,58081160.000000
187118683.000000,58109758.000000
187203500.000000,58221500.000000
187320911.000000,58310620.000000
187351124.000000,58322582.000000
187449068.000000,58361361.000000
187449071.000000,58361362.000000
187457962.000000,58364882.000000
187545703.000000,58375500.000000
187874926.000000,58375500.000000
188204296.000000,58375499.000000
188208750.000000,58374960.000000
188208751.000000,58374960.000000
188282534.000000,58366032.000000
188292038.000000,58364882.000000
188429089.000000,58310620.000000
188546500.000000,58221500.000000
188635620.000000,58104089.000000
188689882.000000,57967038.000000
188700500.000000,57879297.000000
188700499.000000,57320704.000000
188699827.000000,57315146.000000
188691032.000000,57242466.000000
188689882.000000,57232962.000000
188635620.000000,57095911.000000
188546500.000000,56978500.000000
188429089.000000,56889380.000000
188419644.000000,56885640.000000
188410793.000000,56880653.000000
188411424.000000,56879534.000000
188357726.000000,56839651.000000
188327098.000000,56768865.000000
188325500.000000,56747105.000000
188325500.000000,56652895.000000
188345462.000000,56578395.000000
188400000.000000,56523857.000000
188419626.000000,56514370.000000
188419646.000000,56514359.000000
188429089.000000,56510620.000000
188546500.000000,56421500.000000
188635620.000000,56304089.000000
188661001.000000,56239984.000000
188686361.000000,56175932.000000
188686362.000000,56175929.000000
188689882.000000,56167038.000000
188700500.000000,56079297.000000
188700499.000000,55673322.000000
188720461.000000,55598822.000000
188744140.000000,55567963.000000
188967972.000000,55344131.000000
189034767.000000,55305567.000000
189073331.000000,55300490.000000
190658031.000000,55300490.000000
190732531.000000,55320452.000000
190787069.000000,55374990.000000
190807031.000000,55449490.000000
190805953.000000,55467383.000000
190799500.000000,55520703.000000
190799501.000000,56079296.000000
190810118.000000,56167038.000000
190864380.000000,56304089.000000
190953500.000000,56421500.000000
191070911.000000,56510620.000000
191080356.000000,56514360.000000
191089207.000000,56519347.000000
191088576.000000,56520466.000000
191142274.000000,56560349.000000
191172902.000000,56631135.000000
191174500.000000,56652895.000000
191174500.000000,56747105.000000
191154538.000000,56821605.000000
191100000.000000,56876143.000000
191080374.000000,56885630.000000
191080354.000000,56885641.000000
191070911.000000,56889380.000000
190953500.000000,56978500.000000
190899229.000000,57050000.000000
190887399.000000,57065585.000000
190826456.000000,57112858.000000
190768716.000000,57124500.000000
190752895.000000,57124500.000000
190678395.000000,57104538.000000
190623857.000000,57050000.000000
190614370.000000,57030374.000000
190614359.000000,57030354.000000
190610620.000000,57020911.000000
190521500.000000,56903500.000000
190404089.000000,56814380.000000
190289131.000000,56768865.000000
190275932.000000,56763639.000000
190275929.000000,56763638.000000
190267038.000000,56760118.000000
190179297.000000,56749500.000000
189900063.000000,56749500.000000
189620704.000000,56749501.000000
189616250.000000,56750040.000000
189616249.000000,56750040.000000
189550090.000000,56758046.000000
189532962.000000,56760118.000000
189395911.000000,56814380.000000
189278500.000000,56903500.000000
189189380.000000,57020911.000000
189169431.000000,57071297.000000
189141117.000000,57142811.000000
189135118.000000,57157962.000000
189124500.000000,57245703.000000
189124501.000000,57904296.000000
189135118.000000,57992038.000000
189189380.000000,58129089.000000
189278500.000000,58246500.000000
189374473.000000,58319347.000000
189390585.000000,58331577.000000
189437858.000000,58392520.000000
189449500.000000,58450260.000000
189449500.000000,59064428.000000
189448467.000000,59081941.000000
189444636.000000,59114310.000000
189446637.000000,59125266.000000
189446637.000000,59125269.000000
189455111.000000,59171668.000000
189455879.000000,59176284.000000
189459595.000000,59200996.000000
189464551.000000,59233962.000000
189467679.000000,59240475.000000
189468975.000000,59247573.000000
189489250.000000,59286603.000000
189495843.000000,59299296.000000
189497926.000000,59303465.000000
189523191.000000,59356079.000000
189528094.000000,59361383.000000
189531421.000000,59367788.000000
189535725.000000,59372828.000000
189572657.000000,59409760.000000
189576711.000000,59413977.000000
189615146.000000,59455556.000000
189621754.000000,59459394.000000
189626902.000000,59464005.000000
189980859.000000,59817962.000000
190019423.000000,59884757.000000
190024500.000000,59923321.000000
190024500.000000,61517772.000000
190035364.000000,61607547.000000
190090887.000000,61747783.000000
190182078.000000,61867922.000000
190302217.000000,61959113.000000
190442453.000000,62014636.000000
190532228.000000,62025500.000000
192667772.000000,62025500.000000
192757547.000000,62014636.000000
192897783.000000,61959113.000000
193017922.000000,61867922.000000
193109113.000000,61747783.000000
193164636.000000,61607547.000000
193175500.000000,61517772.000000
193175500.000000,59682228.000000
193164636.000000,59592453.000000
193109113.000000,59452217.000000
193035743.000000,59355556.000000
193024062.000000,59340167.000000
193017922.000000,59332078.000000
192989774.000000,59310712.000000
192977466.000000,59301370.000000
192897783.000000,59240887.000000
192757547.000000,59185364.000000
192667772.000000,59174500.000000
190673321.000000,59174500.000000
190598821.000000,59154538.000000
190567962.000000,59130859.000000
190394141.000000,58957038.000000
190355577.000000,58890243.000000
190350500.000000,58851679.000000
190350500.000000,58450260.000000
190370462.000000,58375760.000000
190409415.000000,58331577.000000
190425528.000000,58319347.000000
190521500.000000,58246500.000000
190610620.000000,58129089.000000
190614358.000000,58119648.000000
190614735.000000,58118979.000000
190668700.000000,58063875.000000
190742987.000000,58043135.000000
190817692.000000,58062318.000000
190861580.000000,58106214.000000
190864380.000000,58104089.000000
190953500.000000,58221500.000000
191070911.000000,58310620.000000
191101124.000000,58322582.000000
191199068.000000,58361361.000000
191199071.000000,58361362.000000
191207962.000000,58364882.000000
191295703.000000,58375500.000000
191624926.000000,58375500.000000
191954296.000000,58375499.000000
191958750.000000,58374960.000000
191958751.000000,58374960.000000
192032534.000000,58366032.000000
192042038.000000,58364882.000000
192179089.000000,58310620.000000
192296500.000000,58221500.000000
192381317.000000,58109758.000000
192442260.000000,58062485.000000
192518675.000000,58052018.000000
192590085.000000,58081160.000000
192618683.000000,58109758.000000
192703500.000000,58221500.000000
192820911.000000,58310620.000000
192830356.000000,58314360.000000
192839207.000000,58319347.000000
192838366.000000,58320839.000000
192890749.000000,58359742.000000
192921380.000000,58430526.000000
192921945.000000,58469802.000000
192919636.000000,58489310.000000
192921637.000000,58500266.000000
192921637.000000,58500269.000000
192930111.000000,58546668.000000
192930879.000000,58551284.000000
192936514.000000,58588759.000000
192939551.000000,58608962.000000
192942679.000000,58615475.000000
192943975.000000,58622573.000000
192965110.000000,58663259.000000
192970843.000000,58674296.000000
192972926.000000,58678465.000000
192998191.000000,58731079.000000
193003094.000000,58736383.000000
193006421.000000,58742788.000000
193010725.000000,58747828.000000
193047657.000000,58784760.000000
193051711.000000,58788977.000000
193090146.000000,58830556.000000
193096754.000000,58834394.000000
193101902.000000,58839005.000000
193905859.000000,59642962.000000
193944423.000000,59709757.000000
193949500.000000,59748321.000000
193949500.000000,61364428.000000
193948467.000000,61381941.000000
193944636.000000,61414310.000000
193946637.000000,61425266.000000
193946637.000000,61425269.000000
193955111.000000,61471668.000000
193955879.000000,61476284.000000
193961444.000000,61513295.000000
193964551.000000,61533962.000000
193967679.000000,61540475.000000
193968975.000000,61547573.000000
193995193.000000,61598044.000000
193995843.000000,61599296.000000
193997926.000000,61603465.000000
194023191.000000,61656079.000000
194028094.000000,61661383.000000
194031421.000000,61667788.000000
194035725.000000,61672828.000000
194072657.000000,61709760.000000
194076712.000000,61713978.000000
194105371.000000,61744981.000000
194115146.000000,61755556.000000
194121754.000000,61759394.000000
194126902.000000,61764005.000000
195056291.000000,62693394.000000
195067944.000000,62706507.000000
195088128.000000,62732110.000000
195097291.000000,62738443.000000
195136082.000000,62765253.000000
195139890.000000,62767974.000000
195158379.000000,62781630.000000
195186817.000000,62802635.000000
195193634.000000,62805029.000000
195199569.000000,62809131.000000
195210187.000000,62812489.000000
195210189.000000,62812490.000000
195255139.000000,62826706.000000
195259536.000000,62828172.000000
195314631.000000,62847520.000000
195321848.000000,62847804.000000
195328730.000000,62849980.000000
195335337.000000,62850500.000000
195387546.000000,62850500.000000
195393396.000000,62850615.000000
195438866.000000,62852402.000000
195438868.000000,62852402.000000
195449994.000000,62852839.000000
195457381.000000,62850880.000000
195464289.000000,62850500.000000
198664428.000000,62850500.000000
198681941.000000,62851533.000000
198714310.000000,62855364.000000
198725266.000000,62853363.000000
198725269.000000,62853363.000000
198771668.000000,62844889.000000
198776284.000000,62844121.000000
198822943.000000,62837106.000000
198822945.000000,62837105.000000
198833962.000000,62835449.000000
198840475.000000,62832321.000000
198847573.000000,62831025.000000
198899313.000000,62804148.000000
198903465.000000,62802074.000000
198956079.000000,62776809.000000
198961383.000000,62771906.000000
198967788.000000,62768579.000000
198972828.000000,62764275.000000
199009760.000000,62727343.000000
199013978.000000,62723288.000000
199047377.000000,62692415.000000
199047378.000000,62692413.000000
199055556.000000,62684854.000000
199059394.000000,62678246.000000
199064005.000000,62673098.000000
200642962.000000,61094141.000000
200709757.000000,61055577.000000
200748321.000000,61050500.000000
202564428.000000,61050500.000000
202581941.000000,61051533.000000
202614310.000000,61055364.000000
202625266.000000,61053363.000000
202625269.000000,61053363.000000
202671668.000000,61044889.000000
202676284.000000,61044121.000000
202722943.000000,61037106.000000
202722945.000000,61037105.000000
202733962.000000,61035449.000000
202740475.000000,61032321.000000
202747573.000000,61031025.000000
202799313.000000,61004148.000000
202803465.000000,61002074.000000
202856079.000000,60976809.000000
202861383.000000,60971906.000000
202867788.000000,60968579.000000
202872828.000000,60964275.000000
202909760.000000,60927343.000000
202913978.000000,60923288.000000
202947377.000000,60892415.000000
202947378.000000,60892413.000000
202955556.000000,60884854.000000
202959394.000000,60878246.000000
202964005.000000,60873098.000000
203542962.000000,60294141.000000
203609757.000000,60255577.000000
203648321.000000,60250500.000000
204244646.000000,60250500.000000
204270846.000000,60247382.000000
204373153.000000,60201939.000000
204452241.000000,60122713.000000
204497506.000000,60020327.000000
204499550.000000,60002794.000000
204528003.000000,59931106.000000
204584449.000000,59886447.000000
204583968.000000,59885446.000000
204587025.000000,59883978.000000
204588153.000000,59883516.000000
204588409.000000,59883313.000000
204588711.000000,59883168.000000
204591535.000000,59882127.000000
204597573.000000,59881025.000000
204649313.000000,59854148.000000
204653465.000000,59852074.000000
204706079.000000,59826809.000000
204711383.000000,59821906.000000
204717788.000000,59818579.000000
204722828.000000,59814275.000000
204759760.000000,59777343.000000
204763978.000000,59773288.000000
204797377.000000,59742415.000000
204797378.000000,59742413.000000
204805556.000000,59734854.000000
204809394.000000,59728246.000000
204814005.000000,59723098.000000
204945141.000000,59591962.000000
205011936.000000,59553398.000000
205089064.000000,59553398.000000
205155859.000000,59591962.000000
205194423.000000,59658757.000000
205199500.000000,59697321.000000
205199500.000000,59994646.000000
205202618.000000,60020846.000000
205248061.000000,60123153.000000
205327287.000000,60202241.000000
205339867.000000,60207803.000000
205339869.000000,60207804.000000
205419426.000000,60242976.000000
205429673.000000,60247506.000000
205444318.000000,60249213.000000
205451070.000000,60250001.000000
205451078.000000,60250001.000000
205455354.000000,60250500.000000
206544646.000000,60250500.000000
206570846.000000,60247382.000000
206673153.000000,60201939.000000
206682871.000000,60192204.000000
206694210.000000,60184411.000000
206695238.000000,60185906.000000
206747611.000000,60155610.000000
206786297.000000,60150500.000000
209631281.000000,60150500.000000
209705781.000000,60170462.000000
209760319.000000,60225000.000000
209773462.000000,60254942.000000
209802136.000000,60346440.000000
209802141.000000,60346451.000000
209804826.000000,60355019.000000
209889521.000000,60494869.000000
210005131.000000,60610479.000000
210144981.000000,60695174.000000
210235394.000000,60723508.000000
210293455.000000,60741704.000000
210293457.000000,60741704.000000
210300996.000000,60744067.000000
210356826.000000,60749197.000000
210367601.000000,60750187.000000
210367602.000000,60750187.000000
210371008.000000,60750500.000000
212228992.000000,60750500.000000
212232398.000000,60750187.000000
212232399.000000,60750187.000000
212243174.000000,60749197.000000
212299004.000000,60744067.000000
212306543.000000,60741704.000000
212306545.000000,60741704.000000
212364606.000000,60723508.000000
212455019.000000,60695174.000000
212473815.000000,60683791.000000
212547881.000000,60662274.000000
212622783.000000,60680672.000000
212678450.000000,60734056.000000
212700000.000000,60811241.000000
212700000.000000,61288759.000000
212680038.000000,61363259.000000
212625500.000000,61417797.000000
212551000.000000,61437759.000000
212473815.000000,61416209.000000
212462704.000000,61409480.000000
212462703.000000,61409480.000000
212455019.000000,61404826.000000
212354144.000000,61373213.000000
212306545.000000,61358296.000000
212306543.000000,61358296.000000
212299004.000000,61355933.000000
212243174.000000,61350803.000000
212232399.000000,61349813.000000
212232398.000000,61349813.000000
212228992.000000,61349500.000000
210371008.000000,61349500.000000
210367602.000000,61349813.000000
210367601.000000,61349813.000000
210356826.000000,61350803.000000
210300996.000000,61355933.000000
210293457.000000,61358296.000000
210293455.000000,61358296.000000
210245856.000000,61373213.000000
210144981.000000,61404826.000000
210005131.000000,61489521.000000
209889521.000000,61605131.000000
209804826.000000,61744981.000000
209802141.000000,61753549.000000
209802136.000000,61753560.000000
209773462.000000,61845058.000000
209732135.000000,61910179.000000
209663783.000000,61945912.000000
209631281.000000,61949500.000000
207535571.000000,61949500.000000
207518058.000000,61948467.000000
207496749.000000,61945945.000000
207485689.000000,61944636.000000
207474733.000000,61946637.000000
207428347.000000,61955109.000000
207423726.000000,61955878.000000
207366038.000000,61964551.000000
207359525.000000,61967679.000000
207352427.000000,61968975.000000
207300681.000000,61995854.000000
207296529.000000,61997929.000000
207243921.000000,62023191.000000
207238618.000000,62028093.000000
207232211.000000,62031421.000000
207227172.000000,62035725.000000
207190240.000000,62072657.000000
207186022.000000,62076712.000000
207152623.000000,62107585.000000
207152622.000000,62107587.000000
207144444.000000,62115146.000000
207140606.000000,62121754.000000
207135995.000000,62126902.000000
206857037.000000,62405860.000000
206790242.000000,62444424.000000
206751678.000000,62449501.000000
202260570.000000,62449501.000000
202243057.000000,62448468.000000
202221748.000000,62445946.000000
202210688.000000,62444637.000000
202199732.000000,62446638.000000
202153346.000000,62455110.000000
202148725.000000,62455879.000000
202091037.000000,62464552.000000
202084524.000000,62467680.000000
202077426.000000,62468976.000000
202025680.000000,62495855.000000
202021528.000000,62497930.000000
201968920.000000,62523192.000000
201963617.000000,62528094.000000
201957210.000000,62531422.000000
201952171.000000,62535726.000000
201915239.000000,62572658.000000
201911021.000000,62576713.000000
201877622.000000,62607586.000000
201877621.000000,62607588.000000
201869443.000000,62615147.000000
201865605.000000,62621755.000000
201860994.000000,62626903.000000
201407038.000000,63080859.000000
201340243.000000,63119423.000000
201301679.000000,63124500.000000
200927402.000000,63124501.000000
200895704.000000,63124501.000000
200891250.000000,63125040.000000
200891249.000000,63125040.000000
200825090.000000,63133046.000000
200807962.000000,63135118.000000
200670911.000000,63189380.000000
200662818.000000,63195523.000000
200574967.000000,63262206.000000
200553500.000000,63278500.000000
200494995.000000,63355578.000000
200468423.000000,63390585.000000
200407480.000000,63437858.000000
200349740.000000,63449500.000000
189235572.000000,63449500.000000
189218059.000000,63448467.000000
189217856.000000,63448443.000000
189185690.000000,63444636.000000
189174734.000000,63446637.000000
189174731.000000,63446637.000000
189128332.000000,63455111.000000
189123716.000000,63455879.000000
189077057.000000,63462894.000000
189077055.000000,63462895.000000
189066038.000000,63464551.000000
189059525.000000,63467679.000000
189052427.000000,63468975.000000
189000687.000000,63495852.000000
188996535.000000,63497926.000000
188943921.000000,63523191.000000
188938617.000000,63528094.000000
188932212.000000,63531421.000000
188927172.000000,63535725.000000
188890240.000000,63572657.000000
188886022.000000,63576712.000000
188852623.000000,63607585.000000
188852622.000000,63607587.000000
188844444.000000,63615146.000000
188840606.000000,63621754.000000
188835995.000000,63626902.000000
186932038.000000,65530859.000000
186865243.000000,65569423.000000
186826679.000000,65574500.000000
185032228.000000,65574500.000000
184942453.000000,65585364.000000
184802217.000000,65640887.000000
184682078.000000,65732078.000000
184590887.000000,65852217.000000
184535364.000000,65992453.000000
184524500.000000,66082228.000000
184524500.000000,67917772.000000
184535364.000000,68007547.000000
184590887.000000,68147783.000000
184682078.000000,68267922.000000
184802217.000000,68359113.000000
184932310.000000,68410620.000000
184936965.000000,68412463.000000
184998885.000000,68458449.000000
185029517.000000,68529233.000000
185020652.000000,68605850.000000
184974666.000000,68667770.000000
184903882.000000,68698402.000000
184882115.000000,68700000.000000
184039280.000000,68700000.000000
184013407.000000,68697736.000000
184000000.000000,68695372.000000
183987163.000000,68697635.000000
183983312.000000,68697635.000000
183968712.000000,68696918.000000
183878038.000000,68687988.000000
183849390.000000,68682289.000000
183797779.000000,68666633.000000
183746165.000000,68650976.000000
183719180.000000,68639799.000000
183624042.000000,68588946.000000
183599760.000000,68572721.000000
183516368.000000,68504284.000000
183495715.000000,68483631.000000
183489042.000000,68475500.000000
183427279.000000,68400240.000000
183411054.000000,68375958.000000
183377619.000000,68313407.000000
183360200.000000,68280819.000000
183349023.000000,68253833.000000
183333934.000000,68204089.000000
183317711.000000,68150610.000000
183312012.000000,68121962.000000
183303082.000000,68031288.000000
183302365.000000,68016688.000000
183302365.000000,68012837.000000
183304628.000000,68000000.000000
183302264.000000,67986593.000000
183300000.000000,67960720.000000
183300000.000000,55039280.000000
183302264.000000,55013407.000000
183302364.000000,55012838.000000
183304628.000000,55000000.000000
183302365.000000,54987163.000000
183302365.000000,54983312.000000
183303082.000000,54968712.000000
183312012.000000,54878038.000000
183317711.000000,54849390.000000
183349023.000000,54746167.000000
183360201.000000,54719180.000000
183365714.000000,54708867.000000
183411054.000000,54624042.000000
183427279.000000,54599760.000000
183495716.000000,54516368.000000
183516369.000000,54495715.000000
183528554.000000,54485715.000000
183599760.000000,54427279.000000
183624042.000000,54411054.000000
183719180.000000,54360201.000000
183746165.000000,54349024.000000
183841969.000000,54319962.000000
183849390.000000,54317711.000000
183878038.000000,54312012.000000
183968712.000000,54303082.000000
183983312.000000,54302365.000000
183987163.000000,54302365.000000
184000000.000000,54304628.000000
184013407.000000,54302264.000000
184039280.000000,54300000.000000
188375585.000000,54300000.000000
Z" /> 
<path style="fill:#000000; fill-opacity:1.0; 
stroke:#000000; stroke-width:1.000000; stroke-opacity:1; 
stroke-linecap:round; stroke-linejoin:round;fill-rule:evenodd;"
d="M 204936191.000000,65345452.000000
204990729.000000,65399990.000000
205010691.000000,65474490.000000
204990729.000000,65548990.000000
204967050.000000,65579849.000000
204316030.000000,66230869.000000
204249235.000000,66269433.000000
204210671.000000,66274510.000000
202235562.000000,66274510.000000
202218049.000000,66273477.000000
202217846.000000,66273453.000000
202185680.000000,66269646.000000
202146184.000000,66276859.000000
202069312.000000,66270606.000000
202005863.000000,66226754.000000
201972841.000000,66157052.000000
201971496.000000,66112381.000000
201972207.000000,66106507.000000
201975500.000000,66079297.000000
201975499.000000,65748321.000000
201995461.000000,65673822.000000
202019140.000000,65642963.000000
202292972.000000,65369131.000000
202359767.000000,65330567.000000
202398331.000000,65325490.000000
204861691.000000,65325490.000000
Z" /> 
<path style="fill:#000000; fill-opacity:1.0; 
stroke:#000000; stroke-width:1.000000; stroke-opacity:1; 
stroke-linecap:round; stroke-linejoin:round;fill-rule:evenodd;"
d="M 209705781.000000,62870462.000000
209760319.000000,62925000.000000
209773462.000000,62954942.000000
209802136.000000,63046440.000000
209802141.000000,63046451.000000
209804826.000000,63055019.000000
209889521.000000,63194869.000000
210005131.000000,63310479.000000
210144981.000000,63395174.000000
210235394.000000,63423508.000000
210293455.000000,63441704.000000
210293457.000000,63441704.000000
210300996.000000,63444067.000000
210356826.000000,63449197.000000
210367601.000000,63450187.000000
210367602.000000,63450187.000000
210371008.000000,63450500.000000
212228992.000000,63450500.000000
212232398.000000,63450187.000000
212232399.000000,63450187.000000
212243174.000000,63449197.000000
212299004.000000,63444067.000000
212306543.000000,63441704.000000
212306545.000000,63441704.000000
212364606.000000,63423508.000000
212455019.000000,63395174.000000
212473815.000000,63383791.000000
212547881.000000,63362274.000000
212622783.000000,63380672.000000
212678450.000000,63434056.000000
212700000.000000,63511241.000000
212700000.000000,63988759.000000
212680038.000000,64063259.000000
212625500.000000,64117797.000000
212551000.000000,64137759.000000
212473815.000000,64116209.000000
212462704.000000,64109480.000000
212462703.000000,64109480.000000
212455019.000000,64104826.000000
212322381.000000,64063259.000000
212306545.000000,64058296.000000
212306543.000000,64058296.000000
212299004.000000,64055933.000000
212243174.000000,64050803.000000
212232399.000000,64049813.000000
212232398.000000,64049813.000000
212228992.000000,64049500.000000
210371008.000000,64049500.000000
210367602.000000,64049813.000000
210367601.000000,64049813.000000
210356826.000000,64050803.000000
210300996.000000,64055933.000000
210293457.000000,64058296.000000
210293455.000000,64058296.000000
210277619.000000,64063259.000000
210144981.000000,64104826.000000
210005131.000000,64189521.000000
209889521.000000,64305131.000000
209884867.000000,64312816.000000
209860728.000000,64352675.000000
209805061.000000,64406059.000000
209733278.000000,64424490.000000
202185581.000000,64424490.000000
202168068.000000,64423457.000000
202167212.000000,64423356.000000
202135699.000000,64419626.000000
202124745.000000,64421627.000000
202118942.000000,64421809.000000
202043852.000000,64404197.000000
201987628.000000,64351399.000000
201965336.000000,64277563.000000
201966341.000000,64254982.000000
201973494.000000,64195874.000000
201975500.000000,64179297.000000
201975499.000000,63848321.000000
201995461.000000,63773822.000000
202019140.000000,63742963.000000
202367961.000000,63394142.000000
202434756.000000,63355578.000000
202473320.000000,63350501.000000
206964427.000000,63350501.000000
206981940.000000,63351534.000000
207014309.000000,63355365.000000
207025265.000000,63353364.000000
207025268.000000,63353364.000000
207071667.000000,63344890.000000
207076283.000000,63344122.000000
207122942.000000,63337107.000000
207122944.000000,63337106.000000
207133961.000000,63335450.000000
207140474.000000,63332322.000000
207147572.000000,63331026.000000
207199312.000000,63304149.000000
207203464.000000,63302075.000000
207256078.000000,63276810.000000
207261382.000000,63271907.000000
207267787.000000,63268580.000000
207272827.000000,63264276.000000
207309759.000000,63227344.000000
207313977.000000,63223289.000000
207347376.000000,63192416.000000
207347377.000000,63192414.000000
207355555.000000,63184855.000000
207359393.000000,63178247.000000
207364004.000000,63173099.000000
207642962.000000,62894141.000000
207709757.000000,62855577.000000
207748321.000000,62850500.000000
209631281.000000,62850500.000000
Z" /> 
<path style="fill:#000000; fill-opacity:1.0; 
stroke:#000000; stroke-width:1.000000; stroke-opacity:1; 
stroke-linecap:round; stroke-linejoin:round;fill-rule:evenodd;"
d="M 196232531.000000,55320452.000000
196287069.000000,55374990.000000
196307031.000000,55449490.000000
196305953.000000,55467383.000000
196299500.000000,55520703.000000
196299501.000000,56079296.000000
196310118.000000,56167038.000000
196364380.000000,56304089.000000
196453500.000000,56421500.000000
196570911.000000,56510620.000000
196580356.000000,56514360.000000
196589207.000000,56519347.000000
196588576.000000,56520466.000000
196642274.000000,56560349.000000
196672902.000000,56631135.000000
196674500.000000,56652895.000000
196674500.000000,56747105.000000
196654538.000000,56821605.000000
196600000.000000,56876143.000000
196580374.000000,56885630.000000
196580354.000000,56885641.000000
196570911.000000,56889380.000000
196453500.000000,56978500.000000
196447357.000000,56986593.000000
196425351.000000,57015585.000000
196364408.000000,57062858.000000
196306668.000000,57074500.000000
196225260.000000,57074500.000000
196150760.000000,57054538.000000
196106577.000000,57015585.000000
196027643.000000,56911593.000000
196021500.000000,56903500.000000
195904089.000000,56814380.000000
195789131.000000,56768865.000000
195775932.000000,56763639.000000
195775929.000000,56763638.000000
195767038.000000,56760118.000000
195679297.000000,56749500.000000
195400063.000000,56749500.000000
195120704.000000,56749501.000000
195116250.000000,56750040.000000
195116249.000000,56750040.000000
195050090.000000,56758046.000000
195032962.000000,56760118.000000
194895911.000000,56814380.000000
194778500.000000,56903500.000000
194689380.000000,57020911.000000
194669431.000000,57071297.000000
194641117.000000,57142811.000000
194635118.000000,57157962.000000
194624500.000000,57245703.000000
194624501.000000,57904296.000000
194635118.000000,57992038.000000
194689380.000000,58129089.000000
194778500.000000,58246500.000000
194874473.000000,58319347.000000
194890585.000000,58331577.000000
194937858.000000,58392520.000000
194949500.000000,58450260.000000
194949500.000000,58964428.000000
194948467.000000,58981941.000000
194944636.000000,59014310.000000
194946637.000000,59025269.000000
194946987.000000,59036402.000000
194944914.000000,59036467.000000
194939825.000000,59099062.000000
194895975.000000,59162513.000000
194826275.000000,59195538.000000
194749401.000000,59189288.000000
194702261.000000,59158147.000000
194701107.000000,59159587.000000
194692415.000000,59152623.000000
194684854.000000,59144444.000000
194678246.000000,59140606.000000
194673098.000000,59135995.000000
194003608.000000,58466505.000000
193965044.000000,58399710.000000
193965044.000000,58322582.000000
194003608.000000,58255787.000000
194018882.000000,58242463.000000
194038408.000000,58227642.000000
194046500.000000,58221500.000000
194135620.000000,58104089.000000
194189882.000000,57967038.000000
194200500.000000,57879297.000000
194200499.000000,57320704.000000
194199827.000000,57315146.000000
194191032.000000,57242466.000000
194189882.000000,57232962.000000
194135620.000000,57095911.000000
194046500.000000,56978500.000000
193929089.000000,56889380.000000
193919644.000000,56885640.000000
193910793.000000,56880653.000000
193911424.000000,56879534.000000
193857726.000000,56839651.000000
193827098.000000,56768865.000000
193825500.000000,56747105.000000
193825500.000000,56652895.000000
193845462.000000,56578395.000000
193900000.000000,56523857.000000
193919626.000000,56514370.000000
193919646.000000,56514359.000000
193929089.000000,56510620.000000
194046500.000000,56421500.000000
194135620.000000,56304089.000000
194161001.000000,56239984.000000
194186361.000000,56175932.000000
194186362.000000,56175929.000000
194189882.000000,56167038.000000
194200500.000000,56079297.000000
194200499.000000,55520704.000000
194199840.000000,55515259.000000
194194048.000000,55467388.000000
194204916.000000,55391030.000000
194252508.000000,55330336.000000
194324071.000000,55301569.000000
194341969.000000,55300490.000000
196158031.000000,55300490.000000
Z" /> 
<path style="fill:#000000; fill-opacity:1.0; 
stroke:#000000; stroke-width:1.000000; stroke-opacity:1; 
stroke-linecap:round; stroke-linejoin:round;fill-rule:evenodd;"
d="M 200126169.000000,55320452.000000
200157028.000000,55344131.000000
200256291.000000,55443394.000000
200267944.000000,55456507.000000
200288128.000000,55482110.000000
200297290.000000,55488442.000000
200297292.000000,55488444.000000
200336090.000000,55515259.000000
200339898.000000,55517980.000000
200349657.000000,55525188.000000
200386816.000000,55552634.000000
200393632.000000,55555027.000000
200399569.000000,55559131.000000
200410190.000000,55562490.000000
200455165.000000,55576714.000000
200459580.000000,55578187.000000
200503526.000000,55593619.000000
200567202.000000,55637137.000000
200597060.000000,55699315.000000
200598334.000000,55698965.000000
200600265.000000,55705990.000000
200600589.000000,55706665.000000
200600764.000000,55707806.000000
200601297.000000,55709744.000000
200602618.000000,55720846.000000
200648061.000000,55823153.000000
200727287.000000,55902241.000000
200739867.000000,55907803.000000
200739869.000000,55907804.000000
200819426.000000,55942976.000000
200829673.000000,55947506.000000
200844318.000000,55949213.000000
200851070.000000,55950001.000000
200851078.000000,55950001.000000
200855354.000000,55950500.000000
201944646.000000,55950500.000000
201970846.000000,55947382.000000
202073153.000000,55901939.000000
202152241.000000,55822713.000000
202197506.000000,55720327.000000
202198717.000000,55709937.000000
202237356.000000,55643682.000000
202304318.000000,55605410.000000
202342254.000000,55600500.000000
202500500.000000,55600500.000000
202575000.000000,55620462.000000
202629538.000000,55675000.000000
202649500.000000,55749500.000000
202649500.000000,56628992.000000
202655933.000000,56699004.000000
202704826.000000,56855019.000000
202789521.000000,56994869.000000
202905131.000000,57110479.000000
203044981.000000,57195174.000000
203135394.000000,57223508.000000
203193455.000000,57241704.000000
203193457.000000,57241704.000000
203200996.000000,57244067.000000
203256826.000000,57249197.000000
203267601.000000,57250187.000000
203267602.000000,57250187.000000
203271008.000000,57250500.000000
204128992.000000,57250500.000000
204132398.000000,57250187.000000
204132399.000000,57250187.000000
204143174.000000,57249197.000000
204199004.000000,57244067.000000
204206543.000000,57241704.000000
204206545.000000,57241704.000000
204262839.000000,57224062.000000
204355019.000000,57195174.000000
204362701.000000,57190522.000000
204366058.000000,57189006.000000
204442172.000000,57176542.000000
204514321.000000,57203804.000000
204563173.000000,57263489.000000
204575637.000000,57339603.000000
204548375.000000,57411752.000000
204532733.000000,57430164.000000
203957038.000000,58005859.000000
203890243.000000,58044423.000000
203851679.000000,58049500.000000
203185572.000000,58049500.000000
203168059.000000,58048467.000000
203167856.000000,58048443.000000
203135690.000000,58044636.000000
203124734.000000,58046637.000000
203124729.000000,58046637.000000
203078328.000000,58055111.000000
203073715.000000,58055879.000000
203045695.000000,58060092.000000
203016038.000000,58064551.000000
203009528.000000,58067677.000000
203002427.000000,58068974.000000
202992538.000000,58074111.000000
202950703.000000,58095843.000000
202946514.000000,58097936.000000
202903964.000000,58118368.000000
202903962.000000,58118370.000000
202893921.000000,58123191.000000
202888617.000000,58128094.000000
202882212.000000,58131421.000000
202877172.000000,58135725.000000
202840240.000000,58172657.000000
202836022.000000,58176712.000000
202802623.000000,58207585.000000
202802622.000000,58207587.000000
202794444.000000,58215146.000000
202790606.000000,58221754.000000
202785995.000000,58226902.000000
202299298.000000,58713599.000000
202232503.000000,58752163.000000
202155375.000000,58752163.000000
202088671.000000,58713689.000000
202072713.000000,58697759.000000
202060133.000000,58692197.000000
202060131.000000,58692196.000000
201980574.000000,58657024.000000
201980573.000000,58657024.000000
201970327.000000,58652494.000000
201955682.000000,58650787.000000
201948930.000000,58649999.000000
201948922.000000,58649999.000000
201944646.000000,58649500.000000
201298321.000000,58649500.000000
201223821.000000,58629538.000000
201192962.000000,58605859.000000
199893709.000000,57306606.000000
199882056.000000,57293493.000000
199868767.000000,57276636.000000
199868766.000000,57276636.000000
199861872.000000,57267890.000000
199852710.000000,57261558.000000
199852708.000000,57261556.000000
199813910.000000,57234741.000000
199810102.000000,57232020.000000
199772143.000000,57203983.000000
199772142.000000,57203982.000000
199763184.000000,57197366.000000
199756368.000000,57194973.000000
199750431.000000,57190869.000000
199739807.000000,57187509.000000
199729694.000000,57184310.000000
199664682.000000,57142811.000000
199646149.000000,57113190.000000
199644346.000000,57114206.000000
199639360.000000,57105358.000000
199635620.000000,57095911.000000
199546500.000000,56978500.000000
199429089.000000,56889380.000000
199419644.000000,56885640.000000
199410793.000000,56880653.000000
199411424.000000,56879534.000000
199357726.000000,56839651.000000
199327098.000000,56768865.000000
199325500.000000,56747105.000000
199325500.000000,56652895.000000
199345462.000000,56578395.000000
199400000.000000,56523857.000000
199419626.000000,56514370.000000
199419646.000000,56514359.000000
199429089.000000,56510620.000000
199546500.000000,56421500.000000
199635620.000000,56304089.000000
199661001.000000,56239984.000000
199686361.000000,56175932.000000
199686362.000000,56175929.000000
199689882.000000,56167038.000000
199700500.000000,56079297.000000
199700499.000000,55520704.000000
199699840.000000,55515259.000000
199694048.000000,55467388.000000
199704916.000000,55391030.000000
199752508.000000,55330336.000000
199824071.000000,55301569.000000
199841969.000000,55300490.000000
200051669.000000,55300490.000000
Z" /> 
</g>
</g>
</g> 
</svg>
