<?xml version="1.0" standalone="no"?>
 <!DOCTYPE svg PUBLIC "-//W3C//DTD SVG 1.1//EN" 
 "http://www.w3.org/Graphics/SVG/1.1/DTD/svg11.dtd"> 
<svg
  xmlns:svg="http://www.w3.org/2000/svg"
  xmlns="http://www.w3.org/2000/svg"
  xmlns:xlink="http://www.w3.org/1999/xlink"
  version="1.1"
  width="29.700220cm" height="21.000720cm" viewBox="0 0 297002200 210007200">
<title>SVG Picture created as miniRGBii-F_Fab.svg date 2022/02/26 19:24:15 </title>
  <desc>Picture generated by PCBNEW </desc>
<g style="fill:#000000; fill-opacity:1.000000;stroke:#000000; stroke-opacity:1.000000;
stroke-linecap:round; stroke-linejoin:round;"
 transform="translate(0 0) scale(1 1)">
</g>
<g style="fill:#000000; fill-opacity:0.0; 
stroke:#000000; stroke-width:0.000000; stroke-opacity:1; 
stroke-linecap:round; stroke-linejoin:round;">
</g>
<g style="fill:#000000; fill-opacity:0.0; 
stroke:#000000; stroke-width:60000.000000; stroke-opacity:1; 
stroke-linecap:round; stroke-linejoin:round;">
<text x="192500000.000000" y="57800000.000000"
textLength="1814048.000000" font-size="533333.000000" lengthAdjust="spacingAndGlyphs"
text-anchor="middle" opacity="0">FIL15</text>
<g class="stroked-text"><desc>FIL15</desc>
<path d="M191919047 57571428
L191785714 57571428
" />
<path d="M191785714 57780952
L191785714 57380952
L191976190 57380952
" />
<path d="M192128571 57780952
L192128571 57380952
" />
<path d="M192509523 57780952
L192319047 57780952
L192319047 57380952
" />
<path d="M192852380 57780952
L192623809 57780952
" />
<path d="M192738095 57780952
L192738095 57380952
L192700000 57438095
L192661904 57476190
L192623809 57495238
" />
<path d="M193214285 57380952
L193023809 57380952
L193004761 57571428
L193023809 57552380
L193061904 57533333
L193157142 57533333
L193195238 57552380
L193214285 57571428
L193233333 57609523
L193233333 57704761
L193214285 57742857
L193195238 57761904
L193157142 57780952
L193061904 57780952
L193023809 57761904
L193004761 57742857
" />
</g><text x="198000000.000000" y="57800000.000000"
textLength="1697048.000000" font-size="533333.000000" lengthAdjust="spacingAndGlyphs"
text-anchor="middle" opacity="0">FIL16</text>
<g class="stroked-text"><desc>FIL16</desc>
<path d="M197419047 57571428
L197285714 57571428
" />
<path d="M197285714 57780952
L197285714 57380952
L197476190 57380952
" />
<path d="M197628571 57780952
L197628571 57380952
" />
<path d="M198009523 57780952
L197819047 57780952
L197819047 57380952
" />
<path d="M198352380 57780952
L198123809 57780952
" />
<path d="M198238095 57780952
L198238095 57380952
L198200000 57438095
L198161904 57476190
L198123809 57495238
" />
<path d="M198695238 57380952
L198619047 57380952
L198580952 57400000
L198561904 57419047
L198523809 57476190
L198504761 57552380
L198504761 57704761
L198523809 57742857
L198542857 57761904
L198580952 57780952
L198657142 57780952
L198695238 57761904
L198714285 57742857
L198733333 57704761
L198733333 57609523
L198714285 57571428
L198695238 57552380
L198657142 57533333
L198580952 57533333
L198542857 57552380
L198523809 57571428
L198504761 57609523
" />
</g><text x="187000000.000000" y="57800000.000000"
textLength="1697048.000000" font-size="533333.000000" lengthAdjust="spacingAndGlyphs"
text-anchor="middle" opacity="0">FIL17</text>
<g class="stroked-text"><desc>FIL17</desc>
<path d="M186419047 57571428
L186285714 57571428
" />
<path d="M186285714 57780952
L186285714 57380952
L186476190 57380952
" />
<path d="M186628571 57780952
L186628571 57380952
" />
<path d="M187009523 57780952
L186819047 57780952
L186819047 57380952
" />
<path d="M187352380 57780952
L187123809 57780952
" />
<path d="M187238095 57780952
L187238095 57380952
L187200000 57438095
L187161904 57476190
L187123809 57495238
" />
<path d="M187485714 57380952
L187752380 57380952
L187580952 57780952
" />
</g><text x="192500000.000000" y="56000000.000000"
textLength="1239905.000000" font-size="533333.000000" lengthAdjust="spacingAndGlyphs"
text-anchor="middle" opacity="0">C66</text>
<g class="stroked-text"><desc>C66</desc>
<path d="M192242857 55942857
L192223809 55961904
L192166666 55980952
L192128571 55980952
L192071428 55961904
L192033333 55923809
L192014285 55885714
L191995238 55809523
L191995238 55752380
L192014285 55676190
L192033333 55638095
L192071428 55600000
L192128571 55580952
L192166666 55580952
L192223809 55600000
L192242857 55619047
" />
<path d="M192585714 55580952
L192509523 55580952
L192471428 55600000
L192452380 55619047
L192414285 55676190
L192395238 55752380
L192395238 55904761
L192414285 55942857
L192433333 55961904
L192471428 55980952
L192547619 55980952
L192585714 55961904
L192604761 55942857
L192623809 55904761
L192623809 55809523
L192604761 55771428
L192585714 55752380
L192547619 55733333
L192471428 55733333
L192433333 55752380
L192414285 55771428
L192395238 55809523
" />
<path d="M192966666 55580952
L192890476 55580952
L192852380 55600000
L192833333 55619047
L192795238 55676190
L192776190 55752380
L192776190 55904761
L192795238 55942857
L192814285 55961904
L192852380 55980952
L192928571 55980952
L192966666 55961904
L192985714 55942857
L193004761 55904761
L193004761 55809523
L192985714 55771428
L192966666 55752380
L192928571 55733333
L192852380 55733333
L192814285 55752380
L192795238 55771428
L192776190 55809523
" />
</g><g transform="rotate(-90.000000 189900000.000000 56700000.000000)">
<text x="189900000.000000" y="56900000.000000"
textLength="1239905.000000" font-size="533333.000000" lengthAdjust="spacingAndGlyphs"
text-anchor="middle" opacity="0">C72</text>
</g>
<g class="stroked-text"><desc>C72</desc>
<path d="M190042857 56957142
L190061904 56976190
L190080952 57033333
L190080952 57071428
L190061904 57128571
L190023809 57166666
L189985714 57185714
L189909523 57204761
L189852380 57204761
L189776190 57185714
L189738095 57166666
L189700000 57128571
L189680952 57071428
L189680952 57033333
L189700000 56976190
L189719047 56957142
" />
<path d="M189680952 56823809
L189680952 56557142
L190080952 56728571
" />
<path d="M189719047 56423809
L189700000 56404761
L189680952 56366666
L189680952 56271428
L189700000 56233333
L189719047 56214285
L189757142 56195238
L189795238 56195238
L189852380 56214285
L190080952 56442857
L190080952 56195238
" />
</g><text x="198000000.000000" y="56000000.000000"
textLength="1239905.000000" font-size="533333.000000" lengthAdjust="spacingAndGlyphs"
text-anchor="middle" opacity="0">C74</text>
<g class="stroked-text"><desc>C74</desc>
<path d="M197742857 55942857
L197723809 55961904
L197666666 55980952
L197628571 55980952
L197571428 55961904
L197533333 55923809
L197514285 55885714
L197495238 55809523
L197495238 55752380
L197514285 55676190
L197533333 55638095
L197571428 55600000
L197628571 55580952
L197666666 55580952
L197723809 55600000
L197742857 55619047
" />
<path d="M197876190 55580952
L198142857 55580952
L197971428 55980952
" />
<path d="M198466666 55714285
L198466666 55980952
" />
<path d="M198371428 55561904
L198276190 55847619
L198523809 55847619
" />
</g><g transform="rotate(-90.000000 195400000.000000 56700000.000000)">
<text x="195400000.000000" y="56900000.000000"
textLength="1239905.000000" font-size="533333.000000" lengthAdjust="spacingAndGlyphs"
text-anchor="middle" opacity="0">C78</text>
</g>
<g class="stroked-text"><desc>C78</desc>
<path d="M195542857 56957142
L195561904 56976190
L195580952 57033333
L195580952 57071428
L195561904 57128571
L195523809 57166666
L195485714 57185714
L195409523 57204761
L195352380 57204761
L195276190 57185714
L195238095 57166666
L195200000 57128571
L195180952 57071428
L195180952 57033333
L195200000 56976190
L195219047 56957142
" />
<path d="M195180952 56823809
L195180952 56557142
L195580952 56728571
" />
<path d="M195352380 56347619
L195333333 56385714
L195314285 56404761
L195276190 56423809
L195257142 56423809
L195219047 56404761
L195200000 56385714
L195180952 56347619
L195180952 56271428
L195200000 56233333
L195219047 56214285
L195257142 56195238
L195276190 56195238
L195314285 56214285
L195333333 56233333
L195352380 56271428
L195352380 56347619
L195371428 56385714
L195390476 56404761
L195428571 56423809
L195504761 56423809
L195542857 56404761
L195561904 56385714
L195580952 56347619
L195580952 56271428
L195561904 56233333
L195542857 56214285
L195504761 56195238
L195428571 56195238
L195390476 56214285
L195371428 56233333
L195352380 56271428
" />
</g><text x="187000000.000000" y="56000000.000000"
textLength="1239905.000000" font-size="533333.000000" lengthAdjust="spacingAndGlyphs"
text-anchor="middle" opacity="0">C83</text>
<g class="stroked-text"><desc>C83</desc>
<path d="M186742857 55942857
L186723809 55961904
L186666666 55980952
L186628571 55980952
L186571428 55961904
L186533333 55923809
L186514285 55885714
L186495238 55809523
L186495238 55752380
L186514285 55676190
L186533333 55638095
L186571428 55600000
L186628571 55580952
L186666666 55580952
L186723809 55600000
L186742857 55619047
" />
<path d="M186971428 55752380
L186933333 55733333
L186914285 55714285
L186895238 55676190
L186895238 55657142
L186914285 55619047
L186933333 55600000
L186971428 55580952
L187047619 55580952
L187085714 55600000
L187104761 55619047
L187123809 55657142
L187123809 55676190
L187104761 55714285
L187085714 55733333
L187047619 55752380
L186971428 55752380
L186933333 55771428
L186914285 55790476
L186895238 55828571
L186895238 55904761
L186914285 55942857
L186933333 55961904
L186971428 55980952
L187047619 55980952
L187085714 55961904
L187104761 55942857
L187123809 55904761
L187123809 55828571
L187104761 55790476
L187085714 55771428
L187047619 55752380
" />
<path d="M187257142 55580952
L187504761 55580952
L187371428 55733333
L187428571 55733333
L187466666 55752380
L187485714 55771428
L187504761 55809523
L187504761 55904761
L187485714 55942857
L187466666 55961904
L187428571 55980952
L187314285 55980952
L187276190 55961904
L187257142 55942857
" />
</g><g transform="rotate(-90.000000 184400000.000000 56700000.000000)">
<text x="184400000.000000" y="56900000.000000"
textLength="1239905.000000" font-size="533333.000000" lengthAdjust="spacingAndGlyphs"
text-anchor="middle" opacity="0">C85</text>
</g>
<g class="stroked-text"><desc>C85</desc>
<path d="M184542857 56957142
L184561904 56976190
L184580952 57033333
L184580952 57071428
L184561904 57128571
L184523809 57166666
L184485714 57185714
L184409523 57204761
L184352380 57204761
L184276190 57185714
L184238095 57166666
L184200000 57128571
L184180952 57071428
L184180952 57033333
L184200000 56976190
L184219047 56957142
" />
<path d="M184352380 56728571
L184333333 56766666
L184314285 56785714
L184276190 56804761
L184257142 56804761
L184219047 56785714
L184200000 56766666
L184180952 56728571
L184180952 56652380
L184200000 56614285
L184219047 56595238
L184257142 56576190
L184276190 56576190
L184314285 56595238
L184333333 56614285
L184352380 56652380
L184352380 56728571
L184371428 56766666
L184390476 56785714
L184428571 56804761
L184504761 56804761
L184542857 56785714
L184561904 56766666
L184580952 56728571
L184580952 56652380
L184561904 56614285
L184542857 56595238
L184504761 56576190
L184428571 56576190
L184390476 56595238
L184371428 56614285
L184352380 56652380
" />
<path d="M184180952 56214285
L184180952 56404761
L184371428 56423809
L184352380 56404761
L184333333 56366666
L184333333 56271428
L184352380 56233333
L184371428 56214285
L184409523 56195238
L184504761 56195238
L184542857 56214285
L184561904 56233333
L184580952 56271428
L184580952 56366666
L184561904 56404761
L184542857 56423809
" />
</g></g>
<g style="fill:#000000; fill-opacity:0.0; 
stroke:#000000; stroke-width:150000.000000; stroke-opacity:1; 
stroke-linecap:round; stroke-linejoin:round;">
<g transform="rotate(-90.000000 186100000.000000 63800000.000000)">
<text x="186100000.000000" y="64300000.000000"
textLength="2982762.000000" font-size="1333333.000000" lengthAdjust="spacingAndGlyphs"
text-anchor="middle" opacity="0">C84</text>
</g>
<g class="stroked-text"><desc>C84</desc>
<path d="M186457142 64442857
L186504761 64490476
L186552380 64633333
L186552380 64728571
L186504761 64871428
L186409523 64966666
L186314285 65014285
L186123809 65061904
L185980952 65061904
L185790476 65014285
L185695238 64966666
L185600000 64871428
L185552380 64728571
L185552380 64633333
L185600000 64490476
L185647619 64442857
" />
<path d="M185980952 63871428
L185933333 63966666
L185885714 64014285
L185790476 64061904
L185742857 64061904
L185647619 64014285
L185600000 63966666
L185552380 63871428
L185552380 63680952
L185600000 63585714
L185647619 63538095
L185742857 63490476
L185790476 63490476
L185885714 63538095
L185933333 63585714
L185980952 63680952
L185980952 63871428
L186028571 63966666
L186076190 64014285
L186171428 64061904
L186361904 64061904
L186457142 64014285
L186504761 63966666
L186552380 63871428
L186552380 63680952
L186504761 63585714
L186457142 63538095
L186361904 63490476
L186171428 63490476
L186076190 63538095
L186028571 63585714
L185980952 63680952
" />
<path d="M185885714 62633333
L186552380 62633333
" />
<path d="M185504761 62871428
L186219047 63109523
L186219047 62490476
" />
</g><g transform="rotate(-90.000000 191600000.000000 63800000.000000)">
<text x="191600000.000000" y="64300000.000000"
textLength="3099762.000000" font-size="1333333.000000" lengthAdjust="spacingAndGlyphs"
text-anchor="middle" opacity="0">C69</text>
</g>
<g class="stroked-text"><desc>C69</desc>
<path d="M191957142 64442857
L192004761 64490476
L192052380 64633333
L192052380 64728571
L192004761 64871428
L191909523 64966666
L191814285 65014285
L191623809 65061904
L191480952 65061904
L191290476 65014285
L191195238 64966666
L191100000 64871428
L191052380 64728571
L191052380 64633333
L191100000 64490476
L191147619 64442857
" />
<path d="M191052380 63585714
L191052380 63776190
L191100000 63871428
L191147619 63919047
L191290476 64014285
L191480952 64061904
L191861904 64061904
L191957142 64014285
L192004761 63966666
L192052380 63871428
L192052380 63680952
L192004761 63585714
L191957142 63538095
L191861904 63490476
L191623809 63490476
L191528571 63538095
L191480952 63585714
L191433333 63680952
L191433333 63871428
L191480952 63966666
L191528571 64014285
L191623809 64061904
" />
<path d="M192052380 63014285
L192052380 62823809
L192004761 62728571
L191957142 62680952
L191814285 62585714
L191623809 62538095
L191242857 62538095
L191147619 62585714
L191100000 62633333
L191052380 62728571
L191052380 62919047
L191100000 63014285
L191147619 63061904
L191242857 63109523
L191480952 63109523
L191576190 63061904
L191623809 63014285
L191671428 62919047
L191671428 62728571
L191623809 62633333
L191576190 62585714
L191480952 62538095
" />
</g><g transform="rotate(-90.000000 197100000.000000 63800000.000000)">
<text x="197100000.000000" y="64300000.000000"
textLength="3099762.000000" font-size="1333333.000000" lengthAdjust="spacingAndGlyphs"
text-anchor="middle" opacity="0">C64</text>
</g>
<g class="stroked-text"><desc>C64</desc>
<path d="M197457142 64442857
L197504761 64490476
L197552380 64633333
L197552380 64728571
L197504761 64871428
L197409523 64966666
L197314285 65014285
L197123809 65061904
L196980952 65061904
L196790476 65014285
L196695238 64966666
L196600000 64871428
L196552380 64728571
L196552380 64633333
L196600000 64490476
L196647619 64442857
" />
<path d="M196552380 63585714
L196552380 63776190
L196600000 63871428
L196647619 63919047
L196790476 64014285
L196980952 64061904
L197361904 64061904
L197457142 64014285
L197504761 63966666
L197552380 63871428
L197552380 63680952
L197504761 63585714
L197457142 63538095
L197361904 63490476
L197123809 63490476
L197028571 63538095
L196980952 63585714
L196933333 63680952
L196933333 63871428
L196980952 63966666
L197028571 64014285
L197123809 64061904
" />
<path d="M196885714 62633333
L197552380 62633333
" />
<path d="M196504761 62871428
L197219047 63109523
L197219047 62490476
" />
</g></g>
<g style="fill:#000000; fill-opacity:0.0; 
stroke:#000000; stroke-width:60000.000000; stroke-opacity:1; 
stroke-linecap:round; stroke-linejoin:round;">
<text x="202100000.000000" y="66000000.000000"
textLength="1356905.000000" font-size="533333.000000" lengthAdjust="spacingAndGlyphs"
text-anchor="middle" opacity="0">R40</text>
<g class="stroked-text"><desc>R40</desc>
<path d="M201842857 65980952
L201709523 65790476
" />
<path d="M201614285 65980952
L201614285 65580952
L201766666 65580952
L201804761 65600000
L201823809 65619047
L201842857 65657142
L201842857 65714285
L201823809 65752380
L201804761 65771428
L201766666 65790476
L201614285 65790476
" />
<path d="M202185714 65714285
L202185714 65980952
" />
<path d="M202090476 65561904
L201995238 65847619
L202242857 65847619
" />
<path d="M202471428 65580952
L202509523 65580952
L202547619 65600000
L202566666 65619047
L202585714 65657142
L202604761 65733333
L202604761 65828571
L202585714 65904761
L202566666 65942857
L202547619 65961904
L202509523 65980952
L202471428 65980952
L202433333 65961904
L202414285 65942857
L202395238 65904761
L202376190 65828571
L202376190 65733333
L202395238 65657142
L202414285 65619047
L202433333 65600000
L202471428 65580952
" />
</g><text x="202100000.000000" y="64100000.000000"
textLength="1239905.000000" font-size="533333.000000" lengthAdjust="spacingAndGlyphs"
text-anchor="middle" opacity="0">R37</text>
<g class="stroked-text"><desc>R37</desc>
<path d="M201842857 64080952
L201709523 63890476
" />
<path d="M201614285 64080952
L201614285 63680952
L201766666 63680952
L201804761 63700000
L201823809 63719047
L201842857 63757142
L201842857 63814285
L201823809 63852380
L201804761 63871428
L201766666 63890476
L201614285 63890476
" />
<path d="M201976190 63680952
L202223809 63680952
L202090476 63833333
L202147619 63833333
L202185714 63852380
L202204761 63871428
L202223809 63909523
L202223809 64004761
L202204761 64042857
L202185714 64061904
L202147619 64080952
L202033333 64080952
L201995238 64061904
L201976190 64042857
" />
<path d="M202357142 63680952
L202623809 63680952
L202452380 64080952
" />
</g><text x="202100000.000000" y="67900000.000000"
textLength="1239905.000000" font-size="533333.000000" lengthAdjust="spacingAndGlyphs"
text-anchor="middle" opacity="0">R39</text>
<g class="stroked-text"><desc>R39</desc>
<path d="M201842857 67880952
L201709523 67690476
" />
<path d="M201614285 67880952
L201614285 67480952
L201766666 67480952
L201804761 67500000
L201823809 67519047
L201842857 67557142
L201842857 67614285
L201823809 67652380
L201804761 67671428
L201766666 67690476
L201614285 67690476
" />
<path d="M201976190 67480952
L202223809 67480952
L202090476 67633333
L202147619 67633333
L202185714 67652380
L202204761 67671428
L202223809 67709523
L202223809 67804761
L202204761 67842857
L202185714 67861904
L202147619 67880952
L202033333 67880952
L201995238 67861904
L201976190 67842857
" />
<path d="M202414285 67880952
L202490476 67880952
L202528571 67861904
L202547619 67842857
L202585714 67785714
L202604761 67709523
L202604761 67557142
L202585714 67519047
L202566666 67500000
L202528571 67480952
L202452380 67480952
L202414285 67500000
L202395238 67519047
L202376190 67557142
L202376190 67652380
L202395238 67690476
L202414285 67709523
L202452380 67728571
L202528571 67728571
L202566666 67709523
L202585714 67690476
L202604761 67652380
" />
</g></g>
<g style="fill:#000000; fill-opacity:0.0; 
stroke:#000000; stroke-width:100000.000000; stroke-opacity:1; 
stroke-linecap:round; stroke-linejoin:round;">
<path d="M191700000 58000000
L191700000 57200000
" />
<path d="M193300000 58000000
L191700000 58000000
" />
<path d="M191700000 57200000
L193300000 57200000
" />
<path d="M193300000 57200000
L193300000 58000000
" />
<path d="M198800000 57200000
L198800000 58000000
" />
<path d="M197200000 57200000
L198800000 57200000
" />
<path d="M197200000 58000000
L197200000 57200000
" />
<path d="M198800000 58000000
L197200000 58000000
" />
<path d="M186200000 58000000
L186200000 57200000
" />
<path d="M187800000 57200000
L187800000 58000000
" />
<path d="M187800000 58000000
L186200000 58000000
" />
<path d="M186200000 57200000
L187800000 57200000
" />
<path d="M193300000 55400000
L193300000 56200000
" />
<path d="M191700000 55400000
L193300000 55400000
" />
<path d="M191700000 56200000
L191700000 55400000
" />
<path d="M193300000 56200000
L191700000 56200000
" />
<path d="M190300000 55900000
L190300000 57500000
" />
<path d="M190300000 57500000
L189500000 57500000
" />
<path d="M189500000 57500000
L189500000 55900000
" />
<path d="M189500000 55900000
L190300000 55900000
" />
<path d="M197200000 56200000
L197200000 55400000
" />
<path d="M198800000 55400000
L198800000 56200000
" />
<path d="M197200000 55400000
L198800000 55400000
" />
<path d="M198800000 56200000
L197200000 56200000
" />
<path d="M195800000 55900000
L195800000 57500000
" />
<path d="M195800000 57500000
L195000000 57500000
" />
<path d="M195000000 57500000
L195000000 55900000
" />
<path d="M195000000 55900000
L195800000 55900000
" />
<path d="M187800000 55400000
L187800000 56200000
" />
<path d="M186200000 56200000
L186200000 55400000
" />
<path d="M186200000 55400000
L187800000 55400000
" />
<path d="M187800000 56200000
L186200000 56200000
" />
<path d="M184000000 55900000
L184800000 55900000
" />
<path d="M184000000 57500000
L184000000 55900000
" />
<path d="M184800000 57500000
L184000000 57500000
" />
<path d="M184800000 55900000
L184800000 57500000
" />
<path d="M204400000 59800000
L204400000 61600000
" />
<path d="M203700000 60400000
L203700000 60200000
" />
<path d="M204050000 60900000
L203350000 60900000
" />
<path d="M203700000 60400000
L204050000 60900000
" />
<path d="M204050000 60400000
L203350000 60400000
" />
<path d="M204400000 61600000
L203000000 61600000
" />
<path d="M203700000 60900000
L203700000 61150000
" />
<path d="M203000000 59800000
L204400000 59800000
" />
<path d="M203350000 60900000
L203700000 60400000
" />
<path d="M203000000 61600000
L203000000 59800000
" />
<path d="M202100000 59800000
L202100000 61600000
" />
<path d="M202100000 61600000
L200700000 61600000
" />
<path d="M201400000 60400000
L201400000 60200000
" />
<path d="M201750000 60400000
L201050000 60400000
" />
<path d="M201400000 60900000
L201400000 61150000
" />
<path d="M201050000 60900000
L201400000 60400000
" />
<path d="M200700000 61600000
L200700000 59800000
" />
<path d="M200700000 59800000
L202100000 59800000
" />
<path d="M201400000 60400000
L201750000 60900000
" />
<path d="M201750000 60900000
L201050000 60900000
" />
<path d="M202100000 55500000
L202100000 57300000
" />
<path d="M201750000 56600000
L201050000 56600000
" />
<path d="M201400000 56100000
L201400000 55900000
" />
<path d="M201400000 56100000
L201750000 56600000
" />
<path d="M200700000 55500000
L202100000 55500000
" />
<path d="M201400000 56600000
L201400000 56850000
" />
<path d="M202100000 57300000
L200700000 57300000
" />
<path d="M200700000 57300000
L200700000 55500000
" />
<path d="M201750000 56100000
L201050000 56100000
" />
<path d="M201050000 56600000
L201400000 56100000
" />
<path d="M183950000 60150000
L183950000 66450000
" />
<path d="M183950000 66450000
L184950000 67450000
" />
<path d="M188250000 67450000
L188250000 60150000
" />
<path d="M184950000 67450000
L188250000 67450000
" />
<path d="M188250000 60150000
L183950000 60150000
" />
<path d="M193750000 60150000
L189450000 60150000
" />
<path d="M193750000 67450000
L193750000 60150000
" />
<path d="M189450000 66450000
L190450000 67450000
" />
<path d="M190450000 67450000
L193750000 67450000
" />
<path d="M189450000 60150000
L189450000 66450000
" />
<path d="M199250000 60150000
L194950000 60150000
" />
<path d="M194950000 66450000
L195950000 67450000
" />
<path d="M199250000 67450000
L199250000 60150000
" />
<path d="M194950000 60150000
L194950000 66450000
" />
<path d="M195950000 67450000
L199250000 67450000
" />
<path d="M206700000 59800000
L206700000 61600000
" />
<path d="M206000000 60400000
L206350000 60900000
" />
<path d="M206000000 60400000
L206000000 60200000
" />
<path d="M205300000 59800000
L206700000 59800000
" />
<path d="M206000000 60900000
L206000000 61150000
" />
<path d="M206350000 60400000
L205650000 60400000
" />
<path d="M205650000 60900000
L206000000 60400000
" />
<path d="M206700000 61600000
L205300000 61600000
" />
<path d="M205300000 61600000
L205300000 59800000
" />
<path d="M206350000 60900000
L205650000 60900000
" />
<path d="M201300000 66212500
L201300000 65387500
" />
<path d="M201300000 65387500
L202900000 65387500
" />
<path d="M202900000 65387500
L202900000 66212500
" />
<path d="M202900000 66212500
L201300000 66212500
" />
<path d="M202900000 63487500
L202900000 64312500
" />
<path d="M201300000 64312500
L201300000 63487500
" />
<path d="M202900000 64312500
L201300000 64312500
" />
<path d="M201300000 63487500
L202900000 63487500
" />
<path d="M201300000 68112500
L201300000 67287500
" />
<path d="M202900000 67287500
L202900000 68112500
" />
<path d="M202900000 68112500
L201300000 68112500
" />
<path d="M201300000 67287500
L202900000 67287500
" />
<g >
</g>
<g >
</g>
<g >
</g>
<g >
</g>
<g >
</g>
<g >
</g>
<g >
</g>
<g >
</g>
<g >
</g>
<g >
</g>
<g >
</g>
<g >
</g>
<g >
</g>
<g >
</g>
<g >
</g>
<g >
</g>
<g >
</g>
<g >
</g>
<g >
</g>
<g >
</g>
<g >
</g>
<g >
</g>
<g >
</g>
<g >
</g>
<g >
</g>
<g >
</g>
<g >
</g>
<g >
</g>
<g >
</g>
<g >
</g>
<g >
</g>
</g> 
</svg>
