<?xml version="1.0" standalone="no"?>
 <!DOCTYPE svg PUBLIC "-//W3C//DTD SVG 1.1//EN" 
 "http://www.w3.org/Graphics/SVG/1.1/DTD/svg11.dtd"> 
<svg
  xmlns:svg="http://www.w3.org/2000/svg"
  xmlns="http://www.w3.org/2000/svg"
  xmlns:xlink="http://www.w3.org/1999/xlink"
  version="1.1"
  width="29.700220cm" height="21.000720cm" viewBox="0 0 297002200 210007200">
<title>SVG Picture created as miniRGBii-B_Cu.svg date 2022/02/26 19:24:14 </title>
  <desc>Picture generated by PCBNEW </desc>
<g style="fill:#000000; fill-opacity:1.000000;stroke:#000000; stroke-opacity:1.000000;
stroke-linecap:round; stroke-linejoin:round;"
 transform="translate(0 0) scale(1 1)">
</g>
<g style="fill:#000000; fill-opacity:0.0; 
stroke:#000000; stroke-width:0.000000; stroke-opacity:1; 
stroke-linecap:round; stroke-linejoin:round;">
<g >
</g>
<g >
</g>
<g >
</g>
<g >
</g>
<g >
</g>
<g >
</g>
<g >
</g>
<g >
</g>
<g >
</g>
<g >
</g>
<g >
</g>
<g >
</g>
<g >
</g>
<g >
</g>
<g >
</g>
<g >
</g>
<g >
</g>
<g >
</g>
<g >
</g>
<g >
</g>
<g >
</g>
<g >
</g>
<g >
</g>
<g >
</g>
<g >
</g>
<g >
</g>
<g >
</g>
<g >
</g>
<g >
</g>
<g style="fill:#000000; fill-opacity:0.0; 
stroke:#000000; stroke-width:0.000000; stroke-opacity:1; 
stroke-linecap:round; stroke-linejoin:round;">
</g>
<g style="fill:#000000; fill-opacity:1.0; 
stroke:#000000; stroke-width:1.000000; stroke-opacity:1; 
stroke-linecap:round; stroke-linejoin:round;">
<circle cx="202600000.000000" cy="57700000.000000" r="400000.000000" /> 
</g>
<g style="fill:#000000; fill-opacity:1.0; 
stroke:#000000; stroke-width:21200.000000; stroke-opacity:1; 
stroke-linecap:round; stroke-linejoin:round;">
</g>
<g style="fill:#000000; fill-opacity:1.0; 
stroke:#000000; stroke-width:1.000000; stroke-opacity:1; 
stroke-linecap:round; stroke-linejoin:round;">
<circle cx="204200000.000000" cy="63900000.000000" r="400000.000000" /> 
</g>
<g style="fill:#000000; fill-opacity:1.0; 
stroke:#000000; stroke-width:21200.000000; stroke-opacity:1; 
stroke-linecap:round; stroke-linejoin:round;">
</g>
<g style="fill:#000000; fill-opacity:1.0; 
stroke:#000000; stroke-width:1.000000; stroke-opacity:1; 
stroke-linecap:round; stroke-linejoin:round;">
<circle cx="205100000.000000" cy="67900000.000000" r="400000.000000" /> 
</g>
<g style="fill:#000000; fill-opacity:1.0; 
stroke:#000000; stroke-width:21200.000000; stroke-opacity:1; 
stroke-linecap:round; stroke-linejoin:round;">
</g>
<g style="fill:#000000; fill-opacity:1.0; 
stroke:#000000; stroke-width:1.000000; stroke-opacity:1; 
stroke-linecap:round; stroke-linejoin:round;">
<circle cx="199800000.000000" cy="62800000.000000" r="400000.000000" /> 
</g>
<g style="fill:#000000; fill-opacity:1.0; 
stroke:#000000; stroke-width:21200.000000; stroke-opacity:1; 
stroke-linecap:round; stroke-linejoin:round;">
</g>
<g style="fill:#000000; fill-opacity:1.0; 
stroke:#000000; stroke-width:1.000000; stroke-opacity:1; 
stroke-linecap:round; stroke-linejoin:round;">
<circle cx="188900000.000000" cy="56700000.000000" r="400000.000000" /> 
</g>
<g style="fill:#000000; fill-opacity:1.0; 
stroke:#000000; stroke-width:21200.000000; stroke-opacity:1; 
stroke-linecap:round; stroke-linejoin:round;">
</g>
<g style="fill:#000000; fill-opacity:1.0; 
stroke:#000000; stroke-width:1.000000; stroke-opacity:1; 
stroke-linecap:round; stroke-linejoin:round;">
<circle cx="187000000.000000" cy="54800000.000000" r="400000.000000" /> 
</g>
<g style="fill:#000000; fill-opacity:1.0; 
stroke:#000000; stroke-width:21200.000000; stroke-opacity:1; 
stroke-linecap:round; stroke-linejoin:round;">
</g>
<g style="fill:#000000; fill-opacity:1.0; 
stroke:#000000; stroke-width:1.000000; stroke-opacity:1; 
stroke-linecap:round; stroke-linejoin:round;">
<circle cx="185000000.000000" cy="54800000.000000" r="400000.000000" /> 
</g>
<g style="fill:#000000; fill-opacity:1.0; 
stroke:#000000; stroke-width:21200.000000; stroke-opacity:1; 
stroke-linecap:round; stroke-linejoin:round;">
</g>
<g style="fill:#000000; fill-opacity:1.0; 
stroke:#000000; stroke-width:1.000000; stroke-opacity:1; 
stroke-linecap:round; stroke-linejoin:round;">
<circle cx="205000000.000000" cy="60500000.000000" r="400000.000000" /> 
</g>
<g style="fill:#000000; fill-opacity:1.0; 
stroke:#000000; stroke-width:21200.000000; stroke-opacity:1; 
stroke-linecap:round; stroke-linejoin:round;">
</g>
<g style="fill:#000000; fill-opacity:1.0; 
stroke:#000000; stroke-width:1.000000; stroke-opacity:1; 
stroke-linecap:round; stroke-linejoin:round;">
<circle cx="204190953.000000" cy="65790953.000000" r="400000.000000" /> 
</g>
<g style="fill:#000000; fill-opacity:1.0; 
stroke:#000000; stroke-width:21200.000000; stroke-opacity:1; 
stroke-linecap:round; stroke-linejoin:round;">
</g>
<g style="fill:#000000; fill-opacity:1.0; 
stroke:#000000; stroke-width:1.000000; stroke-opacity:1; 
stroke-linecap:round; stroke-linejoin:round;">
<circle cx="194400000.000000" cy="56700000.000000" r="400000.000000" /> 
</g>
<g style="fill:#000000; fill-opacity:1.0; 
stroke:#000000; stroke-width:21200.000000; stroke-opacity:1; 
stroke-linecap:round; stroke-linejoin:round;">
</g>
<g style="fill:#000000; fill-opacity:1.0; 
stroke:#000000; stroke-width:1.000000; stroke-opacity:1; 
stroke-linecap:round; stroke-linejoin:round;">
<circle cx="204200000.000000" cy="67900000.000000" r="400000.000000" /> 
</g>
<g style="fill:#000000; fill-opacity:1.0; 
stroke:#000000; stroke-width:21200.000000; stroke-opacity:1; 
stroke-linecap:round; stroke-linejoin:round;">
</g>
<g >
</g>
<g >
</g>
<g style="fill:#000000; fill-opacity:1.0; 
stroke:#000000; stroke-width:21200.000000; stroke-opacity:1; 
stroke-linecap:round; stroke-linejoin:round;">
<g >
</g>
<g style="fill:#000000; fill-opacity:1.0; 
stroke:#000000; stroke-width:1.000000; stroke-opacity:1; 
stroke-linecap:round; stroke-linejoin:round;">
<path style="fill:#000000; fill-opacity:1.0; 
stroke:#000000; stroke-width:1.000000; stroke-opacity:1; 
stroke-linecap:round; stroke-linejoin:round;fill-rule:evenodd;"
d="M 211986593.000000,54302264.000000
212000000.000000,54304628.000000
212012837.000000,54302365.000000
212016688.000000,54302365.000000
212031288.000000,54303082.000000
212121962.000000,54312012.000000
212150610.000000,54317711.000000
212202221.000000,54333367.000000
212253835.000000,54349024.000000
212280820.000000,54360201.000000
212375958.000000,54411054.000000
212400240.000000,54427279.000000
212483631.000000,54495715.000000
212504284.000000,54516368.000000
212572721.000000,54599760.000000
212588946.000000,54624042.000000
212639799.000000,54719180.000000
212650977.000000,54746167.000000
212682289.000000,54849390.000000
212687988.000000,54878038.000000
212696918.000000,54968712.000000
212697635.000000,54983312.000000
212697635.000000,54987163.000000
212695372.000000,55000000.000000
212697636.000000,55012838.000000
212697736.000000,55013407.000000
212700000.000000,55039280.000000
212700000.000000,67960720.000000
212697736.000000,67986593.000000
212695372.000000,68000000.000000
212697635.000000,68012837.000000
212697635.000000,68016688.000000
212696918.000000,68031288.000000
212687988.000000,68121962.000000
212682289.000000,68150610.000000
212650977.000000,68253833.000000
212639799.000000,68280820.000000
212588946.000000,68375958.000000
212572721.000000,68400240.000000
212504285.000000,68483631.000000
212483632.000000,68504284.000000
212400240.000000,68572721.000000
212375958.000000,68588946.000000
212280820.000000,68639799.000000
212253835.000000,68650976.000000
212202221.000000,68666633.000000
212150610.000000,68682289.000000
212121962.000000,68687988.000000
212031288.000000,68696918.000000
212016688.000000,68697635.000000
212012837.000000,68697635.000000
212000000.000000,68695372.000000
211986593.000000,68697736.000000
211960720.000000,68700000.000000
184039280.000000,68700000.000000
184013407.000000,68697736.000000
184000000.000000,68695372.000000
183987163.000000,68697635.000000
183983312.000000,68697635.000000
183968712.000000,68696918.000000
183878038.000000,68687988.000000
183849390.000000,68682289.000000
183797779.000000,68666633.000000
183746165.000000,68650976.000000
183719180.000000,68639799.000000
183624042.000000,68588946.000000
183599760.000000,68572721.000000
183516368.000000,68504284.000000
183495715.000000,68483631.000000
183427279.000000,68400240.000000
183411054.000000,68375958.000000
183360201.000000,68280820.000000
183349023.000000,68253833.000000
183317711.000000,68150610.000000
183312012.000000,68121962.000000
183303082.000000,68031288.000000
183302365.000000,68016688.000000
183302365.000000,68012837.000000
183304628.000000,68000000.000000
183302264.000000,67986593.000000
183300000.000000,67960720.000000
183300000.000000,55039280.000000
183302264.000000,55013407.000000
183302364.000000,55012838.000000
183304628.000000,55000000.000000
183302365.000000,54987163.000000
183302365.000000,54983312.000000
183303082.000000,54968712.000000
183312012.000000,54878038.000000
183317711.000000,54849390.000000
183349023.000000,54746167.000000
183360201.000000,54719180.000000
183411054.000000,54624042.000000
183427279.000000,54599760.000000
183495716.000000,54516368.000000
183516369.000000,54495715.000000
183599760.000000,54427279.000000
183624042.000000,54411054.000000
183719180.000000,54360201.000000
183746165.000000,54349024.000000
183797779.000000,54333367.000000
183849390.000000,54317711.000000
183878038.000000,54312012.000000
183968712.000000,54303082.000000
183983312.000000,54302365.000000
183987163.000000,54302365.000000
184000000.000000,54304628.000000
184013407.000000,54302264.000000
184039280.000000,54300000.000000
211960720.000000,54300000.000000
Z" /> 
</g>
</g>
</g> 
</svg>
