<?xml version="1.0" standalone="no"?>
 <!DOCTYPE svg PUBLIC "-//W3C//DTD SVG 1.1//EN" 
 "http://www.w3.org/Graphics/SVG/1.1/DTD/svg11.dtd"> 
<svg
  xmlns:svg="http://www.w3.org/2000/svg"
  xmlns="http://www.w3.org/2000/svg"
  xmlns:xlink="http://www.w3.org/1999/xlink"
  version="1.1"
  width="29.700220cm" height="21.000720cm" viewBox="0 0 297002200 210007200">
<title>SVG Picture created as miniRGBii-F_Mask.svg date 2022/02/26 19:24:15 </title>
  <desc>Picture generated by PCBNEW </desc>
<g style="fill:#000000; fill-opacity:1.000000;stroke:#000000; stroke-opacity:1.000000;
stroke-linecap:round; stroke-linejoin:round;"
 transform="translate(0 0) scale(1 1)">
</g>
<g style="fill:#000000; fill-opacity:0.0; 
stroke:#000000; stroke-width:0.000000; stroke-opacity:1; 
stroke-linecap:round; stroke-linejoin:round;">
<g >
</g>
<g style="fill:#000000; fill-opacity:0.0; 
stroke:#000000; stroke-width:1.000000; stroke-opacity:1; 
stroke-linecap:round; stroke-linejoin:round;">
</g>
<g style="fill:#000000; fill-opacity:1.0; 
stroke:#000000; stroke-width:1.000000; stroke-opacity:1; 
stroke-linecap:round; stroke-linejoin:round;">
<path style="fill:#000000; fill-opacity:1.0; 
stroke:#000000; stroke-width:1.000000; stroke-opacity:1; 
stroke-linecap:round; stroke-linejoin:round;fill-rule:evenodd;"
d="M 193951000.000000,57837500.000000
193943262.000000,57903869.000000
193900545.000000,58000493.000000
193825908.000000,58075260.000000
193729359.000000,58118146.000000
193662500.000000,58126000.000000
193087500.000000,58126000.000000
193021131.000000,58118262.000000
192924507.000000,58075545.000000
192849740.000000,58000908.000000
192806854.000000,57904359.000000
192799000.000000,57837500.000000
192799000.000000,57362500.000000
192806738.000000,57296131.000000
192849455.000000,57199507.000000
192924092.000000,57124740.000000
193020641.000000,57081854.000000
193087500.000000,57074000.000000
193662500.000000,57074000.000000
193728869.000000,57081738.000000
193825493.000000,57124455.000000
193900260.000000,57199092.000000
193943146.000000,57295641.000000
193951000.000000,57362500.000000
Z" /> 
<path style="fill:#000000; fill-opacity:1.0; 
stroke:#000000; stroke-width:1.000000; stroke-opacity:1; 
stroke-linecap:round; stroke-linejoin:round;fill-rule:evenodd;"
d="M 192201000.000000,57837500.000000
192193262.000000,57903869.000000
192150545.000000,58000493.000000
192075908.000000,58075260.000000
191979359.000000,58118146.000000
191912500.000000,58126000.000000
191337500.000000,58126000.000000
191271131.000000,58118262.000000
191174507.000000,58075545.000000
191099740.000000,58000908.000000
191056854.000000,57904359.000000
191049000.000000,57837500.000000
191049000.000000,57362500.000000
191056738.000000,57296131.000000
191099455.000000,57199507.000000
191174092.000000,57124740.000000
191270641.000000,57081854.000000
191337500.000000,57074000.000000
191912500.000000,57074000.000000
191978869.000000,57081738.000000
192075493.000000,57124455.000000
192150260.000000,57199092.000000
192193146.000000,57295641.000000
192201000.000000,57362500.000000
Z" /> 
</g>
<g >
</g>
<g style="fill:#000000; fill-opacity:1.0; 
stroke:#000000; stroke-width:1.000000; stroke-opacity:1; 
stroke-linecap:round; stroke-linejoin:round;">
<path style="fill:#000000; fill-opacity:1.0; 
stroke:#000000; stroke-width:1.000000; stroke-opacity:1; 
stroke-linecap:round; stroke-linejoin:round;fill-rule:evenodd;"
d="M 199451000.000000,57837500.000000
199443262.000000,57903869.000000
199400545.000000,58000493.000000
199325908.000000,58075260.000000
199229359.000000,58118146.000000
199162500.000000,58126000.000000
198587500.000000,58126000.000000
198521131.000000,58118262.000000
198424507.000000,58075545.000000
198349740.000000,58000908.000000
198306854.000000,57904359.000000
198299000.000000,57837500.000000
198299000.000000,57362500.000000
198306738.000000,57296131.000000
198349455.000000,57199507.000000
198424092.000000,57124740.000000
198520641.000000,57081854.000000
198587500.000000,57074000.000000
199162500.000000,57074000.000000
199228869.000000,57081738.000000
199325493.000000,57124455.000000
199400260.000000,57199092.000000
199443146.000000,57295641.000000
199451000.000000,57362500.000000
Z" /> 
<path style="fill:#000000; fill-opacity:1.0; 
stroke:#000000; stroke-width:1.000000; stroke-opacity:1; 
stroke-linecap:round; stroke-linejoin:round;fill-rule:evenodd;"
d="M 197701000.000000,57837500.000000
197693262.000000,57903869.000000
197650545.000000,58000493.000000
197575908.000000,58075260.000000
197479359.000000,58118146.000000
197412500.000000,58126000.000000
196837500.000000,58126000.000000
196771131.000000,58118262.000000
196674507.000000,58075545.000000
196599740.000000,58000908.000000
196556854.000000,57904359.000000
196549000.000000,57837500.000000
196549000.000000,57362500.000000
196556738.000000,57296131.000000
196599455.000000,57199507.000000
196674092.000000,57124740.000000
196770641.000000,57081854.000000
196837500.000000,57074000.000000
197412500.000000,57074000.000000
197478869.000000,57081738.000000
197575493.000000,57124455.000000
197650260.000000,57199092.000000
197693146.000000,57295641.000000
197701000.000000,57362500.000000
Z" /> 
</g>
<g >
</g>
<g style="fill:#000000; fill-opacity:1.0; 
stroke:#000000; stroke-width:1.000000; stroke-opacity:1; 
stroke-linecap:round; stroke-linejoin:round;">
<path style="fill:#000000; fill-opacity:1.0; 
stroke:#000000; stroke-width:1.000000; stroke-opacity:1; 
stroke-linecap:round; stroke-linejoin:round;fill-rule:evenodd;"
d="M 188451000.000000,57837500.000000
188443262.000000,57903869.000000
188400545.000000,58000493.000000
188325908.000000,58075260.000000
188229359.000000,58118146.000000
188162500.000000,58126000.000000
187587500.000000,58126000.000000
187521131.000000,58118262.000000
187424507.000000,58075545.000000
187349740.000000,58000908.000000
187306854.000000,57904359.000000
187299000.000000,57837500.000000
187299000.000000,57362500.000000
187306738.000000,57296131.000000
187349455.000000,57199507.000000
187424092.000000,57124740.000000
187520641.000000,57081854.000000
187587500.000000,57074000.000000
188162500.000000,57074000.000000
188228869.000000,57081738.000000
188325493.000000,57124455.000000
188400260.000000,57199092.000000
188443146.000000,57295641.000000
188451000.000000,57362500.000000
Z" /> 
<path style="fill:#000000; fill-opacity:1.0; 
stroke:#000000; stroke-width:1.000000; stroke-opacity:1; 
stroke-linecap:round; stroke-linejoin:round;fill-rule:evenodd;"
d="M 186701000.000000,57837500.000000
186693262.000000,57903869.000000
186650545.000000,58000493.000000
186575908.000000,58075260.000000
186479359.000000,58118146.000000
186412500.000000,58126000.000000
185837500.000000,58126000.000000
185771131.000000,58118262.000000
185674507.000000,58075545.000000
185599740.000000,58000908.000000
185556854.000000,57904359.000000
185549000.000000,57837500.000000
185549000.000000,57362500.000000
185556738.000000,57296131.000000
185599455.000000,57199507.000000
185674092.000000,57124740.000000
185770641.000000,57081854.000000
185837500.000000,57074000.000000
186412500.000000,57074000.000000
186478869.000000,57081738.000000
186575493.000000,57124455.000000
186650260.000000,57199092.000000
186693146.000000,57295641.000000
186701000.000000,57362500.000000
Z" /> 
</g>
<g >
</g>
<g style="fill:#000000; fill-opacity:1.0; 
stroke:#000000; stroke-width:1.000000; stroke-opacity:1; 
stroke-linecap:round; stroke-linejoin:round;">
<path style="fill:#000000; fill-opacity:1.0; 
stroke:#000000; stroke-width:1.000000; stroke-opacity:1; 
stroke-linecap:round; stroke-linejoin:round;fill-rule:evenodd;"
d="M 191049000.000000,55562500.000000
191056738.000000,55496131.000000
191099455.000000,55399507.000000
191174092.000000,55324740.000000
191270641.000000,55281854.000000
191337500.000000,55274000.000000
191912500.000000,55274000.000000
191978869.000000,55281738.000000
192075493.000000,55324455.000000
192150260.000000,55399092.000000
192193146.000000,55495641.000000
192201000.000000,55562500.000000
192201000.000000,56037500.000000
192193262.000000,56103869.000000
192150545.000000,56200493.000000
192075908.000000,56275260.000000
191979359.000000,56318146.000000
191912500.000000,56326000.000000
191337500.000000,56326000.000000
191271131.000000,56318262.000000
191174507.000000,56275545.000000
191099740.000000,56200908.000000
191056854.000000,56104359.000000
191049000.000000,56037500.000000
Z" /> 
<path style="fill:#000000; fill-opacity:1.0; 
stroke:#000000; stroke-width:1.000000; stroke-opacity:1; 
stroke-linecap:round; stroke-linejoin:round;fill-rule:evenodd;"
d="M 192799000.000000,55562500.000000
192806738.000000,55496131.000000
192849455.000000,55399507.000000
192924092.000000,55324740.000000
193020641.000000,55281854.000000
193087500.000000,55274000.000000
193662500.000000,55274000.000000
193728869.000000,55281738.000000
193825493.000000,55324455.000000
193900260.000000,55399092.000000
193943146.000000,55495641.000000
193951000.000000,55562500.000000
193951000.000000,56037500.000000
193943262.000000,56103869.000000
193900545.000000,56200493.000000
193825908.000000,56275260.000000
193729359.000000,56318146.000000
193662500.000000,56326000.000000
193087500.000000,56326000.000000
193021131.000000,56318262.000000
192924507.000000,56275545.000000
192849740.000000,56200908.000000
192806854.000000,56104359.000000
192799000.000000,56037500.000000
Z" /> 
</g>
<g >
</g>
<g style="fill:#000000; fill-opacity:1.0; 
stroke:#000000; stroke-width:1.000000; stroke-opacity:1; 
stroke-linecap:round; stroke-linejoin:round;">
<path style="fill:#000000; fill-opacity:1.0; 
stroke:#000000; stroke-width:1.000000; stroke-opacity:1; 
stroke-linecap:round; stroke-linejoin:round;fill-rule:evenodd;"
d="M 190137500.000000,55249000.000000
190203869.000000,55256738.000000
190300493.000000,55299455.000000
190375260.000000,55374092.000000
190418146.000000,55470641.000000
190426000.000000,55537500.000000
190426000.000000,56112500.000000
190418262.000000,56178869.000000
190375545.000000,56275493.000000
190300908.000000,56350260.000000
190204359.000000,56393146.000000
190137500.000000,56401000.000000
189662500.000000,56401000.000000
189596131.000000,56393262.000000
189499507.000000,56350545.000000
189424740.000000,56275908.000000
189381854.000000,56179359.000000
189374000.000000,56112500.000000
189374000.000000,55537500.000000
189381738.000000,55471131.000000
189424455.000000,55374507.000000
189499092.000000,55299740.000000
189595641.000000,55256854.000000
189662500.000000,55249000.000000
Z" /> 
<path style="fill:#000000; fill-opacity:1.0; 
stroke:#000000; stroke-width:1.000000; stroke-opacity:1; 
stroke-linecap:round; stroke-linejoin:round;fill-rule:evenodd;"
d="M 190137500.000000,56999000.000000
190203869.000000,57006738.000000
190300493.000000,57049455.000000
190375260.000000,57124092.000000
190418146.000000,57220641.000000
190426000.000000,57287500.000000
190426000.000000,57862500.000000
190418262.000000,57928869.000000
190375545.000000,58025493.000000
190300908.000000,58100260.000000
190204359.000000,58143146.000000
190137500.000000,58151000.000000
189662500.000000,58151000.000000
189596131.000000,58143262.000000
189499507.000000,58100545.000000
189424740.000000,58025908.000000
189381854.000000,57929359.000000
189374000.000000,57862500.000000
189374000.000000,57287500.000000
189381738.000000,57221131.000000
189424455.000000,57124507.000000
189499092.000000,57049740.000000
189595641.000000,57006854.000000
189662500.000000,56999000.000000
Z" /> 
</g>
<g >
</g>
<g style="fill:#000000; fill-opacity:1.0; 
stroke:#000000; stroke-width:1.000000; stroke-opacity:1; 
stroke-linecap:round; stroke-linejoin:round;">
<path style="fill:#000000; fill-opacity:1.0; 
stroke:#000000; stroke-width:1.000000; stroke-opacity:1; 
stroke-linecap:round; stroke-linejoin:round;fill-rule:evenodd;"
d="M 196549000.000000,55562500.000000
196556738.000000,55496131.000000
196599455.000000,55399507.000000
196674092.000000,55324740.000000
196770641.000000,55281854.000000
196837500.000000,55274000.000000
197412500.000000,55274000.000000
197478869.000000,55281738.000000
197575493.000000,55324455.000000
197650260.000000,55399092.000000
197693146.000000,55495641.000000
197701000.000000,55562500.000000
197701000.000000,56037500.000000
197693262.000000,56103869.000000
197650545.000000,56200493.000000
197575908.000000,56275260.000000
197479359.000000,56318146.000000
197412500.000000,56326000.000000
196837500.000000,56326000.000000
196771131.000000,56318262.000000
196674507.000000,56275545.000000
196599740.000000,56200908.000000
196556854.000000,56104359.000000
196549000.000000,56037500.000000
Z" /> 
<path style="fill:#000000; fill-opacity:1.0; 
stroke:#000000; stroke-width:1.000000; stroke-opacity:1; 
stroke-linecap:round; stroke-linejoin:round;fill-rule:evenodd;"
d="M 198299000.000000,55562500.000000
198306738.000000,55496131.000000
198349455.000000,55399507.000000
198424092.000000,55324740.000000
198520641.000000,55281854.000000
198587500.000000,55274000.000000
199162500.000000,55274000.000000
199228869.000000,55281738.000000
199325493.000000,55324455.000000
199400260.000000,55399092.000000
199443146.000000,55495641.000000
199451000.000000,55562500.000000
199451000.000000,56037500.000000
199443262.000000,56103869.000000
199400545.000000,56200493.000000
199325908.000000,56275260.000000
199229359.000000,56318146.000000
199162500.000000,56326000.000000
198587500.000000,56326000.000000
198521131.000000,56318262.000000
198424507.000000,56275545.000000
198349740.000000,56200908.000000
198306854.000000,56104359.000000
198299000.000000,56037500.000000
Z" /> 
</g>
<g >
</g>
<g style="fill:#000000; fill-opacity:1.0; 
stroke:#000000; stroke-width:1.000000; stroke-opacity:1; 
stroke-linecap:round; stroke-linejoin:round;">
<path style="fill:#000000; fill-opacity:1.0; 
stroke:#000000; stroke-width:1.000000; stroke-opacity:1; 
stroke-linecap:round; stroke-linejoin:round;fill-rule:evenodd;"
d="M 195637500.000000,55249000.000000
195703869.000000,55256738.000000
195800493.000000,55299455.000000
195875260.000000,55374092.000000
195918146.000000,55470641.000000
195926000.000000,55537500.000000
195926000.000000,56112500.000000
195918262.000000,56178869.000000
195875545.000000,56275493.000000
195800908.000000,56350260.000000
195704359.000000,56393146.000000
195637500.000000,56401000.000000
195162500.000000,56401000.000000
195096131.000000,56393262.000000
194999507.000000,56350545.000000
194924740.000000,56275908.000000
194881854.000000,56179359.000000
194874000.000000,56112500.000000
194874000.000000,55537500.000000
194881738.000000,55471131.000000
194924455.000000,55374507.000000
194999092.000000,55299740.000000
195095641.000000,55256854.000000
195162500.000000,55249000.000000
Z" /> 
<path style="fill:#000000; fill-opacity:1.0; 
stroke:#000000; stroke-width:1.000000; stroke-opacity:1; 
stroke-linecap:round; stroke-linejoin:round;fill-rule:evenodd;"
d="M 195637500.000000,56999000.000000
195703869.000000,57006738.000000
195800493.000000,57049455.000000
195875260.000000,57124092.000000
195918146.000000,57220641.000000
195926000.000000,57287500.000000
195926000.000000,57862500.000000
195918262.000000,57928869.000000
195875545.000000,58025493.000000
195800908.000000,58100260.000000
195704359.000000,58143146.000000
195637500.000000,58151000.000000
195162500.000000,58151000.000000
195096131.000000,58143262.000000
194999507.000000,58100545.000000
194924740.000000,58025908.000000
194881854.000000,57929359.000000
194874000.000000,57862500.000000
194874000.000000,57287500.000000
194881738.000000,57221131.000000
194924455.000000,57124507.000000
194999092.000000,57049740.000000
195095641.000000,57006854.000000
195162500.000000,56999000.000000
Z" /> 
</g>
<g >
</g>
<g style="fill:#000000; fill-opacity:1.0; 
stroke:#000000; stroke-width:1.000000; stroke-opacity:1; 
stroke-linecap:round; stroke-linejoin:round;">
<path style="fill:#000000; fill-opacity:1.0; 
stroke:#000000; stroke-width:1.000000; stroke-opacity:1; 
stroke-linecap:round; stroke-linejoin:round;fill-rule:evenodd;"
d="M 185549000.000000,55562500.000000
185556738.000000,55496131.000000
185599455.000000,55399507.000000
185674092.000000,55324740.000000
185770641.000000,55281854.000000
185837500.000000,55274000.000000
186412500.000000,55274000.000000
186478869.000000,55281738.000000
186575493.000000,55324455.000000
186650260.000000,55399092.000000
186693146.000000,55495641.000000
186701000.000000,55562500.000000
186701000.000000,56037500.000000
186693262.000000,56103869.000000
186650545.000000,56200493.000000
186575908.000000,56275260.000000
186479359.000000,56318146.000000
186412500.000000,56326000.000000
185837500.000000,56326000.000000
185771131.000000,56318262.000000
185674507.000000,56275545.000000
185599740.000000,56200908.000000
185556854.000000,56104359.000000
185549000.000000,56037500.000000
Z" /> 
<path style="fill:#000000; fill-opacity:1.0; 
stroke:#000000; stroke-width:1.000000; stroke-opacity:1; 
stroke-linecap:round; stroke-linejoin:round;fill-rule:evenodd;"
d="M 187299000.000000,55562500.000000
187306738.000000,55496131.000000
187349455.000000,55399507.000000
187424092.000000,55324740.000000
187520641.000000,55281854.000000
187587500.000000,55274000.000000
188162500.000000,55274000.000000
188228869.000000,55281738.000000
188325493.000000,55324455.000000
188400260.000000,55399092.000000
188443146.000000,55495641.000000
188451000.000000,55562500.000000
188451000.000000,56037500.000000
188443262.000000,56103869.000000
188400545.000000,56200493.000000
188325908.000000,56275260.000000
188229359.000000,56318146.000000
188162500.000000,56326000.000000
187587500.000000,56326000.000000
187521131.000000,56318262.000000
187424507.000000,56275545.000000
187349740.000000,56200908.000000
187306854.000000,56104359.000000
187299000.000000,56037500.000000
Z" /> 
</g>
<g >
</g>
<g style="fill:#000000; fill-opacity:1.0; 
stroke:#000000; stroke-width:1.000000; stroke-opacity:1; 
stroke-linecap:round; stroke-linejoin:round;">
<path style="fill:#000000; fill-opacity:1.0; 
stroke:#000000; stroke-width:1.000000; stroke-opacity:1; 
stroke-linecap:round; stroke-linejoin:round;fill-rule:evenodd;"
d="M 184637500.000000,55249000.000000
184703869.000000,55256738.000000
184800493.000000,55299455.000000
184875260.000000,55374092.000000
184918146.000000,55470641.000000
184926000.000000,55537500.000000
184926000.000000,56112500.000000
184918262.000000,56178869.000000
184875545.000000,56275493.000000
184800908.000000,56350260.000000
184704359.000000,56393146.000000
184637500.000000,56401000.000000
184162500.000000,56401000.000000
184096131.000000,56393262.000000
183999507.000000,56350545.000000
183924740.000000,56275908.000000
183881854.000000,56179359.000000
183874000.000000,56112500.000000
183874000.000000,55537500.000000
183881738.000000,55471131.000000
183924455.000000,55374507.000000
183999092.000000,55299740.000000
184095641.000000,55256854.000000
184162500.000000,55249000.000000
Z" /> 
<path style="fill:#000000; fill-opacity:1.0; 
stroke:#000000; stroke-width:1.000000; stroke-opacity:1; 
stroke-linecap:round; stroke-linejoin:round;fill-rule:evenodd;"
d="M 184637500.000000,56999000.000000
184703869.000000,57006738.000000
184800493.000000,57049455.000000
184875260.000000,57124092.000000
184918146.000000,57220641.000000
184926000.000000,57287500.000000
184926000.000000,57862500.000000
184918262.000000,57928869.000000
184875545.000000,58025493.000000
184800908.000000,58100260.000000
184704359.000000,58143146.000000
184637500.000000,58151000.000000
184162500.000000,58151000.000000
184096131.000000,58143262.000000
183999507.000000,58100545.000000
183924740.000000,58025908.000000
183881854.000000,57929359.000000
183874000.000000,57862500.000000
183874000.000000,57287500.000000
183881738.000000,57221131.000000
183924455.000000,57124507.000000
183999092.000000,57049740.000000
184095641.000000,57006854.000000
184162500.000000,56999000.000000
Z" /> 
</g>
<g >
</g>
<g style="fill:#000000; fill-opacity:1.0; 
stroke:#000000; stroke-width:1.000000; stroke-opacity:1; 
stroke-linecap:round; stroke-linejoin:round;">
<path style="fill:#000000; fill-opacity:1.0; 
stroke:#000000; stroke-width:1.000000; stroke-opacity:1; 
stroke-linecap:round; stroke-linejoin:round;fill-rule:evenodd;"
d="M 204200000.000000,58899000.000000
204219517.000000,58902882.000000
204236062.000000,58913938.000000
204247118.000000,58930483.000000
204251000.000000,58950000.000000
204251000.000000,59950000.000000
204247118.000000,59969517.000000
204236062.000000,59986062.000000
204219517.000000,59997118.000000
204200000.000000,60001000.000000
203200000.000000,60001000.000000
203180483.000000,59997118.000000
203163938.000000,59986062.000000
203152882.000000,59969517.000000
203149000.000000,59950000.000000
203149000.000000,58950000.000000
203152882.000000,58930483.000000
203163938.000000,58913938.000000
203180483.000000,58902882.000000
203200000.000000,58899000.000000
Z" /> 
<path style="fill:#000000; fill-opacity:1.0; 
stroke:#000000; stroke-width:1.000000; stroke-opacity:1; 
stroke-linecap:round; stroke-linejoin:round;fill-rule:evenodd;"
d="M 204200000.000000,61399000.000000
204219517.000000,61402882.000000
204236062.000000,61413938.000000
204247118.000000,61430483.000000
204251000.000000,61450000.000000
204251000.000000,62450000.000000
204247118.000000,62469517.000000
204236062.000000,62486062.000000
204219517.000000,62497118.000000
204200000.000000,62501000.000000
203200000.000000,62501000.000000
203180483.000000,62497118.000000
203163938.000000,62486062.000000
203152882.000000,62469517.000000
203149000.000000,62450000.000000
203149000.000000,61450000.000000
203152882.000000,61430483.000000
203163938.000000,61413938.000000
203180483.000000,61402882.000000
203200000.000000,61399000.000000
Z" /> 
</g>
<g >
</g>
<g style="fill:#000000; fill-opacity:1.0; 
stroke:#000000; stroke-width:1.000000; stroke-opacity:1; 
stroke-linecap:round; stroke-linejoin:round;">
<path style="fill:#000000; fill-opacity:1.0; 
stroke:#000000; stroke-width:1.000000; stroke-opacity:1; 
stroke-linecap:round; stroke-linejoin:round;fill-rule:evenodd;"
d="M 201900000.000000,58899000.000000
201919517.000000,58902882.000000
201936062.000000,58913938.000000
201947118.000000,58930483.000000
201951000.000000,58950000.000000
201951000.000000,59950000.000000
201947118.000000,59969517.000000
201936062.000000,59986062.000000
201919517.000000,59997118.000000
201900000.000000,60001000.000000
200900000.000000,60001000.000000
200880483.000000,59997118.000000
200863938.000000,59986062.000000
200852882.000000,59969517.000000
200849000.000000,59950000.000000
200849000.000000,58950000.000000
200852882.000000,58930483.000000
200863938.000000,58913938.000000
200880483.000000,58902882.000000
200900000.000000,58899000.000000
Z" /> 
<path style="fill:#000000; fill-opacity:1.0; 
stroke:#000000; stroke-width:1.000000; stroke-opacity:1; 
stroke-linecap:round; stroke-linejoin:round;fill-rule:evenodd;"
d="M 201900000.000000,61399000.000000
201919517.000000,61402882.000000
201936062.000000,61413938.000000
201947118.000000,61430483.000000
201951000.000000,61450000.000000
201951000.000000,62450000.000000
201947118.000000,62469517.000000
201936062.000000,62486062.000000
201919517.000000,62497118.000000
201900000.000000,62501000.000000
200900000.000000,62501000.000000
200880483.000000,62497118.000000
200863938.000000,62486062.000000
200852882.000000,62469517.000000
200849000.000000,62450000.000000
200849000.000000,61450000.000000
200852882.000000,61430483.000000
200863938.000000,61413938.000000
200880483.000000,61402882.000000
200900000.000000,61399000.000000
Z" /> 
</g>
<g >
</g>
<g style="fill:#000000; fill-opacity:1.0; 
stroke:#000000; stroke-width:1.000000; stroke-opacity:1; 
stroke-linecap:round; stroke-linejoin:round;">
<path style="fill:#000000; fill-opacity:1.0; 
stroke:#000000; stroke-width:1.000000; stroke-opacity:1; 
stroke-linecap:round; stroke-linejoin:round;fill-rule:evenodd;"
d="M 201900000.000000,54599000.000000
201919517.000000,54602882.000000
201936062.000000,54613938.000000
201947118.000000,54630483.000000
201951000.000000,54650000.000000
201951000.000000,55650000.000000
201947118.000000,55669517.000000
201936062.000000,55686062.000000
201919517.000000,55697118.000000
201900000.000000,55701000.000000
200900000.000000,55701000.000000
200880483.000000,55697118.000000
200863938.000000,55686062.000000
200852882.000000,55669517.000000
200849000.000000,55650000.000000
200849000.000000,54650000.000000
200852882.000000,54630483.000000
200863938.000000,54613938.000000
200880483.000000,54602882.000000
200900000.000000,54599000.000000
Z" /> 
<path style="fill:#000000; fill-opacity:1.0; 
stroke:#000000; stroke-width:1.000000; stroke-opacity:1; 
stroke-linecap:round; stroke-linejoin:round;fill-rule:evenodd;"
d="M 201900000.000000,57099000.000000
201919517.000000,57102882.000000
201936062.000000,57113938.000000
201947118.000000,57130483.000000
201951000.000000,57150000.000000
201951000.000000,58150000.000000
201947118.000000,58169517.000000
201936062.000000,58186062.000000
201919517.000000,58197118.000000
201900000.000000,58201000.000000
200900000.000000,58201000.000000
200880483.000000,58197118.000000
200863938.000000,58186062.000000
200852882.000000,58169517.000000
200849000.000000,58150000.000000
200849000.000000,57150000.000000
200852882.000000,57130483.000000
200863938.000000,57113938.000000
200880483.000000,57102882.000000
200900000.000000,57099000.000000
Z" /> 
</g>
<g >
</g>
<g style="fill:#000000; fill-opacity:1.0; 
stroke:#000000; stroke-width:1.000000; stroke-opacity:1; 
stroke-linecap:round; stroke-linejoin:round;">
<path style="fill:#000000; fill-opacity:1.0; 
stroke:#000000; stroke-width:1.000000; stroke-opacity:1; 
stroke-linecap:round; stroke-linejoin:round;fill-rule:evenodd;"
d="M 185075000.000000,68176000.000000
185005755.000000,68167927.000000
184904945.000000,68123359.000000
184826938.000000,68045488.000000
184782194.000000,67944756.000000
184774000.000000,67875000.000000
184774000.000000,66125000.000000
184782073.000000,66055755.000000
184826641.000000,65954945.000000
184904512.000000,65876938.000000
185005244.000000,65832194.000000
185075000.000000,65824000.000000
187125000.000000,65824000.000000
187194245.000000,65832073.000000
187295055.000000,65876641.000000
187373062.000000,65954512.000000
187417806.000000,66055244.000000
187426000.000000,66125000.000000
187426000.000000,67875000.000000
187417927.000000,67944245.000000
187373359.000000,68045055.000000
187295488.000000,68123062.000000
187194756.000000,68167806.000000
187125000.000000,68176000.000000
Z" /> 
<path style="fill:#000000; fill-opacity:1.0; 
stroke:#000000; stroke-width:1.000000; stroke-opacity:1; 
stroke-linecap:round; stroke-linejoin:round;fill-rule:evenodd;"
d="M 185075000.000000,61776000.000000
185005755.000000,61767927.000000
184904945.000000,61723359.000000
184826938.000000,61645488.000000
184782194.000000,61544756.000000
184774000.000000,61475000.000000
184774000.000000,59725000.000000
184782073.000000,59655755.000000
184826641.000000,59554945.000000
184904512.000000,59476938.000000
185005244.000000,59432194.000000
185075000.000000,59424000.000000
187125000.000000,59424000.000000
187194245.000000,59432073.000000
187295055.000000,59476641.000000
187373062.000000,59554512.000000
187417806.000000,59655244.000000
187426000.000000,59725000.000000
187426000.000000,61475000.000000
187417927.000000,61544245.000000
187373359.000000,61645055.000000
187295488.000000,61723062.000000
187194756.000000,61767806.000000
187125000.000000,61776000.000000
Z" /> 
</g>
<g >
</g>
<g style="fill:#000000; fill-opacity:1.0; 
stroke:#000000; stroke-width:1.000000; stroke-opacity:1; 
stroke-linecap:round; stroke-linejoin:round;">
<path style="fill:#000000; fill-opacity:1.0; 
stroke:#000000; stroke-width:1.000000; stroke-opacity:1; 
stroke-linecap:round; stroke-linejoin:round;fill-rule:evenodd;"
d="M 190575000.000000,68176000.000000
190505755.000000,68167927.000000
190404945.000000,68123359.000000
190326938.000000,68045488.000000
190282194.000000,67944756.000000
190274000.000000,67875000.000000
190274000.000000,66125000.000000
190282073.000000,66055755.000000
190326641.000000,65954945.000000
190404512.000000,65876938.000000
190505244.000000,65832194.000000
190575000.000000,65824000.000000
192625000.000000,65824000.000000
192694245.000000,65832073.000000
192795055.000000,65876641.000000
192873062.000000,65954512.000000
192917806.000000,66055244.000000
192926000.000000,66125000.000000
192926000.000000,67875000.000000
192917927.000000,67944245.000000
192873359.000000,68045055.000000
192795488.000000,68123062.000000
192694756.000000,68167806.000000
192625000.000000,68176000.000000
Z" /> 
<path style="fill:#000000; fill-opacity:1.0; 
stroke:#000000; stroke-width:1.000000; stroke-opacity:1; 
stroke-linecap:round; stroke-linejoin:round;fill-rule:evenodd;"
d="M 190575000.000000,61776000.000000
190505755.000000,61767927.000000
190404945.000000,61723359.000000
190326938.000000,61645488.000000
190282194.000000,61544756.000000
190274000.000000,61475000.000000
190274000.000000,59725000.000000
190282073.000000,59655755.000000
190326641.000000,59554945.000000
190404512.000000,59476938.000000
190505244.000000,59432194.000000
190575000.000000,59424000.000000
192625000.000000,59424000.000000
192694245.000000,59432073.000000
192795055.000000,59476641.000000
192873062.000000,59554512.000000
192917806.000000,59655244.000000
192926000.000000,59725000.000000
192926000.000000,61475000.000000
192917927.000000,61544245.000000
192873359.000000,61645055.000000
192795488.000000,61723062.000000
192694756.000000,61767806.000000
192625000.000000,61776000.000000
Z" /> 
</g>
<g >
</g>
<g style="fill:#000000; fill-opacity:1.0; 
stroke:#000000; stroke-width:1.000000; stroke-opacity:1; 
stroke-linecap:round; stroke-linejoin:round;">
<path style="fill:#000000; fill-opacity:1.0; 
stroke:#000000; stroke-width:1.000000; stroke-opacity:1; 
stroke-linecap:round; stroke-linejoin:round;fill-rule:evenodd;"
d="M 196075000.000000,68176000.000000
196005755.000000,68167927.000000
195904945.000000,68123359.000000
195826938.000000,68045488.000000
195782194.000000,67944756.000000
195774000.000000,67875000.000000
195774000.000000,66125000.000000
195782073.000000,66055755.000000
195826641.000000,65954945.000000
195904512.000000,65876938.000000
196005244.000000,65832194.000000
196075000.000000,65824000.000000
198125000.000000,65824000.000000
198194245.000000,65832073.000000
198295055.000000,65876641.000000
198373062.000000,65954512.000000
198417806.000000,66055244.000000
198426000.000000,66125000.000000
198426000.000000,67875000.000000
198417927.000000,67944245.000000
198373359.000000,68045055.000000
198295488.000000,68123062.000000
198194756.000000,68167806.000000
198125000.000000,68176000.000000
Z" /> 
<path style="fill:#000000; fill-opacity:1.0; 
stroke:#000000; stroke-width:1.000000; stroke-opacity:1; 
stroke-linecap:round; stroke-linejoin:round;fill-rule:evenodd;"
d="M 196075000.000000,61776000.000000
196005755.000000,61767927.000000
195904945.000000,61723359.000000
195826938.000000,61645488.000000
195782194.000000,61544756.000000
195774000.000000,61475000.000000
195774000.000000,59725000.000000
195782073.000000,59655755.000000
195826641.000000,59554945.000000
195904512.000000,59476938.000000
196005244.000000,59432194.000000
196075000.000000,59424000.000000
198125000.000000,59424000.000000
198194245.000000,59432073.000000
198295055.000000,59476641.000000
198373062.000000,59554512.000000
198417806.000000,59655244.000000
198426000.000000,59725000.000000
198426000.000000,61475000.000000
198417927.000000,61544245.000000
198373359.000000,61645055.000000
198295488.000000,61723062.000000
198194756.000000,61767806.000000
198125000.000000,61776000.000000
Z" /> 
</g>
<g >
</g>
<g style="fill:#000000; fill-opacity:1.0; 
stroke:#000000; stroke-width:1.000000; stroke-opacity:1; 
stroke-linecap:round; stroke-linejoin:round;">
<path style="fill:#000000; fill-opacity:1.0; 
stroke:#000000; stroke-width:1.000000; stroke-opacity:1; 
stroke-linecap:round; stroke-linejoin:round;fill-rule:evenodd;"
d="M 206500000.000000,58899000.000000
206519517.000000,58902882.000000
206536062.000000,58913938.000000
206547118.000000,58930483.000000
206551000.000000,58950000.000000
206551000.000000,59950000.000000
206547118.000000,59969517.000000
206536062.000000,59986062.000000
206519517.000000,59997118.000000
206500000.000000,60001000.000000
205500000.000000,60001000.000000
205480483.000000,59997118.000000
205463938.000000,59986062.000000
205452882.000000,59969517.000000
205449000.000000,59950000.000000
205449000.000000,58950000.000000
205452882.000000,58930483.000000
205463938.000000,58913938.000000
205480483.000000,58902882.000000
205500000.000000,58899000.000000
Z" /> 
<path style="fill:#000000; fill-opacity:1.0; 
stroke:#000000; stroke-width:1.000000; stroke-opacity:1; 
stroke-linecap:round; stroke-linejoin:round;fill-rule:evenodd;"
d="M 206500000.000000,61399000.000000
206519517.000000,61402882.000000
206536062.000000,61413938.000000
206547118.000000,61430483.000000
206551000.000000,61450000.000000
206551000.000000,62450000.000000
206547118.000000,62469517.000000
206536062.000000,62486062.000000
206519517.000000,62497118.000000
206500000.000000,62501000.000000
205500000.000000,62501000.000000
205480483.000000,62497118.000000
205463938.000000,62486062.000000
205452882.000000,62469517.000000
205449000.000000,62450000.000000
205449000.000000,61450000.000000
205452882.000000,61430483.000000
205463938.000000,61413938.000000
205480483.000000,61402882.000000
205500000.000000,61399000.000000
Z" /> 
</g>
<g >
</g>
<g style="fill:#000000; fill-opacity:1.0; 
stroke:#000000; stroke-width:1.000000; stroke-opacity:1; 
stroke-linecap:round; stroke-linejoin:round;">
<path style="fill:#000000; fill-opacity:1.0; 
stroke:#000000; stroke-width:1.000000; stroke-opacity:1; 
stroke-linecap:round; stroke-linejoin:round;fill-rule:evenodd;"
d="M 210999000.000000,54825000.000000
211019850.000000,54693359.000000
211080359.000000,54574603.000000
211174603.000000,54480359.000000
211293359.000000,54419850.000000
211425000.000000,54399000.000000
212175000.000000,54399000.000000
212306641.000000,54419850.000000
212425397.000000,54480359.000000
212519641.000000,54574603.000000
212580150.000000,54693359.000000
212601000.000000,54825000.000000
212601000.000000,56575000.000000
212580150.000000,56706641.000000
212519641.000000,56825397.000000
212425397.000000,56919641.000000
212306641.000000,56980150.000000
212175000.000000,57001000.000000
211425000.000000,57001000.000000
211293359.000000,56980150.000000
211174603.000000,56919641.000000
211080359.000000,56825397.000000
211019850.000000,56706641.000000
210999000.000000,56575000.000000
Z" /> 
</g>
<g >
</g>
<g style="fill:#000000; fill-opacity:1.0; 
stroke:#000000; stroke-width:1.000000; stroke-opacity:1; 
stroke-linecap:round; stroke-linejoin:round;">
<path style="fill:#000000; fill-opacity:1.0; 
stroke:#000000; stroke-width:1.000000; stroke-opacity:1; 
stroke-linecap:round; stroke-linejoin:round;fill-rule:evenodd;"
d="M 210425000.000000,63201000.000000
210293359.000000,63180150.000000
210174603.000000,63119641.000000
210080359.000000,63025397.000000
210019850.000000,62906641.000000
209999000.000000,62775000.000000
209999000.000000,62025000.000000
210019850.000000,61893359.000000
210080359.000000,61774603.000000
210174603.000000,61680359.000000
210293359.000000,61619850.000000
210425000.000000,61599000.000000
212175000.000000,61599000.000000
212306641.000000,61619850.000000
212425397.000000,61680359.000000
212519641.000000,61774603.000000
212580150.000000,61893359.000000
212601000.000000,62025000.000000
212601000.000000,62775000.000000
212580150.000000,62906641.000000
212519641.000000,63025397.000000
212425397.000000,63119641.000000
212306641.000000,63180150.000000
212175000.000000,63201000.000000
Z" /> 
</g>
<g >
</g>
<g style="fill:#000000; fill-opacity:1.0; 
stroke:#000000; stroke-width:1.000000; stroke-opacity:1; 
stroke-linecap:round; stroke-linejoin:round;">
<path style="fill:#000000; fill-opacity:1.0; 
stroke:#000000; stroke-width:1.000000; stroke-opacity:1; 
stroke-linecap:round; stroke-linejoin:round;fill-rule:evenodd;"
d="M 210425000.000000,68601000.000000
210293359.000000,68580150.000000
210174603.000000,68519641.000000
210080359.000000,68425397.000000
210019850.000000,68306641.000000
209999000.000000,68175000.000000
209999000.000000,67425000.000000
210019850.000000,67293359.000000
210080359.000000,67174603.000000
210174603.000000,67080359.000000
210293359.000000,67019850.000000
210425000.000000,66999000.000000
212175000.000000,66999000.000000
212306641.000000,67019850.000000
212425397.000000,67080359.000000
212519641.000000,67174603.000000
212580150.000000,67293359.000000
212601000.000000,67425000.000000
212601000.000000,68175000.000000
212580150.000000,68306641.000000
212519641.000000,68425397.000000
212425397.000000,68519641.000000
212306641.000000,68580150.000000
212175000.000000,68601000.000000
Z" /> 
</g>
<g >
</g>
<g style="fill:#000000; fill-opacity:1.0; 
stroke:#000000; stroke-width:1.000000; stroke-opacity:1; 
stroke-linecap:round; stroke-linejoin:round;">
<path style="fill:#000000; fill-opacity:1.0; 
stroke:#000000; stroke-width:1.000000; stroke-opacity:1; 
stroke-linecap:round; stroke-linejoin:round;fill-rule:evenodd;"
d="M 210425000.000000,65901000.000000
210293359.000000,65880150.000000
210174603.000000,65819641.000000
210080359.000000,65725397.000000
210019850.000000,65606641.000000
209999000.000000,65475000.000000
209999000.000000,64725000.000000
210019850.000000,64593359.000000
210080359.000000,64474603.000000
210174603.000000,64380359.000000
210293359.000000,64319850.000000
210425000.000000,64299000.000000
212175000.000000,64299000.000000
212306641.000000,64319850.000000
212425397.000000,64380359.000000
212519641.000000,64474603.000000
212580150.000000,64593359.000000
212601000.000000,64725000.000000
212601000.000000,65475000.000000
212580150.000000,65606641.000000
212519641.000000,65725397.000000
212425397.000000,65819641.000000
212306641.000000,65880150.000000
212175000.000000,65901000.000000
Z" /> 
</g>
<g >
</g>
<g style="fill:#000000; fill-opacity:1.0; 
stroke:#000000; stroke-width:1.000000; stroke-opacity:1; 
stroke-linecap:round; stroke-linejoin:round;">
<path style="fill:#000000; fill-opacity:1.0; 
stroke:#000000; stroke-width:1.000000; stroke-opacity:1; 
stroke-linecap:round; stroke-linejoin:round;fill-rule:evenodd;"
d="M 210425000.000000,60501000.000000
210293359.000000,60480150.000000
210174603.000000,60419641.000000
210080359.000000,60325397.000000
210019850.000000,60206641.000000
209999000.000000,60075000.000000
209999000.000000,59325000.000000
210019850.000000,59193359.000000
210080359.000000,59074603.000000
210174603.000000,58980359.000000
210293359.000000,58919850.000000
210425000.000000,58899000.000000
212175000.000000,58899000.000000
212306641.000000,58919850.000000
212425397.000000,58980359.000000
212519641.000000,59074603.000000
212580150.000000,59193359.000000
212601000.000000,59325000.000000
212601000.000000,60075000.000000
212580150.000000,60206641.000000
212519641.000000,60325397.000000
212425397.000000,60419641.000000
212306641.000000,60480150.000000
212175000.000000,60501000.000000
Z" /> 
</g>
<g >
</g>
<g style="fill:#000000; fill-opacity:1.0; 
stroke:#000000; stroke-width:1.000000; stroke-opacity:1; 
stroke-linecap:round; stroke-linejoin:round;">
<path style="fill:#000000; fill-opacity:1.0; 
stroke:#000000; stroke-width:1.000000; stroke-opacity:1; 
stroke-linecap:round; stroke-linejoin:round;fill-rule:evenodd;"
d="M 208299000.000000,54825000.000000
208319850.000000,54693359.000000
208380359.000000,54574603.000000
208474603.000000,54480359.000000
208593359.000000,54419850.000000
208725000.000000,54399000.000000
209475000.000000,54399000.000000
209606641.000000,54419850.000000
209725397.000000,54480359.000000
209819641.000000,54574603.000000
209880150.000000,54693359.000000
209901000.000000,54825000.000000
209901000.000000,56575000.000000
209880150.000000,56706641.000000
209819641.000000,56825397.000000
209725397.000000,56919641.000000
209606641.000000,56980150.000000
209475000.000000,57001000.000000
208725000.000000,57001000.000000
208593359.000000,56980150.000000
208474603.000000,56919641.000000
208380359.000000,56825397.000000
208319850.000000,56706641.000000
208299000.000000,56575000.000000
Z" /> 
</g>
<g >
</g>
<g style="fill:#000000; fill-opacity:1.0; 
stroke:#000000; stroke-width:1.000000; stroke-opacity:1; 
stroke-linecap:round; stroke-linejoin:round;">
<path style="fill:#000000; fill-opacity:1.0; 
stroke:#000000; stroke-width:1.000000; stroke-opacity:1; 
stroke-linecap:round; stroke-linejoin:round;fill-rule:evenodd;"
d="M 205599000.000000,54825000.000000
205619850.000000,54693359.000000
205680359.000000,54574603.000000
205774603.000000,54480359.000000
205893359.000000,54419850.000000
206025000.000000,54399000.000000
206775000.000000,54399000.000000
206906641.000000,54419850.000000
207025397.000000,54480359.000000
207119641.000000,54574603.000000
207180150.000000,54693359.000000
207201000.000000,54825000.000000
207201000.000000,56575000.000000
207180150.000000,56706641.000000
207119641.000000,56825397.000000
207025397.000000,56919641.000000
206906641.000000,56980150.000000
206775000.000000,57001000.000000
206025000.000000,57001000.000000
205893359.000000,56980150.000000
205774603.000000,56919641.000000
205680359.000000,56825397.000000
205619850.000000,56706641.000000
205599000.000000,56575000.000000
Z" /> 
</g>
<g >
</g>
<g style="fill:#000000; fill-opacity:1.0; 
stroke:#000000; stroke-width:1.000000; stroke-opacity:1; 
stroke-linecap:round; stroke-linejoin:round;">
<path style="fill:#000000; fill-opacity:1.0; 
stroke:#000000; stroke-width:1.000000; stroke-opacity:1; 
stroke-linecap:round; stroke-linejoin:round;fill-rule:evenodd;"
d="M 202899000.000000,54825000.000000
202919850.000000,54693359.000000
202980359.000000,54574603.000000
203074603.000000,54480359.000000
203193359.000000,54419850.000000
203325000.000000,54399000.000000
204075000.000000,54399000.000000
204206641.000000,54419850.000000
204325397.000000,54480359.000000
204419641.000000,54574603.000000
204480150.000000,54693359.000000
204501000.000000,54825000.000000
204501000.000000,56575000.000000
204480150.000000,56706641.000000
204419641.000000,56825397.000000
204325397.000000,56919641.000000
204206641.000000,56980150.000000
204075000.000000,57001000.000000
203325000.000000,57001000.000000
203193359.000000,56980150.000000
203074603.000000,56919641.000000
202980359.000000,56825397.000000
202919850.000000,56706641.000000
202899000.000000,56575000.000000
Z" /> 
</g>
<g >
</g>
<g style="fill:#000000; fill-opacity:1.0; 
stroke:#000000; stroke-width:1.000000; stroke-opacity:1; 
stroke-linecap:round; stroke-linejoin:round;">
<path style="fill:#000000; fill-opacity:1.0; 
stroke:#000000; stroke-width:1.000000; stroke-opacity:1; 
stroke-linecap:round; stroke-linejoin:round;fill-rule:evenodd;"
d="M 207201000.000000,68275000.000000
207180150.000000,68406641.000000
207119641.000000,68525397.000000
207025397.000000,68619641.000000
206906641.000000,68680150.000000
206775000.000000,68701000.000000
206025000.000000,68701000.000000
205893359.000000,68680150.000000
205774603.000000,68619641.000000
205680359.000000,68525397.000000
205619850.000000,68406641.000000
205599000.000000,68275000.000000
205599000.000000,66525000.000000
205619850.000000,66393359.000000
205680359.000000,66274603.000000
205774603.000000,66180359.000000
205893359.000000,66119850.000000
206025000.000000,66099000.000000
206775000.000000,66099000.000000
206906641.000000,66119850.000000
207025397.000000,66180359.000000
207119641.000000,66274603.000000
207180150.000000,66393359.000000
207201000.000000,66525000.000000
Z" /> 
</g>
<g >
</g>
<g style="fill:#000000; fill-opacity:1.0; 
stroke:#000000; stroke-width:1.000000; stroke-opacity:1; 
stroke-linecap:round; stroke-linejoin:round;">
<path style="fill:#000000; fill-opacity:1.0; 
stroke:#000000; stroke-width:1.000000; stroke-opacity:1; 
stroke-linecap:round; stroke-linejoin:round;fill-rule:evenodd;"
d="M 203551000.000000,66037500.000000
203543262.000000,66103869.000000
203500545.000000,66200493.000000
203425908.000000,66275260.000000
203329359.000000,66318146.000000
203262500.000000,66326000.000000
202762500.000000,66326000.000000
202696131.000000,66318262.000000
202599507.000000,66275545.000000
202524740.000000,66200908.000000
202481854.000000,66104359.000000
202474000.000000,66037500.000000
202474000.000000,65562500.000000
202481738.000000,65496131.000000
202524455.000000,65399507.000000
202599092.000000,65324740.000000
202695641.000000,65281854.000000
202762500.000000,65274000.000000
203262500.000000,65274000.000000
203328869.000000,65281738.000000
203425493.000000,65324455.000000
203500260.000000,65399092.000000
203543146.000000,65495641.000000
203551000.000000,65562500.000000
Z" /> 
<path style="fill:#000000; fill-opacity:1.0; 
stroke:#000000; stroke-width:1.000000; stroke-opacity:1; 
stroke-linecap:round; stroke-linejoin:round;fill-rule:evenodd;"
d="M 201726000.000000,66037500.000000
201718262.000000,66103869.000000
201675545.000000,66200493.000000
201600908.000000,66275260.000000
201504359.000000,66318146.000000
201437500.000000,66326000.000000
200937500.000000,66326000.000000
200871131.000000,66318262.000000
200774507.000000,66275545.000000
200699740.000000,66200908.000000
200656854.000000,66104359.000000
200649000.000000,66037500.000000
200649000.000000,65562500.000000
200656738.000000,65496131.000000
200699455.000000,65399507.000000
200774092.000000,65324740.000000
200870641.000000,65281854.000000
200937500.000000,65274000.000000
201437500.000000,65274000.000000
201503869.000000,65281738.000000
201600493.000000,65324455.000000
201675260.000000,65399092.000000
201718146.000000,65495641.000000
201726000.000000,65562500.000000
Z" /> 
</g>
<g >
</g>
<g style="fill:#000000; fill-opacity:1.0; 
stroke:#000000; stroke-width:1.000000; stroke-opacity:1; 
stroke-linecap:round; stroke-linejoin:round;">
<path style="fill:#000000; fill-opacity:1.0; 
stroke:#000000; stroke-width:1.000000; stroke-opacity:1; 
stroke-linecap:round; stroke-linejoin:round;fill-rule:evenodd;"
d="M 202474000.000000,63662500.000000
202481738.000000,63596131.000000
202524455.000000,63499507.000000
202599092.000000,63424740.000000
202695641.000000,63381854.000000
202762500.000000,63374000.000000
203262500.000000,63374000.000000
203328869.000000,63381738.000000
203425493.000000,63424455.000000
203500260.000000,63499092.000000
203543146.000000,63595641.000000
203551000.000000,63662500.000000
203551000.000000,64137500.000000
203543262.000000,64203869.000000
203500545.000000,64300493.000000
203425908.000000,64375260.000000
203329359.000000,64418146.000000
203262500.000000,64426000.000000
202762500.000000,64426000.000000
202696131.000000,64418262.000000
202599507.000000,64375545.000000
202524740.000000,64300908.000000
202481854.000000,64204359.000000
202474000.000000,64137500.000000
Z" /> 
<path style="fill:#000000; fill-opacity:1.0; 
stroke:#000000; stroke-width:1.000000; stroke-opacity:1; 
stroke-linecap:round; stroke-linejoin:round;fill-rule:evenodd;"
d="M 200649000.000000,63662500.000000
200656738.000000,63596131.000000
200699455.000000,63499507.000000
200774092.000000,63424740.000000
200870641.000000,63381854.000000
200937500.000000,63374000.000000
201437500.000000,63374000.000000
201503869.000000,63381738.000000
201600493.000000,63424455.000000
201675260.000000,63499092.000000
201718146.000000,63595641.000000
201726000.000000,63662500.000000
201726000.000000,64137500.000000
201718262.000000,64203869.000000
201675545.000000,64300493.000000
201600908.000000,64375260.000000
201504359.000000,64418146.000000
201437500.000000,64426000.000000
200937500.000000,64426000.000000
200871131.000000,64418262.000000
200774507.000000,64375545.000000
200699740.000000,64300908.000000
200656854.000000,64204359.000000
200649000.000000,64137500.000000
Z" /> 
</g>
<g >
</g>
<g style="fill:#000000; fill-opacity:1.0; 
stroke:#000000; stroke-width:1.000000; stroke-opacity:1; 
stroke-linecap:round; stroke-linejoin:round;">
<path style="fill:#000000; fill-opacity:1.0; 
stroke:#000000; stroke-width:1.000000; stroke-opacity:1; 
stroke-linecap:round; stroke-linejoin:round;fill-rule:evenodd;"
d="M 203551000.000000,67937500.000000
203543262.000000,68003869.000000
203500545.000000,68100493.000000
203425908.000000,68175260.000000
203329359.000000,68218146.000000
203262500.000000,68226000.000000
202762500.000000,68226000.000000
202696131.000000,68218262.000000
202599507.000000,68175545.000000
202524740.000000,68100908.000000
202481854.000000,68004359.000000
202474000.000000,67937500.000000
202474000.000000,67462500.000000
202481738.000000,67396131.000000
202524455.000000,67299507.000000
202599092.000000,67224740.000000
202695641.000000,67181854.000000
202762500.000000,67174000.000000
203262500.000000,67174000.000000
203328869.000000,67181738.000000
203425493.000000,67224455.000000
203500260.000000,67299092.000000
203543146.000000,67395641.000000
203551000.000000,67462500.000000
Z" /> 
<path style="fill:#000000; fill-opacity:1.0; 
stroke:#000000; stroke-width:1.000000; stroke-opacity:1; 
stroke-linecap:round; stroke-linejoin:round;fill-rule:evenodd;"
d="M 201726000.000000,67937500.000000
201718262.000000,68003869.000000
201675545.000000,68100493.000000
201600908.000000,68175260.000000
201504359.000000,68218146.000000
201437500.000000,68226000.000000
200937500.000000,68226000.000000
200871131.000000,68218262.000000
200774507.000000,68175545.000000
200699740.000000,68100908.000000
200656854.000000,68004359.000000
200649000.000000,67937500.000000
200649000.000000,67462500.000000
200656738.000000,67396131.000000
200699455.000000,67299507.000000
200774092.000000,67224740.000000
200870641.000000,67181854.000000
200937500.000000,67174000.000000
201437500.000000,67174000.000000
201503869.000000,67181738.000000
201600493.000000,67224455.000000
201675260.000000,67299092.000000
201718146.000000,67395641.000000
201726000.000000,67462500.000000
Z" /> 
</g>
<g >
</g>
<g >
</g>
<g >
</g>
</g> 
</svg>
