<?xml version="1.0" standalone="no"?>
 <!DOCTYPE svg PUBLIC "-//W3C//DTD SVG 1.1//EN" 
 "http://www.w3.org/Graphics/SVG/1.1/DTD/svg11.dtd"> 
<svg
  xmlns:svg="http://www.w3.org/2000/svg"
  xmlns="http://www.w3.org/2000/svg"
  xmlns:xlink="http://www.w3.org/1999/xlink"
  version="1.1"
  width="29.700220cm" height="21.000720cm" viewBox="0 0 297002200 210007200">
<title>SVG Picture created as miniRGBii-F_Courtyard.svg date 2022/02/26 19:24:15 </title>
  <desc>Picture generated by PCBNEW </desc>
<g style="fill:#000000; fill-opacity:1.000000;stroke:#000000; stroke-opacity:1.000000;
stroke-linecap:round; stroke-linejoin:round;"
 transform="translate(0 0) scale(1 1)">
</g>
<g style="fill:#000000; fill-opacity:0.0; 
stroke:#000000; stroke-width:0.000000; stroke-opacity:1; 
stroke-linecap:round; stroke-linejoin:round;">
</g>
<g style="fill:#000000; fill-opacity:0.0; 
stroke:#000000; stroke-width:50000.000000; stroke-opacity:1; 
stroke-linecap:round; stroke-linejoin:round;">
<path d="M194150000 58330000
L190850000 58330000
" />
<path d="M194150000 56870000
L194150000 58330000
" />
<path d="M190850000 58330000
L190850000 56870000
" />
<path d="M190850000 56870000
L194150000 56870000
" />
<path d="M199650000 58330000
L196350000 58330000
" />
<path d="M196350000 58330000
L196350000 56870000
" />
<path d="M199650000 56870000
L199650000 58330000
" />
<path d="M196350000 56870000
L199650000 56870000
" />
<path d="M185350000 56870000
L188650000 56870000
" />
<path d="M185350000 58330000
L185350000 56870000
" />
<path d="M188650000 58330000
L185350000 58330000
" />
<path d="M188650000 56870000
L188650000 58330000
" />
<path d="M194150000 55070000
L194150000 56530000
" />
<path d="M190850000 55070000
L194150000 55070000
" />
<path d="M190850000 56530000
L190850000 55070000
" />
<path d="M194150000 56530000
L190850000 56530000
" />
<path d="M189170000 58350000
L189170000 55050000
" />
<path d="M190630000 55050000
L190630000 58350000
" />
<path d="M189170000 55050000
L190630000 55050000
" />
<path d="M190630000 58350000
L189170000 58350000
" />
<path d="M196350000 55070000
L199650000 55070000
" />
<path d="M199650000 56530000
L196350000 56530000
" />
<path d="M199650000 55070000
L199650000 56530000
" />
<path d="M196350000 56530000
L196350000 55070000
" />
<path d="M196130000 58350000
L194670000 58350000
" />
<path d="M194670000 55050000
L196130000 55050000
" />
<path d="M194670000 58350000
L194670000 55050000
" />
<path d="M196130000 55050000
L196130000 58350000
" />
<path d="M185350000 55070000
L188650000 55070000
" />
<path d="M185350000 56530000
L185350000 55070000
" />
<path d="M188650000 55070000
L188650000 56530000
" />
<path d="M188650000 56530000
L185350000 56530000
" />
<path d="M185130000 58350000
L183670000 58350000
" />
<path d="M183670000 55050000
L185130000 55050000
" />
<path d="M183670000 58350000
L183670000 55050000
" />
<path d="M185130000 55050000
L185130000 58350000
" />
<path d="M202750000 58700000
L202750000 62700000
" />
<path d="M204650000 62700000
L202750000 62700000
" />
<path d="M204650000 58700000
L202750000 58700000
" />
<path d="M204650000 58700000
L204650000 62700000
" />
<path d="M202350000 58700000
L200450000 58700000
" />
<path d="M202350000 58700000
L202350000 62700000
" />
<path d="M202350000 62700000
L200450000 62700000
" />
<path d="M200450000 58700000
L200450000 62700000
" />
<path d="M202350000 54400000
L200450000 54400000
" />
<path d="M202350000 54400000
L202350000 58400000
" />
<path d="M200450000 54400000
L200450000 58400000
" />
<path d="M202350000 58400000
L200450000 58400000
" />
<path d="M183700000 59220000
L188500000 59220000
" />
<path d="M188500000 68380000
L183700000 68380000
" />
<path d="M183700000 68380000
L183700000 59220000
" />
<path d="M188500000 59220000
L188500000 68380000
" />
<path d="M189200000 59220000
L194000000 59220000
" />
<path d="M189200000 68380000
L189200000 59220000
" />
<path d="M194000000 68380000
L189200000 68380000
" />
<path d="M194000000 59220000
L194000000 68380000
" />
<path d="M194700000 59220000
L199500000 59220000
" />
<path d="M194700000 68380000
L194700000 59220000
" />
<path d="M199500000 59220000
L199500000 68380000
" />
<path d="M199500000 68380000
L194700000 68380000
" />
<path d="M206950000 58700000
L205050000 58700000
" />
<path d="M206950000 58700000
L206950000 62700000
" />
<path d="M205050000 58700000
L205050000 62700000
" />
<path d="M206950000 62700000
L205050000 62700000
" />
<path d="M203750000 66530000
L200450000 66530000
" />
<path d="M200450000 66530000
L200450000 65070000
" />
<path d="M200450000 65070000
L203750000 65070000
" />
<path d="M203750000 65070000
L203750000 66530000
" />
<path d="M203750000 64630000
L200450000 64630000
" />
<path d="M203750000 63170000
L203750000 64630000
" />
<path d="M200450000 64630000
L200450000 63170000
" />
<path d="M200450000 63170000
L203750000 63170000
" />
<path d="M203750000 68430000
L200450000 68430000
" />
<path d="M200450000 68430000
L200450000 66970000
" />
<path d="M200450000 66970000
L203750000 66970000
" />
<path d="M203750000 66970000
L203750000 68430000
" />
<g >
</g>
<g >
</g>
<g >
</g>
<g >
</g>
<g >
</g>
<g >
</g>
<g >
</g>
<g >
</g>
<g >
</g>
<g >
</g>
<g >
</g>
<g >
</g>
<g >
</g>
<g >
</g>
<g >
</g>
<g >
</g>
<g >
</g>
<g >
</g>
<g >
</g>
<g >
</g>
<g >
</g>
<g >
</g>
<g >
</g>
<g >
</g>
<g >
</g>
<g >
</g>
<g >
</g>
<g >
</g>
<g >
</g>
<g >
</g>
<g >
</g>
</g> 
</svg>
