<?xml version="1.0" standalone="no"?>
 <!DOCTYPE svg PUBLIC "-//W3C//DTD SVG 1.1//EN" 
 "http://www.w3.org/Graphics/SVG/1.1/DTD/svg11.dtd"> 
<svg
  xmlns:svg="http://www.w3.org/2000/svg"
  xmlns="http://www.w3.org/2000/svg"
  xmlns:xlink="http://www.w3.org/1999/xlink"
  version="1.1"
  width="29.700220cm" height="21.000720cm" viewBox="0 0 297002200 210007200">
<title>SVG Picture created as miniRGBii-B_Silkscreen.svg date 2022/02/26 19:24:14 </title>
  <desc>Picture generated by PCBNEW </desc>
<g style="fill:#000000; fill-opacity:1.000000;stroke:#000000; stroke-opacity:1.000000;
stroke-linecap:round; stroke-linejoin:round;"
 transform="translate(0 0) scale(1 1)">
</g>
<g style="fill:#000000; fill-opacity:0.0; 
stroke:#000000; stroke-width:0.000000; stroke-opacity:1; 
stroke-linecap:round; stroke-linejoin:round;">
</g>
<g style="fill:#000000; fill-opacity:0.0; 
stroke:#000000; stroke-width:300000.000000; stroke-opacity:1; 
stroke-linecap:round; stroke-linejoin:round;">
<text x="207010000.000000" y="56630000.000000"
transform="scale(-1 1) translate(-414020000.000000 0)"
textLength="10519286.000000" font-size="2000000.000000" lengthAdjust="spacingAndGlyphs"
text-anchor="middle" opacity="0">miniRGBii</text>
<g class="stroked-text"><desc>miniRGBii</desc>
<path d="M212010000 56558571
L212010000 55558571
" />
<path d="M212010000 55701428
L211938571 55630000
L211795714 55558571
L211581428 55558571
L211438571 55630000
L211367142 55772857
L211367142 56558571
" />
<path d="M211367142 55772857
L211295714 55630000
L211152857 55558571
L210938571 55558571
L210795714 55630000
L210724285 55772857
L210724285 56558571
" />
<path d="M210010000 56558571
L210010000 55558571
" />
<path d="M210010000 55058571
L210081428 55130000
L210010000 55201428
L209938571 55130000
L210010000 55058571
L210010000 55201428
" />
<path d="M209295714 55558571
L209295714 56558571
" />
<path d="M209295714 55701428
L209224285 55630000
L209081428 55558571
L208867142 55558571
L208724285 55630000
L208652857 55772857
L208652857 56558571
" />
<path d="M207938571 56558571
L207938571 55558571
" />
<path d="M207938571 55058571
L208010000 55130000
L207938571 55201428
L207867142 55130000
L207938571 55058571
L207938571 55201428
" />
<path d="M206367142 56558571
L206867142 55844285
" />
<path d="M207224285 56558571
L207224285 55058571
L206652857 55058571
L206510000 55130000
L206438571 55201428
L206367142 55344285
L206367142 55558571
L206438571 55701428
L206510000 55772857
L206652857 55844285
L207224285 55844285
" />
<path d="M204938571 55130000
L205081428 55058571
L205295714 55058571
L205510000 55130000
L205652857 55272857
L205724285 55415714
L205795714 55701428
L205795714 55915714
L205724285 56201428
L205652857 56344285
L205510000 56487142
L205295714 56558571
L205152857 56558571
L204938571 56487142
L204867142 56415714
L204867142 55915714
L205152857 55915714
" />
<path d="M203724285 55772857
L203510000 55844285
L203438571 55915714
L203367142 56058571
L203367142 56272857
L203438571 56415714
L203510000 56487142
L203652857 56558571
L204224285 56558571
L204224285 55058571
L203724285 55058571
L203581428 55130000
L203510000 55201428
L203438571 55344285
L203438571 55487142
L203510000 55630000
L203581428 55701428
L203724285 55772857
L204224285 55772857
" />
<path d="M202724285 56558571
L202724285 55558571
" />
<path d="M202724285 55058571
L202795714 55130000
L202724285 55201428
L202652857 55130000
L202724285 55058571
L202724285 55201428
" />
<path d="M202010000 56558571
L202010000 55558571
" />
<path d="M202010000 55058571
L202081428 55130000
L202010000 55201428
L201938571 55130000
L202010000 55058571
L202010000 55201428
" />
</g><text x="212400000.000000" y="59942500.000000"
transform="scale(-1 1) translate(-424800000.000000 0)"
textLength="17324286.000000" font-size="2000000.000000" lengthAdjust="spacingAndGlyphs"
text-anchor="start" opacity="0">by Job#3556 &amp;</text>
<g class="stroked-text"><desc>by Job#3556 &amp;</desc>
<path d="M211847857 59871071
L211847857 58371071
" />
<path d="M211847857 58942500
L211705000 58871071
L211419285 58871071
L211276428 58942500
L211205000 59013928
L211133571 59156785
L211133571 59585357
L211205000 59728214
L211276428 59799642
L211419285 59871071
L211705000 59871071
L211847857 59799642
" />
<path d="M210633571 58871071
L210276428 59871071
" />
<path d="M209919285 58871071
L210276428 59871071
L210419285 60228214
L210490714 60299642
L210633571 60371071
" />
<path d="M207776428 58371071
L207776428 59442500
L207847857 59656785
L207990714 59799642
L208205000 59871071
L208347857 59871071
" />
<path d="M206847857 59871071
L206990714 59799642
L207062142 59728214
L207133571 59585357
L207133571 59156785
L207062142 59013928
L206990714 58942500
L206847857 58871071
L206633571 58871071
L206490714 58942500
L206419285 59013928
L206347857 59156785
L206347857 59585357
L206419285 59728214
L206490714 59799642
L206633571 59871071
L206847857 59871071
" />
<path d="M205705000 59871071
L205705000 58371071
" />
<path d="M205705000 58942500
L205562142 58871071
L205276428 58871071
L205133571 58942500
L205062142 59013928
L204990714 59156785
L204990714 59585357
L205062142 59728214
L205133571 59799642
L205276428 59871071
L205562142 59871071
L205705000 59799642
" />
<path d="M204419285 58871071
L203347857 58871071
" />
<path d="M203990714 58228214
L204419285 60156785
" />
<path d="M203490714 59513928
L204562142 59513928
" />
<path d="M203919285 60156785
L203490714 58228214
" />
<path d="M202990714 58371071
L202062142 58371071
L202562142 58942500
L202347857 58942500
L202205000 59013928
L202133571 59085357
L202062142 59228214
L202062142 59585357
L202133571 59728214
L202205000 59799642
L202347857 59871071
L202776428 59871071
L202919285 59799642
L202990714 59728214
" />
<path d="M200705000 58371071
L201419285 58371071
L201490714 59085357
L201419285 59013928
L201276428 58942500
L200919285 58942500
L200776428 59013928
L200705000 59085357
L200633571 59228214
L200633571 59585357
L200705000 59728214
L200776428 59799642
L200919285 59871071
L201276428 59871071
L201419285 59799642
L201490714 59728214
" />
<path d="M199276428 58371071
L199990714 58371071
L200062142 59085357
L199990714 59013928
L199847857 58942500
L199490714 58942500
L199347857 59013928
L199276428 59085357
L199205000 59228214
L199205000 59585357
L199276428 59728214
L199347857 59799642
L199490714 59871071
L199847857 59871071
L199990714 59799642
L200062142 59728214
" />
<path d="M197919285 58371071
L198205000 58371071
L198347857 58442500
L198419285 58513928
L198562142 58728214
L198633571 59013928
L198633571 59585357
L198562142 59728214
L198490714 59799642
L198347857 59871071
L198062142 59871071
L197919285 59799642
L197847857 59728214
L197776428 59585357
L197776428 59228214
L197847857 59085357
L197919285 59013928
L198062142 58942500
L198347857 58942500
L198490714 59013928
L198562142 59085357
L198633571 59228214
" />
<path d="M194776428 59871071
L194847857 59871071
L194990714 59799642
L195205000 59585357
L195562142 59156785
L195705000 58942500
L195776428 58728214
L195776428 58585357
L195705000 58442500
L195562142 58371071
L195490714 58371071
L195347857 58442500
L195276428 58585357
L195276428 58656785
L195347857 58799642
L195419285 58871071
L195847857 59156785
L195919285 59228214
L195990714 59371071
L195990714 59585357
L195919285 59728214
L195847857 59799642
L195705000 59871071
L195490714 59871071
L195347857 59799642
L195276428 59728214
L195062142 59442500
L194990714 59228214
L194990714 59085357
" />
</g><text x="212400000.000000" y="62357500.000000"
transform="scale(-1 1) translate(-424800000.000000 0)"
textLength="14252857.000000" font-size="2000000.000000" lengthAdjust="spacingAndGlyphs"
text-anchor="start" opacity="0">Devnol#9366</text>
<g class="stroked-text"><desc>Devnol#9366</desc>
<path d="M211847857 62286071
L211847857 60786071
L211490714 60786071
L211276428 60857500
L211133571 61000357
L211062142 61143214
L210990714 61428928
L210990714 61643214
L211062142 61928928
L211133571 62071785
L211276428 62214642
L211490714 62286071
L211847857 62286071
" />
<path d="M209776428 62214642
L209919285 62286071
L210205000 62286071
L210347857 62214642
L210419285 62071785
L210419285 61500357
L210347857 61357500
L210205000 61286071
L209919285 61286071
L209776428 61357500
L209705000 61500357
L209705000 61643214
L210419285 61786071
" />
<path d="M209205000 61286071
L208847857 62286071
L208490714 61286071
" />
<path d="M207919285 61286071
L207919285 62286071
" />
<path d="M207919285 61428928
L207847857 61357500
L207705000 61286071
L207490714 61286071
L207347857 61357500
L207276428 61500357
L207276428 62286071
" />
<path d="M206347857 62286071
L206490714 62214642
L206562142 62143214
L206633571 62000357
L206633571 61571785
L206562142 61428928
L206490714 61357500
L206347857 61286071
L206133571 61286071
L205990714 61357500
L205919285 61428928
L205847857 61571785
L205847857 62000357
L205919285 62143214
L205990714 62214642
L206133571 62286071
L206347857 62286071
" />
<path d="M204990714 62286071
L205133571 62214642
L205205000 62071785
L205205000 60786071
" />
<path d="M204490714 61286071
L203419285 61286071
" />
<path d="M204062142 60643214
L204490714 62571785
" />
<path d="M203562142 61928928
L204633571 61928928
" />
<path d="M203990714 62571785
L203562142 60643214
" />
<path d="M202847857 62286071
L202562142 62286071
L202419285 62214642
L202347857 62143214
L202205000 61928928
L202133571 61643214
L202133571 61071785
L202205000 60928928
L202276428 60857500
L202419285 60786071
L202705000 60786071
L202847857 60857500
L202919285 60928928
L202990714 61071785
L202990714 61428928
L202919285 61571785
L202847857 61643214
L202705000 61714642
L202419285 61714642
L202276428 61643214
L202205000 61571785
L202133571 61428928
" />
<path d="M201633571 60786071
L200705000 60786071
L201205000 61357500
L200990714 61357500
L200847857 61428928
L200776428 61500357
L200705000 61643214
L200705000 62000357
L200776428 62143214
L200847857 62214642
L200990714 62286071
L201419285 62286071
L201562142 62214642
L201633571 62143214
" />
<path d="M199419285 60786071
L199705000 60786071
L199847857 60857500
L199919285 60928928
L200062142 61143214
L200133571 61428928
L200133571 62000357
L200062142 62143214
L199990714 62214642
L199847857 62286071
L199562142 62286071
L199419285 62214642
L199347857 62143214
L199276428 62000357
L199276428 61643214
L199347857 61500357
L199419285 61428928
L199562142 61357500
L199847857 61357500
L199990714 61428928
L200062142 61500357
L200133571 61643214
" />
<path d="M197990714 60786071
L198276428 60786071
L198419285 60857500
L198490714 60928928
L198633571 61143214
L198705000 61428928
L198705000 62000357
L198633571 62143214
L198562142 62214642
L198419285 62286071
L198133571 62286071
L197990714 62214642
L197919285 62143214
L197847857 62000357
L197847857 61643214
L197919285 61500357
L197990714 61428928
L198133571 61357500
L198419285 61357500
L198562142 61428928
L198633571 61500357
L198705000 61643214
" />
</g></g>
<g style="fill:#000000; fill-opacity:0.0; 
stroke:#000000; stroke-width:150000.000000; stroke-opacity:1; 
stroke-linecap:round; stroke-linejoin:round;">
<text x="212400000.000000" y="67100000.000000"
transform="scale(-1 1) translate(-424800000.000000 0)"
textLength="17181429.000000" font-size="1333333.000000" lengthAdjust="spacingAndGlyphs"
text-anchor="start" opacity="0">discord.gg/7jNHphfDQk</text>
<g class="stroked-text"><desc>discord.gg/7jNHphfDQk</desc>
<path d="M211635833 67052380
L211635833 66052380
" />
<path d="M211635833 67004761
L211731071 67052380
L211921547 67052380
L212016785 67004761
L212064404 66957142
L212112023 66861904
L212112023 66576190
L212064404 66480952
L212016785 66433333
L211921547 66385714
L211731071 66385714
L211635833 66433333
" />
<path d="M211159642 67052380
L211159642 66385714
" />
<path d="M211159642 66052380
L211207261 66100000
L211159642 66147619
L211112023 66100000
L211159642 66052380
L211159642 66147619
" />
<path d="M210731071 67004761
L210635833 67052380
L210445357 67052380
L210350119 67004761
L210302500 66909523
L210302500 66861904
L210350119 66766666
L210445357 66719047
L210588214 66719047
L210683452 66671428
L210731071 66576190
L210731071 66528571
L210683452 66433333
L210588214 66385714
L210445357 66385714
L210350119 66433333
" />
<path d="M209445357 67004761
L209540595 67052380
L209731071 67052380
L209826309 67004761
L209873928 66957142
L209921547 66861904
L209921547 66576190
L209873928 66480952
L209826309 66433333
L209731071 66385714
L209540595 66385714
L209445357 66433333
" />
<path d="M208873928 67052380
L208969166 67004761
L209016785 66957142
L209064404 66861904
L209064404 66576190
L209016785 66480952
L208969166 66433333
L208873928 66385714
L208731071 66385714
L208635833 66433333
L208588214 66480952
L208540595 66576190
L208540595 66861904
L208588214 66957142
L208635833 67004761
L208731071 67052380
L208873928 67052380
" />
<path d="M208112023 67052380
L208112023 66385714
" />
<path d="M208112023 66576190
L208064404 66480952
L208016785 66433333
L207921547 66385714
L207826309 66385714
" />
<path d="M207064404 67052380
L207064404 66052380
" />
<path d="M207064404 67004761
L207159642 67052380
L207350119 67052380
L207445357 67004761
L207492976 66957142
L207540595 66861904
L207540595 66576190
L207492976 66480952
L207445357 66433333
L207350119 66385714
L207159642 66385714
L207064404 66433333
" />
<path d="M206588214 66957142
L206540595 67004761
L206588214 67052380
L206635833 67004761
L206588214 66957142
L206588214 67052380
" />
<path d="M205683452 66385714
L205683452 67195238
L205731071 67290476
L205778690 67338095
L205873928 67385714
L206016785 67385714
L206112023 67338095
" />
<path d="M205683452 67004761
L205778690 67052380
L205969166 67052380
L206064404 67004761
L206112023 66957142
L206159642 66861904
L206159642 66576190
L206112023 66480952
L206064404 66433333
L205969166 66385714
L205778690 66385714
L205683452 66433333
" />
<path d="M204778690 66385714
L204778690 67195238
L204826309 67290476
L204873928 67338095
L204969166 67385714
L205112023 67385714
L205207261 67338095
" />
<path d="M204778690 67004761
L204873928 67052380
L205064404 67052380
L205159642 67004761
L205207261 66957142
L205254880 66861904
L205254880 66576190
L205207261 66480952
L205159642 66433333
L205064404 66385714
L204873928 66385714
L204778690 66433333
" />
<path d="M203588214 66004761
L204445357 67290476
" />
<path d="M203350119 66052380
L202683452 66052380
L203112023 67052380
" />
<path d="M202302500 66385714
L202302500 67242857
L202350119 67338095
L202445357 67385714
L202492976 67385714
" />
<path d="M202302500 66052380
L202350119 66100000
L202302500 66147619
L202254880 66100000
L202302500 66052380
L202302500 66147619
" />
<path d="M201826309 67052380
L201826309 66052380
L201254880 67052380
L201254880 66052380
" />
<path d="M200778690 67052380
L200778690 66052380
" />
<path d="M200778690 66528571
L200207261 66528571
" />
<path d="M200207261 67052380
L200207261 66052380
" />
<path d="M199731071 66385714
L199731071 67385714
" />
<path d="M199731071 66433333
L199635833 66385714
L199445357 66385714
L199350119 66433333
L199302500 66480952
L199254880 66576190
L199254880 66861904
L199302500 66957142
L199350119 67004761
L199445357 67052380
L199635833 67052380
L199731071 67004761
" />
<path d="M198826309 67052380
L198826309 66052380
" />
<path d="M198397738 67052380
L198397738 66528571
L198445357 66433333
L198540595 66385714
L198683452 66385714
L198778690 66433333
L198826309 66480952
" />
<path d="M198064404 66385714
L197683452 66385714
" />
<path d="M197921547 67052380
L197921547 66195238
L197873928 66100000
L197778690 66052380
L197683452 66052380
" />
<path d="M197350119 67052380
L197350119 66052380
L197112023 66052380
L196969166 66100000
L196873928 66195238
L196826309 66290476
L196778690 66480952
L196778690 66623809
L196826309 66814285
L196873928 66909523
L196969166 67004761
L197112023 67052380
L197350119 67052380
" />
<path d="M195683452 67147619
L195778690 67100000
L195873928 67004761
L196016785 66861904
L196112023 66814285
L196207261 66814285
" />
<path d="M196159642 67052380
L196254880 67004761
L196350119 66909523
L196397738 66719047
L196397738 66385714
L196350119 66195238
L196254880 66100000
L196159642 66052380
L195969166 66052380
L195873928 66100000
L195778690 66195238
L195731071 66385714
L195731071 66719047
L195778690 66909523
L195873928 67004761
L195969166 67052380
L196159642 67052380
" />
<path d="M195302500 67052380
L195302500 66052380
" />
<path d="M195207261 66671428
L194921547 67052380
" />
<path d="M194921547 66385714
L195302500 66766666
" />
</g><text x="186690000.000000" y="67810000.000000"
transform="scale(-1 1) translate(-373380000.000000 0)"
textLength="5566905.000000" font-size="1333333.000000" lengthAdjust="spacingAndGlyphs"
text-anchor="middle" opacity="0">Rev 1.0</text>
<g class="stroked-text"><desc>Rev 1.0</desc>
<path d="M188761428 67762380
L189094761 67286190
" />
<path d="M189332857 67762380
L189332857 66762380
L188951904 66762380
L188856666 66810000
L188809047 66857619
L188761428 66952857
L188761428 67095714
L188809047 67190952
L188856666 67238571
L188951904 67286190
L189332857 67286190
" />
<path d="M187951904 67714761
L188047142 67762380
L188237619 67762380
L188332857 67714761
L188380476 67619523
L188380476 67238571
L188332857 67143333
L188237619 67095714
L188047142 67095714
L187951904 67143333
L187904285 67238571
L187904285 67333809
L188380476 67429047
" />
<path d="M187570952 67095714
L187332857 67762380
L187094761 67095714
" />
<path d="M185428095 67762380
L185999523 67762380
" />
<path d="M185713809 67762380
L185713809 66762380
L185809047 66905238
L185904285 67000476
L185999523 67048095
" />
<path d="M184999523 67667142
L184951904 67714761
L184999523 67762380
L185047142 67714761
L184999523 67667142
L184999523 67762380
" />
<path d="M184332857 66762380
L184237619 66762380
L184142380 66810000
L184094761 66857619
L184047142 66952857
L183999523 67143333
L183999523 67381428
L184047142 67571904
L184094761 67667142
L184142380 67714761
L184237619 67762380
L184332857 67762380
L184428095 67714761
L184475714 67667142
L184523333 67571904
L184570952 67381428
L184570952 67143333
L184523333 66952857
L184475714 66857619
L184428095 66810000
L184332857 66762380
" />
</g><g >
</g>
<g >
</g>
<g >
</g>
<g >
</g>
<g >
</g>
<g >
</g>
<g >
</g>
<g >
</g>
<g >
</g>
<g >
</g>
<g >
</g>
<g >
</g>
<g >
</g>
<g >
</g>
<g >
</g>
<g >
</g>
<g >
</g>
<g >
</g>
<g >
</g>
<g >
</g>
<g >
</g>
<g >
</g>
<g >
</g>
<g >
</g>
<g >
</g>
<g >
</g>
<g >
</g>
<g >
</g>
<g >
</g>
<g >
</g>
<g >
</g>
</g> 
</svg>
