<?xml version="1.0" standalone="no"?>
 <!DOCTYPE svg PUBLIC "-//W3C//DTD SVG 1.1//EN" 
 "http://www.w3.org/Graphics/SVG/1.1/DTD/svg11.dtd"> 
<svg
  xmlns:svg="http://www.w3.org/2000/svg"
  xmlns="http://www.w3.org/2000/svg"
  xmlns:xlink="http://www.w3.org/1999/xlink"
  version="1.1"
  width="29.700220cm" height="21.000720cm" viewBox="0 0 297002200 210007200">
<title>SVG Picture created as miniRGBii-B_Silkscreen.svg date 2022/08/03 15:32:45 </title>
  <desc>Picture generated by PCBNEW </desc>
<g style="fill:#000000; fill-opacity:1.000000;stroke:#000000; stroke-opacity:1.000000;
stroke-linecap:round; stroke-linejoin:round;"
 transform="translate(0 0) scale(1 1)">
</g>
<g style="fill:#000000; fill-opacity:0.0; 
stroke:#000000; stroke-width:0.000000; stroke-opacity:1; 
stroke-linecap:round; stroke-linejoin:round;">
</g>
<g style="fill:#000000; fill-opacity:0.0; 
stroke:#000000; stroke-width:300000.000000; stroke-opacity:1; 
stroke-linecap:round; stroke-linejoin:round;">
<text x="213360000.000000" y="54852000.000000"
transform="scale(-1 1) translate(-426720000.000000 0)"
textLength="10389286.000000" font-size="2000000.000000" lengthAdjust="spacingAndGlyphs"
text-anchor="middle" opacity="0">miniRGBii</text>
<g class="stroked-text"><desc>miniRGBii</desc>
<path d="M218360000 54780571
L218360000 53780571
" />
<path d="M218360000 53923428
L218288571 53852000
L218145714 53780571
L217931428 53780571
L217788571 53852000
L217717142 53994857
L217717142 54780571
" />
<path d="M217717142 53994857
L217645714 53852000
L217502857 53780571
L217288571 53780571
L217145714 53852000
L217074285 53994857
L217074285 54780571
" />
<path d="M216360000 54780571
L216360000 53780571
" />
<path d="M216360000 53280571
L216431428 53352000
L216360000 53423428
L216288571 53352000
L216360000 53280571
L216360000 53423428
" />
<path d="M215645714 53780571
L215645714 54780571
" />
<path d="M215645714 53923428
L215574285 53852000
L215431428 53780571
L215217142 53780571
L215074285 53852000
L215002857 53994857
L215002857 54780571
" />
<path d="M214288571 54780571
L214288571 53780571
" />
<path d="M214288571 53280571
L214360000 53352000
L214288571 53423428
L214217142 53352000
L214288571 53280571
L214288571 53423428
" />
<path d="M212717142 54780571
L213217142 54066285
" />
<path d="M213574285 54780571
L213574285 53280571
L213002857 53280571
L212860000 53352000
L212788571 53423428
L212717142 53566285
L212717142 53780571
L212788571 53923428
L212860000 53994857
L213002857 54066285
L213574285 54066285
" />
<path d="M211288571 53352000
L211431428 53280571
L211645714 53280571
L211860000 53352000
L212002857 53494857
L212074285 53637714
L212145714 53923428
L212145714 54137714
L212074285 54423428
L212002857 54566285
L211860000 54709142
L211645714 54780571
L211502857 54780571
L211288571 54709142
L211217142 54637714
L211217142 54137714
L211502857 54137714
" />
<path d="M210074285 53994857
L209860000 54066285
L209788571 54137714
L209717142 54280571
L209717142 54494857
L209788571 54637714
L209860000 54709142
L210002857 54780571
L210574285 54780571
L210574285 53280571
L210074285 53280571
L209931428 53352000
L209860000 53423428
L209788571 53566285
L209788571 53709142
L209860000 53852000
L209931428 53923428
L210074285 53994857
L210574285 53994857
" />
<path d="M209074285 54780571
L209074285 53780571
" />
<path d="M209074285 53280571
L209145714 53352000
L209074285 53423428
L209002857 53352000
L209074285 53280571
L209074285 53423428
" />
<path d="M208360000 54780571
L208360000 53780571
" />
<path d="M208360000 53280571
L208431428 53352000
L208360000 53423428
L208288571 53352000
L208360000 53280571
L208360000 53423428
" />
</g><text x="218750000.000000" y="58164500.000000"
transform="scale(-1 1) translate(-437500000.000000 0)"
textLength="17324286.000000" font-size="2000000.000000" lengthAdjust="spacingAndGlyphs"
text-anchor="start" opacity="0">by Job#3556 &amp;</text>
<g class="stroked-text"><desc>by Job#3556 &amp;</desc>
<path d="M218197857 58093071
L218197857 56593071
" />
<path d="M218197857 57164500
L218055000 57093071
L217769285 57093071
L217626428 57164500
L217555000 57235928
L217483571 57378785
L217483571 57807357
L217555000 57950214
L217626428 58021642
L217769285 58093071
L218055000 58093071
L218197857 58021642
" />
<path d="M216983571 57093071
L216626428 58093071
" />
<path d="M216269285 57093071
L216626428 58093071
L216769285 58450214
L216840714 58521642
L216983571 58593071
" />
<path d="M214126428 56593071
L214126428 57664500
L214197857 57878785
L214340714 58021642
L214555000 58093071
L214697857 58093071
" />
<path d="M213197857 58093071
L213340714 58021642
L213412142 57950214
L213483571 57807357
L213483571 57378785
L213412142 57235928
L213340714 57164500
L213197857 57093071
L212983571 57093071
L212840714 57164500
L212769285 57235928
L212697857 57378785
L212697857 57807357
L212769285 57950214
L212840714 58021642
L212983571 58093071
L213197857 58093071
" />
<path d="M212055000 58093071
L212055000 56593071
" />
<path d="M212055000 57164500
L211912142 57093071
L211626428 57093071
L211483571 57164500
L211412142 57235928
L211340714 57378785
L211340714 57807357
L211412142 57950214
L211483571 58021642
L211626428 58093071
L211912142 58093071
L212055000 58021642
" />
<path d="M210769285 57093071
L209697857 57093071
" />
<path d="M210340714 56450214
L210769285 58378785
" />
<path d="M209840714 57735928
L210912142 57735928
" />
<path d="M210269285 58378785
L209840714 56450214
" />
<path d="M209340714 56593071
L208412142 56593071
L208912142 57164500
L208697857 57164500
L208555000 57235928
L208483571 57307357
L208412142 57450214
L208412142 57807357
L208483571 57950214
L208555000 58021642
L208697857 58093071
L209126428 58093071
L209269285 58021642
L209340714 57950214
" />
<path d="M207055000 56593071
L207769285 56593071
L207840714 57307357
L207769285 57235928
L207626428 57164500
L207269285 57164500
L207126428 57235928
L207055000 57307357
L206983571 57450214
L206983571 57807357
L207055000 57950214
L207126428 58021642
L207269285 58093071
L207626428 58093071
L207769285 58021642
L207840714 57950214
" />
<path d="M205626428 56593071
L206340714 56593071
L206412142 57307357
L206340714 57235928
L206197857 57164500
L205840714 57164500
L205697857 57235928
L205626428 57307357
L205555000 57450214
L205555000 57807357
L205626428 57950214
L205697857 58021642
L205840714 58093071
L206197857 58093071
L206340714 58021642
L206412142 57950214
" />
<path d="M204269285 56593071
L204555000 56593071
L204697857 56664500
L204769285 56735928
L204912142 56950214
L204983571 57235928
L204983571 57807357
L204912142 57950214
L204840714 58021642
L204697857 58093071
L204412142 58093071
L204269285 58021642
L204197857 57950214
L204126428 57807357
L204126428 57450214
L204197857 57307357
L204269285 57235928
L204412142 57164500
L204697857 57164500
L204840714 57235928
L204912142 57307357
L204983571 57450214
" />
<path d="M201126428 58093071
L201197857 58093071
L201340714 58021642
L201555000 57807357
L201912142 57378785
L202055000 57164500
L202126428 56950214
L202126428 56807357
L202055000 56664500
L201912142 56593071
L201840714 56593071
L201697857 56664500
L201626428 56807357
L201626428 56878785
L201697857 57021642
L201769285 57093071
L202197857 57378785
L202269285 57450214
L202340714 57593071
L202340714 57807357
L202269285 57950214
L202197857 58021642
L202055000 58093071
L201840714 58093071
L201697857 58021642
L201626428 57950214
L201412142 57664500
L201340714 57450214
L201340714 57307357
" />
</g><text x="218750000.000000" y="60579500.000000"
transform="scale(-1 1) translate(-437500000.000000 0)"
textLength="14252857.000000" font-size="2000000.000000" lengthAdjust="spacingAndGlyphs"
text-anchor="start" opacity="0">Devnol#9366</text>
<g class="stroked-text"><desc>Devnol#9366</desc>
<path d="M218197857 60508071
L218197857 59008071
L217840714 59008071
L217626428 59079500
L217483571 59222357
L217412142 59365214
L217340714 59650928
L217340714 59865214
L217412142 60150928
L217483571 60293785
L217626428 60436642
L217840714 60508071
L218197857 60508071
" />
<path d="M216126428 60436642
L216269285 60508071
L216555000 60508071
L216697857 60436642
L216769285 60293785
L216769285 59722357
L216697857 59579500
L216555000 59508071
L216269285 59508071
L216126428 59579500
L216055000 59722357
L216055000 59865214
L216769285 60008071
" />
<path d="M215555000 59508071
L215197857 60508071
L214840714 59508071
" />
<path d="M214269285 59508071
L214269285 60508071
" />
<path d="M214269285 59650928
L214197857 59579500
L214055000 59508071
L213840714 59508071
L213697857 59579500
L213626428 59722357
L213626428 60508071
" />
<path d="M212697857 60508071
L212840714 60436642
L212912142 60365214
L212983571 60222357
L212983571 59793785
L212912142 59650928
L212840714 59579500
L212697857 59508071
L212483571 59508071
L212340714 59579500
L212269285 59650928
L212197857 59793785
L212197857 60222357
L212269285 60365214
L212340714 60436642
L212483571 60508071
L212697857 60508071
" />
<path d="M211340714 60508071
L211483571 60436642
L211555000 60293785
L211555000 59008071
" />
<path d="M210840714 59508071
L209769285 59508071
" />
<path d="M210412142 58865214
L210840714 60793785
" />
<path d="M209912142 60150928
L210983571 60150928
" />
<path d="M210340714 60793785
L209912142 58865214
" />
<path d="M209197857 60508071
L208912142 60508071
L208769285 60436642
L208697857 60365214
L208555000 60150928
L208483571 59865214
L208483571 59293785
L208555000 59150928
L208626428 59079500
L208769285 59008071
L209055000 59008071
L209197857 59079500
L209269285 59150928
L209340714 59293785
L209340714 59650928
L209269285 59793785
L209197857 59865214
L209055000 59936642
L208769285 59936642
L208626428 59865214
L208555000 59793785
L208483571 59650928
" />
<path d="M207983571 59008071
L207055000 59008071
L207555000 59579500
L207340714 59579500
L207197857 59650928
L207126428 59722357
L207055000 59865214
L207055000 60222357
L207126428 60365214
L207197857 60436642
L207340714 60508071
L207769285 60508071
L207912142 60436642
L207983571 60365214
" />
<path d="M205769285 59008071
L206055000 59008071
L206197857 59079500
L206269285 59150928
L206412142 59365214
L206483571 59650928
L206483571 60222357
L206412142 60365214
L206340714 60436642
L206197857 60508071
L205912142 60508071
L205769285 60436642
L205697857 60365214
L205626428 60222357
L205626428 59865214
L205697857 59722357
L205769285 59650928
L205912142 59579500
L206197857 59579500
L206340714 59650928
L206412142 59722357
L206483571 59865214
" />
<path d="M204340714 59008071
L204626428 59008071
L204769285 59079500
L204840714 59150928
L204983571 59365214
L205055000 59650928
L205055000 60222357
L204983571 60365214
L204912142 60436642
L204769285 60508071
L204483571 60508071
L204340714 60436642
L204269285 60365214
L204197857 60222357
L204197857 59865214
L204269285 59722357
L204340714 59650928
L204483571 59579500
L204769285 59579500
L204912142 59650928
L204983571 59722357
L205055000 59865214
" />
</g></g>
<g style="fill:#000000; fill-opacity:0.0; 
stroke:#000000; stroke-width:150000.000000; stroke-opacity:1; 
stroke-linecap:round; stroke-linejoin:round;">
<text x="218750000.000000" y="65322000.000000"
transform="scale(-1 1) translate(-437500000.000000 0)"
textLength="11514762.000000" font-size="1333333.000000" lengthAdjust="spacingAndGlyphs"
text-anchor="start" opacity="0">bit.ly/miniRGBii</text>
<g class="stroked-text"><desc>bit.ly/miniRGBii</desc>
<path d="M218414404 65274380
L218414404 64274380
" />
<path d="M218414404 64655333
L218319166 64607714
L218128690 64607714
L218033452 64655333
L217985833 64702952
L217938214 64798190
L217938214 65083904
L217985833 65179142
L218033452 65226761
L218128690 65274380
L218319166 65274380
L218414404 65226761
" />
<path d="M217509642 65274380
L217509642 64607714
" />
<path d="M217509642 64274380
L217557261 64322000
L217509642 64369619
L217462023 64322000
L217509642 64274380
L217509642 64369619
" />
<path d="M217176309 64607714
L216795357 64607714
" />
<path d="M217033452 64274380
L217033452 65131523
L216985833 65226761
L216890595 65274380
L216795357 65274380
" />
<path d="M216462023 65179142
L216414404 65226761
L216462023 65274380
L216509642 65226761
L216462023 65179142
L216462023 65274380
" />
<path d="M215842976 65274380
L215938214 65226761
L215985833 65131523
L215985833 64274380
" />
<path d="M215557261 64607714
L215319166 65274380
" />
<path d="M215081071 64607714
L215319166 65274380
L215414404 65512476
L215462023 65560095
L215557261 65607714
" />
<path d="M213985833 64226761
L214842976 65512476
" />
<path d="M213652500 65274380
L213652500 64607714
" />
<path d="M213652500 64702952
L213604880 64655333
L213509642 64607714
L213366785 64607714
L213271547 64655333
L213223928 64750571
L213223928 65274380
" />
<path d="M213223928 64750571
L213176309 64655333
L213081071 64607714
L212938214 64607714
L212842976 64655333
L212795357 64750571
L212795357 65274380
" />
<path d="M212319166 65274380
L212319166 64607714
" />
<path d="M212319166 64274380
L212366785 64322000
L212319166 64369619
L212271547 64322000
L212319166 64274380
L212319166 64369619
" />
<path d="M211842976 64607714
L211842976 65274380
" />
<path d="M211842976 64702952
L211795357 64655333
L211700119 64607714
L211557261 64607714
L211462023 64655333
L211414404 64750571
L211414404 65274380
" />
<path d="M210938214 65274380
L210938214 64607714
" />
<path d="M210938214 64274380
L210985833 64322000
L210938214 64369619
L210890595 64322000
L210938214 64274380
L210938214 64369619
" />
<path d="M209890595 65274380
L210223928 64798190
" />
<path d="M210462023 65274380
L210462023 64274380
L210081071 64274380
L209985833 64322000
L209938214 64369619
L209890595 64464857
L209890595 64607714
L209938214 64702952
L209985833 64750571
L210081071 64798190
L210462023 64798190
" />
<path d="M208938214 64322000
L209033452 64274380
L209176309 64274380
L209319166 64322000
L209414404 64417238
L209462023 64512476
L209509642 64702952
L209509642 64845809
L209462023 65036285
L209414404 65131523
L209319166 65226761
L209176309 65274380
L209081071 65274380
L208938214 65226761
L208890595 65179142
L208890595 64845809
L209081071 64845809
" />
<path d="M208128690 64750571
L207985833 64798190
L207938214 64845809
L207890595 64941047
L207890595 65083904
L207938214 65179142
L207985833 65226761
L208081071 65274380
L208462023 65274380
L208462023 64274380
L208128690 64274380
L208033452 64322000
L207985833 64369619
L207938214 64464857
L207938214 64560095
L207985833 64655333
L208033452 64702952
L208128690 64750571
L208462023 64750571
" />
<path d="M207462023 65274380
L207462023 64607714
" />
<path d="M207462023 64274380
L207509642 64322000
L207462023 64369619
L207414404 64322000
L207462023 64274380
L207462023 64369619
" />
<path d="M206985833 65274380
L206985833 64607714
" />
<path d="M206985833 64274380
L207033452 64322000
L206985833 64369619
L206938214 64322000
L206985833 64274380
L206985833 64369619
" />
</g><text x="197485000.000000" y="66286000.000000"
transform="scale(-1 1) translate(-394970000.000000 0)"
textLength="5566905.000000" font-size="1333333.000000" lengthAdjust="spacingAndGlyphs"
text-anchor="middle" opacity="0">Rev 1.1</text>
<g class="stroked-text"><desc>Rev 1.1</desc>
<path d="M199556428 66238380
L199889761 65762190
" />
<path d="M200127857 66238380
L200127857 65238380
L199746904 65238380
L199651666 65286000
L199604047 65333619
L199556428 65428857
L199556428 65571714
L199604047 65666952
L199651666 65714571
L199746904 65762190
L200127857 65762190
" />
<path d="M198746904 66190761
L198842142 66238380
L199032619 66238380
L199127857 66190761
L199175476 66095523
L199175476 65714571
L199127857 65619333
L199032619 65571714
L198842142 65571714
L198746904 65619333
L198699285 65714571
L198699285 65809809
L199175476 65905047
" />
<path d="M198365952 65571714
L198127857 66238380
L197889761 65571714
" />
<path d="M196223095 66238380
L196794523 66238380
" />
<path d="M196508809 66238380
L196508809 65238380
L196604047 65381238
L196699285 65476476
L196794523 65524095
" />
<path d="M195794523 66143142
L195746904 66190761
L195794523 66238380
L195842142 66190761
L195794523 66143142
L195794523 66238380
" />
<path d="M194794523 66238380
L195365952 66238380
" />
<path d="M195080238 66238380
L195080238 65238380
L195175476 65381238
L195270714 65476476
L195365952 65524095
" />
</g><g >
</g>
<g >
</g>
<g >
</g>
<g >
</g>
<g >
</g>
<g >
</g>
<g >
</g>
<g >
</g>
<g >
</g>
<g >
</g>
<g >
</g>
<g >
</g>
<g >
</g>
<g >
</g>
<g >
</g>
<g >
</g>
<g >
</g>
<g >
</g>
<g >
</g>
<g >
</g>
<g >
</g>
<g >
</g>
<g >
</g>
<g >
</g>
<g >
</g>
<g >
</g>
<g >
</g>
<g >
</g>
<g >
</g>
<g >
</g>
<g >
</g>
</g> 
</svg>
