<?xml version="1.0" standalone="no"?>
 <!DOCTYPE svg PUBLIC "-//W3C//DTD SVG 1.1//EN" 
 "http://www.w3.org/Graphics/SVG/1.1/DTD/svg11.dtd"> 
<svg
  xmlns:svg="http://www.w3.org/2000/svg"
  xmlns="http://www.w3.org/2000/svg"
  xmlns:xlink="http://www.w3.org/1999/xlink"
  version="1.1"
  width="29.700220cm" height="21.000720cm" viewBox="0 0 116930 82680">
<title>SVG Picture created as miniRGBii-NPTH-drl_map.svg date 2022/08/03 15:33:06 </title>
  <desc>Picture generated by PCBNEW </desc>
<g style="fill:#000000; fill-opacity:1.000000;stroke:#000000; stroke-opacity:1.000000;
stroke-linecap:round; stroke-linejoin:round;"
 transform="translate(0 0) scale(1 1)">
</g>
<g style="fill:#000000; fill-opacity:0.0; 
stroke:#000000; stroke-width:0.000000; stroke-opacity:1; 
stroke-linecap:round; stroke-linejoin:round;">
</g>
<g style="fill:#000000; fill-opacity:0.0; 
stroke:#000000; stroke-width:177.165354; stroke-opacity:1; 
stroke-linecap:round; stroke-linejoin:round;">
<path d="M44558 15945
L72371 15945
" />
<path d="M73552 17126
L73552 32481
" />
<path d="M72371 33662
L44558 33662
" />
<path d="M43377 32481
L43377 17126
" />
<path d="M73552.401969 17126.834646 A1181.101181 1181.101181 0.0 0 0 72371.299606 15945.732283" />
<path d="M44558.701181 15945.732283 A1181.101181 1181.101181 0.0 0 0 43377.598819 17126.834646" />
<path d="M43377.598819 32481.165354 A1181.101181 1181.101181 0.0 0 0 44558.701181 33662.267717" />
<path d="M72371.299606 33662.267717 A1181.101181 1181.101181 0.0 0 0 73552.401969 32481.165354" />
</g>
<g style="fill:#000000; fill-opacity:0.0; 
stroke:#000000; stroke-width:236.220472; stroke-opacity:1; 
stroke-linecap:round; stroke-linejoin:round;">
</g>
<g style="fill:#000000; fill-opacity:0.0; 
stroke:#000000; stroke-width:78.740551; stroke-opacity:1; 
stroke-linecap:round; stroke-linejoin:round;">
<text x="44076.418110" y="35010.693307"
textLength="5853.021260" font-size="1049.868898" lengthAdjust="spacingAndGlyphs"
text-anchor="start" opacity="0">Drill Map:</text>
<g class="stroked-text"><desc>Drill Map:</desc>
<path d="M44303 34973
L44303 34185
L44490 34185
L44603 34223
L44678 34298
L44715 34373
L44753 34523
L44753 34635
L44715 34785
L44678 34860
L44603 34935
L44490 34973
L44303 34973
" />
<path d="M45090 34973
L45090 34448
" />
<path d="M45090 34598
L45128 34523
L45165 34485
L45240 34448
L45315 34448
" />
<path d="M45578 34973
L45578 34448
" />
<path d="M45578 34185
L45540 34223
L45578 34260
L45615 34223
L45578 34185
L45578 34260
" />
<path d="M46065 34973
L45990 34935
L45953 34860
L45953 34185
" />
<path d="M46477 34973
L46403 34935
L46365 34860
L46365 34185
" />
<path d="M47377 34973
L47377 34185
L47640 34748
L47902 34185
L47902 34973
" />
<path d="M48615 34973
L48615 34560
L48577 34485
L48502 34448
L48352 34448
L48277 34485
" />
<path d="M48615 34935
L48540 34973
L48352 34973
L48277 34935
L48240 34860
L48240 34785
L48277 34710
L48352 34673
L48540 34673
L48615 34635
" />
<path d="M48990 34448
L48990 35235
" />
<path d="M48990 34485
L49065 34448
L49215 34448
L49290 34485
L49327 34523
L49365 34598
L49365 34823
L49327 34898
L49290 34935
L49215 34973
L49065 34973
L48990 34935
" />
<path d="M49702 34898
L49740 34935
L49702 34973
L49665 34935
L49702 34898
L49702 34973
" />
<path d="M49702 34485
L49740 34523
L49702 34560
L49665 34523
L49702 34485
L49702 34560
" />
</g></g> 
</svg>
