<?xml version="1.0" standalone="no"?>
 <!DOCTYPE svg PUBLIC "-//W3C//DTD SVG 1.1//EN" 
 "http://www.w3.org/Graphics/SVG/1.1/DTD/svg11.dtd"> 
<svg
  xmlns:svg="http://www.w3.org/2000/svg"
  xmlns="http://www.w3.org/2000/svg"
  xmlns:xlink="http://www.w3.org/1999/xlink"
  version="1.1"
  width="29.700220cm" height="21.000720cm" viewBox="0 0 116930 82680">
<title>SVG Picture created as miniRGBii-PTH-drl_map.svg date 2022/08/03 15:33:06 </title>
  <desc>Picture generated by PCBNEW </desc>
<g style="fill:#000000; fill-opacity:1.000000;stroke:#000000; stroke-opacity:1.000000;
stroke-linecap:round; stroke-linejoin:round;"
 transform="translate(0 0) scale(1 1)">
</g>
<g style="fill:#000000; fill-opacity:0.0; 
stroke:#000000; stroke-width:0.000000; stroke-opacity:1; 
stroke-linecap:round; stroke-linejoin:round;">
</g>
<g style="fill:#000000; fill-opacity:0.0; 
stroke:#000000; stroke-width:177.165354; stroke-opacity:1; 
stroke-linecap:round; stroke-linejoin:round;">
<path d="M44558 15945
L72371 15945
" />
<path d="M73552 17126
L73552 32481
" />
<path d="M72371 33662
L44558 33662
" />
<path d="M43377 32481
L43377 17126
" />
<path d="M73552.401969 17126.834646 A1181.101181 1181.101181 0.0 0 0 72371.299606 15945.732283" />
<path d="M44558.701181 15945.732283 A1181.101181 1181.101181 0.0 0 0 43377.598819 17126.834646" />
<path d="M43377.598819 32481.165354 A1181.101181 1181.101181 0.0 0 0 44558.701181 33662.267717" />
<path d="M72371.299606 33662.267717 A1181.101181 1181.101181 0.0 0 0 73552.401969 32481.165354" />
</g>
<g style="fill:#000000; fill-opacity:0.0; 
stroke:#000000; stroke-width:236.220472; stroke-opacity:1; 
stroke-linecap:round; stroke-linejoin:round;">
</g>
<g style="fill:#000000; fill-opacity:0.0; 
stroke:#000000; stroke-width:47.244094; stroke-opacity:1; 
stroke-linecap:round; stroke-linejoin:round;">
<path d="M51691 20329
L52163 20802
" />
<path d="M52163 20329
L51691 20802
" />
<path d="M51691 24529
L52163 25002
" />
<path d="M52163 24529
L51691 25002
" />
<path d="M51841 18229
L52313 18702
" />
<path d="M52313 18229
L51841 18702
" />
<path d="M61141 19879
L61613 20352
" />
<path d="M61613 19879
L61141 20352
" />
<path d="M62941 27379
L63413 27852
" />
<path d="M63413 27379
L62941 27852
" />
<path d="M62941 29607
L63413 30079
" />
<path d="M63413 29607
L62941 30079
" />
<path d="M62941 31729
L63413 32202
" />
<path d="M63413 31729
L62941 32202
" />
<path d="M63691 23386
L64163 23859
" />
<path d="M64163 23386
L63691 23859
" />
<path d="M65491 27379
L65963 27852
" />
<path d="M65963 27379
L65491 27852
" />
</g>
<g style="fill:#000000; fill-opacity:0.0; 
stroke:#000000; stroke-width:236.220472; stroke-opacity:1; 
stroke-linecap:round; stroke-linejoin:round;">
</g>
<g style="fill:#000000; fill-opacity:0.0; 
stroke:#000000; stroke-width:78.740551; stroke-opacity:1; 
stroke-linecap:round; stroke-linejoin:round;">
<text x="44076.418110" y="35010.693307"
textLength="5853.021260" font-size="1049.868898" lengthAdjust="spacingAndGlyphs"
text-anchor="start" opacity="0">Drill Map:</text>
<g class="stroked-text"><desc>Drill Map:</desc>
<path d="M44303 34973
L44303 34185
L44490 34185
L44603 34223
L44678 34298
L44715 34373
L44753 34523
L44753 34635
L44715 34785
L44678 34860
L44603 34935
L44490 34973
L44303 34973
" />
<path d="M45090 34973
L45090 34448
" />
<path d="M45090 34598
L45128 34523
L45165 34485
L45240 34448
L45315 34448
" />
<path d="M45578 34973
L45578 34448
" />
<path d="M45578 34185
L45540 34223
L45578 34260
L45615 34223
L45578 34185
L45578 34260
" />
<path d="M46065 34973
L45990 34935
L45953 34860
L45953 34185
" />
<path d="M46477 34973
L46403 34935
L46365 34860
L46365 34185
" />
<path d="M47377 34973
L47377 34185
L47640 34748
L47902 34185
L47902 34973
" />
<path d="M48615 34973
L48615 34560
L48577 34485
L48502 34448
L48352 34448
L48277 34485
" />
<path d="M48615 34935
L48540 34973
L48352 34973
L48277 34935
L48240 34860
L48240 34785
L48277 34710
L48352 34673
L48540 34673
L48615 34635
" />
<path d="M48990 34448
L48990 35235
" />
<path d="M48990 34485
L49065 34448
L49215 34448
L49290 34485
L49327 34523
L49365 34598
L49365 34823
L49327 34898
L49290 34935
L49215 34973
L49065 34973
L48990 34935
" />
<path d="M49702 34898
L49740 34935
L49702 34973
L49665 34935
L49702 34898
L49702 34973
" />
<path d="M49702 34485
L49740 34523
L49702 34560
L49665 34523
L49702 34485
L49702 34560
" />
</g></g>
<g style="fill:#000000; fill-opacity:0.0; 
stroke:#000000; stroke-width:47.244094; stroke-opacity:1; 
stroke-linecap:round; stroke-linejoin:round;">
<path d="M42816 36034
L43289 36506
" />
<path d="M43289 36034
L42816 36506
" />
</g>
<g style="fill:#000000; fill-opacity:0.0; 
stroke:#000000; stroke-width:236.220472; stroke-opacity:1; 
stroke-linecap:round; stroke-linejoin:round;">
</g>
<g style="fill:#000000; fill-opacity:0.0; 
stroke:#000000; stroke-width:78.740551; stroke-opacity:1; 
stroke-linecap:round; stroke-linejoin:round;">
<text x="44076.418110" y="36664.237795"
textLength="18451.452756" font-size="1049.868898" lengthAdjust="spacingAndGlyphs"
text-anchor="start" opacity="0">0.400mm / 0.0157" (9 holes)</text>
<g class="stroked-text"><desc>0.400mm / 0.0157" (9 holes)</desc>
<path d="M44453 35839
L44528 35839
L44603 35876
L44640 35914
L44678 35989
L44715 36139
L44715 36326
L44678 36476
L44640 36551
L44603 36589
L44528 36626
L44453 36626
L44378 36589
L44340 36551
L44303 36476
L44265 36326
L44265 36139
L44303 35989
L44340 35914
L44378 35876
L44453 35839
" />
<path d="M45053 36551
L45090 36589
L45053 36626
L45015 36589
L45053 36551
L45053 36626
" />
<path d="M45765 36101
L45765 36626
" />
<path d="M45578 35801
L45390 36364
L45878 36364
" />
<path d="M46328 35839
L46403 35839
L46477 35876
L46515 35914
L46552 35989
L46590 36139
L46590 36326
L46552 36476
L46515 36551
L46477 36589
L46403 36626
L46328 36626
L46253 36589
L46215 36551
L46178 36476
L46140 36326
L46140 36139
L46178 35989
L46215 35914
L46253 35876
L46328 35839
" />
<path d="M47077 35839
L47152 35839
L47227 35876
L47265 35914
L47302 35989
L47340 36139
L47340 36326
L47302 36476
L47265 36551
L47227 36589
L47152 36626
L47077 36626
L47002 36589
L46965 36551
L46927 36476
L46890 36326
L46890 36139
L46927 35989
L46965 35914
L47002 35876
L47077 35839
" />
<path d="M47677 36626
L47677 36101
" />
<path d="M47677 36176
L47715 36139
L47790 36101
L47902 36101
L47977 36139
L48015 36214
L48015 36626
" />
<path d="M48015 36214
L48052 36139
L48127 36101
L48240 36101
L48315 36139
L48352 36214
L48352 36626
" />
<path d="M48727 36626
L48727 36101
" />
<path d="M48727 36176
L48765 36139
L48840 36101
L48952 36101
L49027 36139
L49065 36214
L49065 36626
" />
<path d="M49065 36214
L49102 36139
L49177 36101
L49290 36101
L49365 36139
L49402 36214
L49402 36626
" />
<path d="M50939 35801
L50265 36814
" />
<path d="M51952 35839
L52027 35839
L52102 35876
L52139 35914
L52177 35989
L52214 36139
L52214 36326
L52177 36476
L52139 36551
L52102 36589
L52027 36626
L51952 36626
L51877 36589
L51839 36551
L51802 36476
L51764 36326
L51764 36139
L51802 35989
L51839 35914
L51877 35876
L51952 35839
" />
<path d="M52552 36551
L52589 36589
L52552 36626
L52514 36589
L52552 36551
L52552 36626
" />
<path d="M53077 35839
L53152 35839
L53227 35876
L53264 35914
L53302 35989
L53339 36139
L53339 36326
L53302 36476
L53264 36551
L53227 36589
L53152 36626
L53077 36626
L53002 36589
L52964 36551
L52927 36476
L52889 36326
L52889 36139
L52927 35989
L52964 35914
L53002 35876
L53077 35839
" />
<path d="M54089 36626
L53639 36626
" />
<path d="M53864 36626
L53864 35839
L53789 35951
L53714 36026
L53639 36064
" />
<path d="M54801 35839
L54427 35839
L54389 36214
L54427 36176
L54501 36139
L54689 36139
L54764 36176
L54801 36214
L54839 36289
L54839 36476
L54801 36551
L54764 36589
L54689 36626
L54501 36626
L54427 36589
L54389 36551
" />
<path d="M55101 35839
L55626 35839
L55289 36626
" />
<path d="M55889 35839
L55889 35989
" />
<path d="M56189 35839
L56189 35989
" />
<path d="M57351 36926
L57314 36889
L57239 36776
L57201 36701
L57164 36589
L57126 36401
L57126 36251
L57164 36064
L57201 35951
L57239 35876
L57314 35764
L57351 35726
" />
<path d="M57689 36626
L57839 36626
L57914 36589
L57951 36551
L58026 36439
L58064 36289
L58064 35989
L58026 35914
L57989 35876
L57914 35839
L57764 35839
L57689 35876
L57651 35914
L57614 35989
L57614 36176
L57651 36251
L57689 36289
L57764 36326
L57914 36326
L57989 36289
L58026 36251
L58064 36176
" />
<path d="M59001 36626
L59001 35839
" />
<path d="M59338 36626
L59338 36214
L59301 36139
L59226 36101
L59113 36101
L59038 36139
L59001 36176
" />
<path d="M59826 36626
L59751 36589
L59713 36551
L59676 36476
L59676 36251
L59713 36176
L59751 36139
L59826 36101
L59938 36101
L60013 36139
L60051 36176
L60088 36251
L60088 36476
L60051 36551
L60013 36589
L59938 36626
L59826 36626
" />
<path d="M60538 36626
L60463 36589
L60426 36514
L60426 35839
" />
<path d="M61138 36589
L61063 36626
L60913 36626
L60838 36589
L60801 36514
L60801 36214
L60838 36139
L60913 36101
L61063 36101
L61138 36139
L61176 36214
L61176 36289
L60801 36364
" />
<path d="M61476 36589
L61551 36626
L61701 36626
L61776 36589
L61813 36514
L61813 36476
L61776 36401
L61701 36364
L61588 36364
L61513 36326
L61476 36251
L61476 36214
L61513 36139
L61588 36101
L61701 36101
L61776 36139
" />
<path d="M62076 36926
L62113 36889
L62188 36776
L62226 36701
L62263 36589
L62301 36401
L62301 36251
L62263 36064
L62226 35951
L62188 35876
L62113 35764
L62076 35726
" />
</g></g> 
</svg>
