<?xml version="1.0" standalone="no"?>
 <!DOCTYPE svg PUBLIC "-//W3C//DTD SVG 1.1//EN" 
 "http://www.w3.org/Graphics/SVG/1.1/DTD/svg11.dtd"> 
<svg
  xmlns:svg="http://www.w3.org/2000/svg"
  xmlns="http://www.w3.org/2000/svg"
  xmlns:xlink="http://www.w3.org/1999/xlink"
  version="1.1"
  width="29.700220cm" height="21.000720cm" viewBox="0 0 297002200 210007200">
<title>SVG Picture created as miniRGBii-F_Mask.svg date 2022/08/03 15:32:45 </title>
  <desc>Picture generated by PCBNEW </desc>
<g style="fill:#000000; fill-opacity:1.000000;stroke:#000000; stroke-opacity:1.000000;
stroke-linecap:round; stroke-linejoin:round;"
 transform="translate(0 0) scale(1 1)">
</g>
<g style="fill:#000000; fill-opacity:0.0; 
stroke:#000000; stroke-width:0.000000; stroke-opacity:1; 
stroke-linecap:round; stroke-linejoin:round;">
<g >
</g>
<g style="fill:#000000; fill-opacity:0.0; 
stroke:#000000; stroke-width:1.000000; stroke-opacity:1; 
stroke-linecap:round; stroke-linejoin:round;">
</g>
<g style="fill:#000000; fill-opacity:1.0; 
stroke:#000000; stroke-width:1.000000; stroke-opacity:1; 
stroke-linecap:round; stroke-linejoin:round;">
<path style="fill:#000000; fill-opacity:1.0; 
stroke:#000000; stroke-width:1.000000; stroke-opacity:1; 
stroke-linecap:round; stroke-linejoin:round;fill-rule:evenodd;"
d="M 204397500.000000,62605500.000000
204379421.000000,62696387.000000
204327938.000000,62773438.000000
204250887.000000,62824921.000000
204160000.000000,62843000.000000
203585000.000000,62843000.000000
203494113.000000,62824921.000000
203417062.000000,62773438.000000
203365579.000000,62696387.000000
203347500.000000,62605500.000000
203347500.000000,62130500.000000
203365579.000000,62039613.000000
203417062.000000,61962562.000000
203494113.000000,61911079.000000
203585000.000000,61893000.000000
204160000.000000,61893000.000000
204250887.000000,61911079.000000
204327938.000000,61962562.000000
204379421.000000,62039613.000000
204397500.000000,62130500.000000
Z" /> 
<path style="fill:#000000; fill-opacity:1.0; 
stroke:#000000; stroke-width:1.000000; stroke-opacity:1; 
stroke-linecap:round; stroke-linejoin:round;fill-rule:evenodd;"
d="M 206147500.000000,62605500.000000
206129421.000000,62696387.000000
206077938.000000,62773438.000000
206000887.000000,62824921.000000
205910000.000000,62843000.000000
205335000.000000,62843000.000000
205244113.000000,62824921.000000
205167062.000000,62773438.000000
205115579.000000,62696387.000000
205097500.000000,62605500.000000
205097500.000000,62130500.000000
205115579.000000,62039613.000000
205167062.000000,61962562.000000
205244113.000000,61911079.000000
205335000.000000,61893000.000000
205910000.000000,61893000.000000
206000887.000000,61911079.000000
206077938.000000,61962562.000000
206129421.000000,62039613.000000
206147500.000000,62130500.000000
Z" /> 
</g>
<g >
</g>
<g style="fill:#000000; fill-opacity:1.0; 
stroke:#000000; stroke-width:1.000000; stroke-opacity:1; 
stroke-linecap:round; stroke-linejoin:round;">
<path style="fill:#000000; fill-opacity:1.0; 
stroke:#000000; stroke-width:1.000000; stroke-opacity:1; 
stroke-linecap:round; stroke-linejoin:round;fill-rule:evenodd;"
d="M 204397500.000000,59035500.000000
204379421.000000,59126387.000000
204327938.000000,59203438.000000
204250887.000000,59254921.000000
204160000.000000,59273000.000000
203585000.000000,59273000.000000
203494113.000000,59254921.000000
203417062.000000,59203438.000000
203365579.000000,59126387.000000
203347500.000000,59035500.000000
203347500.000000,58560500.000000
203365579.000000,58469613.000000
203417062.000000,58392562.000000
203494113.000000,58341079.000000
203585000.000000,58323000.000000
204160000.000000,58323000.000000
204250887.000000,58341079.000000
204327938.000000,58392562.000000
204379421.000000,58469613.000000
204397500.000000,58560500.000000
Z" /> 
<path style="fill:#000000; fill-opacity:1.0; 
stroke:#000000; stroke-width:1.000000; stroke-opacity:1; 
stroke-linecap:round; stroke-linejoin:round;fill-rule:evenodd;"
d="M 206147500.000000,59035500.000000
206129421.000000,59126387.000000
206077938.000000,59203438.000000
206000887.000000,59254921.000000
205910000.000000,59273000.000000
205335000.000000,59273000.000000
205244113.000000,59254921.000000
205167062.000000,59203438.000000
205115579.000000,59126387.000000
205097500.000000,59035500.000000
205097500.000000,58560500.000000
205115579.000000,58469613.000000
205167062.000000,58392562.000000
205244113.000000,58341079.000000
205335000.000000,58323000.000000
205910000.000000,58323000.000000
206000887.000000,58341079.000000
206077938.000000,58392562.000000
206129421.000000,58469613.000000
206147500.000000,58560500.000000
Z" /> 
</g>
<g >
</g>
<g style="fill:#000000; fill-opacity:1.0; 
stroke:#000000; stroke-width:1.000000; stroke-opacity:1; 
stroke-linecap:round; stroke-linejoin:round;">
<path style="fill:#000000; fill-opacity:1.0; 
stroke:#000000; stroke-width:1.000000; stroke-opacity:1; 
stroke-linecap:round; stroke-linejoin:round;fill-rule:evenodd;"
d="M 204397500.000000,55493500.000000
204379421.000000,55584387.000000
204327938.000000,55661438.000000
204250887.000000,55712921.000000
204160000.000000,55731000.000000
203585000.000000,55731000.000000
203494113.000000,55712921.000000
203417062.000000,55661438.000000
203365579.000000,55584387.000000
203347500.000000,55493500.000000
203347500.000000,55018500.000000
203365579.000000,54927613.000000
203417062.000000,54850562.000000
203494113.000000,54799079.000000
203585000.000000,54781000.000000
204160000.000000,54781000.000000
204250887.000000,54799079.000000
204327938.000000,54850562.000000
204379421.000000,54927613.000000
204397500.000000,55018500.000000
Z" /> 
<path style="fill:#000000; fill-opacity:1.0; 
stroke:#000000; stroke-width:1.000000; stroke-opacity:1; 
stroke-linecap:round; stroke-linejoin:round;fill-rule:evenodd;"
d="M 206147500.000000,55493500.000000
206129421.000000,55584387.000000
206077938.000000,55661438.000000
206000887.000000,55712921.000000
205910000.000000,55731000.000000
205335000.000000,55731000.000000
205244113.000000,55712921.000000
205167062.000000,55661438.000000
205115579.000000,55584387.000000
205097500.000000,55493500.000000
205097500.000000,55018500.000000
205115579.000000,54927613.000000
205167062.000000,54850562.000000
205244113.000000,54799079.000000
205335000.000000,54781000.000000
205910000.000000,54781000.000000
206000887.000000,54799079.000000
206077938.000000,54850562.000000
206129421.000000,54927613.000000
206147500.000000,55018500.000000
Z" /> 
</g>
<g >
</g>
<g style="fill:#000000; fill-opacity:1.0; 
stroke:#000000; stroke-width:1.000000; stroke-opacity:1; 
stroke-linecap:round; stroke-linejoin:round;">
<path style="fill:#000000; fill-opacity:1.0; 
stroke:#000000; stroke-width:1.000000; stroke-opacity:1; 
stroke-linecap:round; stroke-linejoin:round;fill-rule:evenodd;"
d="M 205097500.000000,60330500.000000
205115579.000000,60239613.000000
205167062.000000,60162562.000000
205244113.000000,60111079.000000
205335000.000000,60093000.000000
205910000.000000,60093000.000000
206000887.000000,60111079.000000
206077938.000000,60162562.000000
206129421.000000,60239613.000000
206147500.000000,60330500.000000
206147500.000000,60805500.000000
206129421.000000,60896387.000000
206077938.000000,60973438.000000
206000887.000000,61024921.000000
205910000.000000,61043000.000000
205335000.000000,61043000.000000
205244113.000000,61024921.000000
205167062.000000,60973438.000000
205115579.000000,60896387.000000
205097500.000000,60805500.000000
Z" /> 
<path style="fill:#000000; fill-opacity:1.0; 
stroke:#000000; stroke-width:1.000000; stroke-opacity:1; 
stroke-linecap:round; stroke-linejoin:round;fill-rule:evenodd;"
d="M 203347500.000000,60330500.000000
203365579.000000,60239613.000000
203417062.000000,60162562.000000
203494113.000000,60111079.000000
203585000.000000,60093000.000000
204160000.000000,60093000.000000
204250887.000000,60111079.000000
204327938.000000,60162562.000000
204379421.000000,60239613.000000
204397500.000000,60330500.000000
204397500.000000,60805500.000000
204379421.000000,60896387.000000
204327938.000000,60973438.000000
204250887.000000,61024921.000000
204160000.000000,61043000.000000
203585000.000000,61043000.000000
203494113.000000,61024921.000000
203417062.000000,60973438.000000
203365579.000000,60896387.000000
203347500.000000,60805500.000000
Z" /> 
</g>
<g >
</g>
<g style="fill:#000000; fill-opacity:1.0; 
stroke:#000000; stroke-width:1.000000; stroke-opacity:1; 
stroke-linecap:round; stroke-linejoin:round;">
<path style="fill:#000000; fill-opacity:1.0; 
stroke:#000000; stroke-width:1.000000; stroke-opacity:1; 
stroke-linecap:round; stroke-linejoin:round;fill-rule:evenodd;"
d="M 202385000.000000,61818000.000000
202475887.000000,61836079.000000
202552938.000000,61887562.000000
202604421.000000,61964613.000000
202622500.000000,62055500.000000
202622500.000000,62630500.000000
202604421.000000,62721387.000000
202552938.000000,62798438.000000
202475887.000000,62849921.000000
202385000.000000,62868000.000000
201910000.000000,62868000.000000
201819113.000000,62849921.000000
201742062.000000,62798438.000000
201690579.000000,62721387.000000
201672500.000000,62630500.000000
201672500.000000,62055500.000000
201690579.000000,61964613.000000
201742062.000000,61887562.000000
201819113.000000,61836079.000000
201910000.000000,61818000.000000
Z" /> 
<path style="fill:#000000; fill-opacity:1.0; 
stroke:#000000; stroke-width:1.000000; stroke-opacity:1; 
stroke-linecap:round; stroke-linejoin:round;fill-rule:evenodd;"
d="M 202385000.000000,60068000.000000
202475887.000000,60086079.000000
202552938.000000,60137562.000000
202604421.000000,60214613.000000
202622500.000000,60305500.000000
202622500.000000,60880500.000000
202604421.000000,60971387.000000
202552938.000000,61048438.000000
202475887.000000,61099921.000000
202385000.000000,61118000.000000
201910000.000000,61118000.000000
201819113.000000,61099921.000000
201742062.000000,61048438.000000
201690579.000000,60971387.000000
201672500.000000,60880500.000000
201672500.000000,60305500.000000
201690579.000000,60214613.000000
201742062.000000,60137562.000000
201819113.000000,60086079.000000
201910000.000000,60068000.000000
Z" /> 
</g>
<g >
</g>
<g style="fill:#000000; fill-opacity:1.0; 
stroke:#000000; stroke-width:1.000000; stroke-opacity:1; 
stroke-linecap:round; stroke-linejoin:round;">
<path style="fill:#000000; fill-opacity:1.0; 
stroke:#000000; stroke-width:1.000000; stroke-opacity:1; 
stroke-linecap:round; stroke-linejoin:round;fill-rule:evenodd;"
d="M 205097500.000000,56760500.000000
205115579.000000,56669613.000000
205167062.000000,56592562.000000
205244113.000000,56541079.000000
205335000.000000,56523000.000000
205910000.000000,56523000.000000
206000887.000000,56541079.000000
206077938.000000,56592562.000000
206129421.000000,56669613.000000
206147500.000000,56760500.000000
206147500.000000,57235500.000000
206129421.000000,57326387.000000
206077938.000000,57403438.000000
206000887.000000,57454921.000000
205910000.000000,57473000.000000
205335000.000000,57473000.000000
205244113.000000,57454921.000000
205167062.000000,57403438.000000
205115579.000000,57326387.000000
205097500.000000,57235500.000000
Z" /> 
<path style="fill:#000000; fill-opacity:1.0; 
stroke:#000000; stroke-width:1.000000; stroke-opacity:1; 
stroke-linecap:round; stroke-linejoin:round;fill-rule:evenodd;"
d="M 203347500.000000,56760500.000000
203365579.000000,56669613.000000
203417062.000000,56592562.000000
203494113.000000,56541079.000000
203585000.000000,56523000.000000
204160000.000000,56523000.000000
204250887.000000,56541079.000000
204327938.000000,56592562.000000
204379421.000000,56669613.000000
204397500.000000,56760500.000000
204397500.000000,57235500.000000
204379421.000000,57326387.000000
204327938.000000,57403438.000000
204250887.000000,57454921.000000
204160000.000000,57473000.000000
203585000.000000,57473000.000000
203494113.000000,57454921.000000
203417062.000000,57403438.000000
203365579.000000,57326387.000000
203347500.000000,57235500.000000
Z" /> 
</g>
<g >
</g>
<g style="fill:#000000; fill-opacity:1.0; 
stroke:#000000; stroke-width:1.000000; stroke-opacity:1; 
stroke-linecap:round; stroke-linejoin:round;">
<path style="fill:#000000; fill-opacity:1.0; 
stroke:#000000; stroke-width:1.000000; stroke-opacity:1; 
stroke-linecap:round; stroke-linejoin:round;fill-rule:evenodd;"
d="M 202385000.000000,58248000.000000
202475887.000000,58266079.000000
202552938.000000,58317562.000000
202604421.000000,58394613.000000
202622500.000000,58485500.000000
202622500.000000,59060500.000000
202604421.000000,59151387.000000
202552938.000000,59228438.000000
202475887.000000,59279921.000000
202385000.000000,59298000.000000
201910000.000000,59298000.000000
201819113.000000,59279921.000000
201742062.000000,59228438.000000
201690579.000000,59151387.000000
201672500.000000,59060500.000000
201672500.000000,58485500.000000
201690579.000000,58394613.000000
201742062.000000,58317562.000000
201819113.000000,58266079.000000
201910000.000000,58248000.000000
Z" /> 
<path style="fill:#000000; fill-opacity:1.0; 
stroke:#000000; stroke-width:1.000000; stroke-opacity:1; 
stroke-linecap:round; stroke-linejoin:round;fill-rule:evenodd;"
d="M 202385000.000000,56498000.000000
202475887.000000,56516079.000000
202552938.000000,56567562.000000
202604421.000000,56644613.000000
202622500.000000,56735500.000000
202622500.000000,57310500.000000
202604421.000000,57401387.000000
202552938.000000,57478438.000000
202475887.000000,57529921.000000
202385000.000000,57548000.000000
201910000.000000,57548000.000000
201819113.000000,57529921.000000
201742062.000000,57478438.000000
201690579.000000,57401387.000000
201672500.000000,57310500.000000
201672500.000000,56735500.000000
201690579.000000,56644613.000000
201742062.000000,56567562.000000
201819113.000000,56516079.000000
201910000.000000,56498000.000000
Z" /> 
</g>
<g >
</g>
<g style="fill:#000000; fill-opacity:1.0; 
stroke:#000000; stroke-width:1.000000; stroke-opacity:1; 
stroke-linecap:round; stroke-linejoin:round;">
<path style="fill:#000000; fill-opacity:1.0; 
stroke:#000000; stroke-width:1.000000; stroke-opacity:1; 
stroke-linecap:round; stroke-linejoin:round;fill-rule:evenodd;"
d="M 205097500.000000,53218500.000000
205115579.000000,53127613.000000
205167062.000000,53050562.000000
205244113.000000,52999079.000000
205335000.000000,52981000.000000
205910000.000000,52981000.000000
206000887.000000,52999079.000000
206077938.000000,53050562.000000
206129421.000000,53127613.000000
206147500.000000,53218500.000000
206147500.000000,53693500.000000
206129421.000000,53784387.000000
206077938.000000,53861438.000000
206000887.000000,53912921.000000
205910000.000000,53931000.000000
205335000.000000,53931000.000000
205244113.000000,53912921.000000
205167062.000000,53861438.000000
205115579.000000,53784387.000000
205097500.000000,53693500.000000
Z" /> 
<path style="fill:#000000; fill-opacity:1.0; 
stroke:#000000; stroke-width:1.000000; stroke-opacity:1; 
stroke-linecap:round; stroke-linejoin:round;fill-rule:evenodd;"
d="M 203347500.000000,53218500.000000
203365579.000000,53127613.000000
203417062.000000,53050562.000000
203494113.000000,52999079.000000
203585000.000000,52981000.000000
204160000.000000,52981000.000000
204250887.000000,52999079.000000
204327938.000000,53050562.000000
204379421.000000,53127613.000000
204397500.000000,53218500.000000
204397500.000000,53693500.000000
204379421.000000,53784387.000000
204327938.000000,53861438.000000
204250887.000000,53912921.000000
204160000.000000,53931000.000000
203585000.000000,53931000.000000
203494113.000000,53912921.000000
203417062.000000,53861438.000000
203365579.000000,53784387.000000
203347500.000000,53693500.000000
Z" /> 
</g>
<g >
</g>
<g style="fill:#000000; fill-opacity:1.0; 
stroke:#000000; stroke-width:1.000000; stroke-opacity:1; 
stroke-linecap:round; stroke-linejoin:round;">
<path style="fill:#000000; fill-opacity:1.0; 
stroke:#000000; stroke-width:1.000000; stroke-opacity:1; 
stroke-linecap:round; stroke-linejoin:round;fill-rule:evenodd;"
d="M 202385000.000000,54706000.000000
202475887.000000,54724079.000000
202552938.000000,54775562.000000
202604421.000000,54852613.000000
202622500.000000,54943500.000000
202622500.000000,55518500.000000
202604421.000000,55609387.000000
202552938.000000,55686438.000000
202475887.000000,55737921.000000
202385000.000000,55756000.000000
201910000.000000,55756000.000000
201819113.000000,55737921.000000
201742062.000000,55686438.000000
201690579.000000,55609387.000000
201672500.000000,55518500.000000
201672500.000000,54943500.000000
201690579.000000,54852613.000000
201742062.000000,54775562.000000
201819113.000000,54724079.000000
201910000.000000,54706000.000000
Z" /> 
<path style="fill:#000000; fill-opacity:1.0; 
stroke:#000000; stroke-width:1.000000; stroke-opacity:1; 
stroke-linecap:round; stroke-linejoin:round;fill-rule:evenodd;"
d="M 202385000.000000,52956000.000000
202475887.000000,52974079.000000
202552938.000000,53025562.000000
202604421.000000,53102613.000000
202622500.000000,53193500.000000
202622500.000000,53768500.000000
202604421.000000,53859387.000000
202552938.000000,53936438.000000
202475887.000000,53987921.000000
202385000.000000,54006000.000000
201910000.000000,54006000.000000
201819113.000000,53987921.000000
201742062.000000,53936438.000000
201690579.000000,53859387.000000
201672500.000000,53768500.000000
201672500.000000,53193500.000000
201690579.000000,53102613.000000
201742062.000000,53025562.000000
201819113.000000,52974079.000000
201910000.000000,52956000.000000
Z" /> 
</g>
<g >
</g>
<g style="fill:#000000; fill-opacity:1.0; 
stroke:#000000; stroke-width:1.000000; stroke-opacity:1; 
stroke-linecap:round; stroke-linejoin:round;">
<path style="fill:#000000; fill-opacity:1.0; 
stroke:#000000; stroke-width:1.000000; stroke-opacity:1; 
stroke-linecap:round; stroke-linejoin:round;fill-rule:evenodd;"
d="M 209550001.000000,59672001.000000
210549999.000000,59672001.000000
210549999.000000,60671999.000000
209550001.000000,60671999.000000
Z" /> 
<path style="fill:#000000; fill-opacity:1.0; 
stroke:#000000; stroke-width:1.000000; stroke-opacity:1; 
stroke-linecap:round; stroke-linejoin:round;fill-rule:evenodd;"
d="M 209550001.000000,57172001.000000
210549999.000000,57172001.000000
210549999.000000,58171999.000000
209550001.000000,58171999.000000
Z" /> 
</g>
<g >
</g>
<g style="fill:#000000; fill-opacity:1.0; 
stroke:#000000; stroke-width:1.000000; stroke-opacity:1; 
stroke-linecap:round; stroke-linejoin:round;">
<path style="fill:#000000; fill-opacity:1.0; 
stroke:#000000; stroke-width:1.000000; stroke-opacity:1; 
stroke-linecap:round; stroke-linejoin:round;fill-rule:evenodd;"
d="M 207250001.000000,59672001.000000
208249999.000000,59672001.000000
208249999.000000,60671999.000000
207250001.000000,60671999.000000
Z" /> 
<path style="fill:#000000; fill-opacity:1.0; 
stroke:#000000; stroke-width:1.000000; stroke-opacity:1; 
stroke-linecap:round; stroke-linejoin:round;fill-rule:evenodd;"
d="M 207250001.000000,57172001.000000
208249999.000000,57172001.000000
208249999.000000,58171999.000000
207250001.000000,58171999.000000
Z" /> 
</g>
<g >
</g>
<g style="fill:#000000; fill-opacity:1.0; 
stroke:#000000; stroke-width:1.000000; stroke-opacity:1; 
stroke-linecap:round; stroke-linejoin:round;">
<path style="fill:#000000; fill-opacity:1.0; 
stroke:#000000; stroke-width:1.000000; stroke-opacity:1; 
stroke-linecap:round; stroke-linejoin:round;fill-rule:evenodd;"
d="M 207250001.000000,55372001.000000
208249999.000000,55372001.000000
208249999.000000,56371999.000000
207250001.000000,56371999.000000
Z" /> 
<path style="fill:#000000; fill-opacity:1.0; 
stroke:#000000; stroke-width:1.000000; stroke-opacity:1; 
stroke-linecap:round; stroke-linejoin:round;fill-rule:evenodd;"
d="M 207250001.000000,52872001.000000
208249999.000000,52872001.000000
208249999.000000,53871999.000000
207250001.000000,53871999.000000
Z" /> 
</g>
<g >
</g>
<g style="fill:#000000; fill-opacity:1.0; 
stroke:#000000; stroke-width:1.000000; stroke-opacity:1; 
stroke-linecap:round; stroke-linejoin:round;">
<path style="fill:#000000; fill-opacity:1.0; 
stroke:#000000; stroke-width:1.000000; stroke-opacity:1; 
stroke-linecap:round; stroke-linejoin:round;fill-rule:evenodd;"
d="M 198969000.000000,53304001.000000
198988030.000000,53208330.000000
199042224.000000,53127224.000000
199123330.000000,53073030.000000
199219002.000000,53054001.000000
200218999.000000,53054000.000000
200314670.000000,53073030.000000
200395776.000000,53127224.000000
200449970.000000,53208330.000000
200468999.000000,53304002.000000
200469000.000000,55153999.000000
200449970.000000,55249670.000000
200395776.000000,55330776.000000
200314670.000000,55384970.000000
200218998.000000,55403999.000000
199219001.000000,55404000.000000
199123330.000000,55384970.000000
199042224.000000,55330776.000000
198988030.000000,55249670.000000
198969001.000000,55153998.000000
Z" /> 
<path style="fill:#000000; fill-opacity:1.0; 
stroke:#000000; stroke-width:1.000000; stroke-opacity:1; 
stroke-linecap:round; stroke-linejoin:round;fill-rule:evenodd;"
d="M 195719000.000000,53304001.000000
195738030.000000,53208330.000000
195792224.000000,53127224.000000
195873330.000000,53073030.000000
195969002.000000,53054001.000000
196968999.000000,53054000.000000
197064670.000000,53073030.000000
197145776.000000,53127224.000000
197199970.000000,53208330.000000
197218999.000000,53304002.000000
197219000.000000,55153999.000000
197199970.000000,55249670.000000
197145776.000000,55330776.000000
197064670.000000,55384970.000000
196968998.000000,55403999.000000
195969001.000000,55404000.000000
195873330.000000,55384970.000000
195792224.000000,55330776.000000
195738030.000000,55249670.000000
195719001.000000,55153998.000000
Z" /> 
</g>
<g >
</g>
<g style="fill:#000000; fill-opacity:1.0; 
stroke:#000000; stroke-width:1.000000; stroke-opacity:1; 
stroke-linecap:round; stroke-linejoin:round;">
<path style="fill:#000000; fill-opacity:1.0; 
stroke:#000000; stroke-width:1.000000; stroke-opacity:1; 
stroke-linecap:round; stroke-linejoin:round;fill-rule:evenodd;"
d="M 198995000.000000,60416001.000000
199014030.000000,60320330.000000
199068224.000000,60239224.000000
199149330.000000,60185030.000000
199245002.000000,60166001.000000
200244999.000000,60166000.000000
200340670.000000,60185030.000000
200421776.000000,60239224.000000
200475970.000000,60320330.000000
200494999.000000,60416002.000000
200495000.000000,62265999.000000
200475970.000000,62361670.000000
200421776.000000,62442776.000000
200340670.000000,62496970.000000
200244998.000000,62515999.000000
199245001.000000,62516000.000000
199149330.000000,62496970.000000
199068224.000000,62442776.000000
199014030.000000,62361670.000000
198995001.000000,62265998.000000
Z" /> 
<path style="fill:#000000; fill-opacity:1.0; 
stroke:#000000; stroke-width:1.000000; stroke-opacity:1; 
stroke-linecap:round; stroke-linejoin:round;fill-rule:evenodd;"
d="M 195745000.000000,60416001.000000
195764030.000000,60320330.000000
195818224.000000,60239224.000000
195899330.000000,60185030.000000
195995002.000000,60166001.000000
196994999.000000,60166000.000000
197090670.000000,60185030.000000
197171776.000000,60239224.000000
197225970.000000,60320330.000000
197244999.000000,60416002.000000
197245000.000000,62265999.000000
197225970.000000,62361670.000000
197171776.000000,62442776.000000
197090670.000000,62496970.000000
196994998.000000,62515999.000000
195995001.000000,62516000.000000
195899330.000000,62496970.000000
195818224.000000,62442776.000000
195764030.000000,62361670.000000
195745001.000000,62265998.000000
Z" /> 
</g>
<g >
</g>
<g style="fill:#000000; fill-opacity:1.0; 
stroke:#000000; stroke-width:1.000000; stroke-opacity:1; 
stroke-linecap:round; stroke-linejoin:round;">
<path style="fill:#000000; fill-opacity:1.0; 
stroke:#000000; stroke-width:1.000000; stroke-opacity:1; 
stroke-linecap:round; stroke-linejoin:round;fill-rule:evenodd;"
d="M 198995000.000000,56860001.000000
199014030.000000,56764330.000000
199068224.000000,56683224.000000
199149330.000000,56629030.000000
199245002.000000,56610001.000000
200244999.000000,56610000.000000
200340670.000000,56629030.000000
200421776.000000,56683224.000000
200475970.000000,56764330.000000
200494999.000000,56860002.000000
200495000.000000,58709999.000000
200475970.000000,58805670.000000
200421776.000000,58886776.000000
200340670.000000,58940970.000000
200244998.000000,58959999.000000
199245001.000000,58960000.000000
199149330.000000,58940970.000000
199068224.000000,58886776.000000
199014030.000000,58805670.000000
198995001.000000,58709998.000000
Z" /> 
<path style="fill:#000000; fill-opacity:1.0; 
stroke:#000000; stroke-width:1.000000; stroke-opacity:1; 
stroke-linecap:round; stroke-linejoin:round;fill-rule:evenodd;"
d="M 195745000.000000,56860001.000000
195764030.000000,56764330.000000
195818224.000000,56683224.000000
195899330.000000,56629030.000000
195995002.000000,56610001.000000
196994999.000000,56610000.000000
197090670.000000,56629030.000000
197171776.000000,56683224.000000
197225970.000000,56764330.000000
197244999.000000,56860002.000000
197245000.000000,58709999.000000
197225970.000000,58805670.000000
197171776.000000,58886776.000000
197090670.000000,58940970.000000
196994998.000000,58959999.000000
195995001.000000,58960000.000000
195899330.000000,58940970.000000
195818224.000000,58886776.000000
195764030.000000,58805670.000000
195745001.000000,58709998.000000
Z" /> 
</g>
<g >
</g>
<g style="fill:#000000; fill-opacity:1.0; 
stroke:#000000; stroke-width:1.000000; stroke-opacity:1; 
stroke-linecap:round; stroke-linejoin:round;">
<path style="fill:#000000; fill-opacity:1.0; 
stroke:#000000; stroke-width:1.000000; stroke-opacity:1; 
stroke-linecap:round; stroke-linejoin:round;fill-rule:evenodd;"
d="M 211850001.000000,59672001.000000
212849999.000000,59672001.000000
212849999.000000,60671999.000000
211850001.000000,60671999.000000
Z" /> 
<path style="fill:#000000; fill-opacity:1.0; 
stroke:#000000; stroke-width:1.000000; stroke-opacity:1; 
stroke-linecap:round; stroke-linejoin:round;fill-rule:evenodd;"
d="M 211850001.000000,57172001.000000
212849999.000000,57172001.000000
212849999.000000,58171999.000000
211850001.000000,58171999.000000
Z" /> 
</g>
<g >
</g>
<g style="fill:#000000; fill-opacity:1.0; 
stroke:#000000; stroke-width:1.000000; stroke-opacity:1; 
stroke-linecap:round; stroke-linejoin:round;">
<path style="fill:#000000; fill-opacity:1.0; 
stroke:#000000; stroke-width:1.000000; stroke-opacity:1; 
stroke-linecap:round; stroke-linejoin:round;fill-rule:evenodd;"
d="M 217400000.000000,53047000.000000
217415629.000000,52939867.000000
217469707.000000,52829236.000000
217556704.000000,52742087.000000
217667240.000000,52687817.000000
217775000.000000,52672000.000000
218525000.000000,52672000.000000
218632133.000000,52687629.000000
218742764.000000,52741707.000000
218829913.000000,52828704.000000
218884183.000000,52939240.000000
218900000.000000,53047000.000000
218900000.000000,54797000.000000
218884371.000000,54904133.000000
218830293.000000,55014764.000000
218743296.000000,55101913.000000
218632760.000000,55156183.000000
218525000.000000,55172000.000000
217775000.000000,55172000.000000
217667867.000000,55156371.000000
217557236.000000,55102293.000000
217470087.000000,55015296.000000
217415817.000000,54904760.000000
217400000.000000,54797000.000000
Z" /> 
</g>
<g >
</g>
<g style="fill:#000000; fill-opacity:1.0; 
stroke:#000000; stroke-width:1.000000; stroke-opacity:1; 
stroke-linecap:round; stroke-linejoin:round;">
<path style="fill:#000000; fill-opacity:1.0; 
stroke:#000000; stroke-width:1.000000; stroke-opacity:1; 
stroke-linecap:round; stroke-linejoin:round;fill-rule:evenodd;"
d="M 216775000.000000,61372000.000000
216667867.000000,61356371.000000
216557236.000000,61302293.000000
216470087.000000,61215296.000000
216415817.000000,61104760.000000
216400000.000000,60997000.000000
216400000.000000,60247000.000000
216415629.000000,60139867.000000
216469707.000000,60029236.000000
216556704.000000,59942087.000000
216667240.000000,59887817.000000
216775000.000000,59872000.000000
218525000.000000,59872000.000000
218632133.000000,59887629.000000
218742764.000000,59941707.000000
218829913.000000,60028704.000000
218884183.000000,60139240.000000
218900000.000000,60247000.000000
218900000.000000,60997000.000000
218884371.000000,61104133.000000
218830293.000000,61214764.000000
218743296.000000,61301913.000000
218632760.000000,61356183.000000
218525000.000000,61372000.000000
Z" /> 
</g>
<g >
</g>
<g style="fill:#000000; fill-opacity:1.0; 
stroke:#000000; stroke-width:1.000000; stroke-opacity:1; 
stroke-linecap:round; stroke-linejoin:round;">
<path style="fill:#000000; fill-opacity:1.0; 
stroke:#000000; stroke-width:1.000000; stroke-opacity:1; 
stroke-linecap:round; stroke-linejoin:round;fill-rule:evenodd;"
d="M 216775000.000000,66772000.000000
216667867.000000,66756371.000000
216557236.000000,66702293.000000
216470087.000000,66615296.000000
216415817.000000,66504760.000000
216400000.000000,66397000.000000
216400000.000000,65647000.000000
216415629.000000,65539867.000000
216469707.000000,65429236.000000
216556704.000000,65342087.000000
216667240.000000,65287817.000000
216775000.000000,65272000.000000
218525000.000000,65272000.000000
218632133.000000,65287629.000000
218742764.000000,65341707.000000
218829913.000000,65428704.000000
218884183.000000,65539240.000000
218900000.000000,65647000.000000
218900000.000000,66397000.000000
218884371.000000,66504133.000000
218830293.000000,66614764.000000
218743296.000000,66701913.000000
218632760.000000,66756183.000000
218525000.000000,66772000.000000
Z" /> 
</g>
<g >
</g>
<g style="fill:#000000; fill-opacity:1.0; 
stroke:#000000; stroke-width:1.000000; stroke-opacity:1; 
stroke-linecap:round; stroke-linejoin:round;">
<path style="fill:#000000; fill-opacity:1.0; 
stroke:#000000; stroke-width:1.000000; stroke-opacity:1; 
stroke-linecap:round; stroke-linejoin:round;fill-rule:evenodd;"
d="M 216775000.000000,64072000.000000
216667867.000000,64056371.000000
216557236.000000,64002293.000000
216470087.000000,63915296.000000
216415817.000000,63804760.000000
216400000.000000,63697000.000000
216400000.000000,62947000.000000
216415629.000000,62839867.000000
216469707.000000,62729236.000000
216556704.000000,62642087.000000
216667240.000000,62587817.000000
216775000.000000,62572000.000000
218525000.000000,62572000.000000
218632133.000000,62587629.000000
218742764.000000,62641707.000000
218829913.000000,62728704.000000
218884183.000000,62839240.000000
218900000.000000,62947000.000000
218900000.000000,63697000.000000
218884371.000000,63804133.000000
218830293.000000,63914764.000000
218743296.000000,64001913.000000
218632760.000000,64056183.000000
218525000.000000,64072000.000000
Z" /> 
</g>
<g >
</g>
<g style="fill:#000000; fill-opacity:1.0; 
stroke:#000000; stroke-width:1.000000; stroke-opacity:1; 
stroke-linecap:round; stroke-linejoin:round;">
<path style="fill:#000000; fill-opacity:1.0; 
stroke:#000000; stroke-width:1.000000; stroke-opacity:1; 
stroke-linecap:round; stroke-linejoin:round;fill-rule:evenodd;"
d="M 216775000.000000,58672000.000000
216667867.000000,58656371.000000
216557236.000000,58602293.000000
216470087.000000,58515296.000000
216415817.000000,58404760.000000
216400000.000000,58297000.000000
216400000.000000,57547000.000000
216415629.000000,57439867.000000
216469707.000000,57329236.000000
216556704.000000,57242087.000000
216667240.000000,57187817.000000
216775000.000000,57172000.000000
218525000.000000,57172000.000000
218632133.000000,57187629.000000
218742764.000000,57241707.000000
218829913.000000,57328704.000000
218884183.000000,57439240.000000
218900000.000000,57547000.000000
218900000.000000,58297000.000000
218884371.000000,58404133.000000
218830293.000000,58514764.000000
218743296.000000,58601913.000000
218632760.000000,58656183.000000
218525000.000000,58672000.000000
Z" /> 
</g>
<g >
</g>
<g style="fill:#000000; fill-opacity:1.0; 
stroke:#000000; stroke-width:1.000000; stroke-opacity:1; 
stroke-linecap:round; stroke-linejoin:round;">
<path style="fill:#000000; fill-opacity:1.0; 
stroke:#000000; stroke-width:1.000000; stroke-opacity:1; 
stroke-linecap:round; stroke-linejoin:round;fill-rule:evenodd;"
d="M 214700000.000000,53047000.000000
214715629.000000,52939867.000000
214769707.000000,52829236.000000
214856704.000000,52742087.000000
214967240.000000,52687817.000000
215075000.000000,52672000.000000
215825000.000000,52672000.000000
215932133.000000,52687629.000000
216042764.000000,52741707.000000
216129913.000000,52828704.000000
216184183.000000,52939240.000000
216200000.000000,53047000.000000
216200000.000000,54797000.000000
216184371.000000,54904133.000000
216130293.000000,55014764.000000
216043296.000000,55101913.000000
215932760.000000,55156183.000000
215825000.000000,55172000.000000
215075000.000000,55172000.000000
214967867.000000,55156371.000000
214857236.000000,55102293.000000
214770087.000000,55015296.000000
214715817.000000,54904760.000000
214700000.000000,54797000.000000
Z" /> 
</g>
<g >
</g>
<g style="fill:#000000; fill-opacity:1.0; 
stroke:#000000; stroke-width:1.000000; stroke-opacity:1; 
stroke-linecap:round; stroke-linejoin:round;">
<path style="fill:#000000; fill-opacity:1.0; 
stroke:#000000; stroke-width:1.000000; stroke-opacity:1; 
stroke-linecap:round; stroke-linejoin:round;fill-rule:evenodd;"
d="M 212000000.000000,53047000.000000
212015629.000000,52939867.000000
212069707.000000,52829236.000000
212156704.000000,52742087.000000
212267240.000000,52687817.000000
212375000.000000,52672000.000000
213125000.000000,52672000.000000
213232133.000000,52687629.000000
213342764.000000,52741707.000000
213429913.000000,52828704.000000
213484183.000000,52939240.000000
213500000.000000,53047000.000000
213500000.000000,54797000.000000
213484371.000000,54904133.000000
213430293.000000,55014764.000000
213343296.000000,55101913.000000
213232760.000000,55156183.000000
213125000.000000,55172000.000000
212375000.000000,55172000.000000
212267867.000000,55156371.000000
212157236.000000,55102293.000000
212070087.000000,55015296.000000
212015817.000000,54904760.000000
212000000.000000,54797000.000000
Z" /> 
</g>
<g >
</g>
<g style="fill:#000000; fill-opacity:1.0; 
stroke:#000000; stroke-width:1.000000; stroke-opacity:1; 
stroke-linecap:round; stroke-linejoin:round;">
<path style="fill:#000000; fill-opacity:1.0; 
stroke:#000000; stroke-width:1.000000; stroke-opacity:1; 
stroke-linecap:round; stroke-linejoin:round;fill-rule:evenodd;"
d="M 209300000.000000,53047000.000000
209315629.000000,52939867.000000
209369707.000000,52829236.000000
209456704.000000,52742087.000000
209567240.000000,52687817.000000
209675000.000000,52672000.000000
210425000.000000,52672000.000000
210532133.000000,52687629.000000
210642764.000000,52741707.000000
210729913.000000,52828704.000000
210784183.000000,52939240.000000
210800000.000000,53047000.000000
210800000.000000,54797000.000000
210784371.000000,54904133.000000
210730293.000000,55014764.000000
210643296.000000,55101913.000000
210532760.000000,55156183.000000
210425000.000000,55172000.000000
209675000.000000,55172000.000000
209567867.000000,55156371.000000
209457236.000000,55102293.000000
209370087.000000,55015296.000000
209315817.000000,54904760.000000
209300000.000000,54797000.000000
Z" /> 
</g>
<g >
</g>
<g style="fill:#000000; fill-opacity:1.0; 
stroke:#000000; stroke-width:1.000000; stroke-opacity:1; 
stroke-linecap:round; stroke-linejoin:round;">
<path style="fill:#000000; fill-opacity:1.0; 
stroke:#000000; stroke-width:1.000000; stroke-opacity:1; 
stroke-linecap:round; stroke-linejoin:round;fill-rule:evenodd;"
d="M 212229000.000000,64657000.000000
212244629.000000,64549867.000000
212298707.000000,64439236.000000
212385704.000000,64352087.000000
212496240.000000,64297817.000000
212604000.000000,64282000.000000
213354000.000000,64282000.000000
213461133.000000,64297629.000000
213571764.000000,64351707.000000
213658913.000000,64438704.000000
213713183.000000,64549240.000000
213729000.000000,64657000.000000
213729000.000000,66407000.000000
213713371.000000,66514133.000000
213659293.000000,66624764.000000
213572296.000000,66711913.000000
213461760.000000,66766183.000000
213354000.000000,66782000.000000
212604000.000000,66782000.000000
212496867.000000,66766371.000000
212386236.000000,66712293.000000
212299087.000000,66625296.000000
212244817.000000,66514760.000000
212229000.000000,66407000.000000
Z" /> 
</g>
<g >
</g>
<g style="fill:#000000; fill-opacity:1.0; 
stroke:#000000; stroke-width:1.000000; stroke-opacity:1; 
stroke-linecap:round; stroke-linejoin:round;">
<path style="fill:#000000; fill-opacity:1.0; 
stroke:#000000; stroke-width:1.000000; stroke-opacity:1; 
stroke-linecap:round; stroke-linejoin:round;fill-rule:evenodd;"
d="M 208025000.000000,64259500.000000
208006921.000000,64350387.000000
207955438.000000,64427438.000000
207878387.000000,64478921.000000
207787500.000000,64497000.000000
207287500.000000,64497000.000000
207196613.000000,64478921.000000
207119562.000000,64427438.000000
207068079.000000,64350387.000000
207050000.000000,64259500.000000
207050000.000000,63784500.000000
207068079.000000,63693613.000000
207119562.000000,63616562.000000
207196613.000000,63565079.000000
207287500.000000,63547000.000000
207787500.000000,63547000.000000
207878387.000000,63565079.000000
207955438.000000,63616562.000000
208006921.000000,63693613.000000
208025000.000000,63784500.000000
Z" /> 
<path style="fill:#000000; fill-opacity:1.0; 
stroke:#000000; stroke-width:1.000000; stroke-opacity:1; 
stroke-linecap:round; stroke-linejoin:round;fill-rule:evenodd;"
d="M 209850000.000000,64259500.000000
209831921.000000,64350387.000000
209780438.000000,64427438.000000
209703387.000000,64478921.000000
209612500.000000,64497000.000000
209112500.000000,64497000.000000
209021613.000000,64478921.000000
208944562.000000,64427438.000000
208893079.000000,64350387.000000
208875000.000000,64259500.000000
208875000.000000,63784500.000000
208893079.000000,63693613.000000
208944562.000000,63616562.000000
209021613.000000,63565079.000000
209112500.000000,63547000.000000
209612500.000000,63547000.000000
209703387.000000,63565079.000000
209780438.000000,63616562.000000
209831921.000000,63693613.000000
209850000.000000,63784500.000000
Z" /> 
</g>
<g >
</g>
<g style="fill:#000000; fill-opacity:1.0; 
stroke:#000000; stroke-width:1.000000; stroke-opacity:1; 
stroke-linecap:round; stroke-linejoin:round;">
<path style="fill:#000000; fill-opacity:1.0; 
stroke:#000000; stroke-width:1.000000; stroke-opacity:1; 
stroke-linecap:round; stroke-linejoin:round;fill-rule:evenodd;"
d="M 208875000.000000,61884500.000000
208893079.000000,61793613.000000
208944562.000000,61716562.000000
209021613.000000,61665079.000000
209112500.000000,61647000.000000
209612500.000000,61647000.000000
209703387.000000,61665079.000000
209780438.000000,61716562.000000
209831921.000000,61793613.000000
209850000.000000,61884500.000000
209850000.000000,62359500.000000
209831921.000000,62450387.000000
209780438.000000,62527438.000000
209703387.000000,62578921.000000
209612500.000000,62597000.000000
209112500.000000,62597000.000000
209021613.000000,62578921.000000
208944562.000000,62527438.000000
208893079.000000,62450387.000000
208875000.000000,62359500.000000
Z" /> 
<path style="fill:#000000; fill-opacity:1.0; 
stroke:#000000; stroke-width:1.000000; stroke-opacity:1; 
stroke-linecap:round; stroke-linejoin:round;fill-rule:evenodd;"
d="M 207050000.000000,61884500.000000
207068079.000000,61793613.000000
207119562.000000,61716562.000000
207196613.000000,61665079.000000
207287500.000000,61647000.000000
207787500.000000,61647000.000000
207878387.000000,61665079.000000
207955438.000000,61716562.000000
208006921.000000,61793613.000000
208025000.000000,61884500.000000
208025000.000000,62359500.000000
208006921.000000,62450387.000000
207955438.000000,62527438.000000
207878387.000000,62578921.000000
207787500.000000,62597000.000000
207287500.000000,62597000.000000
207196613.000000,62578921.000000
207119562.000000,62527438.000000
207068079.000000,62450387.000000
207050000.000000,62359500.000000
Z" /> 
</g>
<g >
</g>
<g style="fill:#000000; fill-opacity:1.0; 
stroke:#000000; stroke-width:1.000000; stroke-opacity:1; 
stroke-linecap:round; stroke-linejoin:round;">
<path style="fill:#000000; fill-opacity:1.0; 
stroke:#000000; stroke-width:1.000000; stroke-opacity:1; 
stroke-linecap:round; stroke-linejoin:round;fill-rule:evenodd;"
d="M 208025000.000000,66159500.000000
208006921.000000,66250387.000000
207955438.000000,66327438.000000
207878387.000000,66378921.000000
207787500.000000,66397000.000000
207287500.000000,66397000.000000
207196613.000000,66378921.000000
207119562.000000,66327438.000000
207068079.000000,66250387.000000
207050000.000000,66159500.000000
207050000.000000,65684500.000000
207068079.000000,65593613.000000
207119562.000000,65516562.000000
207196613.000000,65465079.000000
207287500.000000,65447000.000000
207787500.000000,65447000.000000
207878387.000000,65465079.000000
207955438.000000,65516562.000000
208006921.000000,65593613.000000
208025000.000000,65684500.000000
Z" /> 
<path style="fill:#000000; fill-opacity:1.0; 
stroke:#000000; stroke-width:1.000000; stroke-opacity:1; 
stroke-linecap:round; stroke-linejoin:round;fill-rule:evenodd;"
d="M 209850000.000000,66159500.000000
209831921.000000,66250387.000000
209780438.000000,66327438.000000
209703387.000000,66378921.000000
209612500.000000,66397000.000000
209112500.000000,66397000.000000
209021613.000000,66378921.000000
208944562.000000,66327438.000000
208893079.000000,66250387.000000
208875000.000000,66159500.000000
208875000.000000,65684500.000000
208893079.000000,65593613.000000
208944562.000000,65516562.000000
209021613.000000,65465079.000000
209112500.000000,65447000.000000
209612500.000000,65447000.000000
209703387.000000,65465079.000000
209780438.000000,65516562.000000
209831921.000000,65593613.000000
209850000.000000,65684500.000000
Z" /> 
</g>
<g >
</g>
<g >
</g>
<g >
</g>
</g> 
</svg>
