<?xml version="1.0" standalone="no"?>
 <!DOCTYPE svg PUBLIC "-//W3C//DTD SVG 1.1//EN" 
 "http://www.w3.org/Graphics/SVG/1.1/DTD/svg11.dtd"> 
<svg
  xmlns:svg="http://www.w3.org/2000/svg"
  xmlns="http://www.w3.org/2000/svg"
  xmlns:xlink="http://www.w3.org/1999/xlink"
  version="1.1"
  width="29.700220cm" height="21.000720cm" viewBox="0 0 297002200 210007200">
<title>SVG Picture created as miniRGBii-B_Cu.svg date 2022/08/03 15:32:44 </title>
  <desc>Picture generated by PCBNEW </desc>
<g style="fill:#000000; fill-opacity:1.000000;stroke:#000000; stroke-opacity:1.000000;
stroke-linecap:round; stroke-linejoin:round;"
 transform="translate(0 0) scale(1 1)">
</g>
<g style="fill:#000000; fill-opacity:0.0; 
stroke:#000000; stroke-width:0.000000; stroke-opacity:1; 
stroke-linecap:round; stroke-linejoin:round;">
<g >
</g>
<g >
</g>
<g >
</g>
<g >
</g>
<g >
</g>
<g >
</g>
<g >
</g>
<g >
</g>
<g >
</g>
<g >
</g>
<g >
</g>
<g >
</g>
<g >
</g>
<g >
</g>
<g >
</g>
<g >
</g>
<g >
</g>
<g >
</g>
<g >
</g>
<g >
</g>
<g >
</g>
<g >
</g>
<g >
</g>
<g >
</g>
<g >
</g>
<g >
</g>
<g >
</g>
<g >
</g>
<g >
</g>
<g style="fill:#000000; fill-opacity:0.0; 
stroke:#000000; stroke-width:0.000000; stroke-opacity:1; 
stroke-linecap:round; stroke-linejoin:round;">
</g>
<g style="fill:#000000; fill-opacity:1.0; 
stroke:#000000; stroke-width:1.000000; stroke-opacity:1; 
stroke-linecap:round; stroke-linejoin:round;">
<circle cx="209042000.000000" cy="55753000.000000" r="400000.000000" /> 
</g>
<g style="fill:#000000; fill-opacity:1.0; 
stroke:#000000; stroke-width:21200.000000; stroke-opacity:1; 
stroke-linecap:round; stroke-linejoin:round;">
</g>
<g style="fill:#000000; fill-opacity:1.0; 
stroke:#000000; stroke-width:1.000000; stroke-opacity:1; 
stroke-linecap:round; stroke-linejoin:round;">
<circle cx="210566000.000000" cy="62103000.000000" r="400000.000000" /> 
</g>
<g style="fill:#000000; fill-opacity:1.0; 
stroke:#000000; stroke-width:21200.000000; stroke-opacity:1; 
stroke-linecap:round; stroke-linejoin:round;">
</g>
<g style="fill:#000000; fill-opacity:1.0; 
stroke:#000000; stroke-width:1.000000; stroke-opacity:1; 
stroke-linecap:round; stroke-linejoin:round;">
<circle cx="212725000.000000" cy="62103000.000000" r="400000.000000" /> 
</g>
<g style="fill:#000000; fill-opacity:1.0; 
stroke:#000000; stroke-width:21200.000000; stroke-opacity:1; 
stroke-linecap:round; stroke-linejoin:round;">
</g>
<g style="fill:#000000; fill-opacity:1.0; 
stroke:#000000; stroke-width:1.000000; stroke-opacity:1; 
stroke-linecap:round; stroke-linejoin:round;">
<circle cx="201041000.000000" cy="56134000.000000" r="400000.000000" /> 
</g>
<g style="fill:#000000; fill-opacity:1.0; 
stroke:#000000; stroke-width:21200.000000; stroke-opacity:1; 
stroke-linecap:round; stroke-linejoin:round;">
</g>
<g style="fill:#000000; fill-opacity:1.0; 
stroke:#000000; stroke-width:1.000000; stroke-opacity:1; 
stroke-linecap:round; stroke-linejoin:round;">
<circle cx="201168000.000000" cy="54356000.000000" r="400000.000000" /> 
</g>
<g style="fill:#000000; fill-opacity:1.0; 
stroke:#000000; stroke-width:21200.000000; stroke-opacity:1; 
stroke-linecap:round; stroke-linejoin:round;">
</g>
<g style="fill:#000000; fill-opacity:1.0; 
stroke:#000000; stroke-width:1.000000; stroke-opacity:1; 
stroke-linecap:round; stroke-linejoin:round;">
<circle cx="201041000.000000" cy="59690000.000000" r="400000.000000" /> 
</g>
<g style="fill:#000000; fill-opacity:1.0; 
stroke:#000000; stroke-width:21200.000000; stroke-opacity:1; 
stroke-linecap:round; stroke-linejoin:round;">
</g>
<g style="fill:#000000; fill-opacity:1.0; 
stroke:#000000; stroke-width:1.000000; stroke-opacity:1; 
stroke-linecap:round; stroke-linejoin:round;">
<circle cx="211201000.000000" cy="58722000.000000" r="400000.000000" /> 
</g>
<g style="fill:#000000; fill-opacity:1.0; 
stroke:#000000; stroke-width:21200.000000; stroke-opacity:1; 
stroke-linecap:round; stroke-linejoin:round;">
</g>
<g style="fill:#000000; fill-opacity:1.0; 
stroke:#000000; stroke-width:1.000000; stroke-opacity:1; 
stroke-linecap:round; stroke-linejoin:round;">
<circle cx="210566000.000000" cy="63989000.000000" r="400000.000000" /> 
</g>
<g style="fill:#000000; fill-opacity:1.0; 
stroke:#000000; stroke-width:21200.000000; stroke-opacity:1; 
stroke-linecap:round; stroke-linejoin:round;">
</g>
<g style="fill:#000000; fill-opacity:1.0; 
stroke:#000000; stroke-width:1.000000; stroke-opacity:1; 
stroke-linecap:round; stroke-linejoin:round;">
<circle cx="210566000.000000" cy="65786000.000000" r="400000.000000" /> 
</g>
<g style="fill:#000000; fill-opacity:1.0; 
stroke:#000000; stroke-width:21200.000000; stroke-opacity:1; 
stroke-linecap:round; stroke-linejoin:round;">
</g>
<g >
</g>
<g >
</g>
<g style="fill:#000000; fill-opacity:1.0; 
stroke:#000000; stroke-width:21200.000000; stroke-opacity:1; 
stroke-linecap:round; stroke-linejoin:round;">
<g >
</g>
<g style="fill:#000000; fill-opacity:1.0; 
stroke:#000000; stroke-width:1.000000; stroke-opacity:1; 
stroke-linecap:round; stroke-linejoin:round;">
<path style="fill:#000000; fill-opacity:1.0; 
stroke:#000000; stroke-width:1.000000; stroke-opacity:1; 
stroke-linecap:round; stroke-linejoin:round;fill-rule:evenodd;"
d="M 218334608.000000,52523914.000000
218339145.000000,52524714.000000
218350000.000000,52526628.000000
218360857.000000,52524714.000000
218371368.000000,52524714.000000
218383715.000000,52525321.000000
218396988.000000,52526628.000000
218474214.000000,52534234.000000
218498437.000000,52539052.000000
218606009.000000,52571683.000000
218628820.000000,52581132.000000
218727960.000000,52634124.000000
218748494.000000,52647845.000000
218835382.000000,52719152.000000
218852847.000000,52736617.000000
218920487.000000,52819036.000000
218924155.000000,52823506.000000
218937878.000000,52844043.000000
218990867.000000,52943178.000000
219000317.000000,52965991.000000
219016096.000000,53018007.000000
219032948.000000,53073561.000000
219037766.000000,53097786.000000
219046679.000000,53188282.000000
219047286.000000,53200632.000000
219047286.000000,53211143.000000
219045372.000000,53222000.000000
219047286.000000,53232855.000000
219048086.000000,53237392.000000
219050000.000000,53259271.000000
219050000.000000,66184729.000000
219048086.000000,66206608.000000
219045372.000000,66222000.000000
219047286.000000,66232857.000000
219047286.000000,66243368.000000
219046679.000000,66255718.000000
219037766.000000,66346214.000000
219032948.000000,66370437.000000
219000317.000000,66478009.000000
218990867.000000,66500822.000000
218937878.000000,66599957.000000
218924157.000000,66620491.000000
218852848.000000,66707382.000000
218835382.000000,66724848.000000
218748494.000000,66796155.000000
218727960.000000,66809876.000000
218628822.000000,66862867.000000
218606009.000000,66872317.000000
218498437.000000,66904948.000000
218474214.000000,66909766.000000
218413014.000000,66915794.000000
218383715.000000,66918679.000000
218371368.000000,66919286.000000
218360857.000000,66919286.000000
218350000.000000,66917372.000000
218339145.000000,66919286.000000
218334608.000000,66920086.000000
218312729.000000,66922000.000000
194839271.000000,66922000.000000
194817392.000000,66920086.000000
194812855.000000,66919286.000000
194802000.000000,66917372.000000
194791143.000000,66919286.000000
194780632.000000,66919286.000000
194768285.000000,66918679.000000
194738986.000000,66915794.000000
194677786.000000,66909766.000000
194653563.000000,66904948.000000
194545991.000000,66872317.000000
194523178.000000,66862867.000000
194424040.000000,66809876.000000
194403506.000000,66796155.000000
194316618.000000,66724848.000000
194299152.000000,66707382.000000
194227843.000000,66620491.000000
194214122.000000,66599957.000000
194161133.000000,66500822.000000
194151683.000000,66478009.000000
194119052.000000,66370437.000000
194114234.000000,66346214.000000
194105321.000000,66255718.000000
194104714.000000,66243368.000000
194104714.000000,66232857.000000
194106628.000000,66222000.000000
194103914.000000,66206608.000000
194102000.000000,66184729.000000
194102000.000000,53259271.000000
194103914.000000,53237392.000000
194104714.000000,53232855.000000
194106628.000000,53222000.000000
194104714.000000,53211143.000000
194104714.000000,53200632.000000
194105321.000000,53188282.000000
194114234.000000,53097786.000000
194119052.000000,53073561.000000
194135904.000000,53018007.000000
194151683.000000,52965991.000000
194161133.000000,52943178.000000
194214122.000000,52844043.000000
194227845.000000,52823506.000000
194231514.000000,52819036.000000
194299153.000000,52736617.000000
194316618.000000,52719152.000000
194403506.000000,52647845.000000
194424040.000000,52634124.000000
194523180.000000,52581132.000000
194545991.000000,52571683.000000
194653563.000000,52539052.000000
194677786.000000,52534234.000000
194755012.000000,52526628.000000
194768285.000000,52525321.000000
194780632.000000,52524714.000000
194791143.000000,52524714.000000
194802000.000000,52526628.000000
194817392.000000,52523914.000000
194839271.000000,52522000.000000
218312729.000000,52522000.000000
Z" /> 
</g>
</g>
</g> 
</svg>
