<?xml version="1.0" standalone="no"?>
 <!DOCTYPE svg PUBLIC "-//W3C//DTD SVG 1.1//EN" 
 "http://www.w3.org/Graphics/SVG/1.1/DTD/svg11.dtd"> 
<svg
  xmlns:svg="http://www.w3.org/2000/svg"
  xmlns="http://www.w3.org/2000/svg"
  xmlns:xlink="http://www.w3.org/1999/xlink"
  version="1.1"
  width="29.700220cm" height="21.000720cm" viewBox="0 0 297002200 210007200">
<title>SVG Picture created as miniRGBii-F_Silkscreen.svg date 2022/08/03 15:32:44 </title>
  <desc>Picture generated by PCBNEW </desc>
<g style="fill:#000000; fill-opacity:1.000000;stroke:#000000; stroke-opacity:1.000000;
stroke-linecap:round; stroke-linejoin:round;"
 transform="translate(0 0) scale(1 1)">
</g>
<g style="fill:#000000; fill-opacity:0.0; 
stroke:#000000; stroke-width:0.000000; stroke-opacity:1; 
stroke-linecap:round; stroke-linejoin:round;">
</g>
<g style="fill:#000000; fill-opacity:0.0; 
stroke:#000000; stroke-width:150000.000000; stroke-opacity:1; 
stroke-linecap:round; stroke-linejoin:round;">
<path d="M210801000 66436000
L211601000 66436000
" />
<path d="M211001000 66736000
L211401000 66736000
" />
<path d="M211201000 65636000
L211201000 65936000
" />
<path d="M210601000 66136000
L211801000 66136000
" />
<path d="M209250000 60922000
L210850000 60922000
" />
<path d="M211550000 60922000
L213150000 60922000
" />
<path d="M206950000 56622000
L208550000 56622000
" />
<path d="M206950000 60922000
L208550000 60922000
" />
</g>
<g style="fill:#000000; fill-opacity:0.0; 
stroke:#000000; stroke-width:250000.000000; stroke-opacity:1; 
stroke-linecap:round; stroke-linejoin:round;">
<text x="218150000.000000" y="56622000.000000"
textLength="1342857.000000" font-size="1333333.000000" lengthAdjust="spacingAndGlyphs"
text-anchor="middle" opacity="0">M</text>
<g class="stroked-text"><desc>M</desc>
<path d="M217816666 56574380
L217816666 55574380
L218150000 56288666
L218483333 55574380
L218483333 56574380
" />
</g><text x="215050000.000000" y="61222000.000000"
textLength="2229762.000000" font-size="1333333.000000" lengthAdjust="spacingAndGlyphs"
text-anchor="middle" opacity="0">54</text>
<g class="stroked-text"><desc>54</desc>
<path d="M214811904 60174380
L214335714 60174380
L214288095 60650571
L214335714 60602952
L214430952 60555333
L214669047 60555333
L214764285 60602952
L214811904 60650571
L214859523 60745809
L214859523 60983904
L214811904 61079142
L214764285 61126761
L214669047 61174380
L214430952 61174380
L214335714 61126761
L214288095 61079142
" />
<path d="M215716666 60507714
L215716666 61174380
" />
<path d="M215478571 60126761
L215240476 60841047
L215859523 60841047
" />
</g><text x="214850000.000000" y="58522000.000000"
textLength="3182143.000000" font-size="1333333.000000" lengthAdjust="spacingAndGlyphs"
text-anchor="middle" opacity="0">238</text>
<g class="stroked-text"><desc>238</desc>
<path d="M213611904 57569619
L213659523 57522000
L213754761 57474380
L213992857 57474380
L214088095 57522000
L214135714 57569619
L214183333 57664857
L214183333 57760095
L214135714 57902952
L213564285 58474380
L214183333 58474380
" />
<path d="M214516666 57474380
L215135714 57474380
L214802380 57855333
L214945238 57855333
L215040476 57902952
L215088095 57950571
L215135714 58045809
L215135714 58283904
L215088095 58379142
L215040476 58426761
L214945238 58474380
L214659523 58474380
L214564285 58426761
L214516666 58379142
" />
<path d="M215707142 57902952
L215611904 57855333
L215564285 57807714
L215516666 57712476
L215516666 57664857
L215564285 57569619
L215611904 57522000
L215707142 57474380
L215897619 57474380
L215992857 57522000
L216040476 57569619
L216088095 57664857
L216088095 57712476
L216040476 57807714
L215992857 57855333
L215897619 57902952
L215707142 57902952
L215611904 57950571
L215564285 57998190
L215516666 58093428
L215516666 58283904
L215564285 58379142
L215611904 58426761
L215707142 58474380
L215897619 58474380
L215992857 58426761
L216040476 58379142
L216088095 58283904
L216088095 58093428
L216040476 57998190
L215992857 57950571
L215897619 57902952
" />
</g><text x="212850000.000000" y="56622000.000000"
textLength="2229762.000000" font-size="1333333.000000" lengthAdjust="spacingAndGlyphs"
text-anchor="middle" opacity="0">Pb</text>
<g class="stroked-text"><desc>Pb</desc>
<path d="M212135714 56574380
L212135714 55574380
L212516666 55574380
L212611904 55622000
L212659523 55669619
L212707142 55764857
L212707142 55907714
L212659523 56002952
L212611904 56050571
L212516666 56098190
L212135714 56098190
" />
<path d="M213135714 56574380
L213135714 55574380
" />
<path d="M213135714 55955333
L213230952 55907714
L213421428 55907714
L213516666 55955333
L213564285 56002952
L213611904 56098190
L213611904 56383904
L213564285 56479142
L213516666 56526761
L213421428 56574380
L213230952 56574380
L213135714 56526761
" />
</g><text x="215050000.000000" y="63922000.000000"
textLength="2229762.000000" font-size="1333333.000000" lengthAdjust="spacingAndGlyphs"
text-anchor="middle" opacity="0">59</text>
<g class="stroked-text"><desc>59</desc>
<path d="M214811904 62874380
L214335714 62874380
L214288095 63350571
L214335714 63302952
L214430952 63255333
L214669047 63255333
L214764285 63302952
L214811904 63350571
L214859523 63445809
L214859523 63683904
L214811904 63779142
L214764285 63826761
L214669047 63874380
L214430952 63874380
L214335714 63826761
L214288095 63779142
" />
<path d="M215335714 63874380
L215526190 63874380
L215621428 63826761
L215669047 63779142
L215764285 63636285
L215811904 63445809
L215811904 63064857
L215764285 62969619
L215716666 62922000
L215621428 62874380
L215430952 62874380
L215335714 62922000
L215288095 62969619
L215240476 63064857
L215240476 63302952
L215288095 63398190
L215335714 63445809
L215430952 63493428
L215621428 63493428
L215716666 63445809
L215764285 63398190
L215811904 63302952
" />
</g><text x="215150000.000000" y="66522000.000000"
textLength="2229762.000000" font-size="1333333.000000" lengthAdjust="spacingAndGlyphs"
text-anchor="middle" opacity="0">57</text>
<g class="stroked-text"><desc>57</desc>
<path d="M214911904 65474380
L214435714 65474380
L214388095 65950571
L214435714 65902952
L214530952 65855333
L214769047 65855333
L214864285 65902952
L214911904 65950571
L214959523 66045809
L214959523 66283904
L214911904 66379142
L214864285 66426761
L214769047 66474380
L214530952 66474380
L214435714 66426761
L214388095 66379142
" />
<path d="M215292857 65474380
L215959523 65474380
L215530952 66474380
" />
</g><text x="210050000.000000" y="56622000.000000"
textLength="1182143.000000" font-size="1333333.000000" lengthAdjust="spacingAndGlyphs"
text-anchor="middle" opacity="0">Y</text>
<g class="stroked-text"><desc>Y</desc>
<path d="M210050000 56098190
L210050000 56574380
" />
<path d="M209716666 55574380
L210050000 56098190
L210383333 55574380
" />
</g><text x="215450000.000000" y="56622000.000000"
textLength="1944048.000000" font-size="1333333.000000" lengthAdjust="spacingAndGlyphs"
text-anchor="middle" opacity="0">Pr</text>
<g class="stroked-text"><desc>Pr</desc>
<path d="M214878571 56574380
L214878571 55574380
L215259523 55574380
L215354761 55622000
L215402380 55669619
L215450000 55764857
L215450000 55907714
L215402380 56002952
L215354761 56050571
L215259523 56098190
L214878571 56098190
" />
<path d="M215878571 56574380
L215878571 55907714
" />
<path d="M215878571 56098190
L215926190 56002952
L215973809 55955333
L216069047 55907714
L216164285 55907714
" />
</g></g>
<g style="fill:#000000; fill-opacity:0.0; 
stroke:#000000; stroke-width:120000.000000; stroke-opacity:1; 
stroke-linecap:round; stroke-linejoin:round;">
<path d="M204918767 61858000
L204576233 61858000
" />
<path d="M204918767 62878000
L204576233 62878000
" />
<path d="M204918767 58288000
L204576233 58288000
" />
<path d="M204918767 59308000
L204576233 59308000
" />
<path d="M204918767 55766000
L204576233 55766000
" />
<path d="M204918767 54746000
L204576233 54746000
" />
<path d="M204576233 60058000
L204918767 60058000
" />
<path d="M204576233 61078000
L204918767 61078000
" />
<path d="M201637500 61296733
L201637500 61639267
" />
<path d="M202657500 61296733
L202657500 61639267
" />
<path d="M204576233 56488000
L204918767 56488000
" />
<path d="M204576233 57508000
L204918767 57508000
" />
<path d="M202657500 57726733
L202657500 58069267
" />
<path d="M201637500 57726733
L201637500 58069267
" />
<path d="M204576233 52946000
L204918767 52946000
" />
<path d="M204576233 53966000
L204918767 53966000
" />
<path d="M201637500 54184733
L201637500 54527267
" />
<path d="M202657500 54184733
L202657500 54527267
" />
<path d="M210900000 57022000
L209200000 57022000
" />
<path d="M209200000 57022000
L209200000 60172000
" />
<path d="M210900000 57022000
L210900000 60172000
" />
<path d="M208600000 57022000
L206900000 57022000
" />
<path d="M206900000 57022000
L206900000 60172000
" />
<path d="M208600000 57022000
L208600000 60172000
" />
<path d="M208600000 52722000
L208600000 55872000
" />
<path d="M206900000 52722000
L206900000 55872000
" />
<path d="M208600000 52722000
L206900000 52722000
" />
<path d="M195459000 55739000
L199844000 55739000
" />
<path d="M199844000 52719000
L195459000 52719000
" />
<path d="M195459000 52719000
L195459000 55739000
" />
<path d="M195485000 59831000
L195485000 62851000
" />
<path d="M195485000 62851000
L199870000 62851000
" />
<path d="M199870000 59831000
L195485000 59831000
" />
<path d="M199870000 56275000
L195485000 56275000
" />
<path d="M195485000 56275000
L195485000 59295000
" />
<path d="M195485000 59295000
L199870000 59295000
" />
<path d="M213200000 57022000
L213200000 60172000
" />
<path d="M213200000 57022000
L211500000 57022000
" />
<path d="M211500000 57022000
L211500000 60172000
" />
<path d="M208704724 64544500
L208195276 64544500
" />
<path d="M208704724 63499500
L208195276 63499500
" />
<path d="M208195276 62644500
L208704724 62644500
" />
<path d="M208195276 61599500
L208704724 61599500
" />
<path d="M208704724 66444500
L208195276 66444500
" />
<path d="M208704724 65399500
L208195276 65399500
" />
<g >
</g>
<g >
</g>
<g >
</g>
<g >
</g>
<g >
</g>
<g >
</g>
<g >
</g>
<g >
</g>
<g >
</g>
<g >
</g>
<g >
</g>
<g >
</g>
<g >
</g>
<g >
</g>
<g >
</g>
<g >
</g>
<g >
</g>
<g >
</g>
<g >
</g>
<g >
</g>
<g >
</g>
<g >
</g>
<g >
</g>
<g >
</g>
<g >
</g>
<g >
</g>
<g >
</g>
<g >
</g>
<g >
</g>
<g >
</g>
<g >
</g>
</g> 
</svg>
