%FSLAX45Y45*%
G04 Gerber Fmt 4.5, Leading zero omitted, Abs format (unit mm)*
G04 Created by KiCad (PCBNEW (6.0.0-0)) date 2022-08-03 15:32:23*
%MOMM*%
%LPD*%
G01*
G04 APERTURE LIST*
%TA.AperFunction,Profile*%
%ADD10C,0.150000*%
%TD*%
%ADD11C,0.200000*%
G04 APERTURE END LIST*
D10*
X19480200Y-5222200D02*
X21835000Y-5222200D01*
X21935000Y-5322200D02*
X21935000Y-6622200D01*
X21835000Y-6722200D02*
X19480200Y-6722200D01*
X19380200Y-6622200D02*
X19380200Y-5322200D01*
X21935000Y-5322200D02*
G75*
G03*
X21835000Y-5222200I-100000J0D01*
G01*
X19480200Y-5222200D02*
G75*
G03*
X19380200Y-5322200I0J-100000D01*
G01*
X19380200Y-6622200D02*
G75*
G03*
X19480200Y-6722200I100000J0D01*
G01*
X21835000Y-6722200D02*
G75*
G03*
X21935000Y-6622200I0J100000D01*
G01*
D11*
X19630319Y-7040176D02*
X19630319Y-6840176D01*
X19677938Y-6840176D01*
X19706510Y-6849700D01*
X19725557Y-6868748D01*
X19735081Y-6887795D01*
X19744605Y-6925890D01*
X19744605Y-6954462D01*
X19735081Y-6992557D01*
X19725557Y-7011605D01*
X19706510Y-7030652D01*
X19677938Y-7040176D01*
X19630319Y-7040176D01*
X19830319Y-7040176D02*
X19830319Y-6906843D01*
X19830319Y-6944938D02*
X19839843Y-6925890D01*
X19849367Y-6916367D01*
X19868414Y-6906843D01*
X19887462Y-6906843D01*
X19954129Y-7040176D02*
X19954129Y-6906843D01*
X19954129Y-6840176D02*
X19944605Y-6849700D01*
X19954129Y-6859224D01*
X19963652Y-6849700D01*
X19954129Y-6840176D01*
X19954129Y-6859224D01*
X20077938Y-7040176D02*
X20058890Y-7030652D01*
X20049367Y-7011605D01*
X20049367Y-6840176D01*
X20182700Y-7040176D02*
X20163652Y-7030652D01*
X20154129Y-7011605D01*
X20154129Y-6840176D01*
X20411271Y-7040176D02*
X20411271Y-6840176D01*
X20477938Y-6983033D01*
X20544605Y-6840176D01*
X20544605Y-7040176D01*
X20725557Y-7040176D02*
X20725557Y-6935414D01*
X20716033Y-6916367D01*
X20696986Y-6906843D01*
X20658890Y-6906843D01*
X20639843Y-6916367D01*
X20725557Y-7030652D02*
X20706510Y-7040176D01*
X20658890Y-7040176D01*
X20639843Y-7030652D01*
X20630319Y-7011605D01*
X20630319Y-6992557D01*
X20639843Y-6973509D01*
X20658890Y-6963986D01*
X20706510Y-6963986D01*
X20725557Y-6954462D01*
X20820795Y-6906843D02*
X20820795Y-7106843D01*
X20820795Y-6916367D02*
X20839843Y-6906843D01*
X20877938Y-6906843D01*
X20896986Y-6916367D01*
X20906510Y-6925890D01*
X20916033Y-6944938D01*
X20916033Y-7002081D01*
X20906510Y-7021128D01*
X20896986Y-7030652D01*
X20877938Y-7040176D01*
X20839843Y-7040176D01*
X20820795Y-7030652D01*
X21001748Y-7021128D02*
X21011271Y-7030652D01*
X21001748Y-7040176D01*
X20992224Y-7030652D01*
X21001748Y-7021128D01*
X21001748Y-7040176D01*
X21001748Y-6916367D02*
X21011271Y-6925890D01*
X21001748Y-6935414D01*
X20992224Y-6925890D01*
X21001748Y-6916367D01*
X21001748Y-6935414D01*
M02*
