G04 #@! TF.GenerationSoftware,KiCad,Pcbnew,(6.0.0-0)*
G04 #@! TF.CreationDate,2022-02-26T19:29:42+02:00*
G04 #@! TF.ProjectId,miniRGBii,6d696e69-5247-4426-9969-2e6b69636164,1.0*
G04 #@! TF.SameCoordinates,Original*
G04 #@! TF.FileFunction,Legend,Bot*
G04 #@! TF.FilePolarity,Positive*
%FSLAX46Y46*%
G04 Gerber Fmt 4.6, Leading zero omitted, Abs format (unit mm)*
G04 Created by KiCad (PCBNEW (6.0.0-0)) date 2022-02-26 19:29:42*
%MOMM*%
%LPD*%
G01*
G04 APERTURE LIST*
%ADD10C,0.300000*%
%ADD11C,0.150000*%
G04 APERTURE END LIST*
D10*
X212010000Y-56558571D02*
X212010000Y-55558571D01*
X212010000Y-55701428D02*
X211938571Y-55630000D01*
X211795714Y-55558571D01*
X211581428Y-55558571D01*
X211438571Y-55630000D01*
X211367142Y-55772857D01*
X211367142Y-56558571D01*
X211367142Y-55772857D02*
X211295714Y-55630000D01*
X211152857Y-55558571D01*
X210938571Y-55558571D01*
X210795714Y-55630000D01*
X210724285Y-55772857D01*
X210724285Y-56558571D01*
X210010000Y-56558571D02*
X210010000Y-55558571D01*
X210010000Y-55058571D02*
X210081428Y-55130000D01*
X210010000Y-55201428D01*
X209938571Y-55130000D01*
X210010000Y-55058571D01*
X210010000Y-55201428D01*
X209295714Y-55558571D02*
X209295714Y-56558571D01*
X209295714Y-55701428D02*
X209224285Y-55630000D01*
X209081428Y-55558571D01*
X208867142Y-55558571D01*
X208724285Y-55630000D01*
X208652857Y-55772857D01*
X208652857Y-56558571D01*
X207938571Y-56558571D02*
X207938571Y-55558571D01*
X207938571Y-55058571D02*
X208010000Y-55130000D01*
X207938571Y-55201428D01*
X207867142Y-55130000D01*
X207938571Y-55058571D01*
X207938571Y-55201428D01*
X206367142Y-56558571D02*
X206867142Y-55844285D01*
X207224285Y-56558571D02*
X207224285Y-55058571D01*
X206652857Y-55058571D01*
X206510000Y-55130000D01*
X206438571Y-55201428D01*
X206367142Y-55344285D01*
X206367142Y-55558571D01*
X206438571Y-55701428D01*
X206510000Y-55772857D01*
X206652857Y-55844285D01*
X207224285Y-55844285D01*
X204938571Y-55130000D02*
X205081428Y-55058571D01*
X205295714Y-55058571D01*
X205510000Y-55130000D01*
X205652857Y-55272857D01*
X205724285Y-55415714D01*
X205795714Y-55701428D01*
X205795714Y-55915714D01*
X205724285Y-56201428D01*
X205652857Y-56344285D01*
X205510000Y-56487142D01*
X205295714Y-56558571D01*
X205152857Y-56558571D01*
X204938571Y-56487142D01*
X204867142Y-56415714D01*
X204867142Y-55915714D01*
X205152857Y-55915714D01*
X203724285Y-55772857D02*
X203510000Y-55844285D01*
X203438571Y-55915714D01*
X203367142Y-56058571D01*
X203367142Y-56272857D01*
X203438571Y-56415714D01*
X203510000Y-56487142D01*
X203652857Y-56558571D01*
X204224285Y-56558571D01*
X204224285Y-55058571D01*
X203724285Y-55058571D01*
X203581428Y-55130000D01*
X203510000Y-55201428D01*
X203438571Y-55344285D01*
X203438571Y-55487142D01*
X203510000Y-55630000D01*
X203581428Y-55701428D01*
X203724285Y-55772857D01*
X204224285Y-55772857D01*
X202724285Y-56558571D02*
X202724285Y-55558571D01*
X202724285Y-55058571D02*
X202795714Y-55130000D01*
X202724285Y-55201428D01*
X202652857Y-55130000D01*
X202724285Y-55058571D01*
X202724285Y-55201428D01*
X202010000Y-56558571D02*
X202010000Y-55558571D01*
X202010000Y-55058571D02*
X202081428Y-55130000D01*
X202010000Y-55201428D01*
X201938571Y-55130000D01*
X202010000Y-55058571D01*
X202010000Y-55201428D01*
X211847857Y-59871071D02*
X211847857Y-58371071D01*
X211847857Y-58942500D02*
X211705000Y-58871071D01*
X211419285Y-58871071D01*
X211276428Y-58942500D01*
X211205000Y-59013928D01*
X211133571Y-59156785D01*
X211133571Y-59585357D01*
X211205000Y-59728214D01*
X211276428Y-59799642D01*
X211419285Y-59871071D01*
X211705000Y-59871071D01*
X211847857Y-59799642D01*
X210633571Y-58871071D02*
X210276428Y-59871071D01*
X209919285Y-58871071D02*
X210276428Y-59871071D01*
X210419285Y-60228214D01*
X210490714Y-60299642D01*
X210633571Y-60371071D01*
X207776428Y-58371071D02*
X207776428Y-59442500D01*
X207847857Y-59656785D01*
X207990714Y-59799642D01*
X208205000Y-59871071D01*
X208347857Y-59871071D01*
X206847857Y-59871071D02*
X206990714Y-59799642D01*
X207062142Y-59728214D01*
X207133571Y-59585357D01*
X207133571Y-59156785D01*
X207062142Y-59013928D01*
X206990714Y-58942500D01*
X206847857Y-58871071D01*
X206633571Y-58871071D01*
X206490714Y-58942500D01*
X206419285Y-59013928D01*
X206347857Y-59156785D01*
X206347857Y-59585357D01*
X206419285Y-59728214D01*
X206490714Y-59799642D01*
X206633571Y-59871071D01*
X206847857Y-59871071D01*
X205705000Y-59871071D02*
X205705000Y-58371071D01*
X205705000Y-58942500D02*
X205562142Y-58871071D01*
X205276428Y-58871071D01*
X205133571Y-58942500D01*
X205062142Y-59013928D01*
X204990714Y-59156785D01*
X204990714Y-59585357D01*
X205062142Y-59728214D01*
X205133571Y-59799642D01*
X205276428Y-59871071D01*
X205562142Y-59871071D01*
X205705000Y-59799642D01*
X204419285Y-58871071D02*
X203347857Y-58871071D01*
X203990714Y-58228214D02*
X204419285Y-60156785D01*
X203490714Y-59513928D02*
X204562142Y-59513928D01*
X203919285Y-60156785D02*
X203490714Y-58228214D01*
X202990714Y-58371071D02*
X202062142Y-58371071D01*
X202562142Y-58942500D01*
X202347857Y-58942500D01*
X202205000Y-59013928D01*
X202133571Y-59085357D01*
X202062142Y-59228214D01*
X202062142Y-59585357D01*
X202133571Y-59728214D01*
X202205000Y-59799642D01*
X202347857Y-59871071D01*
X202776428Y-59871071D01*
X202919285Y-59799642D01*
X202990714Y-59728214D01*
X200705000Y-58371071D02*
X201419285Y-58371071D01*
X201490714Y-59085357D01*
X201419285Y-59013928D01*
X201276428Y-58942500D01*
X200919285Y-58942500D01*
X200776428Y-59013928D01*
X200705000Y-59085357D01*
X200633571Y-59228214D01*
X200633571Y-59585357D01*
X200705000Y-59728214D01*
X200776428Y-59799642D01*
X200919285Y-59871071D01*
X201276428Y-59871071D01*
X201419285Y-59799642D01*
X201490714Y-59728214D01*
X199276428Y-58371071D02*
X199990714Y-58371071D01*
X200062142Y-59085357D01*
X199990714Y-59013928D01*
X199847857Y-58942500D01*
X199490714Y-58942500D01*
X199347857Y-59013928D01*
X199276428Y-59085357D01*
X199205000Y-59228214D01*
X199205000Y-59585357D01*
X199276428Y-59728214D01*
X199347857Y-59799642D01*
X199490714Y-59871071D01*
X199847857Y-59871071D01*
X199990714Y-59799642D01*
X200062142Y-59728214D01*
X197919285Y-58371071D02*
X198205000Y-58371071D01*
X198347857Y-58442500D01*
X198419285Y-58513928D01*
X198562142Y-58728214D01*
X198633571Y-59013928D01*
X198633571Y-59585357D01*
X198562142Y-59728214D01*
X198490714Y-59799642D01*
X198347857Y-59871071D01*
X198062142Y-59871071D01*
X197919285Y-59799642D01*
X197847857Y-59728214D01*
X197776428Y-59585357D01*
X197776428Y-59228214D01*
X197847857Y-59085357D01*
X197919285Y-59013928D01*
X198062142Y-58942500D01*
X198347857Y-58942500D01*
X198490714Y-59013928D01*
X198562142Y-59085357D01*
X198633571Y-59228214D01*
X194776428Y-59871071D02*
X194847857Y-59871071D01*
X194990714Y-59799642D01*
X195205000Y-59585357D01*
X195562142Y-59156785D01*
X195705000Y-58942500D01*
X195776428Y-58728214D01*
X195776428Y-58585357D01*
X195705000Y-58442500D01*
X195562142Y-58371071D01*
X195490714Y-58371071D01*
X195347857Y-58442500D01*
X195276428Y-58585357D01*
X195276428Y-58656785D01*
X195347857Y-58799642D01*
X195419285Y-58871071D01*
X195847857Y-59156785D01*
X195919285Y-59228214D01*
X195990714Y-59371071D01*
X195990714Y-59585357D01*
X195919285Y-59728214D01*
X195847857Y-59799642D01*
X195705000Y-59871071D01*
X195490714Y-59871071D01*
X195347857Y-59799642D01*
X195276428Y-59728214D01*
X195062142Y-59442500D01*
X194990714Y-59228214D01*
X194990714Y-59085357D01*
X211847857Y-62286071D02*
X211847857Y-60786071D01*
X211490714Y-60786071D01*
X211276428Y-60857500D01*
X211133571Y-61000357D01*
X211062142Y-61143214D01*
X210990714Y-61428928D01*
X210990714Y-61643214D01*
X211062142Y-61928928D01*
X211133571Y-62071785D01*
X211276428Y-62214642D01*
X211490714Y-62286071D01*
X211847857Y-62286071D01*
X209776428Y-62214642D02*
X209919285Y-62286071D01*
X210205000Y-62286071D01*
X210347857Y-62214642D01*
X210419285Y-62071785D01*
X210419285Y-61500357D01*
X210347857Y-61357500D01*
X210205000Y-61286071D01*
X209919285Y-61286071D01*
X209776428Y-61357500D01*
X209705000Y-61500357D01*
X209705000Y-61643214D01*
X210419285Y-61786071D01*
X209205000Y-61286071D02*
X208847857Y-62286071D01*
X208490714Y-61286071D01*
X207919285Y-61286071D02*
X207919285Y-62286071D01*
X207919285Y-61428928D02*
X207847857Y-61357500D01*
X207705000Y-61286071D01*
X207490714Y-61286071D01*
X207347857Y-61357500D01*
X207276428Y-61500357D01*
X207276428Y-62286071D01*
X206347857Y-62286071D02*
X206490714Y-62214642D01*
X206562142Y-62143214D01*
X206633571Y-62000357D01*
X206633571Y-61571785D01*
X206562142Y-61428928D01*
X206490714Y-61357500D01*
X206347857Y-61286071D01*
X206133571Y-61286071D01*
X205990714Y-61357500D01*
X205919285Y-61428928D01*
X205847857Y-61571785D01*
X205847857Y-62000357D01*
X205919285Y-62143214D01*
X205990714Y-62214642D01*
X206133571Y-62286071D01*
X206347857Y-62286071D01*
X204990714Y-62286071D02*
X205133571Y-62214642D01*
X205205000Y-62071785D01*
X205205000Y-60786071D01*
X204490714Y-61286071D02*
X203419285Y-61286071D01*
X204062142Y-60643214D02*
X204490714Y-62571785D01*
X203562142Y-61928928D02*
X204633571Y-61928928D01*
X203990714Y-62571785D02*
X203562142Y-60643214D01*
X202847857Y-62286071D02*
X202562142Y-62286071D01*
X202419285Y-62214642D01*
X202347857Y-62143214D01*
X202205000Y-61928928D01*
X202133571Y-61643214D01*
X202133571Y-61071785D01*
X202205000Y-60928928D01*
X202276428Y-60857500D01*
X202419285Y-60786071D01*
X202705000Y-60786071D01*
X202847857Y-60857500D01*
X202919285Y-60928928D01*
X202990714Y-61071785D01*
X202990714Y-61428928D01*
X202919285Y-61571785D01*
X202847857Y-61643214D01*
X202705000Y-61714642D01*
X202419285Y-61714642D01*
X202276428Y-61643214D01*
X202205000Y-61571785D01*
X202133571Y-61428928D01*
X201633571Y-60786071D02*
X200705000Y-60786071D01*
X201205000Y-61357500D01*
X200990714Y-61357500D01*
X200847857Y-61428928D01*
X200776428Y-61500357D01*
X200705000Y-61643214D01*
X200705000Y-62000357D01*
X200776428Y-62143214D01*
X200847857Y-62214642D01*
X200990714Y-62286071D01*
X201419285Y-62286071D01*
X201562142Y-62214642D01*
X201633571Y-62143214D01*
X199419285Y-60786071D02*
X199705000Y-60786071D01*
X199847857Y-60857500D01*
X199919285Y-60928928D01*
X200062142Y-61143214D01*
X200133571Y-61428928D01*
X200133571Y-62000357D01*
X200062142Y-62143214D01*
X199990714Y-62214642D01*
X199847857Y-62286071D01*
X199562142Y-62286071D01*
X199419285Y-62214642D01*
X199347857Y-62143214D01*
X199276428Y-62000357D01*
X199276428Y-61643214D01*
X199347857Y-61500357D01*
X199419285Y-61428928D01*
X199562142Y-61357500D01*
X199847857Y-61357500D01*
X199990714Y-61428928D01*
X200062142Y-61500357D01*
X200133571Y-61643214D01*
X197990714Y-60786071D02*
X198276428Y-60786071D01*
X198419285Y-60857500D01*
X198490714Y-60928928D01*
X198633571Y-61143214D01*
X198705000Y-61428928D01*
X198705000Y-62000357D01*
X198633571Y-62143214D01*
X198562142Y-62214642D01*
X198419285Y-62286071D01*
X198133571Y-62286071D01*
X197990714Y-62214642D01*
X197919285Y-62143214D01*
X197847857Y-62000357D01*
X197847857Y-61643214D01*
X197919285Y-61500357D01*
X197990714Y-61428928D01*
X198133571Y-61357500D01*
X198419285Y-61357500D01*
X198562142Y-61428928D01*
X198633571Y-61500357D01*
X198705000Y-61643214D01*
D11*
X211635833Y-67052380D02*
X211635833Y-66052380D01*
X211635833Y-67004761D02*
X211731071Y-67052380D01*
X211921547Y-67052380D01*
X212016785Y-67004761D01*
X212064404Y-66957142D01*
X212112023Y-66861904D01*
X212112023Y-66576190D01*
X212064404Y-66480952D01*
X212016785Y-66433333D01*
X211921547Y-66385714D01*
X211731071Y-66385714D01*
X211635833Y-66433333D01*
X211159642Y-67052380D02*
X211159642Y-66385714D01*
X211159642Y-66052380D02*
X211207261Y-66100000D01*
X211159642Y-66147619D01*
X211112023Y-66100000D01*
X211159642Y-66052380D01*
X211159642Y-66147619D01*
X210731071Y-67004761D02*
X210635833Y-67052380D01*
X210445357Y-67052380D01*
X210350119Y-67004761D01*
X210302500Y-66909523D01*
X210302500Y-66861904D01*
X210350119Y-66766666D01*
X210445357Y-66719047D01*
X210588214Y-66719047D01*
X210683452Y-66671428D01*
X210731071Y-66576190D01*
X210731071Y-66528571D01*
X210683452Y-66433333D01*
X210588214Y-66385714D01*
X210445357Y-66385714D01*
X210350119Y-66433333D01*
X209445357Y-67004761D02*
X209540595Y-67052380D01*
X209731071Y-67052380D01*
X209826309Y-67004761D01*
X209873928Y-66957142D01*
X209921547Y-66861904D01*
X209921547Y-66576190D01*
X209873928Y-66480952D01*
X209826309Y-66433333D01*
X209731071Y-66385714D01*
X209540595Y-66385714D01*
X209445357Y-66433333D01*
X208873928Y-67052380D02*
X208969166Y-67004761D01*
X209016785Y-66957142D01*
X209064404Y-66861904D01*
X209064404Y-66576190D01*
X209016785Y-66480952D01*
X208969166Y-66433333D01*
X208873928Y-66385714D01*
X208731071Y-66385714D01*
X208635833Y-66433333D01*
X208588214Y-66480952D01*
X208540595Y-66576190D01*
X208540595Y-66861904D01*
X208588214Y-66957142D01*
X208635833Y-67004761D01*
X208731071Y-67052380D01*
X208873928Y-67052380D01*
X208112023Y-67052380D02*
X208112023Y-66385714D01*
X208112023Y-66576190D02*
X208064404Y-66480952D01*
X208016785Y-66433333D01*
X207921547Y-66385714D01*
X207826309Y-66385714D01*
X207064404Y-67052380D02*
X207064404Y-66052380D01*
X207064404Y-67004761D02*
X207159642Y-67052380D01*
X207350119Y-67052380D01*
X207445357Y-67004761D01*
X207492976Y-66957142D01*
X207540595Y-66861904D01*
X207540595Y-66576190D01*
X207492976Y-66480952D01*
X207445357Y-66433333D01*
X207350119Y-66385714D01*
X207159642Y-66385714D01*
X207064404Y-66433333D01*
X206588214Y-66957142D02*
X206540595Y-67004761D01*
X206588214Y-67052380D01*
X206635833Y-67004761D01*
X206588214Y-66957142D01*
X206588214Y-67052380D01*
X205683452Y-66385714D02*
X205683452Y-67195238D01*
X205731071Y-67290476D01*
X205778690Y-67338095D01*
X205873928Y-67385714D01*
X206016785Y-67385714D01*
X206112023Y-67338095D01*
X205683452Y-67004761D02*
X205778690Y-67052380D01*
X205969166Y-67052380D01*
X206064404Y-67004761D01*
X206112023Y-66957142D01*
X206159642Y-66861904D01*
X206159642Y-66576190D01*
X206112023Y-66480952D01*
X206064404Y-66433333D01*
X205969166Y-66385714D01*
X205778690Y-66385714D01*
X205683452Y-66433333D01*
X204778690Y-66385714D02*
X204778690Y-67195238D01*
X204826309Y-67290476D01*
X204873928Y-67338095D01*
X204969166Y-67385714D01*
X205112023Y-67385714D01*
X205207261Y-67338095D01*
X204778690Y-67004761D02*
X204873928Y-67052380D01*
X205064404Y-67052380D01*
X205159642Y-67004761D01*
X205207261Y-66957142D01*
X205254880Y-66861904D01*
X205254880Y-66576190D01*
X205207261Y-66480952D01*
X205159642Y-66433333D01*
X205064404Y-66385714D01*
X204873928Y-66385714D01*
X204778690Y-66433333D01*
X203588214Y-66004761D02*
X204445357Y-67290476D01*
X203350119Y-66052380D02*
X202683452Y-66052380D01*
X203112023Y-67052380D01*
X202302500Y-66385714D02*
X202302500Y-67242857D01*
X202350119Y-67338095D01*
X202445357Y-67385714D01*
X202492976Y-67385714D01*
X202302500Y-66052380D02*
X202350119Y-66100000D01*
X202302500Y-66147619D01*
X202254880Y-66100000D01*
X202302500Y-66052380D01*
X202302500Y-66147619D01*
X201826309Y-67052380D02*
X201826309Y-66052380D01*
X201254880Y-67052380D01*
X201254880Y-66052380D01*
X200778690Y-67052380D02*
X200778690Y-66052380D01*
X200778690Y-66528571D02*
X200207261Y-66528571D01*
X200207261Y-67052380D02*
X200207261Y-66052380D01*
X199731071Y-66385714D02*
X199731071Y-67385714D01*
X199731071Y-66433333D02*
X199635833Y-66385714D01*
X199445357Y-66385714D01*
X199350119Y-66433333D01*
X199302500Y-66480952D01*
X199254880Y-66576190D01*
X199254880Y-66861904D01*
X199302500Y-66957142D01*
X199350119Y-67004761D01*
X199445357Y-67052380D01*
X199635833Y-67052380D01*
X199731071Y-67004761D01*
X198826309Y-67052380D02*
X198826309Y-66052380D01*
X198397738Y-67052380D02*
X198397738Y-66528571D01*
X198445357Y-66433333D01*
X198540595Y-66385714D01*
X198683452Y-66385714D01*
X198778690Y-66433333D01*
X198826309Y-66480952D01*
X198064404Y-66385714D02*
X197683452Y-66385714D01*
X197921547Y-67052380D02*
X197921547Y-66195238D01*
X197873928Y-66100000D01*
X197778690Y-66052380D01*
X197683452Y-66052380D01*
X197350119Y-67052380D02*
X197350119Y-66052380D01*
X197112023Y-66052380D01*
X196969166Y-66100000D01*
X196873928Y-66195238D01*
X196826309Y-66290476D01*
X196778690Y-66480952D01*
X196778690Y-66623809D01*
X196826309Y-66814285D01*
X196873928Y-66909523D01*
X196969166Y-67004761D01*
X197112023Y-67052380D01*
X197350119Y-67052380D01*
X195683452Y-67147619D02*
X195778690Y-67100000D01*
X195873928Y-67004761D01*
X196016785Y-66861904D01*
X196112023Y-66814285D01*
X196207261Y-66814285D01*
X196159642Y-67052380D02*
X196254880Y-67004761D01*
X196350119Y-66909523D01*
X196397738Y-66719047D01*
X196397738Y-66385714D01*
X196350119Y-66195238D01*
X196254880Y-66100000D01*
X196159642Y-66052380D01*
X195969166Y-66052380D01*
X195873928Y-66100000D01*
X195778690Y-66195238D01*
X195731071Y-66385714D01*
X195731071Y-66719047D01*
X195778690Y-66909523D01*
X195873928Y-67004761D01*
X195969166Y-67052380D01*
X196159642Y-67052380D01*
X195302500Y-67052380D02*
X195302500Y-66052380D01*
X195207261Y-66671428D02*
X194921547Y-67052380D01*
X194921547Y-66385714D02*
X195302500Y-66766666D01*
X188761428Y-67762380D02*
X189094761Y-67286190D01*
X189332857Y-67762380D02*
X189332857Y-66762380D01*
X188951904Y-66762380D01*
X188856666Y-66810000D01*
X188809047Y-66857619D01*
X188761428Y-66952857D01*
X188761428Y-67095714D01*
X188809047Y-67190952D01*
X188856666Y-67238571D01*
X188951904Y-67286190D01*
X189332857Y-67286190D01*
X187951904Y-67714761D02*
X188047142Y-67762380D01*
X188237619Y-67762380D01*
X188332857Y-67714761D01*
X188380476Y-67619523D01*
X188380476Y-67238571D01*
X188332857Y-67143333D01*
X188237619Y-67095714D01*
X188047142Y-67095714D01*
X187951904Y-67143333D01*
X187904285Y-67238571D01*
X187904285Y-67333809D01*
X188380476Y-67429047D01*
X187570952Y-67095714D02*
X187332857Y-67762380D01*
X187094761Y-67095714D01*
X185428095Y-67762380D02*
X185999523Y-67762380D01*
X185713809Y-67762380D02*
X185713809Y-66762380D01*
X185809047Y-66905238D01*
X185904285Y-67000476D01*
X185999523Y-67048095D01*
X184999523Y-67667142D02*
X184951904Y-67714761D01*
X184999523Y-67762380D01*
X185047142Y-67714761D01*
X184999523Y-67667142D01*
X184999523Y-67762380D01*
X184332857Y-66762380D02*
X184237619Y-66762380D01*
X184142380Y-66810000D01*
X184094761Y-66857619D01*
X184047142Y-66952857D01*
X183999523Y-67143333D01*
X183999523Y-67381428D01*
X184047142Y-67571904D01*
X184094761Y-67667142D01*
X184142380Y-67714761D01*
X184237619Y-67762380D01*
X184332857Y-67762380D01*
X184428095Y-67714761D01*
X184475714Y-67667142D01*
X184523333Y-67571904D01*
X184570952Y-67381428D01*
X184570952Y-67143333D01*
X184523333Y-66952857D01*
X184475714Y-66857619D01*
X184428095Y-66810000D01*
X184332857Y-66762380D01*
M02*
