%TF.GenerationSoftware,KiCad,Pcbnew,(6.0.0-0)*%
%TF.CreationDate,2022-08-03T15:32:13+03:00*%
%TF.ProjectId,miniRGBii,6d696e69-5247-4426-9969-2e6b69636164,1.1*%
%TF.SameCoordinates,Original*%
%TF.FileFunction,Copper,L2,Bot*%
%TF.FilePolarity,Positive*%
%FSLAX46Y46*%
G04 Gerber Fmt 4.6, Leading zero omitted, Abs format (unit mm)*
G04 Created by KiCad (PCBNEW (6.0.0-0)) date 2022-08-03 15:32:13*
%MOMM*%
%LPD*%
G01*
G04 APERTURE LIST*
%TA.AperFunction,ViaPad*%
%ADD10C,0.800000*%
%TD*%
G04 APERTURE END LIST*
D10*
X209042000Y-55753000D03*
X210566000Y-62103000D03*
X212725000Y-62103000D03*
X201041000Y-56134000D03*
X201168000Y-54356000D03*
X201041000Y-59690000D03*
X211201000Y-58722000D03*
X210566000Y-63989000D03*
X210566000Y-65786000D03*
%TA.AperFunction,Conductor*%
G36*
X218334608Y-52523914D02*
G01*
X218339145Y-52524714D01*
X218350000Y-52526628D01*
X218360857Y-52524714D01*
X218371368Y-52524714D01*
X218383715Y-52525321D01*
X218396988Y-52526628D01*
X218474214Y-52534234D01*
X218498437Y-52539052D01*
X218606009Y-52571683D01*
X218628820Y-52581132D01*
X218727960Y-52634124D01*
X218748494Y-52647845D01*
X218835382Y-52719152D01*
X218852847Y-52736617D01*
X218920487Y-52819036D01*
X218924155Y-52823506D01*
X218937878Y-52844043D01*
X218990867Y-52943178D01*
X219000317Y-52965991D01*
X219016096Y-53018007D01*
X219032948Y-53073561D01*
X219037766Y-53097786D01*
X219046679Y-53188282D01*
X219047286Y-53200632D01*
X219047286Y-53211143D01*
X219045372Y-53222000D01*
X219047286Y-53232855D01*
X219048086Y-53237392D01*
X219050000Y-53259271D01*
X219050000Y-66184729D01*
X219048086Y-66206608D01*
X219045372Y-66222000D01*
X219047286Y-66232857D01*
X219047286Y-66243368D01*
X219046679Y-66255718D01*
X219037766Y-66346214D01*
X219032948Y-66370437D01*
X219000317Y-66478009D01*
X218990867Y-66500822D01*
X218937878Y-66599957D01*
X218924157Y-66620491D01*
X218852848Y-66707382D01*
X218835382Y-66724848D01*
X218748494Y-66796155D01*
X218727960Y-66809876D01*
X218628822Y-66862867D01*
X218606009Y-66872317D01*
X218498437Y-66904948D01*
X218474214Y-66909766D01*
X218413014Y-66915794D01*
X218383715Y-66918679D01*
X218371368Y-66919286D01*
X218360857Y-66919286D01*
X218350000Y-66917372D01*
X218339145Y-66919286D01*
X218334608Y-66920086D01*
X218312729Y-66922000D01*
X194839271Y-66922000D01*
X194817392Y-66920086D01*
X194812855Y-66919286D01*
X194802000Y-66917372D01*
X194791143Y-66919286D01*
X194780632Y-66919286D01*
X194768285Y-66918679D01*
X194738986Y-66915794D01*
X194677786Y-66909766D01*
X194653563Y-66904948D01*
X194545991Y-66872317D01*
X194523178Y-66862867D01*
X194424040Y-66809876D01*
X194403506Y-66796155D01*
X194316618Y-66724848D01*
X194299152Y-66707382D01*
X194227843Y-66620491D01*
X194214122Y-66599957D01*
X194161133Y-66500822D01*
X194151683Y-66478009D01*
X194119052Y-66370437D01*
X194114234Y-66346214D01*
X194105321Y-66255718D01*
X194104714Y-66243368D01*
X194104714Y-66232857D01*
X194106628Y-66222000D01*
X194103914Y-66206608D01*
X194102000Y-66184729D01*
X194102000Y-53259271D01*
X194103914Y-53237392D01*
X194104714Y-53232855D01*
X194106628Y-53222000D01*
X194104714Y-53211143D01*
X194104714Y-53200632D01*
X194105321Y-53188282D01*
X194114234Y-53097786D01*
X194119052Y-53073561D01*
X194135904Y-53018007D01*
X194151683Y-52965991D01*
X194161133Y-52943178D01*
X194214122Y-52844043D01*
X194227845Y-52823506D01*
X194231514Y-52819036D01*
X194299153Y-52736617D01*
X194316618Y-52719152D01*
X194403506Y-52647845D01*
X194424040Y-52634124D01*
X194523180Y-52581132D01*
X194545991Y-52571683D01*
X194653563Y-52539052D01*
X194677786Y-52534234D01*
X194755012Y-52526628D01*
X194768285Y-52525321D01*
X194780632Y-52524714D01*
X194791143Y-52524714D01*
X194802000Y-52526628D01*
X194817392Y-52523914D01*
X194839271Y-52522000D01*
X218312729Y-52522000D01*
X218334608Y-52523914D01*
G37*
%TD.AperFunction*%
M02*
