G04 #@! TF.GenerationSoftware,KiCad,Pcbnew,(6.0.0-0)*
G04 #@! TF.CreationDate,2022-02-26T19:29:42+02:00*
G04 #@! TF.ProjectId,miniRGBii,6d696e69-5247-4426-9969-2e6b69636164,1.0*
G04 #@! TF.SameCoordinates,Original*
G04 #@! TF.FileFunction,Legend,Top*
G04 #@! TF.FilePolarity,Positive*
%FSLAX46Y46*%
G04 Gerber Fmt 4.6, Leading zero omitted, Abs format (unit mm)*
G04 Created by KiCad (PCBNEW (6.0.0-0)) date 2022-02-26 19:29:42*
%MOMM*%
%LPD*%
G01*
G04 APERTURE LIST*
%ADD10C,0.150000*%
%ADD11C,0.250000*%
%ADD12C,0.120000*%
G04 APERTURE END LIST*
D10*
X206000000Y-65400000D02*
X206800000Y-65400000D01*
X206200000Y-65700000D02*
X206600000Y-65700000D01*
X206400000Y-64600000D02*
X206400000Y-64900000D01*
X205800000Y-65100000D02*
X207000000Y-65100000D01*
X197900000Y-64900000D02*
X199100000Y-64900000D01*
X198500000Y-64300000D02*
X198500000Y-65500000D01*
X202900000Y-62700000D02*
X204500000Y-62700000D01*
X187500000Y-64300000D02*
X187500000Y-65500000D01*
X205200000Y-62700000D02*
X206800000Y-62700000D01*
X200600000Y-58400000D02*
X202200000Y-58400000D01*
X200600000Y-62700000D02*
X202200000Y-62700000D01*
X186900000Y-64900000D02*
X188100000Y-64900000D01*
X192400000Y-64900000D02*
X193600000Y-64900000D01*
X193000000Y-64300000D02*
X193000000Y-65500000D01*
D11*
X211466666Y-58352380D02*
X211466666Y-57352380D01*
X211800000Y-58066666D01*
X212133333Y-57352380D01*
X212133333Y-58352380D01*
X208461904Y-61952380D02*
X207985714Y-61952380D01*
X207938095Y-62428571D01*
X207985714Y-62380952D01*
X208080952Y-62333333D01*
X208319047Y-62333333D01*
X208414285Y-62380952D01*
X208461904Y-62428571D01*
X208509523Y-62523809D01*
X208509523Y-62761904D01*
X208461904Y-62857142D01*
X208414285Y-62904761D01*
X208319047Y-62952380D01*
X208080952Y-62952380D01*
X207985714Y-62904761D01*
X207938095Y-62857142D01*
X209366666Y-62285714D02*
X209366666Y-62952380D01*
X209128571Y-61904761D02*
X208890476Y-62619047D01*
X209509523Y-62619047D01*
X207261904Y-59347619D02*
X207309523Y-59300000D01*
X207404761Y-59252380D01*
X207642857Y-59252380D01*
X207738095Y-59300000D01*
X207785714Y-59347619D01*
X207833333Y-59442857D01*
X207833333Y-59538095D01*
X207785714Y-59680952D01*
X207214285Y-60252380D01*
X207833333Y-60252380D01*
X208166666Y-59252380D02*
X208785714Y-59252380D01*
X208452380Y-59633333D01*
X208595238Y-59633333D01*
X208690476Y-59680952D01*
X208738095Y-59728571D01*
X208785714Y-59823809D01*
X208785714Y-60061904D01*
X208738095Y-60157142D01*
X208690476Y-60204761D01*
X208595238Y-60252380D01*
X208309523Y-60252380D01*
X208214285Y-60204761D01*
X208166666Y-60157142D01*
X209357142Y-59680952D02*
X209261904Y-59633333D01*
X209214285Y-59585714D01*
X209166666Y-59490476D01*
X209166666Y-59442857D01*
X209214285Y-59347619D01*
X209261904Y-59300000D01*
X209357142Y-59252380D01*
X209547619Y-59252380D01*
X209642857Y-59300000D01*
X209690476Y-59347619D01*
X209738095Y-59442857D01*
X209738095Y-59490476D01*
X209690476Y-59585714D01*
X209642857Y-59633333D01*
X209547619Y-59680952D01*
X209357142Y-59680952D01*
X209261904Y-59728571D01*
X209214285Y-59776190D01*
X209166666Y-59871428D01*
X209166666Y-60061904D01*
X209214285Y-60157142D01*
X209261904Y-60204761D01*
X209357142Y-60252380D01*
X209547619Y-60252380D01*
X209642857Y-60204761D01*
X209690476Y-60157142D01*
X209738095Y-60061904D01*
X209738095Y-59871428D01*
X209690476Y-59776190D01*
X209642857Y-59728571D01*
X209547619Y-59680952D01*
X205785714Y-58352380D02*
X205785714Y-57352380D01*
X206166666Y-57352380D01*
X206261904Y-57400000D01*
X206309523Y-57447619D01*
X206357142Y-57542857D01*
X206357142Y-57685714D01*
X206309523Y-57780952D01*
X206261904Y-57828571D01*
X206166666Y-57876190D01*
X205785714Y-57876190D01*
X206785714Y-58352380D02*
X206785714Y-57352380D01*
X206785714Y-57733333D02*
X206880952Y-57685714D01*
X207071428Y-57685714D01*
X207166666Y-57733333D01*
X207214285Y-57780952D01*
X207261904Y-57876190D01*
X207261904Y-58161904D01*
X207214285Y-58257142D01*
X207166666Y-58304761D01*
X207071428Y-58352380D01*
X206880952Y-58352380D01*
X206785714Y-58304761D01*
X208461904Y-64652380D02*
X207985714Y-64652380D01*
X207938095Y-65128571D01*
X207985714Y-65080952D01*
X208080952Y-65033333D01*
X208319047Y-65033333D01*
X208414285Y-65080952D01*
X208461904Y-65128571D01*
X208509523Y-65223809D01*
X208509523Y-65461904D01*
X208461904Y-65557142D01*
X208414285Y-65604761D01*
X208319047Y-65652380D01*
X208080952Y-65652380D01*
X207985714Y-65604761D01*
X207938095Y-65557142D01*
X208985714Y-65652380D02*
X209176190Y-65652380D01*
X209271428Y-65604761D01*
X209319047Y-65557142D01*
X209414285Y-65414285D01*
X209461904Y-65223809D01*
X209461904Y-64842857D01*
X209414285Y-64747619D01*
X209366666Y-64700000D01*
X209271428Y-64652380D01*
X209080952Y-64652380D01*
X208985714Y-64700000D01*
X208938095Y-64747619D01*
X208890476Y-64842857D01*
X208890476Y-65080952D01*
X208938095Y-65176190D01*
X208985714Y-65223809D01*
X209080952Y-65271428D01*
X209271428Y-65271428D01*
X209366666Y-65223809D01*
X209414285Y-65176190D01*
X209461904Y-65080952D01*
X208561904Y-67252380D02*
X208085714Y-67252380D01*
X208038095Y-67728571D01*
X208085714Y-67680952D01*
X208180952Y-67633333D01*
X208419047Y-67633333D01*
X208514285Y-67680952D01*
X208561904Y-67728571D01*
X208609523Y-67823809D01*
X208609523Y-68061904D01*
X208561904Y-68157142D01*
X208514285Y-68204761D01*
X208419047Y-68252380D01*
X208180952Y-68252380D01*
X208085714Y-68204761D01*
X208038095Y-68157142D01*
X208942857Y-67252380D02*
X209609523Y-67252380D01*
X209180952Y-68252380D01*
X203700000Y-57876190D02*
X203700000Y-58352380D01*
X203366666Y-57352380D02*
X203700000Y-57876190D01*
X204033333Y-57352380D01*
X208528571Y-58352380D02*
X208528571Y-57352380D01*
X208909523Y-57352380D01*
X209004761Y-57400000D01*
X209052380Y-57447619D01*
X209100000Y-57542857D01*
X209100000Y-57685714D01*
X209052380Y-57780952D01*
X209004761Y-57828571D01*
X208909523Y-57876190D01*
X208528571Y-57876190D01*
X209528571Y-58352380D02*
X209528571Y-57685714D01*
X209528571Y-57876190D02*
X209576190Y-57780952D01*
X209623809Y-57733333D01*
X209719047Y-57685714D01*
X209814285Y-57685714D01*
D10*
X186457142Y-64442857D02*
X186504761Y-64490476D01*
X186552380Y-64633333D01*
X186552380Y-64728571D01*
X186504761Y-64871428D01*
X186409523Y-64966666D01*
X186314285Y-65014285D01*
X186123809Y-65061904D01*
X185980952Y-65061904D01*
X185790476Y-65014285D01*
X185695238Y-64966666D01*
X185600000Y-64871428D01*
X185552380Y-64728571D01*
X185552380Y-64633333D01*
X185600000Y-64490476D01*
X185647619Y-64442857D01*
X185980952Y-63871428D02*
X185933333Y-63966666D01*
X185885714Y-64014285D01*
X185790476Y-64061904D01*
X185742857Y-64061904D01*
X185647619Y-64014285D01*
X185600000Y-63966666D01*
X185552380Y-63871428D01*
X185552380Y-63680952D01*
X185600000Y-63585714D01*
X185647619Y-63538095D01*
X185742857Y-63490476D01*
X185790476Y-63490476D01*
X185885714Y-63538095D01*
X185933333Y-63585714D01*
X185980952Y-63680952D01*
X185980952Y-63871428D01*
X186028571Y-63966666D01*
X186076190Y-64014285D01*
X186171428Y-64061904D01*
X186361904Y-64061904D01*
X186457142Y-64014285D01*
X186504761Y-63966666D01*
X186552380Y-63871428D01*
X186552380Y-63680952D01*
X186504761Y-63585714D01*
X186457142Y-63538095D01*
X186361904Y-63490476D01*
X186171428Y-63490476D01*
X186076190Y-63538095D01*
X186028571Y-63585714D01*
X185980952Y-63680952D01*
X185885714Y-62633333D02*
X186552380Y-62633333D01*
X185504761Y-62871428D02*
X186219047Y-63109523D01*
X186219047Y-62490476D01*
X191957142Y-64442857D02*
X192004761Y-64490476D01*
X192052380Y-64633333D01*
X192052380Y-64728571D01*
X192004761Y-64871428D01*
X191909523Y-64966666D01*
X191814285Y-65014285D01*
X191623809Y-65061904D01*
X191480952Y-65061904D01*
X191290476Y-65014285D01*
X191195238Y-64966666D01*
X191100000Y-64871428D01*
X191052380Y-64728571D01*
X191052380Y-64633333D01*
X191100000Y-64490476D01*
X191147619Y-64442857D01*
X191052380Y-63585714D02*
X191052380Y-63776190D01*
X191100000Y-63871428D01*
X191147619Y-63919047D01*
X191290476Y-64014285D01*
X191480952Y-64061904D01*
X191861904Y-64061904D01*
X191957142Y-64014285D01*
X192004761Y-63966666D01*
X192052380Y-63871428D01*
X192052380Y-63680952D01*
X192004761Y-63585714D01*
X191957142Y-63538095D01*
X191861904Y-63490476D01*
X191623809Y-63490476D01*
X191528571Y-63538095D01*
X191480952Y-63585714D01*
X191433333Y-63680952D01*
X191433333Y-63871428D01*
X191480952Y-63966666D01*
X191528571Y-64014285D01*
X191623809Y-64061904D01*
X192052380Y-63014285D02*
X192052380Y-62823809D01*
X192004761Y-62728571D01*
X191957142Y-62680952D01*
X191814285Y-62585714D01*
X191623809Y-62538095D01*
X191242857Y-62538095D01*
X191147619Y-62585714D01*
X191100000Y-62633333D01*
X191052380Y-62728571D01*
X191052380Y-62919047D01*
X191100000Y-63014285D01*
X191147619Y-63061904D01*
X191242857Y-63109523D01*
X191480952Y-63109523D01*
X191576190Y-63061904D01*
X191623809Y-63014285D01*
X191671428Y-62919047D01*
X191671428Y-62728571D01*
X191623809Y-62633333D01*
X191576190Y-62585714D01*
X191480952Y-62538095D01*
X197457142Y-64442857D02*
X197504761Y-64490476D01*
X197552380Y-64633333D01*
X197552380Y-64728571D01*
X197504761Y-64871428D01*
X197409523Y-64966666D01*
X197314285Y-65014285D01*
X197123809Y-65061904D01*
X196980952Y-65061904D01*
X196790476Y-65014285D01*
X196695238Y-64966666D01*
X196600000Y-64871428D01*
X196552380Y-64728571D01*
X196552380Y-64633333D01*
X196600000Y-64490476D01*
X196647619Y-64442857D01*
X196552380Y-63585714D02*
X196552380Y-63776190D01*
X196600000Y-63871428D01*
X196647619Y-63919047D01*
X196790476Y-64014285D01*
X196980952Y-64061904D01*
X197361904Y-64061904D01*
X197457142Y-64014285D01*
X197504761Y-63966666D01*
X197552380Y-63871428D01*
X197552380Y-63680952D01*
X197504761Y-63585714D01*
X197457142Y-63538095D01*
X197361904Y-63490476D01*
X197123809Y-63490476D01*
X197028571Y-63538095D01*
X196980952Y-63585714D01*
X196933333Y-63680952D01*
X196933333Y-63871428D01*
X196980952Y-63966666D01*
X197028571Y-64014285D01*
X197123809Y-64061904D01*
X196885714Y-62633333D02*
X197552380Y-62633333D01*
X196504761Y-62871428D02*
X197219047Y-63109523D01*
X197219047Y-62490476D01*
D12*
X192671267Y-58110000D02*
X192328733Y-58110000D01*
X192671267Y-57090000D02*
X192328733Y-57090000D01*
X198171267Y-58110000D02*
X197828733Y-58110000D01*
X198171267Y-57090000D02*
X197828733Y-57090000D01*
X187171267Y-57090000D02*
X186828733Y-57090000D01*
X187171267Y-58110000D02*
X186828733Y-58110000D01*
X192328733Y-56310000D02*
X192671267Y-56310000D01*
X192328733Y-55290000D02*
X192671267Y-55290000D01*
X190410000Y-56528733D02*
X190410000Y-56871267D01*
X189390000Y-56528733D02*
X189390000Y-56871267D01*
X197828733Y-56310000D02*
X198171267Y-56310000D01*
X197828733Y-55290000D02*
X198171267Y-55290000D01*
X194890000Y-56528733D02*
X194890000Y-56871267D01*
X195910000Y-56528733D02*
X195910000Y-56871267D01*
X186828733Y-56310000D02*
X187171267Y-56310000D01*
X186828733Y-55290000D02*
X187171267Y-55290000D01*
X184910000Y-56528733D02*
X184910000Y-56871267D01*
X183890000Y-56528733D02*
X183890000Y-56871267D01*
X204550000Y-58800000D02*
X204550000Y-61950000D01*
X202850000Y-58800000D02*
X202850000Y-61950000D01*
X204550000Y-58800000D02*
X202850000Y-58800000D01*
X202250000Y-58800000D02*
X202250000Y-61950000D01*
X200550000Y-58800000D02*
X200550000Y-61950000D01*
X202250000Y-58800000D02*
X200550000Y-58800000D01*
X202250000Y-54500000D02*
X200550000Y-54500000D01*
X200550000Y-54500000D02*
X200550000Y-57650000D01*
X202250000Y-54500000D02*
X202250000Y-57650000D01*
X183840000Y-60150000D02*
X183840000Y-68385000D01*
X183840000Y-68385000D02*
X188360000Y-68385000D01*
X188360000Y-68385000D02*
X188360000Y-60150000D01*
X193860000Y-68385000D02*
X193860000Y-60150000D01*
X189340000Y-60150000D02*
X189340000Y-68385000D01*
X189340000Y-68385000D02*
X193860000Y-68385000D01*
X194840000Y-68385000D02*
X199360000Y-68385000D01*
X199360000Y-68385000D02*
X199360000Y-60150000D01*
X194840000Y-60150000D02*
X194840000Y-68385000D01*
X205150000Y-58800000D02*
X205150000Y-61950000D01*
X206850000Y-58800000D02*
X205150000Y-58800000D01*
X206850000Y-58800000D02*
X206850000Y-61950000D01*
X202354724Y-65277500D02*
X201845276Y-65277500D01*
X202354724Y-66322500D02*
X201845276Y-66322500D01*
X201845276Y-64422500D02*
X202354724Y-64422500D01*
X201845276Y-63377500D02*
X202354724Y-63377500D01*
X202354724Y-67177500D02*
X201845276Y-67177500D01*
X202354724Y-68222500D02*
X201845276Y-68222500D01*
M02*
