%TF.GenerationSoftware,KiCad,Pcbnew,(6.0.0-0)*%
%TF.CreationDate,2022-08-03T15:32:13+03:00*%
%TF.ProjectId,miniRGBii,6d696e69-5247-4426-9969-2e6b69636164,1.1*%
%TF.SameCoordinates,Original*%
%TF.FileFunction,Copper,L1,Top*%
%TF.FilePolarity,Positive*%
%FSLAX46Y46*%
G04 Gerber Fmt 4.6, Leading zero omitted, Abs format (unit mm)*
G04 Created by KiCad (PCBNEW (6.0.0-0)) date 2022-08-03 15:32:13*
%MOMM*%
%LPD*%
G01*
G04 APERTURE LIST*
G04 Aperture macros list*
%AMRoundRect*
0 Rectangle with rounded corners*
0 $1 Rounding radius*
0 $2 $3 $4 $5 $6 $7 $8 $9 X,Y pos of 4 corners*
0 Add a 4 corners polygon primitive as box body*
4,1,4,$2,$3,$4,$5,$6,$7,$8,$9,$2,$3,0*
0 Add four circle primitives for the rounded corners*
1,1,$1+$1,$2,$3*
1,1,$1+$1,$4,$5*
1,1,$1+$1,$6,$7*
1,1,$1+$1,$8,$9*
0 Add four rect primitives between the rounded corners*
20,1,$1+$1,$2,$3,$4,$5,0*
20,1,$1+$1,$4,$5,$6,$7,0*
20,1,$1+$1,$6,$7,$8,$9,0*
20,1,$1+$1,$8,$9,$2,$3,0*%
G04 Aperture macros list end*
%TA.AperFunction,SMDPad,CuDef*%
%ADD10RoundRect,0.237500X0.287500X0.237500X-0.287500X0.237500X-0.287500X-0.237500X0.287500X-0.237500X0*%
%TD*%
%TA.AperFunction,SMDPad,CuDef*%
%ADD11RoundRect,0.237500X-0.287500X-0.237500X0.287500X-0.237500X0.287500X0.237500X-0.287500X0.237500X0*%
%TD*%
%TA.AperFunction,SMDPad,CuDef*%
%ADD12RoundRect,0.237500X-0.237500X0.287500X-0.237500X-0.287500X0.237500X-0.287500X0.237500X0.287500X0*%
%TD*%
%TA.AperFunction,SMDPad,CuDef*%
%ADD13R,1.000000X1.000000*%
%TD*%
%TA.AperFunction,SMDPad,CuDef*%
%ADD14RoundRect,0.250001X-0.499999X-0.924999X0.499999X-0.924999X0.499999X0.924999X-0.499999X0.924999X0*%
%TD*%
%TA.AperFunction,SMDPad,CuDef*%
%ADD15RoundRect,0.375000X-0.375000X-0.875000X0.375000X-0.875000X0.375000X0.875000X-0.375000X0.875000X0*%
%TD*%
%TA.AperFunction,SMDPad,CuDef*%
%ADD16RoundRect,0.375000X0.875000X-0.375000X0.875000X0.375000X-0.875000X0.375000X-0.875000X-0.375000X0*%
%TD*%
%TA.AperFunction,SMDPad,CuDef*%
%ADD17RoundRect,0.237500X0.250000X0.237500X-0.250000X0.237500X-0.250000X-0.237500X0.250000X-0.237500X0*%
%TD*%
%TA.AperFunction,SMDPad,CuDef*%
%ADD18RoundRect,0.237500X-0.250000X-0.237500X0.250000X-0.237500X0.250000X0.237500X-0.250000X0.237500X0*%
%TD*%
%TA.AperFunction,ViaPad*%
%ADD19C,0.800000*%
%TD*%
%TA.AperFunction,Conductor*%
%ADD20C,0.300000*%
%TD*%
%TA.AperFunction,Conductor*%
%ADD21C,0.400000*%
%TD*%
G04 APERTURE END LIST*
D10*
X203872500Y-62368000D03*
X205622500Y-62368000D03*
X203872500Y-58798000D03*
X205622500Y-58798000D03*
X203872500Y-55256000D03*
X205622500Y-55256000D03*
D11*
X205622500Y-60568000D03*
X203872500Y-60568000D03*
D12*
X202147500Y-62343000D03*
X202147500Y-60593000D03*
D11*
X205622500Y-56998000D03*
X203872500Y-56998000D03*
D12*
X202147500Y-58773000D03*
X202147500Y-57023000D03*
D11*
X205622500Y-53456000D03*
X203872500Y-53456000D03*
D12*
X202147500Y-55231000D03*
X202147500Y-53481000D03*
D13*
X210050000Y-60172000D03*
X210050000Y-57672000D03*
X207750000Y-60172000D03*
X207750000Y-57672000D03*
X207750000Y-55872000D03*
X207750000Y-53372000D03*
D14*
X199719000Y-54229000D03*
X196469000Y-54229000D03*
X199745000Y-61341000D03*
X196495000Y-61341000D03*
X199745000Y-57785000D03*
X196495000Y-57785000D03*
D13*
X212350000Y-60172000D03*
X212350000Y-57672000D03*
D15*
X218150000Y-53922000D03*
D16*
X217650000Y-60622000D03*
X217650000Y-66022000D03*
X217650000Y-63322000D03*
X217650000Y-57922000D03*
D15*
X215450000Y-53922000D03*
X212750000Y-53922000D03*
X210050000Y-53922000D03*
X212979000Y-65532000D03*
D17*
X207537500Y-64022000D03*
X209362500Y-64022000D03*
D18*
X209362500Y-62122000D03*
X207537500Y-62122000D03*
D17*
X207537500Y-65922000D03*
X209362500Y-65922000D03*
D19*
X209042000Y-55753000D03*
X210566000Y-62103000D03*
X212725000Y-62103000D03*
X201041000Y-56134000D03*
X201168000Y-54356000D03*
X201041000Y-59690000D03*
X211201000Y-58722000D03*
X210566000Y-63989000D03*
X210566000Y-65786000D03*
D20*
X208266000Y-57672000D02*
X207750000Y-57672000D01*
X205622500Y-56998000D02*
X206477000Y-56998000D01*
X209423000Y-56515000D02*
X208266000Y-57672000D01*
X206477000Y-56998000D02*
X207151000Y-57672000D01*
X210657000Y-56515000D02*
X209423000Y-56515000D01*
X212750000Y-53922000D02*
X212750000Y-54422000D01*
X207151000Y-57672000D02*
X207750000Y-57672000D01*
X212750000Y-54422000D02*
X210657000Y-56515000D01*
X205622500Y-56998000D02*
X205622500Y-58798000D01*
X213850000Y-60622000D02*
X217650000Y-60622000D01*
X207575000Y-62122000D02*
X208574999Y-61122001D01*
X198120000Y-54737000D02*
X198120000Y-62865000D01*
X199390000Y-64135000D02*
X205524500Y-64135000D01*
X213349999Y-61122001D02*
X213850000Y-60622000D01*
X205524500Y-64135000D02*
X207537500Y-62122000D01*
X198120000Y-62865000D02*
X199390000Y-64135000D01*
X197612000Y-54229000D02*
X198120000Y-54737000D01*
X196686500Y-54229000D02*
X197612000Y-54229000D01*
X208574999Y-61122001D02*
X213349999Y-61122001D01*
X217150000Y-66022000D02*
X214882000Y-63754000D01*
X206638000Y-65922000D02*
X207537500Y-65922000D01*
X210808992Y-64947010D02*
X208549990Y-64947010D01*
X208549990Y-64947010D02*
X207575000Y-65922000D01*
X195072000Y-62992000D02*
X196306511Y-64226511D01*
X212002002Y-63754000D02*
X210808992Y-64947010D01*
X214882000Y-63754000D02*
X212002002Y-63754000D01*
X196712500Y-57785000D02*
X195580000Y-57785000D01*
X197703511Y-64226511D02*
X198846511Y-65369511D01*
X206085511Y-65369511D02*
X206638000Y-65922000D01*
X198846511Y-65369511D02*
X206085511Y-65369511D01*
X195072000Y-58293000D02*
X195072000Y-62992000D01*
X217650000Y-66022000D02*
X217150000Y-66022000D01*
X196306511Y-64226511D02*
X197703511Y-64226511D01*
X195580000Y-57785000D02*
X195072000Y-58293000D01*
X217650000Y-63322000D02*
X217424990Y-63096990D01*
X208500010Y-63096990D02*
X208074072Y-63522928D01*
X196495000Y-62891000D02*
X197169030Y-63565030D01*
X205994000Y-64770000D02*
X206742000Y-64022000D01*
X208074072Y-63522928D02*
X207575000Y-64022000D01*
X196495000Y-61558500D02*
X196495000Y-62891000D01*
X197169030Y-63565030D02*
X197931030Y-63565030D01*
X199136000Y-64770000D02*
X205994000Y-64770000D01*
X197931030Y-63565030D02*
X199136000Y-64770000D01*
X206742000Y-64022000D02*
X207537500Y-64022000D01*
X217424990Y-63096990D02*
X208500010Y-63096990D01*
X209500000Y-53372000D02*
X210050000Y-53922000D01*
X207666000Y-53456000D02*
X207750000Y-53372000D01*
X205622500Y-53456000D02*
X207666000Y-53456000D01*
X205622500Y-53456000D02*
X205622500Y-55256000D01*
X207750000Y-53372000D02*
X209500000Y-53372000D01*
X215450000Y-53922000D02*
X215450000Y-54422000D01*
X212275000Y-55822000D02*
X210425000Y-57672000D01*
X215450000Y-54422000D02*
X214050000Y-55822000D01*
X205622500Y-60568000D02*
X205622500Y-60315500D01*
X210425000Y-57672000D02*
X210050000Y-57672000D01*
X208499511Y-59222489D02*
X210050000Y-57672000D01*
X206715511Y-59222489D02*
X208499511Y-59222489D01*
X205622500Y-60568000D02*
X205622500Y-62368000D01*
X205622500Y-60315500D02*
X206715511Y-59222489D01*
X214050000Y-55822000D02*
X212275000Y-55822000D01*
X200964500Y-62343000D02*
X199962500Y-61341000D01*
X203847500Y-62343000D02*
X203872500Y-62368000D01*
X202147500Y-62343000D02*
X200964500Y-62343000D01*
X202147500Y-62343000D02*
X203847500Y-62343000D01*
X203872500Y-62368000D02*
X203872500Y-60568000D01*
X202147500Y-55231000D02*
X203847500Y-55231000D01*
X200721000Y-55231000D02*
X199719000Y-54229000D01*
X203872500Y-55256000D02*
X203872500Y-53456000D01*
X202147500Y-55231000D02*
X200721000Y-55231000D01*
X203847500Y-55231000D02*
X203872500Y-55256000D01*
X200950500Y-58773000D02*
X199962500Y-57785000D01*
D21*
X202147500Y-58773000D02*
X203847500Y-58773000D01*
D20*
X203872500Y-58798000D02*
X203872500Y-56998000D01*
X202147500Y-58773000D02*
X200950500Y-58773000D01*
D21*
X203847500Y-58773000D02*
X203872500Y-58798000D01*
D20*
X215949990Y-56622010D02*
X218150000Y-54422000D01*
X217650000Y-57922000D02*
X212600000Y-57922000D01*
X213349990Y-56622010D02*
X215949990Y-56622010D01*
X212350000Y-57672000D02*
X212350000Y-57622000D01*
X212350000Y-57622000D02*
X213349990Y-56622010D01*
X212600000Y-57922000D02*
X212350000Y-57672000D01*
X218150000Y-54422000D02*
X218150000Y-53922000D01*
%TA.AperFunction,Conductor*%
G36*
X214711328Y-64224502D02*
G01*
X214732302Y-64241405D01*
X216062595Y-65571698D01*
X216096621Y-65634010D01*
X216099500Y-65660793D01*
X216099500Y-66450992D01*
X216105933Y-66521004D01*
X216154826Y-66677019D01*
X216158760Y-66683515D01*
X216158761Y-66683517D01*
X216187354Y-66730730D01*
X216205532Y-66799360D01*
X216183721Y-66866923D01*
X216128844Y-66911969D01*
X216079577Y-66922000D01*
X207983713Y-66922000D01*
X207915592Y-66901998D01*
X207869099Y-66848342D01*
X207858995Y-66778068D01*
X207888489Y-66713488D01*
X207937328Y-66678849D01*
X208054089Y-66632620D01*
X208171500Y-66543500D01*
X208260620Y-66426089D01*
X208287355Y-66358564D01*
X208311901Y-66296568D01*
X208311902Y-66296566D01*
X208314882Y-66289038D01*
X208325500Y-66201297D01*
X208325499Y-65860794D01*
X208345501Y-65792674D01*
X208362404Y-65771699D01*
X208699688Y-65434415D01*
X208762000Y-65400389D01*
X208788783Y-65397510D01*
X210774772Y-65397510D01*
X210789581Y-65398383D01*
X210823302Y-65402374D01*
X210832566Y-65400682D01*
X210832567Y-65400682D01*
X210880993Y-65391838D01*
X210884896Y-65391188D01*
X210933637Y-65383860D01*
X210933638Y-65383860D01*
X210942954Y-65382459D01*
X210949467Y-65379331D01*
X210956565Y-65378035D01*
X211008639Y-65350985D01*
X211012129Y-65349242D01*
X211065071Y-65323819D01*
X211070357Y-65318933D01*
X211070405Y-65318900D01*
X211076780Y-65315589D01*
X211081820Y-65311285D01*
X211119047Y-65274058D01*
X211122613Y-65270628D01*
X211157633Y-65238256D01*
X211164548Y-65231864D01*
X211168241Y-65225505D01*
X211173758Y-65219347D01*
X212151700Y-64241405D01*
X212214012Y-64207379D01*
X212240795Y-64204500D01*
X214643207Y-64204500D01*
X214711328Y-64224502D01*
G37*
%TD.AperFunction*%
%TA.AperFunction,Conductor*%
G36*
X211335340Y-63567492D02*
G01*
X211381833Y-63621148D01*
X211391937Y-63691422D01*
X211362443Y-63756002D01*
X211356314Y-63762585D01*
X210659294Y-64459605D01*
X210596982Y-64493631D01*
X210570199Y-64496510D01*
X208584210Y-64496510D01*
X208569401Y-64495637D01*
X208545033Y-64492753D01*
X208535680Y-64491646D01*
X208526416Y-64493338D01*
X208526415Y-64493338D01*
X208477989Y-64502182D01*
X208474087Y-64502831D01*
X208461617Y-64504706D01*
X208391279Y-64495056D01*
X208337325Y-64448909D01*
X208316885Y-64380919D01*
X208317795Y-64364970D01*
X208325044Y-64305063D01*
X208325500Y-64301297D01*
X208325499Y-63960794D01*
X208345501Y-63892674D01*
X208362404Y-63871699D01*
X208649708Y-63584395D01*
X208712020Y-63550369D01*
X208738803Y-63547490D01*
X211267219Y-63547490D01*
X211335340Y-63567492D01*
G37*
%TD.AperFunction*%
%TA.AperFunction,Conductor*%
G36*
X200696624Y-62706838D02*
G01*
X200711835Y-62716473D01*
X200736971Y-62735038D01*
X200751317Y-62745634D01*
X200758131Y-62748027D01*
X200764069Y-62752131D01*
X200773046Y-62754970D01*
X200773048Y-62754971D01*
X200820017Y-62769825D01*
X200823766Y-62771076D01*
X200879131Y-62790519D01*
X200886318Y-62790801D01*
X200886380Y-62790813D01*
X200893230Y-62792980D01*
X200899837Y-62793500D01*
X200952516Y-62793500D01*
X200957462Y-62793597D01*
X201014494Y-62795838D01*
X201021600Y-62793954D01*
X201029847Y-62793500D01*
X201310236Y-62793500D01*
X201378357Y-62813502D01*
X201427387Y-62873115D01*
X201433717Y-62889103D01*
X201433721Y-62889110D01*
X201436880Y-62897089D01*
X201526000Y-63014500D01*
X201643411Y-63103620D01*
X201666077Y-63112594D01*
X201772932Y-63154901D01*
X201772934Y-63154902D01*
X201780462Y-63157882D01*
X201868203Y-63168500D01*
X202147315Y-63168500D01*
X202426796Y-63168499D01*
X202430554Y-63168044D01*
X202430559Y-63168044D01*
X202506505Y-63158854D01*
X202514538Y-63157882D01*
X202522061Y-63154904D01*
X202522063Y-63154903D01*
X202628923Y-63112594D01*
X202651589Y-63103620D01*
X202769000Y-63014500D01*
X202858120Y-62897089D01*
X202861279Y-62889110D01*
X202861283Y-62889103D01*
X202867613Y-62873115D01*
X202911288Y-62817141D01*
X202984764Y-62793500D01*
X202995307Y-62793500D01*
X203063428Y-62813502D01*
X203105081Y-62857648D01*
X203108718Y-62864103D01*
X203111880Y-62872089D01*
X203201000Y-62989500D01*
X203318411Y-63078620D01*
X203368441Y-63098428D01*
X203447932Y-63129901D01*
X203447934Y-63129902D01*
X203455462Y-63132882D01*
X203543203Y-63143500D01*
X203872282Y-63143500D01*
X204201796Y-63143499D01*
X204205554Y-63143044D01*
X204205559Y-63143044D01*
X204281505Y-63133854D01*
X204289538Y-63132882D01*
X204297061Y-63129904D01*
X204297063Y-63129903D01*
X204376559Y-63098428D01*
X204426589Y-63078620D01*
X204544000Y-62989500D01*
X204633120Y-62872089D01*
X204636282Y-62864103D01*
X204637726Y-62861540D01*
X204688592Y-62812010D01*
X204758161Y-62797844D01*
X204824345Y-62823538D01*
X204857274Y-62861540D01*
X204858718Y-62864103D01*
X204861880Y-62872089D01*
X204951000Y-62989500D01*
X205068411Y-63078620D01*
X205118441Y-63098428D01*
X205197932Y-63129901D01*
X205197934Y-63129902D01*
X205205462Y-63132882D01*
X205293203Y-63143500D01*
X205574707Y-63143500D01*
X205642828Y-63163502D01*
X205689321Y-63217158D01*
X205699425Y-63287432D01*
X205669931Y-63352012D01*
X205663802Y-63358595D01*
X205374802Y-63647595D01*
X205312490Y-63681621D01*
X205285707Y-63684500D01*
X199628793Y-63684500D01*
X199560672Y-63664498D01*
X199539698Y-63647595D01*
X198856146Y-62964043D01*
X198822120Y-62901731D01*
X198827185Y-62830916D01*
X198869732Y-62774080D01*
X198936252Y-62749269D01*
X198991624Y-62757796D01*
X199112453Y-62805636D01*
X199120491Y-62806609D01*
X199120492Y-62806609D01*
X199152063Y-62810429D01*
X199202229Y-62816500D01*
X199744642Y-62816500D01*
X200287770Y-62816499D01*
X200291528Y-62816044D01*
X200291533Y-62816044D01*
X200369517Y-62806608D01*
X200369520Y-62806607D01*
X200377547Y-62805636D01*
X200517783Y-62750112D01*
X200560798Y-62717462D01*
X200627151Y-62692209D01*
X200696624Y-62706838D01*
G37*
%TD.AperFunction*%
%TA.AperFunction,Conductor*%
G36*
X216066298Y-61092502D02*
G01*
X216112791Y-61146158D01*
X216118410Y-61160817D01*
X216154826Y-61277019D01*
X216158761Y-61283516D01*
X216158762Y-61283519D01*
X216196905Y-61346501D01*
X216239521Y-61416869D01*
X216355131Y-61532479D01*
X216361633Y-61536416D01*
X216361632Y-61536416D01*
X216488481Y-61613238D01*
X216488484Y-61613239D01*
X216494981Y-61617174D01*
X216502231Y-61619446D01*
X216644613Y-61664067D01*
X216644616Y-61664068D01*
X216650996Y-61666067D01*
X216721008Y-61672500D01*
X218578992Y-61672500D01*
X218649004Y-61666067D01*
X218655384Y-61664068D01*
X218655387Y-61664067D01*
X218797769Y-61619446D01*
X218805019Y-61617174D01*
X218811519Y-61613238D01*
X218858730Y-61584646D01*
X218927360Y-61566468D01*
X218994923Y-61588279D01*
X219039969Y-61643156D01*
X219050000Y-61692423D01*
X219050000Y-62251577D01*
X219029998Y-62319698D01*
X218976342Y-62366191D01*
X218906068Y-62376295D01*
X218858730Y-62359354D01*
X218811517Y-62330761D01*
X218811515Y-62330760D01*
X218805019Y-62326826D01*
X218750693Y-62309801D01*
X218655387Y-62279933D01*
X218655384Y-62279932D01*
X218649004Y-62277933D01*
X218578992Y-62271500D01*
X216721008Y-62271500D01*
X216650996Y-62277933D01*
X216644616Y-62279932D01*
X216644613Y-62279933D01*
X216549307Y-62309801D01*
X216494981Y-62326826D01*
X216488484Y-62330761D01*
X216488481Y-62330762D01*
X216413297Y-62376295D01*
X216355131Y-62411521D01*
X216239521Y-62527131D01*
X216204013Y-62585763D01*
X216151619Y-62633667D01*
X216096239Y-62646490D01*
X208534229Y-62646490D01*
X208519420Y-62645617D01*
X208516603Y-62645284D01*
X208485699Y-62641626D01*
X208476436Y-62643318D01*
X208476433Y-62643318D01*
X208457889Y-62646705D01*
X208387283Y-62639267D01*
X208331907Y-62594838D01*
X208309341Y-62527523D01*
X208312878Y-62494100D01*
X208314882Y-62489038D01*
X208325500Y-62401297D01*
X208325499Y-62060794D01*
X208345501Y-61992674D01*
X208362404Y-61971699D01*
X208724697Y-61609406D01*
X208787009Y-61575380D01*
X208813792Y-61572501D01*
X213315779Y-61572501D01*
X213330588Y-61573374D01*
X213364309Y-61577365D01*
X213373573Y-61575673D01*
X213373574Y-61575673D01*
X213422000Y-61566829D01*
X213425903Y-61566179D01*
X213474644Y-61558851D01*
X213474645Y-61558851D01*
X213483961Y-61557450D01*
X213490474Y-61554322D01*
X213497572Y-61553026D01*
X213549646Y-61525976D01*
X213553136Y-61524233D01*
X213606078Y-61498810D01*
X213611364Y-61493924D01*
X213611412Y-61493891D01*
X213617787Y-61490580D01*
X213622827Y-61486276D01*
X213660054Y-61449049D01*
X213663620Y-61445619D01*
X213698640Y-61413247D01*
X213705555Y-61406855D01*
X213709248Y-61400496D01*
X213714765Y-61394338D01*
X213999698Y-61109405D01*
X214062010Y-61075379D01*
X214088793Y-61072500D01*
X215998177Y-61072500D01*
X216066298Y-61092502D01*
G37*
%TD.AperFunction*%
%TA.AperFunction,Conductor*%
G36*
X198779012Y-59011134D02*
G01*
X198796861Y-59030176D01*
X198852078Y-59102922D01*
X198972217Y-59194112D01*
X199112453Y-59249636D01*
X199120491Y-59250609D01*
X199120492Y-59250609D01*
X199152063Y-59254429D01*
X199202229Y-59260500D01*
X199744642Y-59260500D01*
X200287770Y-59260499D01*
X200291528Y-59260044D01*
X200291533Y-59260044D01*
X200369517Y-59250608D01*
X200369520Y-59250607D01*
X200377547Y-59249636D01*
X200517783Y-59194112D01*
X200524621Y-59188922D01*
X200524624Y-59188920D01*
X200563241Y-59159608D01*
X200629595Y-59134355D01*
X200699068Y-59148984D01*
X200714277Y-59158618D01*
X200722970Y-59165038D01*
X200737316Y-59175634D01*
X200744132Y-59178027D01*
X200750069Y-59182131D01*
X200759049Y-59184971D01*
X200759051Y-59184972D01*
X200771535Y-59188920D01*
X200806019Y-59199826D01*
X200809750Y-59201071D01*
X200856237Y-59217396D01*
X200856239Y-59217396D01*
X200865131Y-59220519D01*
X200872319Y-59220801D01*
X200872378Y-59220812D01*
X200879230Y-59222980D01*
X200885837Y-59223500D01*
X200938516Y-59223500D01*
X200943462Y-59223597D01*
X201000494Y-59225838D01*
X201007600Y-59223954D01*
X201015847Y-59223500D01*
X201310236Y-59223500D01*
X201378357Y-59243502D01*
X201427387Y-59303115D01*
X201433717Y-59319103D01*
X201433721Y-59319110D01*
X201436880Y-59327089D01*
X201526000Y-59444500D01*
X201643411Y-59533620D01*
X201705642Y-59558259D01*
X201772932Y-59584901D01*
X201772934Y-59584902D01*
X201780462Y-59587882D01*
X201868203Y-59598500D01*
X202147315Y-59598500D01*
X202426796Y-59598499D01*
X202430554Y-59598044D01*
X202430559Y-59598044D01*
X202506505Y-59588854D01*
X202514538Y-59587882D01*
X202522061Y-59584904D01*
X202522063Y-59584903D01*
X202591203Y-59557528D01*
X202651589Y-59533620D01*
X202769000Y-59444500D01*
X202858120Y-59327089D01*
X202860118Y-59328605D01*
X202901707Y-59288114D01*
X202960607Y-59273500D01*
X203027632Y-59273500D01*
X203095753Y-59293502D01*
X203127995Y-59323320D01*
X203182527Y-59395163D01*
X203201000Y-59419500D01*
X203318411Y-59508620D01*
X203368441Y-59528428D01*
X203426909Y-59551577D01*
X203455462Y-59562882D01*
X203455405Y-59563027D01*
X203512874Y-59597031D01*
X203544729Y-59660480D01*
X203537224Y-59731079D01*
X203492742Y-59786413D01*
X203456415Y-59803003D01*
X203455462Y-59803118D01*
X203318411Y-59857380D01*
X203201000Y-59946500D01*
X203111880Y-60063911D01*
X203099246Y-60095822D01*
X203063149Y-60186993D01*
X203057618Y-60200962D01*
X203047000Y-60288703D01*
X203047001Y-60847296D01*
X203047456Y-60851054D01*
X203047456Y-60851059D01*
X203056301Y-60924155D01*
X203057618Y-60935038D01*
X203060596Y-60942561D01*
X203060597Y-60942563D01*
X203087972Y-61011703D01*
X203111880Y-61072089D01*
X203201000Y-61189500D01*
X203318411Y-61278620D01*
X203326390Y-61281779D01*
X203326397Y-61281783D01*
X203342385Y-61288113D01*
X203398359Y-61331788D01*
X203422000Y-61405264D01*
X203422000Y-61530736D01*
X203401998Y-61598857D01*
X203342385Y-61647887D01*
X203326397Y-61654217D01*
X203326390Y-61654221D01*
X203318411Y-61657380D01*
X203201000Y-61746500D01*
X203195812Y-61753335D01*
X203127995Y-61842680D01*
X203070876Y-61884847D01*
X203027632Y-61892500D01*
X202984764Y-61892500D01*
X202916643Y-61872498D01*
X202867613Y-61812885D01*
X202861283Y-61796897D01*
X202861279Y-61796890D01*
X202858120Y-61788911D01*
X202769000Y-61671500D01*
X202651589Y-61582380D01*
X202577449Y-61553026D01*
X202522068Y-61531099D01*
X202522066Y-61531098D01*
X202514538Y-61528118D01*
X202426797Y-61517500D01*
X202147685Y-61517500D01*
X201868204Y-61517501D01*
X201864446Y-61517956D01*
X201864441Y-61517956D01*
X201798007Y-61525995D01*
X201780462Y-61528118D01*
X201772939Y-61531096D01*
X201772937Y-61531097D01*
X201717551Y-61553026D01*
X201643411Y-61582380D01*
X201526000Y-61671500D01*
X201436880Y-61788911D01*
X201433721Y-61796890D01*
X201433717Y-61796897D01*
X201427387Y-61812885D01*
X201383712Y-61868859D01*
X201310236Y-61892500D01*
X201203293Y-61892500D01*
X201135172Y-61872498D01*
X201114198Y-61855595D01*
X200832405Y-61573802D01*
X200798379Y-61511490D01*
X200795500Y-61484707D01*
X200795499Y-60377024D01*
X200795499Y-60373230D01*
X200795044Y-60369467D01*
X200785608Y-60291483D01*
X200785607Y-60291480D01*
X200784636Y-60283453D01*
X200729112Y-60143217D01*
X200637922Y-60023078D01*
X200517783Y-59931888D01*
X200377547Y-59876364D01*
X200369509Y-59875391D01*
X200369508Y-59875391D01*
X200337937Y-59871571D01*
X200287771Y-59865500D01*
X199745358Y-59865500D01*
X199202230Y-59865501D01*
X199198472Y-59865956D01*
X199198467Y-59865956D01*
X199120483Y-59875392D01*
X199120480Y-59875393D01*
X199112453Y-59876364D01*
X198972217Y-59931888D01*
X198852078Y-60023078D01*
X198802980Y-60087763D01*
X198796863Y-60095822D01*
X198739745Y-60137988D01*
X198668897Y-60142581D01*
X198606813Y-60108142D01*
X198573204Y-60045604D01*
X198570500Y-60019642D01*
X198570500Y-59106358D01*
X198590502Y-59038237D01*
X198644158Y-58991744D01*
X198714432Y-58981640D01*
X198779012Y-59011134D01*
G37*
%TD.AperFunction*%
%TA.AperFunction,Conductor*%
G36*
X198779012Y-55489387D02*
G01*
X198796861Y-55508430D01*
X198826078Y-55546922D01*
X198946217Y-55638112D01*
X199086453Y-55693636D01*
X199094491Y-55694609D01*
X199094492Y-55694609D01*
X199126063Y-55698429D01*
X199176229Y-55704500D01*
X199718642Y-55704500D01*
X200261770Y-55704499D01*
X200265528Y-55704044D01*
X200265533Y-55704044D01*
X200343517Y-55694608D01*
X200343520Y-55694607D01*
X200351547Y-55693636D01*
X200460073Y-55650667D01*
X200530773Y-55644188D01*
X200544450Y-55647684D01*
X200576516Y-55657825D01*
X200580266Y-55659076D01*
X200635631Y-55678519D01*
X200642818Y-55678801D01*
X200642880Y-55678813D01*
X200649730Y-55680980D01*
X200656337Y-55681500D01*
X200709016Y-55681500D01*
X200713962Y-55681597D01*
X200770994Y-55683838D01*
X200778100Y-55681954D01*
X200786347Y-55681500D01*
X201310236Y-55681500D01*
X201378357Y-55701502D01*
X201427387Y-55761115D01*
X201433717Y-55777103D01*
X201433721Y-55777110D01*
X201436880Y-55785089D01*
X201526000Y-55902500D01*
X201643411Y-55991620D01*
X201689450Y-56009848D01*
X201772932Y-56042901D01*
X201772934Y-56042902D01*
X201780462Y-56045882D01*
X201868203Y-56056500D01*
X202147315Y-56056500D01*
X202426796Y-56056499D01*
X202430554Y-56056044D01*
X202430559Y-56056044D01*
X202506505Y-56046854D01*
X202514538Y-56045882D01*
X202522061Y-56042904D01*
X202522063Y-56042903D01*
X202605550Y-56009848D01*
X202651589Y-55991620D01*
X202769000Y-55902500D01*
X202858120Y-55785089D01*
X202861279Y-55777110D01*
X202861283Y-55777103D01*
X202867613Y-55761115D01*
X202911288Y-55705141D01*
X202984764Y-55681500D01*
X202995307Y-55681500D01*
X203063428Y-55701502D01*
X203105081Y-55745648D01*
X203108718Y-55752102D01*
X203111880Y-55760089D01*
X203201000Y-55877500D01*
X203318411Y-55966620D01*
X203368441Y-55986428D01*
X203427593Y-56009848D01*
X203483567Y-56053522D01*
X203507044Y-56120525D01*
X203490568Y-56189584D01*
X203439373Y-56238772D01*
X203427592Y-56244152D01*
X203318411Y-56287380D01*
X203201000Y-56376500D01*
X203111880Y-56493911D01*
X203089224Y-56551135D01*
X203069497Y-56600960D01*
X203057618Y-56630962D01*
X203047000Y-56718703D01*
X203047001Y-57277296D01*
X203057618Y-57365038D01*
X203060596Y-57372561D01*
X203060597Y-57372563D01*
X203087972Y-57441703D01*
X203111880Y-57502089D01*
X203201000Y-57619500D01*
X203318411Y-57708620D01*
X203326390Y-57711779D01*
X203326397Y-57711783D01*
X203342385Y-57718113D01*
X203398359Y-57761788D01*
X203422000Y-57835264D01*
X203422000Y-57960736D01*
X203401998Y-58028857D01*
X203342385Y-58077887D01*
X203326397Y-58084217D01*
X203326390Y-58084221D01*
X203318411Y-58087380D01*
X203201000Y-58176500D01*
X203195812Y-58183335D01*
X203195807Y-58183340D01*
X203165946Y-58222680D01*
X203108828Y-58264847D01*
X203065584Y-58272500D01*
X202960607Y-58272500D01*
X202892486Y-58252498D01*
X202859678Y-58217728D01*
X202858120Y-58218911D01*
X202804671Y-58148495D01*
X202769000Y-58101500D01*
X202651589Y-58012380D01*
X202563338Y-57977439D01*
X202522068Y-57961099D01*
X202522066Y-57961098D01*
X202514538Y-57958118D01*
X202426797Y-57947500D01*
X202147685Y-57947500D01*
X201868204Y-57947501D01*
X201864446Y-57947956D01*
X201864441Y-57947956D01*
X201802048Y-57955506D01*
X201780462Y-57958118D01*
X201772939Y-57961096D01*
X201772937Y-57961097D01*
X201731662Y-57977439D01*
X201643411Y-58012380D01*
X201526000Y-58101500D01*
X201436880Y-58218911D01*
X201433721Y-58226890D01*
X201433717Y-58226897D01*
X201427387Y-58242885D01*
X201383712Y-58298859D01*
X201310236Y-58322500D01*
X201189293Y-58322500D01*
X201121172Y-58302498D01*
X201100198Y-58285595D01*
X200832405Y-58017802D01*
X200798379Y-57955490D01*
X200795500Y-57928707D01*
X200795499Y-56821024D01*
X200795499Y-56817230D01*
X200795044Y-56813467D01*
X200785608Y-56735483D01*
X200785607Y-56735480D01*
X200784636Y-56727453D01*
X200729112Y-56587217D01*
X200637922Y-56467078D01*
X200517783Y-56375888D01*
X200377547Y-56320364D01*
X200369509Y-56319391D01*
X200369508Y-56319391D01*
X200337937Y-56315571D01*
X200287771Y-56309500D01*
X199745358Y-56309500D01*
X199202230Y-56309501D01*
X199198472Y-56309956D01*
X199198467Y-56309956D01*
X199120483Y-56319392D01*
X199120480Y-56319393D01*
X199112453Y-56320364D01*
X198972217Y-56375888D01*
X198852078Y-56467078D01*
X198823704Y-56504460D01*
X198796863Y-56539822D01*
X198739745Y-56581988D01*
X198668897Y-56586581D01*
X198606813Y-56552142D01*
X198573204Y-56489604D01*
X198570500Y-56463642D01*
X198570500Y-55584611D01*
X198590502Y-55516490D01*
X198644158Y-55469997D01*
X198714432Y-55459893D01*
X198779012Y-55489387D01*
G37*
%TD.AperFunction*%
%TA.AperFunction,Conductor*%
G36*
X218994923Y-55388279D02*
G01*
X219039969Y-55443156D01*
X219050000Y-55492423D01*
X219050000Y-56851577D01*
X219029998Y-56919698D01*
X218976342Y-56966191D01*
X218906068Y-56976295D01*
X218858730Y-56959354D01*
X218811517Y-56930761D01*
X218811515Y-56930760D01*
X218805019Y-56926826D01*
X218741797Y-56907013D01*
X218655387Y-56879933D01*
X218655384Y-56879932D01*
X218649004Y-56877933D01*
X218578992Y-56871500D01*
X216721008Y-56871500D01*
X216650996Y-56877933D01*
X216650865Y-56876504D01*
X216587691Y-56870934D01*
X216531567Y-56827454D01*
X216507860Y-56760532D01*
X216524096Y-56691417D01*
X216544575Y-56664528D01*
X217699698Y-55509405D01*
X217762010Y-55475379D01*
X217788793Y-55472500D01*
X218578992Y-55472500D01*
X218649004Y-55466067D01*
X218655384Y-55464068D01*
X218655387Y-55464067D01*
X218797769Y-55419446D01*
X218805019Y-55417174D01*
X218811519Y-55413238D01*
X218858730Y-55384646D01*
X218927360Y-55366468D01*
X218994923Y-55388279D01*
G37*
%TD.AperFunction*%
%TA.AperFunction,Conductor*%
G36*
X211747698Y-52542002D02*
G01*
X211794191Y-52595658D01*
X211804295Y-52665932D01*
X211787354Y-52713270D01*
X211762990Y-52753501D01*
X211754826Y-52766981D01*
X211752554Y-52774231D01*
X211711295Y-52905887D01*
X211705933Y-52922996D01*
X211699500Y-52993008D01*
X211699500Y-54783207D01*
X211679498Y-54851328D01*
X211662595Y-54872302D01*
X210507302Y-56027595D01*
X210444990Y-56061621D01*
X210418207Y-56064500D01*
X209457220Y-56064500D01*
X209442411Y-56063627D01*
X209418043Y-56060743D01*
X209408690Y-56059636D01*
X209399426Y-56061328D01*
X209399425Y-56061328D01*
X209350999Y-56070172D01*
X209347096Y-56070822D01*
X209298355Y-56078150D01*
X209298354Y-56078150D01*
X209289038Y-56079551D01*
X209282525Y-56082679D01*
X209275427Y-56083975D01*
X209223353Y-56111025D01*
X209219863Y-56112768D01*
X209166921Y-56138191D01*
X209161635Y-56143077D01*
X209161587Y-56143110D01*
X209155212Y-56146421D01*
X209150172Y-56150725D01*
X209112945Y-56187952D01*
X209109380Y-56191381D01*
X209067444Y-56230146D01*
X209063751Y-56236505D01*
X209058234Y-56242663D01*
X208454224Y-56846673D01*
X208391912Y-56880699D01*
X208331989Y-56879142D01*
X208328994Y-56878325D01*
X208320327Y-56874494D01*
X208294646Y-56871500D01*
X207205354Y-56871500D01*
X207201650Y-56871941D01*
X207201647Y-56871941D01*
X207194254Y-56872821D01*
X207179154Y-56874618D01*
X207127742Y-56897454D01*
X207057370Y-56906828D01*
X206993099Y-56876666D01*
X206987501Y-56871398D01*
X206819753Y-56703650D01*
X206809899Y-56692561D01*
X206794707Y-56673291D01*
X206794705Y-56673289D01*
X206788872Y-56665890D01*
X206781125Y-56660535D01*
X206781123Y-56660534D01*
X206740625Y-56632545D01*
X206737403Y-56630243D01*
X206697758Y-56600960D01*
X206697757Y-56600959D01*
X206690184Y-56595366D01*
X206683368Y-56592973D01*
X206677431Y-56588869D01*
X206668451Y-56586029D01*
X206668449Y-56586028D01*
X206648283Y-56579650D01*
X206621481Y-56571174D01*
X206617750Y-56569929D01*
X206571263Y-56553604D01*
X206571261Y-56553604D01*
X206562369Y-56550481D01*
X206555181Y-56550199D01*
X206555122Y-56550188D01*
X206548270Y-56548020D01*
X206541663Y-56547500D01*
X206488984Y-56547500D01*
X206484027Y-56547402D01*
X206480573Y-56547266D01*
X206413292Y-56524600D01*
X206384504Y-56492861D01*
X206383120Y-56493911D01*
X206299188Y-56383335D01*
X206294000Y-56376500D01*
X206176589Y-56287380D01*
X206067407Y-56244152D01*
X206011433Y-56200478D01*
X205987956Y-56133475D01*
X206004432Y-56064416D01*
X206055627Y-56015228D01*
X206067407Y-56009848D01*
X206126559Y-55986428D01*
X206176589Y-55966620D01*
X206294000Y-55877500D01*
X206383120Y-55760089D01*
X206410610Y-55690656D01*
X206434401Y-55630568D01*
X206434402Y-55630566D01*
X206437382Y-55623038D01*
X206448000Y-55535297D01*
X206447999Y-54976704D01*
X206437382Y-54888962D01*
X206423494Y-54853883D01*
X206391409Y-54772847D01*
X206383120Y-54751911D01*
X206294000Y-54634500D01*
X206176589Y-54545380D01*
X206168610Y-54542221D01*
X206168603Y-54542217D01*
X206152615Y-54535887D01*
X206096641Y-54492212D01*
X206073000Y-54418736D01*
X206073000Y-54293264D01*
X206093002Y-54225143D01*
X206152615Y-54176113D01*
X206168603Y-54169783D01*
X206168610Y-54169779D01*
X206176589Y-54166620D01*
X206294000Y-54077500D01*
X206383120Y-53960089D01*
X206385118Y-53961605D01*
X206426707Y-53921114D01*
X206485607Y-53906500D01*
X206854571Y-53906500D01*
X206922692Y-53926502D01*
X206969720Y-53981349D01*
X206998061Y-54045153D01*
X207006294Y-54053372D01*
X207006295Y-54053373D01*
X207030464Y-54077500D01*
X207077287Y-54124241D01*
X207087924Y-54128944D01*
X207087926Y-54128945D01*
X207147462Y-54155265D01*
X207179673Y-54169506D01*
X207205354Y-54172500D01*
X208294646Y-54172500D01*
X208298350Y-54172059D01*
X208298353Y-54172059D01*
X208305746Y-54171179D01*
X208320846Y-54169382D01*
X208423153Y-54123939D01*
X208502241Y-54044713D01*
X208547506Y-53942327D01*
X208548603Y-53932916D01*
X208551095Y-53923776D01*
X208552616Y-53924191D01*
X208576239Y-53868568D01*
X208634915Y-53828598D01*
X208673639Y-53822500D01*
X208873500Y-53822500D01*
X208941621Y-53842502D01*
X208988114Y-53896158D01*
X208999500Y-53948500D01*
X208999500Y-54850992D01*
X209005933Y-54921004D01*
X209007932Y-54927384D01*
X209007933Y-54927387D01*
X209046692Y-55051064D01*
X209054826Y-55077019D01*
X209058761Y-55083516D01*
X209058762Y-55083519D01*
X209117332Y-55180230D01*
X209139521Y-55216869D01*
X209255131Y-55332479D01*
X209261633Y-55336416D01*
X209261632Y-55336416D01*
X209388481Y-55413238D01*
X209388484Y-55413239D01*
X209394981Y-55417174D01*
X209402231Y-55419446D01*
X209544613Y-55464067D01*
X209544616Y-55464068D01*
X209550996Y-55466067D01*
X209621008Y-55472500D01*
X210478992Y-55472500D01*
X210549004Y-55466067D01*
X210555384Y-55464068D01*
X210555387Y-55464067D01*
X210697769Y-55419446D01*
X210705019Y-55417174D01*
X210711516Y-55413239D01*
X210711519Y-55413238D01*
X210838368Y-55336416D01*
X210838367Y-55336416D01*
X210844869Y-55332479D01*
X210960479Y-55216869D01*
X210982668Y-55180230D01*
X211041238Y-55083519D01*
X211041239Y-55083516D01*
X211045174Y-55077019D01*
X211053308Y-55051064D01*
X211092067Y-54927387D01*
X211092068Y-54927384D01*
X211094067Y-54921004D01*
X211100500Y-54850992D01*
X211100500Y-52993008D01*
X211094067Y-52922996D01*
X211088706Y-52905887D01*
X211047446Y-52774231D01*
X211045174Y-52766981D01*
X211037011Y-52753501D01*
X211012646Y-52713270D01*
X210994468Y-52644640D01*
X211016279Y-52577077D01*
X211071156Y-52532031D01*
X211120423Y-52522000D01*
X211679577Y-52522000D01*
X211747698Y-52542002D01*
G37*
%TD.AperFunction*%
%TA.AperFunction,Conductor*%
G36*
X217147698Y-52542002D02*
G01*
X217194191Y-52595658D01*
X217204295Y-52665932D01*
X217187354Y-52713270D01*
X217162990Y-52753501D01*
X217154826Y-52766981D01*
X217152554Y-52774231D01*
X217111295Y-52905887D01*
X217105933Y-52922996D01*
X217099500Y-52993008D01*
X217099500Y-54783207D01*
X217079498Y-54851328D01*
X217062595Y-54872302D01*
X215800292Y-56134605D01*
X215737980Y-56168631D01*
X215711197Y-56171510D01*
X214641783Y-56171510D01*
X214573662Y-56151508D01*
X214527169Y-56097852D01*
X214517065Y-56027578D01*
X214546559Y-55962998D01*
X214552688Y-55956415D01*
X214999698Y-55509405D01*
X215062010Y-55475379D01*
X215088793Y-55472500D01*
X215878992Y-55472500D01*
X215949004Y-55466067D01*
X215955384Y-55464068D01*
X215955387Y-55464067D01*
X216097769Y-55419446D01*
X216105019Y-55417174D01*
X216111516Y-55413239D01*
X216111519Y-55413238D01*
X216238368Y-55336416D01*
X216238367Y-55336416D01*
X216244869Y-55332479D01*
X216360479Y-55216869D01*
X216382668Y-55180230D01*
X216441238Y-55083519D01*
X216441239Y-55083516D01*
X216445174Y-55077019D01*
X216453308Y-55051064D01*
X216492067Y-54927387D01*
X216492068Y-54927384D01*
X216494067Y-54921004D01*
X216500500Y-54850992D01*
X216500500Y-52993008D01*
X216494067Y-52922996D01*
X216488706Y-52905887D01*
X216447446Y-52774231D01*
X216445174Y-52766981D01*
X216437011Y-52753501D01*
X216412646Y-52713270D01*
X216394468Y-52644640D01*
X216416279Y-52577077D01*
X216471156Y-52532031D01*
X216520423Y-52522000D01*
X217079577Y-52522000D01*
X217147698Y-52542002D01*
G37*
%TD.AperFunction*%
%TA.AperFunction,Conductor*%
G36*
X203306422Y-52542002D02*
G01*
X203352915Y-52595658D01*
X203363019Y-52665932D01*
X203333525Y-52730512D01*
X203314481Y-52748363D01*
X203201000Y-52834500D01*
X203111880Y-52951911D01*
X203106302Y-52965999D01*
X203063716Y-53073561D01*
X203057618Y-53088962D01*
X203047000Y-53176703D01*
X203047001Y-53735296D01*
X203047456Y-53739054D01*
X203047456Y-53739059D01*
X203052825Y-53783431D01*
X203057618Y-53823038D01*
X203060596Y-53830561D01*
X203060597Y-53830563D01*
X203084737Y-53891534D01*
X203111880Y-53960089D01*
X203201000Y-54077500D01*
X203318411Y-54166620D01*
X203326390Y-54169779D01*
X203326397Y-54169783D01*
X203342385Y-54176113D01*
X203398359Y-54219788D01*
X203422000Y-54293264D01*
X203422000Y-54418736D01*
X203401998Y-54486857D01*
X203342385Y-54535887D01*
X203326397Y-54542217D01*
X203326390Y-54542221D01*
X203318411Y-54545380D01*
X203201000Y-54634500D01*
X203195812Y-54641335D01*
X203127995Y-54730680D01*
X203070876Y-54772847D01*
X203027632Y-54780500D01*
X202984764Y-54780500D01*
X202916643Y-54760498D01*
X202867613Y-54700885D01*
X202861283Y-54684897D01*
X202861279Y-54684890D01*
X202858120Y-54676911D01*
X202769000Y-54559500D01*
X202651589Y-54470380D01*
X202589358Y-54445741D01*
X202522068Y-54419099D01*
X202522066Y-54419098D01*
X202514538Y-54416118D01*
X202426797Y-54405500D01*
X202147685Y-54405500D01*
X201868204Y-54405501D01*
X201864446Y-54405956D01*
X201864441Y-54405956D01*
X201811775Y-54412329D01*
X201780462Y-54416118D01*
X201772939Y-54419096D01*
X201772937Y-54419097D01*
X201703797Y-54446472D01*
X201643411Y-54470380D01*
X201526000Y-54559500D01*
X201436880Y-54676911D01*
X201433721Y-54684890D01*
X201433717Y-54684897D01*
X201427387Y-54700885D01*
X201383712Y-54756859D01*
X201310236Y-54780500D01*
X200959793Y-54780500D01*
X200891672Y-54760498D01*
X200870698Y-54743595D01*
X200806405Y-54679302D01*
X200772379Y-54616990D01*
X200769500Y-54590207D01*
X200769499Y-53265024D01*
X200769499Y-53261230D01*
X200769044Y-53257467D01*
X200759608Y-53179483D01*
X200759607Y-53179480D01*
X200758636Y-53171453D01*
X200703112Y-53031217D01*
X200611922Y-52911078D01*
X200491783Y-52819888D01*
X200353537Y-52765152D01*
X200297563Y-52721477D01*
X200274087Y-52654474D01*
X200290563Y-52585416D01*
X200341759Y-52536227D01*
X200399921Y-52522000D01*
X203238301Y-52522000D01*
X203306422Y-52542002D01*
G37*
%TD.AperFunction*%
%TA.AperFunction,Conductor*%
G36*
X199106200Y-52542002D02*
G01*
X199152693Y-52595658D01*
X199162797Y-52665932D01*
X199133303Y-52730512D01*
X199084463Y-52765152D01*
X198946217Y-52819888D01*
X198826078Y-52911078D01*
X198734888Y-53031217D01*
X198679364Y-53171453D01*
X198668500Y-53261229D01*
X198668501Y-54225143D01*
X198668501Y-54344208D01*
X198648499Y-54412329D01*
X198594843Y-54458822D01*
X198524569Y-54468926D01*
X198459989Y-54439433D01*
X198453406Y-54433303D01*
X198447048Y-54426945D01*
X198443618Y-54423379D01*
X198411246Y-54388359D01*
X198404854Y-54381444D01*
X198398495Y-54377751D01*
X198392337Y-54372234D01*
X197954753Y-53934650D01*
X197944899Y-53923561D01*
X197929707Y-53904291D01*
X197929705Y-53904289D01*
X197923872Y-53896890D01*
X197916125Y-53891535D01*
X197916123Y-53891534D01*
X197875625Y-53863545D01*
X197872403Y-53861243D01*
X197832758Y-53831960D01*
X197832757Y-53831959D01*
X197825184Y-53826366D01*
X197818368Y-53823973D01*
X197812431Y-53819869D01*
X197803451Y-53817029D01*
X197803449Y-53817028D01*
X197783283Y-53810650D01*
X197756481Y-53802174D01*
X197752750Y-53800929D01*
X197706263Y-53784604D01*
X197706261Y-53784604D01*
X197697369Y-53781481D01*
X197690181Y-53781199D01*
X197690122Y-53781188D01*
X197683270Y-53779020D01*
X197676663Y-53778500D01*
X197645499Y-53778500D01*
X197577378Y-53758498D01*
X197530885Y-53704842D01*
X197519499Y-53652500D01*
X197519499Y-53261230D01*
X197519044Y-53257467D01*
X197509608Y-53179483D01*
X197509607Y-53179480D01*
X197508636Y-53171453D01*
X197453112Y-53031217D01*
X197361922Y-52911078D01*
X197241783Y-52819888D01*
X197103537Y-52765152D01*
X197047563Y-52721477D01*
X197024087Y-52654474D01*
X197040563Y-52585416D01*
X197091759Y-52536227D01*
X197149921Y-52522000D01*
X199038079Y-52522000D01*
X199106200Y-52542002D01*
G37*
%TD.AperFunction*%
%TA.AperFunction,NonConductor*%
G36*
X211467532Y-57370737D02*
G01*
X211524368Y-57413284D01*
X211549179Y-57479804D01*
X211549500Y-57488793D01*
X211549500Y-58216646D01*
X211552618Y-58242846D01*
X211598061Y-58345153D01*
X211606294Y-58353372D01*
X211606295Y-58353373D01*
X211611278Y-58358347D01*
X211677287Y-58424241D01*
X211687924Y-58428944D01*
X211687926Y-58428945D01*
X211747462Y-58455265D01*
X211779673Y-58469506D01*
X211805354Y-58472500D01*
X212894646Y-58472500D01*
X212898350Y-58472059D01*
X212898353Y-58472059D01*
X212905746Y-58471179D01*
X212920846Y-58469382D01*
X212940122Y-58460820D01*
X213012519Y-58428663D01*
X213012521Y-58428661D01*
X213023153Y-58423939D01*
X213037586Y-58409481D01*
X213099867Y-58375403D01*
X213126757Y-58372500D01*
X215998177Y-58372500D01*
X216066298Y-58392502D01*
X216112791Y-58446158D01*
X216118410Y-58460817D01*
X216154826Y-58577019D01*
X216239521Y-58716869D01*
X216355131Y-58832479D01*
X216376929Y-58845680D01*
X216488481Y-58913238D01*
X216488484Y-58913239D01*
X216494981Y-58917174D01*
X216502231Y-58919446D01*
X216644613Y-58964067D01*
X216644616Y-58964068D01*
X216650996Y-58966067D01*
X216721008Y-58972500D01*
X218578992Y-58972500D01*
X218649004Y-58966067D01*
X218655384Y-58964068D01*
X218655387Y-58964067D01*
X218797769Y-58919446D01*
X218805019Y-58917174D01*
X218811519Y-58913238D01*
X218858730Y-58884646D01*
X218927360Y-58866468D01*
X218994923Y-58888279D01*
X219039969Y-58943156D01*
X219050000Y-58992423D01*
X219050000Y-59551577D01*
X219029998Y-59619698D01*
X218976342Y-59666191D01*
X218906068Y-59676295D01*
X218858730Y-59659354D01*
X218811517Y-59630761D01*
X218811515Y-59630760D01*
X218805019Y-59626826D01*
X218717179Y-59599298D01*
X218655387Y-59579933D01*
X218655384Y-59579932D01*
X218649004Y-59577933D01*
X218578992Y-59571500D01*
X216721008Y-59571500D01*
X216650996Y-59577933D01*
X216644616Y-59579932D01*
X216644613Y-59579933D01*
X216582821Y-59599298D01*
X216494981Y-59626826D01*
X216488484Y-59630761D01*
X216488481Y-59630762D01*
X216417314Y-59673862D01*
X216355131Y-59711521D01*
X216239521Y-59827131D01*
X216235584Y-59833632D01*
X216167230Y-59946500D01*
X216154826Y-59966981D01*
X216121947Y-60071898D01*
X216118411Y-60083180D01*
X216078953Y-60142202D01*
X216013850Y-60170521D01*
X215998177Y-60171500D01*
X213884219Y-60171500D01*
X213869410Y-60170627D01*
X213866593Y-60170294D01*
X213835689Y-60166636D01*
X213826426Y-60168328D01*
X213826419Y-60168328D01*
X213777982Y-60177175D01*
X213774083Y-60177825D01*
X213751353Y-60181242D01*
X213725356Y-60185150D01*
X213725355Y-60185150D01*
X213716038Y-60186551D01*
X213709525Y-60189679D01*
X213702427Y-60190975D01*
X213650347Y-60218028D01*
X213646845Y-60219777D01*
X213602413Y-60241113D01*
X213593921Y-60245191D01*
X213588636Y-60250077D01*
X213588589Y-60250108D01*
X213582211Y-60253421D01*
X213577172Y-60257725D01*
X213539945Y-60294952D01*
X213536380Y-60298381D01*
X213494444Y-60337146D01*
X213490751Y-60343505D01*
X213485234Y-60349663D01*
X213200301Y-60634596D01*
X213137989Y-60668622D01*
X213111206Y-60671501D01*
X208609218Y-60671501D01*
X208594409Y-60670628D01*
X208591592Y-60670295D01*
X208560688Y-60666637D01*
X208551425Y-60668329D01*
X208551418Y-60668329D01*
X208502981Y-60677176D01*
X208499082Y-60677826D01*
X208476352Y-60681243D01*
X208450355Y-60685151D01*
X208450354Y-60685151D01*
X208441037Y-60686552D01*
X208434524Y-60689680D01*
X208427426Y-60690976D01*
X208375346Y-60718029D01*
X208371844Y-60719778D01*
X208327412Y-60741114D01*
X208318920Y-60745192D01*
X208313635Y-60750078D01*
X208313588Y-60750109D01*
X208307210Y-60753422D01*
X208302171Y-60757726D01*
X208264944Y-60794953D01*
X208261379Y-60798382D01*
X208219443Y-60837147D01*
X208215750Y-60843506D01*
X208210233Y-60849664D01*
X207750302Y-61309595D01*
X207687990Y-61343621D01*
X207661207Y-61346500D01*
X207277399Y-61346501D01*
X207245704Y-61346501D01*
X207241946Y-61346956D01*
X207241941Y-61346956D01*
X207168845Y-61355801D01*
X207157962Y-61357118D01*
X207150439Y-61360096D01*
X207150437Y-61360097D01*
X207081297Y-61387472D01*
X207020911Y-61411380D01*
X206903500Y-61500500D01*
X206814380Y-61617911D01*
X206760118Y-61754962D01*
X206749500Y-61842703D01*
X206749500Y-61846492D01*
X206749501Y-62220706D01*
X206729499Y-62288826D01*
X206712596Y-62309801D01*
X206663094Y-62359303D01*
X206600782Y-62393329D01*
X206529967Y-62388264D01*
X206473131Y-62345717D01*
X206448320Y-62279197D01*
X206447999Y-62270208D01*
X206447999Y-62088704D01*
X206437382Y-62000962D01*
X206412516Y-61938156D01*
X206391409Y-61884847D01*
X206383120Y-61863911D01*
X206294000Y-61746500D01*
X206176589Y-61657380D01*
X206168610Y-61654221D01*
X206168603Y-61654217D01*
X206152615Y-61647887D01*
X206096641Y-61604212D01*
X206073000Y-61530736D01*
X206073000Y-61405264D01*
X206093002Y-61337143D01*
X206152615Y-61288113D01*
X206168603Y-61281783D01*
X206168610Y-61281779D01*
X206176589Y-61278620D01*
X206294000Y-61189500D01*
X206383120Y-61072089D01*
X206407759Y-61009858D01*
X206434401Y-60942568D01*
X206434402Y-60942566D01*
X206437382Y-60935038D01*
X206448000Y-60847297D01*
X206447999Y-60288704D01*
X206437921Y-60205419D01*
X206449595Y-60135390D01*
X206473914Y-60101189D01*
X206865209Y-59709894D01*
X206927521Y-59675868D01*
X206954304Y-59672989D01*
X208465291Y-59672989D01*
X208480100Y-59673862D01*
X208513821Y-59677853D01*
X208523085Y-59676161D01*
X208523086Y-59676161D01*
X208571512Y-59667317D01*
X208575415Y-59666667D01*
X208624156Y-59659339D01*
X208624157Y-59659339D01*
X208633473Y-59657938D01*
X208639986Y-59654810D01*
X208647084Y-59653514D01*
X208699158Y-59626464D01*
X208702648Y-59624721D01*
X208755590Y-59599298D01*
X208760876Y-59594412D01*
X208760924Y-59594379D01*
X208767299Y-59591068D01*
X208772339Y-59586764D01*
X208809566Y-59549537D01*
X208813132Y-59546107D01*
X208848152Y-59513735D01*
X208855067Y-59507343D01*
X208858760Y-59500984D01*
X208864277Y-59494826D01*
X209849698Y-58509405D01*
X209912010Y-58475379D01*
X209938793Y-58472500D01*
X210594646Y-58472500D01*
X210598350Y-58472059D01*
X210598353Y-58472059D01*
X210605746Y-58471179D01*
X210620846Y-58469382D01*
X210723153Y-58423939D01*
X210802241Y-58344713D01*
X210812062Y-58322500D01*
X210843675Y-58250992D01*
X210847506Y-58242327D01*
X210850500Y-58216646D01*
X210850500Y-57935793D01*
X210870502Y-57867672D01*
X210887405Y-57846698D01*
X211334405Y-57399698D01*
X211396717Y-57365672D01*
X211467532Y-57370737D01*
G37*
%TD.AperFunction*%
%TA.AperFunction,NonConductor*%
G36*
X195856200Y-52542002D02*
G01*
X195902693Y-52595658D01*
X195912797Y-52665932D01*
X195883303Y-52730512D01*
X195834463Y-52765152D01*
X195696217Y-52819888D01*
X195576078Y-52911078D01*
X195484888Y-53031217D01*
X195429364Y-53171453D01*
X195418500Y-53261229D01*
X195418501Y-55196770D01*
X195418956Y-55200528D01*
X195418956Y-55200533D01*
X195422228Y-55227568D01*
X195429364Y-55286547D01*
X195484888Y-55426783D01*
X195576078Y-55546922D01*
X195696217Y-55638112D01*
X195836453Y-55693636D01*
X195844491Y-55694609D01*
X195844492Y-55694609D01*
X195876063Y-55698429D01*
X195926229Y-55704500D01*
X196468642Y-55704500D01*
X197011770Y-55704499D01*
X197015528Y-55704044D01*
X197015533Y-55704044D01*
X197093517Y-55694608D01*
X197093520Y-55694607D01*
X197101547Y-55693636D01*
X197241783Y-55638112D01*
X197361922Y-55546922D01*
X197420311Y-55469997D01*
X197443137Y-55439925D01*
X197500255Y-55397758D01*
X197571103Y-55393165D01*
X197633187Y-55427604D01*
X197666796Y-55490142D01*
X197669500Y-55516104D01*
X197669500Y-56463642D01*
X197649498Y-56531763D01*
X197595842Y-56578256D01*
X197525568Y-56588360D01*
X197460988Y-56558866D01*
X197443137Y-56539822D01*
X197416296Y-56504460D01*
X197387922Y-56467078D01*
X197267783Y-56375888D01*
X197127547Y-56320364D01*
X197119509Y-56319391D01*
X197119508Y-56319391D01*
X197087937Y-56315571D01*
X197037771Y-56309500D01*
X196495358Y-56309500D01*
X195952230Y-56309501D01*
X195948472Y-56309956D01*
X195948467Y-56309956D01*
X195870483Y-56319392D01*
X195870480Y-56319393D01*
X195862453Y-56320364D01*
X195722217Y-56375888D01*
X195602078Y-56467078D01*
X195510888Y-56587217D01*
X195455364Y-56727453D01*
X195444500Y-56817229D01*
X195444500Y-57271020D01*
X195424498Y-57339141D01*
X195373042Y-57384603D01*
X195332414Y-57404112D01*
X195332411Y-57404114D01*
X195323921Y-57408191D01*
X195318636Y-57413076D01*
X195318589Y-57413108D01*
X195312211Y-57416421D01*
X195307172Y-57420725D01*
X195269945Y-57457952D01*
X195266380Y-57461381D01*
X195224444Y-57500146D01*
X195220751Y-57506505D01*
X195215234Y-57512663D01*
X194777650Y-57950247D01*
X194766561Y-57960101D01*
X194747291Y-57975293D01*
X194747289Y-57975295D01*
X194739890Y-57981128D01*
X194734535Y-57988875D01*
X194734534Y-57988877D01*
X194706545Y-58029375D01*
X194704250Y-58032587D01*
X194669366Y-58079816D01*
X194666973Y-58086632D01*
X194662869Y-58092569D01*
X194645705Y-58146842D01*
X194645182Y-58148495D01*
X194643929Y-58152250D01*
X194624481Y-58207631D01*
X194624199Y-58214819D01*
X194624188Y-58214878D01*
X194622020Y-58221730D01*
X194621500Y-58228337D01*
X194621500Y-58281016D01*
X194621403Y-58285962D01*
X194619162Y-58342994D01*
X194621046Y-58350100D01*
X194621500Y-58358347D01*
X194621500Y-62957780D01*
X194620627Y-62972589D01*
X194616636Y-63006310D01*
X194618328Y-63015574D01*
X194618328Y-63015575D01*
X194627172Y-63064001D01*
X194627822Y-63067904D01*
X194631501Y-63092370D01*
X194636551Y-63125962D01*
X194639679Y-63132475D01*
X194640975Y-63139573D01*
X194668025Y-63191647D01*
X194669768Y-63195137D01*
X194695191Y-63248079D01*
X194700077Y-63253365D01*
X194700110Y-63253413D01*
X194703421Y-63259788D01*
X194707725Y-63264828D01*
X194744952Y-63302055D01*
X194748381Y-63305620D01*
X194787146Y-63347556D01*
X194793505Y-63351249D01*
X194799663Y-63356766D01*
X195963758Y-64520861D01*
X195973612Y-64531950D01*
X195983057Y-64543930D01*
X195994639Y-64558621D01*
X196002386Y-64563976D01*
X196002388Y-64563977D01*
X196042886Y-64591966D01*
X196046108Y-64594268D01*
X196083287Y-64621729D01*
X196093327Y-64629145D01*
X196100143Y-64631538D01*
X196106080Y-64635642D01*
X196115060Y-64638482D01*
X196115062Y-64638483D01*
X196130926Y-64643500D01*
X196162030Y-64653337D01*
X196165761Y-64654582D01*
X196212248Y-64670907D01*
X196212250Y-64670907D01*
X196221142Y-64674030D01*
X196228330Y-64674312D01*
X196228389Y-64674323D01*
X196235241Y-64676491D01*
X196241848Y-64677011D01*
X196294527Y-64677011D01*
X196299473Y-64677108D01*
X196356505Y-64679349D01*
X196363611Y-64677465D01*
X196371855Y-64677011D01*
X197464718Y-64677011D01*
X197532839Y-64697013D01*
X197553813Y-64713916D01*
X198503758Y-65663861D01*
X198513612Y-65674950D01*
X198528804Y-65694220D01*
X198534639Y-65701621D01*
X198542386Y-65706976D01*
X198542388Y-65706977D01*
X198582886Y-65734966D01*
X198586098Y-65737261D01*
X198633327Y-65772145D01*
X198640143Y-65774538D01*
X198646080Y-65778642D01*
X198655060Y-65781482D01*
X198655062Y-65781483D01*
X198675228Y-65787861D01*
X198702030Y-65796337D01*
X198705761Y-65797582D01*
X198752248Y-65813907D01*
X198752250Y-65813907D01*
X198761142Y-65817030D01*
X198768330Y-65817312D01*
X198768389Y-65817323D01*
X198775241Y-65819491D01*
X198781848Y-65820011D01*
X198834527Y-65820011D01*
X198839473Y-65820108D01*
X198896505Y-65822349D01*
X198903611Y-65820465D01*
X198911858Y-65820011D01*
X205846718Y-65820011D01*
X205914839Y-65840013D01*
X205935813Y-65856916D01*
X206295247Y-66216350D01*
X206305101Y-66227439D01*
X206320293Y-66246709D01*
X206326128Y-66254110D01*
X206333875Y-66259465D01*
X206333877Y-66259466D01*
X206374375Y-66287455D01*
X206377587Y-66289750D01*
X206424816Y-66324634D01*
X206431632Y-66327027D01*
X206437569Y-66331131D01*
X206446549Y-66333971D01*
X206446551Y-66333972D01*
X206466717Y-66340350D01*
X206493519Y-66348826D01*
X206497250Y-66350071D01*
X206543737Y-66366396D01*
X206543739Y-66366396D01*
X206552631Y-66369519D01*
X206559819Y-66369801D01*
X206559878Y-66369812D01*
X206566730Y-66371980D01*
X206573337Y-66372500D01*
X206626016Y-66372500D01*
X206630962Y-66372597D01*
X206687994Y-66374838D01*
X206695100Y-66372954D01*
X206703344Y-66372500D01*
X206711893Y-66372500D01*
X206780014Y-66392502D01*
X206812822Y-66427272D01*
X206814380Y-66426089D01*
X206903500Y-66543500D01*
X207020911Y-66632620D01*
X207137672Y-66678849D01*
X207193644Y-66722522D01*
X207217121Y-66789525D01*
X207200645Y-66858584D01*
X207149450Y-66907773D01*
X207091287Y-66922000D01*
X194839271Y-66922000D01*
X194817392Y-66920086D01*
X194812855Y-66919286D01*
X194802000Y-66917372D01*
X194791143Y-66919286D01*
X194780632Y-66919286D01*
X194768285Y-66918679D01*
X194738986Y-66915794D01*
X194677786Y-66909766D01*
X194653563Y-66904948D01*
X194545991Y-66872317D01*
X194523178Y-66862867D01*
X194496004Y-66848342D01*
X194424040Y-66809876D01*
X194403506Y-66796155D01*
X194395428Y-66789525D01*
X194316617Y-66724847D01*
X194299152Y-66707382D01*
X194291042Y-66697500D01*
X194227843Y-66620491D01*
X194214122Y-66599957D01*
X194175333Y-66527387D01*
X194161132Y-66500820D01*
X194151683Y-66478009D01*
X194119052Y-66370437D01*
X194114234Y-66346214D01*
X194105321Y-66255718D01*
X194104714Y-66243368D01*
X194104714Y-66232857D01*
X194106628Y-66222000D01*
X194103914Y-66206608D01*
X194102000Y-66184729D01*
X194102000Y-53259271D01*
X194103914Y-53237392D01*
X194104714Y-53232855D01*
X194106628Y-53222000D01*
X194104714Y-53211143D01*
X194104714Y-53200632D01*
X194105321Y-53188282D01*
X194106462Y-53176703D01*
X194114234Y-53097786D01*
X194119052Y-53073561D01*
X194135904Y-53018007D01*
X194151683Y-52965991D01*
X194161133Y-52943178D01*
X194173243Y-52920522D01*
X194214124Y-52844040D01*
X194227845Y-52823506D01*
X194230815Y-52819888D01*
X194299153Y-52736617D01*
X194316618Y-52719152D01*
X194403509Y-52647843D01*
X194424040Y-52634124D01*
X194523180Y-52581132D01*
X194545991Y-52571683D01*
X194653563Y-52539052D01*
X194677786Y-52534234D01*
X194738986Y-52528206D01*
X194768285Y-52525321D01*
X194780632Y-52524714D01*
X194791143Y-52524714D01*
X194802000Y-52526628D01*
X194817392Y-52523914D01*
X194839271Y-52522000D01*
X195788079Y-52522000D01*
X195856200Y-52542002D01*
G37*
%TD.AperFunction*%
M02*
