G04 #@! TF.GenerationSoftware,KiCad,Pcbnew,(6.0.0-0)*
G04 #@! TF.CreationDate,2022-02-26T19:29:42+02:00*
G04 #@! TF.ProjectId,miniRGBii,6d696e69-5247-4426-9969-2e6b69636164,1.0*
G04 #@! TF.SameCoordinates,Original*
G04 #@! TF.FileFunction,Soldermask,Top*
G04 #@! TF.FilePolarity,Negative*
%FSLAX46Y46*%
G04 Gerber Fmt 4.6, Leading zero omitted, Abs format (unit mm)*
G04 Created by KiCad (PCBNEW (6.0.0-0)) date 2022-02-26 19:29:42*
%MOMM*%
%LPD*%
G01*
G04 APERTURE LIST*
G04 Aperture macros list*
%AMRoundRect*
0 Rectangle with rounded corners*
0 $1 Rounding radius*
0 $2 $3 $4 $5 $6 $7 $8 $9 X,Y pos of 4 corners*
0 Add a 4 corners polygon primitive as box body*
4,1,4,$2,$3,$4,$5,$6,$7,$8,$9,$2,$3,0*
0 Add four circle primitives for the rounded corners*
1,1,$1+$1,$2,$3*
1,1,$1+$1,$4,$5*
1,1,$1+$1,$6,$7*
1,1,$1+$1,$8,$9*
0 Add four rect primitives between the rounded corners*
20,1,$1+$1,$2,$3,$4,$5,0*
20,1,$1+$1,$4,$5,$6,$7,0*
20,1,$1+$1,$6,$7,$8,$9,0*
20,1,$1+$1,$8,$9,$2,$3,0*%
G04 Aperture macros list end*
%ADD10RoundRect,0.237500X0.287500X0.237500X-0.287500X0.237500X-0.287500X-0.237500X0.287500X-0.237500X0*%
%ADD11RoundRect,0.237500X-0.287500X-0.237500X0.287500X-0.237500X0.287500X0.237500X-0.287500X0.237500X0*%
%ADD12RoundRect,0.237500X-0.237500X0.287500X-0.237500X-0.287500X0.237500X-0.287500X0.237500X0.287500X0*%
%ADD13R,1.000000X1.000000*%
%ADD14RoundRect,0.250000X1.025000X-0.875000X1.025000X0.875000X-1.025000X0.875000X-1.025000X-0.875000X0*%
%ADD15RoundRect,0.375000X-0.375000X-0.875000X0.375000X-0.875000X0.375000X0.875000X-0.375000X0.875000X0*%
%ADD16RoundRect,0.375000X0.875000X-0.375000X0.875000X0.375000X-0.875000X0.375000X-0.875000X-0.375000X0*%
%ADD17RoundRect,0.375000X0.375000X0.875000X-0.375000X0.875000X-0.375000X-0.875000X0.375000X-0.875000X0*%
%ADD18RoundRect,0.237500X0.250000X0.237500X-0.250000X0.237500X-0.250000X-0.237500X0.250000X-0.237500X0*%
%ADD19RoundRect,0.237500X-0.250000X-0.237500X0.250000X-0.237500X0.250000X0.237500X-0.250000X0.237500X0*%
G04 APERTURE END LIST*
D10*
X193375000Y-57600000D03*
X191625000Y-57600000D03*
X198875000Y-57600000D03*
X197125000Y-57600000D03*
X187875000Y-57600000D03*
X186125000Y-57600000D03*
D11*
X191625000Y-55800000D03*
X193375000Y-55800000D03*
D12*
X189900000Y-55825000D03*
X189900000Y-57575000D03*
D11*
X197125000Y-55800000D03*
X198875000Y-55800000D03*
D12*
X195400000Y-55825000D03*
X195400000Y-57575000D03*
D11*
X186125000Y-55800000D03*
X187875000Y-55800000D03*
D12*
X184400000Y-55825000D03*
X184400000Y-57575000D03*
D13*
X203700000Y-59450000D03*
X203700000Y-61950000D03*
X201400000Y-59450000D03*
X201400000Y-61950000D03*
X201400000Y-55150000D03*
X201400000Y-57650000D03*
D14*
X186100000Y-67000000D03*
X186100000Y-60600000D03*
X191600000Y-67000000D03*
X191600000Y-60600000D03*
X197100000Y-67000000D03*
X197100000Y-60600000D03*
D13*
X206000000Y-59450000D03*
X206000000Y-61950000D03*
D15*
X211800000Y-55700000D03*
D16*
X211300000Y-62400000D03*
X211300000Y-67800000D03*
X211300000Y-65100000D03*
X211300000Y-59700000D03*
D15*
X209100000Y-55700000D03*
X206400000Y-55700000D03*
X203700000Y-55700000D03*
D17*
X206400000Y-67400000D03*
D18*
X203012500Y-65800000D03*
X201187500Y-65800000D03*
D19*
X203012500Y-63900000D03*
X201187500Y-63900000D03*
D18*
X203012500Y-67700000D03*
X201187500Y-67700000D03*
M02*
