G04 #@! TF.GenerationSoftware,KiCad,Pcbnew,(6.0.0-0)*
G04 #@! TF.CreationDate,2022-02-26T19:29:41+02:00*
G04 #@! TF.ProjectId,miniRGBii,6d696e69-5247-4426-9969-2e6b69636164,1.0*
G04 #@! TF.SameCoordinates,Original*
G04 #@! TF.FileFunction,Copper,L2,Bot*
G04 #@! TF.FilePolarity,Positive*
%FSLAX46Y46*%
G04 Gerber Fmt 4.6, Leading zero omitted, Abs format (unit mm)*
G04 Created by KiCad (PCBNEW (6.0.0-0)) date 2022-02-26 19:29:41*
%MOMM*%
%LPD*%
G01*
G04 APERTURE LIST*
G04 #@! TA.AperFunction,ViaPad*
%ADD10C,0.800000*%
G04 #@! TD*
G04 APERTURE END LIST*
D10*
X202600000Y-57700000D03*
X204200000Y-63900000D03*
X205100000Y-67900000D03*
X199800000Y-62800000D03*
X188900000Y-56700000D03*
X187000000Y-54800000D03*
X185000000Y-54800000D03*
X205000000Y-60500000D03*
X204190953Y-65790953D03*
X194400000Y-56700000D03*
X204200000Y-67900000D03*
G04 #@! TA.AperFunction,Conductor*
G36*
X211986593Y-54302264D02*
G01*
X212000000Y-54304628D01*
X212012837Y-54302365D01*
X212016688Y-54302365D01*
X212031288Y-54303082D01*
X212121962Y-54312012D01*
X212150610Y-54317711D01*
X212202221Y-54333367D01*
X212253835Y-54349024D01*
X212280820Y-54360201D01*
X212375958Y-54411054D01*
X212400240Y-54427279D01*
X212483631Y-54495715D01*
X212504284Y-54516368D01*
X212572721Y-54599760D01*
X212588946Y-54624042D01*
X212639799Y-54719180D01*
X212650977Y-54746167D01*
X212682289Y-54849390D01*
X212687988Y-54878038D01*
X212696918Y-54968712D01*
X212697635Y-54983312D01*
X212697635Y-54987163D01*
X212695372Y-55000000D01*
X212697636Y-55012838D01*
X212697736Y-55013407D01*
X212700000Y-55039280D01*
X212700000Y-67960720D01*
X212697736Y-67986593D01*
X212695372Y-68000000D01*
X212697635Y-68012837D01*
X212697635Y-68016688D01*
X212696918Y-68031288D01*
X212687988Y-68121962D01*
X212682289Y-68150610D01*
X212650977Y-68253833D01*
X212639799Y-68280820D01*
X212588946Y-68375958D01*
X212572721Y-68400240D01*
X212504285Y-68483631D01*
X212483632Y-68504284D01*
X212400240Y-68572721D01*
X212375958Y-68588946D01*
X212280820Y-68639799D01*
X212253835Y-68650976D01*
X212202221Y-68666633D01*
X212150610Y-68682289D01*
X212121962Y-68687988D01*
X212031288Y-68696918D01*
X212016688Y-68697635D01*
X212012837Y-68697635D01*
X212000000Y-68695372D01*
X211986593Y-68697736D01*
X211960720Y-68700000D01*
X184039280Y-68700000D01*
X184013407Y-68697736D01*
X184000000Y-68695372D01*
X183987163Y-68697635D01*
X183983312Y-68697635D01*
X183968712Y-68696918D01*
X183878038Y-68687988D01*
X183849390Y-68682289D01*
X183797779Y-68666633D01*
X183746165Y-68650976D01*
X183719180Y-68639799D01*
X183624042Y-68588946D01*
X183599760Y-68572721D01*
X183516368Y-68504284D01*
X183495715Y-68483631D01*
X183427279Y-68400240D01*
X183411054Y-68375958D01*
X183360201Y-68280820D01*
X183349023Y-68253833D01*
X183317711Y-68150610D01*
X183312012Y-68121962D01*
X183303082Y-68031288D01*
X183302365Y-68016688D01*
X183302365Y-68012837D01*
X183304628Y-68000000D01*
X183302264Y-67986593D01*
X183300000Y-67960720D01*
X183300000Y-55039280D01*
X183302264Y-55013407D01*
X183302364Y-55012838D01*
X183304628Y-55000000D01*
X183302365Y-54987163D01*
X183302365Y-54983312D01*
X183303082Y-54968712D01*
X183312012Y-54878038D01*
X183317711Y-54849390D01*
X183349023Y-54746167D01*
X183360201Y-54719180D01*
X183411054Y-54624042D01*
X183427279Y-54599760D01*
X183495716Y-54516368D01*
X183516369Y-54495715D01*
X183599760Y-54427279D01*
X183624042Y-54411054D01*
X183719180Y-54360201D01*
X183746165Y-54349024D01*
X183797779Y-54333367D01*
X183849390Y-54317711D01*
X183878038Y-54312012D01*
X183968712Y-54303082D01*
X183983312Y-54302365D01*
X183987163Y-54302365D01*
X184000000Y-54304628D01*
X184013407Y-54302264D01*
X184039280Y-54300000D01*
X211960720Y-54300000D01*
X211986593Y-54302264D01*
G37*
G04 #@! TD.AperFunction*
M02*
